M48
; DRILL file {KiCad 8.0.2} date 2024-10-27T15:33:05-0700
; FORMAT={-:-/ absolute / inch / decimal}
; #@! TF.CreationDate,2024-10-27T15:33:05-07:00
; #@! TF.GenerationSoftware,Kicad,Pcbnew,8.0.2
; #@! TF.FileFunction,Plated,1,4,PTH
FMAT,2
INCH
; #@! TA.AperFunction,Plated,PTH,ViaDrill
T1C0.0100
; #@! TA.AperFunction,Plated,PTH,ComponentDrill
T2C0.0100
; #@! TA.AperFunction,Plated,PTH,ComponentDrill
T3C0.0236
; #@! TA.AperFunction,Plated,PTH,ComponentDrill
T4C0.0394
%
G90
G05
T1
X2.3514Y-3.0573
X2.3994Y-5.1053
X2.4714Y-5.1533
X2.4904Y-2.846
X2.4964Y-3.3103
X2.4974Y-3.2853
X2.4983Y-4.909
X2.4984Y-3.3613
X2.5054Y-3.1683
X2.5124Y-3.0483
X2.5194Y-3.4863
X2.5234Y-3.4463
X2.5264Y-3.3943
X2.5302Y-3.3412
X2.5324Y-4.7963
X2.5434Y-3.1343
X2.5464Y-4.6293
X2.5464Y-4.6853
X2.5521Y-4.328
X2.5524Y-4.3553
X2.5644Y-4.6573
X2.5814Y-4.6293
X2.5814Y-4.6853
X2.5864Y-5.0823
X2.5954Y-3.2253
X2.6004Y-4.6573
X2.6046Y-4.4366
X2.6054Y-4.3063
X2.6054Y-4.3333
X2.6074Y-4.3593
X2.6084Y-3.3473
X2.6094Y-3.1643
X2.6134Y-4.2236
X2.6164Y-4.7909
X2.6184Y-3.4163
X2.6214Y-4.0043
X2.6224Y-4.0363
X2.6224Y-4.1223
X2.6234Y-4.0823
X2.6234Y-4.1603
X2.6244Y-4.2873
X2.6274Y-3.5893
X2.6326Y-4.4006
X2.6354Y-3.4923
X2.6364Y-2.9273
X2.6394Y-5.2273
X2.6414Y-4.8803
X2.6424Y-3.0643
X2.6434Y-3.7493
X2.644Y-3.608
X2.6444Y-3.6343
X2.6479Y-4.9484
X2.6554Y-3.9723
X2.6604Y-3.4813
X2.6614Y-3.3853
X2.6664Y-4.7513
X2.6664Y-4.8803
X2.6672Y-3.3085
X2.6684Y-3.2613
X2.6774Y-3.3464
X2.6794Y-3.9853
X2.6814Y-4.3743
X2.6844Y-3.0443
X2.6871Y-4.2786
X2.6874Y-3.4843
X2.6874Y-4.3113
X2.6894Y-4.0563
X2.6904Y-4.0843
X2.6904Y-4.1773
X2.6934Y-3.3843
X2.6934Y-3.4248
X2.6934Y-4.4233
X2.6984Y-3.1633
X2.6984Y-4.1333
X2.7133Y-3.2175
X2.721Y-3.5653
X2.7214Y-4.1083
X2.7214Y-4.4273
X2.7264Y-3.0623
X2.7354Y-3.1633
X2.7374Y-4.2203
X2.7374Y-4.2983
X2.7504Y-4.6843
X2.7504Y-4.9443
X2.7534Y-3.2193
X2.7554Y-4.1693
X2.7594Y-4.0563
X2.7599Y-4.0813
X2.7611Y-4.3263
X2.7614Y-3.7593
X2.7714Y-3.9403
X2.7738Y-4.6728
X2.7794Y-3.3243
X2.7794Y-4.0393
X2.7874Y-2.9363
X2.7874Y-3.6593
X2.7894Y-3.2203
X2.7924Y-4.2893
X2.7954Y-3.3923
X2.7971Y-4.3513
X2.8004Y-5.0523
X2.8084Y-3.2013
X2.8104Y-3.3463
X2.8154Y-3.6453
X2.8204Y-3.7603
X2.8254Y-3.4803
X2.8294Y-4.8333
X2.8341Y-3.229
X2.8344Y-4.3513
X2.8372Y-4.9313
X2.8374Y-3.3873
X2.8374Y-3.4283
X2.8384Y-4.5233
X2.8394Y-3.3243
X2.8394Y-4.4273
X2.8424Y-3.6603
X2.8494Y-3.2073
X2.8514Y-3.5893
X2.8574Y-4.0413
X2.8594Y-4.3524
X2.8628Y-4.9313
X2.8694Y-4.4273
X2.8714Y-3.6063
X2.8724Y-3.6453
X2.8774Y-2.8953
X2.8794Y-2.9293
X2.8794Y-5.0443
X2.8804Y-2.8583
X2.8804Y-3.7613
X2.8834Y-2.9638
X2.8904Y-3.2333
X2.8914Y-3.3223
X2.8914Y-4.5813
X2.892Y-3.1369
X2.8924Y-3.3883
X2.8944Y-3.4803
X2.8984Y-4.3573
X2.9034Y-4.0413
X2.9074Y-4.7193
X2.9074Y-4.7493
X2.9103Y-3.2485
X2.9154Y-5.0453
X2.9174Y-3.6513
X2.9241Y-4.51
X2.9244Y-4.4453
X2.9258Y-4.5437
X2.93Y-3.1369
X2.9304Y-3.3343
X2.9354Y-4.0413
X2.9384Y-3.7563
X2.9417Y-3.9465
X2.9444Y-4.0813
X2.9446Y-4.4303
X2.9464Y-2.9773
X2.9464Y-3.6513
X2.9504Y-3.5863
X2.9514Y-4.5583
X2.9534Y-3.2303
X2.9544Y-3.4323
X2.9544Y-3.4803
X2.9664Y-4.7653
X2.9694Y-4.0413
X2.9694Y-4.4273
X2.9754Y-4.7313
X2.9784Y-3.6533
X2.9794Y-4.2003
X2.9804Y-3.5853
X2.9974Y-3.7563
X2.9987Y-3.5683
X2.9996Y-4.2502
X2.9996Y-4.2758
X3.0014Y-4.9463
X3.0044Y-4.1603
X3.0054Y-4.1293
X3.0054Y-4.1863
X3.0064Y-2.835
X3.0074Y-3.2533
X3.0094Y-4.3033
X3.0164Y-4.8843
X3.0174Y-3.7933
X3.0304Y-3.3658
X3.0319Y-4.7398
X3.0321Y-3.4689
X3.0324Y-3.3113
X3.0324Y-3.4433
X3.0331Y-3.4069
X3.0404Y-3.9393
X3.0411Y-3.587
X3.0424Y-4.0133
X3.0454Y-3.2513
X3.0454Y-3.7553
X3.0464Y-3.2883
X3.0474Y-4.4933
X3.0474Y-4.5263
X3.0524Y-3.5563
X3.0534Y-4.3775
X3.0534Y-5.2453
X3.0554Y-3.4253
X3.0574Y-2.8353
X3.0614Y-4.4103
X3.0624Y-4.4363
X3.0674Y-4.9193
X3.0684Y-3.2703
X3.0744Y-3.1583
X3.0744Y-4.0273
X3.0774Y-4.1443
X3.0774Y-4.1763
X3.0774Y-4.7513
X3.0788Y-3.7206
X3.0794Y-4.7013
X3.0814Y-3.2483
X3.0854Y-3.0343
X3.0854Y-3.8493
X3.0858Y-3.4121
X3.0864Y-3.4473
X3.0866Y-3.3035
X3.0874Y-4.2433
X3.0979Y-3.7375
X3.1014Y-3.5863
X3.1014Y-4.0153
X3.1034Y-5.0153
X3.1124Y-3.0353
X3.1134Y-3.3113
X3.1164Y-4.0563
X3.1164Y-4.0853
X3.1164Y-4.1783
X3.1224Y-3.2513
X3.1244Y-2.8443
X3.1264Y-3.5164
X3.1264Y-3.8533
X3.1334Y-4.8293
X3.1344Y-4.8903
X3.1354Y-3.9923
X3.1374Y-3.5583
X3.1424Y-4.0353
X3.1434Y-4.9933
X3.1454Y-5.0733
X3.1474Y-2.9403
X3.1514Y-3.7243
X3.1544Y-4.0873
X3.1544Y-4.1793
X3.1594Y-3.5903
X3.1664Y-3.0163
X3.1674Y-3.0753
X3.1674Y-3.8553
X3.1744Y-4.4323
X3.1744Y-4.7203
X3.1754Y-4.3983
X3.1774Y-4.6143
X3.1834Y-4.2383
X3.2004Y-4.5263
X3.2074Y-4.7793
X3.2074Y-4.8063
X3.2114Y-3.0353
X3.2274Y-5.2553
X3.2294Y-3.0563
X3.2414Y-3.0863
X3.2574Y-3.0413
X3.2804Y-3.0863
X3.3214Y-3.0873
X3.3454Y-2.9913
X3.3764Y-3.0873
T2
X2.8165Y-4.1665
X2.8165Y-4.2
X2.8165Y-4.2335
X2.85Y-4.1665
X2.85Y-4.2
X2.85Y-4.2335
X2.8835Y-4.1665
X2.8835Y-4.2
X2.8835Y-4.2335
T4
X2.35Y-3.15
X2.35Y-3.25
X2.35Y-3.35
X2.35Y-3.45
X2.35Y-3.55
X2.35Y-3.65
X2.35Y-3.75
X2.35Y-3.85
X2.35Y-3.95
X2.35Y-4.05
X2.35Y-4.15
X2.35Y-4.25
X2.35Y-4.35
X2.35Y-4.45
X2.35Y-4.55
X2.35Y-4.65
X2.35Y-4.75
X2.35Y-4.85
X2.35Y-4.95
X2.35Y-5.05
X2.45Y-3.15
X2.45Y-3.25
X2.45Y-3.35
X2.45Y-3.45
X2.45Y-3.55
X2.45Y-3.65
X2.45Y-3.75
X2.45Y-3.85
X2.45Y-3.95
X2.45Y-4.05
X2.45Y-4.15
X2.45Y-4.25
X2.45Y-4.35
X2.45Y-4.45
X2.45Y-4.55
X2.45Y-4.65
X2.45Y-4.75
X2.45Y-4.85
X2.45Y-4.95
X2.45Y-5.05
X3.25Y-3.15
X3.25Y-3.25
X3.25Y-3.35
X3.25Y-3.45
X3.25Y-3.55
X3.25Y-3.65
X3.25Y-3.75
X3.25Y-3.85
X3.25Y-3.95
X3.25Y-4.05
X3.25Y-4.15
X3.25Y-4.25
X3.25Y-4.35
X3.25Y-4.45
X3.25Y-4.55
X3.25Y-4.65
X3.25Y-4.75
X3.25Y-4.85
X3.25Y-4.95
X3.25Y-5.05
X3.35Y-3.15
X3.35Y-3.25
X3.35Y-3.35
X3.35Y-3.45
X3.35Y-3.55
X3.35Y-3.65
X3.35Y-3.75
X3.35Y-3.85
X3.35Y-3.95
X3.35Y-4.05
X3.35Y-4.15
X3.35Y-4.25
X3.35Y-4.35
X3.35Y-4.45
X3.35Y-4.55
X3.35Y-4.65
X3.35Y-4.75
X3.35Y-4.85
X3.35Y-4.95
X3.35Y-5.05
T3
G00X2.6799Y-5.0101
M15
G01X2.6799Y-5.0534
M16
G05
G00X2.6799Y-5.1845
M15
G01X2.6799Y-5.2081
M16
G05
G00X3.0201Y-5.0101
M15
G01X3.0201Y-5.0534
M16
G05
G00X3.0201Y-5.1845
M15
G01X3.0201Y-5.2081
M16
G05
M30
