%TF.GenerationSoftware,KiCad,Pcbnew,8.0.2*%
%TF.CreationDate,2024-10-27T15:33:14-07:00*%
%TF.ProjectId,pico2-ice,7069636f-322d-4696-9365-2e6b69636164,REV1*%
%TF.SameCoordinates,Original*%
%TF.FileFunction,AssemblyDrawing,Top*%
%FSLAX46Y46*%
G04 Gerber Fmt 4.6, Leading zero omitted, Abs format (unit mm)*
G04 Created by KiCad (PCBNEW 8.0.2) date 2024-10-27 15:33:14*
%MOMM*%
%LPD*%
G01*
G04 APERTURE LIST*
%ADD10C,0.100000*%
%ADD11C,0.150000*%
%ADD12C,0.300000*%
%ADD13C,0.400000*%
%ADD14C,0.127000*%
%ADD15C,0.040000*%
%ADD16C,0.075000*%
%ADD17C,0.060000*%
%ADD18C,0.254000*%
%ADD19C,0.050000*%
%ADD20C,0.105000*%
%ADD21C,0.273607*%
%ADD22C,0.200000*%
G04 APERTURE END LIST*
D10*
D11*
X177002200Y-166007200D02*
X285002200Y-166007200D01*
X285002200Y-198007200D01*
X177002200Y-198007200D01*
X177002200Y-166007200D01*
D10*
D11*
X10000000Y-10000000D02*
X287002200Y-10000000D01*
X287002200Y-200007200D01*
X10000000Y-200007200D01*
X10000000Y-10000000D01*
D10*
D11*
X12000000Y-12000000D02*
X285002200Y-12000000D01*
X285002200Y-198007200D01*
X12000000Y-198007200D01*
X12000000Y-12000000D01*
D10*
D11*
X60000000Y-12000000D02*
X60000000Y-10000000D01*
D10*
D11*
X110000000Y-12000000D02*
X110000000Y-10000000D01*
D10*
D11*
X160000000Y-12000000D02*
X160000000Y-10000000D01*
D10*
D11*
X210000000Y-12000000D02*
X210000000Y-10000000D01*
D10*
D11*
X260000000Y-12000000D02*
X260000000Y-10000000D01*
D10*
D11*
X36089160Y-11593604D02*
X35346303Y-11593604D01*
X35717731Y-11593604D02*
X35717731Y-10293604D01*
X35717731Y-10293604D02*
X35593922Y-10479319D01*
X35593922Y-10479319D02*
X35470112Y-10603128D01*
X35470112Y-10603128D02*
X35346303Y-10665033D01*
D10*
D11*
X85346303Y-10417414D02*
X85408207Y-10355509D01*
X85408207Y-10355509D02*
X85532017Y-10293604D01*
X85532017Y-10293604D02*
X85841541Y-10293604D01*
X85841541Y-10293604D02*
X85965350Y-10355509D01*
X85965350Y-10355509D02*
X86027255Y-10417414D01*
X86027255Y-10417414D02*
X86089160Y-10541223D01*
X86089160Y-10541223D02*
X86089160Y-10665033D01*
X86089160Y-10665033D02*
X86027255Y-10850747D01*
X86027255Y-10850747D02*
X85284398Y-11593604D01*
X85284398Y-11593604D02*
X86089160Y-11593604D01*
D10*
D11*
X135284398Y-10293604D02*
X136089160Y-10293604D01*
X136089160Y-10293604D02*
X135655826Y-10788842D01*
X135655826Y-10788842D02*
X135841541Y-10788842D01*
X135841541Y-10788842D02*
X135965350Y-10850747D01*
X135965350Y-10850747D02*
X136027255Y-10912652D01*
X136027255Y-10912652D02*
X136089160Y-11036461D01*
X136089160Y-11036461D02*
X136089160Y-11345985D01*
X136089160Y-11345985D02*
X136027255Y-11469795D01*
X136027255Y-11469795D02*
X135965350Y-11531700D01*
X135965350Y-11531700D02*
X135841541Y-11593604D01*
X135841541Y-11593604D02*
X135470112Y-11593604D01*
X135470112Y-11593604D02*
X135346303Y-11531700D01*
X135346303Y-11531700D02*
X135284398Y-11469795D01*
D10*
D11*
X185965350Y-10726938D02*
X185965350Y-11593604D01*
X185655826Y-10231700D02*
X185346303Y-11160271D01*
X185346303Y-11160271D02*
X186151064Y-11160271D01*
D10*
D11*
X236027255Y-10293604D02*
X235408207Y-10293604D01*
X235408207Y-10293604D02*
X235346303Y-10912652D01*
X235346303Y-10912652D02*
X235408207Y-10850747D01*
X235408207Y-10850747D02*
X235532017Y-10788842D01*
X235532017Y-10788842D02*
X235841541Y-10788842D01*
X235841541Y-10788842D02*
X235965350Y-10850747D01*
X235965350Y-10850747D02*
X236027255Y-10912652D01*
X236027255Y-10912652D02*
X236089160Y-11036461D01*
X236089160Y-11036461D02*
X236089160Y-11345985D01*
X236089160Y-11345985D02*
X236027255Y-11469795D01*
X236027255Y-11469795D02*
X235965350Y-11531700D01*
X235965350Y-11531700D02*
X235841541Y-11593604D01*
X235841541Y-11593604D02*
X235532017Y-11593604D01*
X235532017Y-11593604D02*
X235408207Y-11531700D01*
X235408207Y-11531700D02*
X235346303Y-11469795D01*
D10*
D11*
X285965350Y-10293604D02*
X285717731Y-10293604D01*
X285717731Y-10293604D02*
X285593922Y-10355509D01*
X285593922Y-10355509D02*
X285532017Y-10417414D01*
X285532017Y-10417414D02*
X285408207Y-10603128D01*
X285408207Y-10603128D02*
X285346303Y-10850747D01*
X285346303Y-10850747D02*
X285346303Y-11345985D01*
X285346303Y-11345985D02*
X285408207Y-11469795D01*
X285408207Y-11469795D02*
X285470112Y-11531700D01*
X285470112Y-11531700D02*
X285593922Y-11593604D01*
X285593922Y-11593604D02*
X285841541Y-11593604D01*
X285841541Y-11593604D02*
X285965350Y-11531700D01*
X285965350Y-11531700D02*
X286027255Y-11469795D01*
X286027255Y-11469795D02*
X286089160Y-11345985D01*
X286089160Y-11345985D02*
X286089160Y-11036461D01*
X286089160Y-11036461D02*
X286027255Y-10912652D01*
X286027255Y-10912652D02*
X285965350Y-10850747D01*
X285965350Y-10850747D02*
X285841541Y-10788842D01*
X285841541Y-10788842D02*
X285593922Y-10788842D01*
X285593922Y-10788842D02*
X285470112Y-10850747D01*
X285470112Y-10850747D02*
X285408207Y-10912652D01*
X285408207Y-10912652D02*
X285346303Y-11036461D01*
D10*
D11*
X60000000Y-198007200D02*
X60000000Y-200007200D01*
D10*
D11*
X110000000Y-198007200D02*
X110000000Y-200007200D01*
D10*
D11*
X160000000Y-198007200D02*
X160000000Y-200007200D01*
D10*
D11*
X210000000Y-198007200D02*
X210000000Y-200007200D01*
D10*
D11*
X260000000Y-198007200D02*
X260000000Y-200007200D01*
D10*
D11*
X36089160Y-199600804D02*
X35346303Y-199600804D01*
X35717731Y-199600804D02*
X35717731Y-198300804D01*
X35717731Y-198300804D02*
X35593922Y-198486519D01*
X35593922Y-198486519D02*
X35470112Y-198610328D01*
X35470112Y-198610328D02*
X35346303Y-198672233D01*
D10*
D11*
X85346303Y-198424614D02*
X85408207Y-198362709D01*
X85408207Y-198362709D02*
X85532017Y-198300804D01*
X85532017Y-198300804D02*
X85841541Y-198300804D01*
X85841541Y-198300804D02*
X85965350Y-198362709D01*
X85965350Y-198362709D02*
X86027255Y-198424614D01*
X86027255Y-198424614D02*
X86089160Y-198548423D01*
X86089160Y-198548423D02*
X86089160Y-198672233D01*
X86089160Y-198672233D02*
X86027255Y-198857947D01*
X86027255Y-198857947D02*
X85284398Y-199600804D01*
X85284398Y-199600804D02*
X86089160Y-199600804D01*
D10*
D11*
X135284398Y-198300804D02*
X136089160Y-198300804D01*
X136089160Y-198300804D02*
X135655826Y-198796042D01*
X135655826Y-198796042D02*
X135841541Y-198796042D01*
X135841541Y-198796042D02*
X135965350Y-198857947D01*
X135965350Y-198857947D02*
X136027255Y-198919852D01*
X136027255Y-198919852D02*
X136089160Y-199043661D01*
X136089160Y-199043661D02*
X136089160Y-199353185D01*
X136089160Y-199353185D02*
X136027255Y-199476995D01*
X136027255Y-199476995D02*
X135965350Y-199538900D01*
X135965350Y-199538900D02*
X135841541Y-199600804D01*
X135841541Y-199600804D02*
X135470112Y-199600804D01*
X135470112Y-199600804D02*
X135346303Y-199538900D01*
X135346303Y-199538900D02*
X135284398Y-199476995D01*
D10*
D11*
X185965350Y-198734138D02*
X185965350Y-199600804D01*
X185655826Y-198238900D02*
X185346303Y-199167471D01*
X185346303Y-199167471D02*
X186151064Y-199167471D01*
D10*
D11*
X236027255Y-198300804D02*
X235408207Y-198300804D01*
X235408207Y-198300804D02*
X235346303Y-198919852D01*
X235346303Y-198919852D02*
X235408207Y-198857947D01*
X235408207Y-198857947D02*
X235532017Y-198796042D01*
X235532017Y-198796042D02*
X235841541Y-198796042D01*
X235841541Y-198796042D02*
X235965350Y-198857947D01*
X235965350Y-198857947D02*
X236027255Y-198919852D01*
X236027255Y-198919852D02*
X236089160Y-199043661D01*
X236089160Y-199043661D02*
X236089160Y-199353185D01*
X236089160Y-199353185D02*
X236027255Y-199476995D01*
X236027255Y-199476995D02*
X235965350Y-199538900D01*
X235965350Y-199538900D02*
X235841541Y-199600804D01*
X235841541Y-199600804D02*
X235532017Y-199600804D01*
X235532017Y-199600804D02*
X235408207Y-199538900D01*
X235408207Y-199538900D02*
X235346303Y-199476995D01*
D10*
D11*
X285965350Y-198300804D02*
X285717731Y-198300804D01*
X285717731Y-198300804D02*
X285593922Y-198362709D01*
X285593922Y-198362709D02*
X285532017Y-198424614D01*
X285532017Y-198424614D02*
X285408207Y-198610328D01*
X285408207Y-198610328D02*
X285346303Y-198857947D01*
X285346303Y-198857947D02*
X285346303Y-199353185D01*
X285346303Y-199353185D02*
X285408207Y-199476995D01*
X285408207Y-199476995D02*
X285470112Y-199538900D01*
X285470112Y-199538900D02*
X285593922Y-199600804D01*
X285593922Y-199600804D02*
X285841541Y-199600804D01*
X285841541Y-199600804D02*
X285965350Y-199538900D01*
X285965350Y-199538900D02*
X286027255Y-199476995D01*
X286027255Y-199476995D02*
X286089160Y-199353185D01*
X286089160Y-199353185D02*
X286089160Y-199043661D01*
X286089160Y-199043661D02*
X286027255Y-198919852D01*
X286027255Y-198919852D02*
X285965350Y-198857947D01*
X285965350Y-198857947D02*
X285841541Y-198796042D01*
X285841541Y-198796042D02*
X285593922Y-198796042D01*
X285593922Y-198796042D02*
X285470112Y-198857947D01*
X285470112Y-198857947D02*
X285408207Y-198919852D01*
X285408207Y-198919852D02*
X285346303Y-199043661D01*
D10*
D11*
X10000000Y-60000000D02*
X12000000Y-60000000D01*
D10*
D11*
X10000000Y-110000000D02*
X12000000Y-110000000D01*
D10*
D11*
X10000000Y-160000000D02*
X12000000Y-160000000D01*
D10*
D11*
X10690476Y-35222176D02*
X11309523Y-35222176D01*
X10566666Y-35593604D02*
X10999999Y-34293604D01*
X10999999Y-34293604D02*
X11433333Y-35593604D01*
D10*
D11*
X11092857Y-84912652D02*
X11278571Y-84974557D01*
X11278571Y-84974557D02*
X11340476Y-85036461D01*
X11340476Y-85036461D02*
X11402380Y-85160271D01*
X11402380Y-85160271D02*
X11402380Y-85345985D01*
X11402380Y-85345985D02*
X11340476Y-85469795D01*
X11340476Y-85469795D02*
X11278571Y-85531700D01*
X11278571Y-85531700D02*
X11154761Y-85593604D01*
X11154761Y-85593604D02*
X10659523Y-85593604D01*
X10659523Y-85593604D02*
X10659523Y-84293604D01*
X10659523Y-84293604D02*
X11092857Y-84293604D01*
X11092857Y-84293604D02*
X11216666Y-84355509D01*
X11216666Y-84355509D02*
X11278571Y-84417414D01*
X11278571Y-84417414D02*
X11340476Y-84541223D01*
X11340476Y-84541223D02*
X11340476Y-84665033D01*
X11340476Y-84665033D02*
X11278571Y-84788842D01*
X11278571Y-84788842D02*
X11216666Y-84850747D01*
X11216666Y-84850747D02*
X11092857Y-84912652D01*
X11092857Y-84912652D02*
X10659523Y-84912652D01*
D10*
D11*
X11402380Y-135469795D02*
X11340476Y-135531700D01*
X11340476Y-135531700D02*
X11154761Y-135593604D01*
X11154761Y-135593604D02*
X11030952Y-135593604D01*
X11030952Y-135593604D02*
X10845238Y-135531700D01*
X10845238Y-135531700D02*
X10721428Y-135407890D01*
X10721428Y-135407890D02*
X10659523Y-135284080D01*
X10659523Y-135284080D02*
X10597619Y-135036461D01*
X10597619Y-135036461D02*
X10597619Y-134850747D01*
X10597619Y-134850747D02*
X10659523Y-134603128D01*
X10659523Y-134603128D02*
X10721428Y-134479319D01*
X10721428Y-134479319D02*
X10845238Y-134355509D01*
X10845238Y-134355509D02*
X11030952Y-134293604D01*
X11030952Y-134293604D02*
X11154761Y-134293604D01*
X11154761Y-134293604D02*
X11340476Y-134355509D01*
X11340476Y-134355509D02*
X11402380Y-134417414D01*
D10*
D11*
X10659523Y-185593604D02*
X10659523Y-184293604D01*
X10659523Y-184293604D02*
X10969047Y-184293604D01*
X10969047Y-184293604D02*
X11154761Y-184355509D01*
X11154761Y-184355509D02*
X11278571Y-184479319D01*
X11278571Y-184479319D02*
X11340476Y-184603128D01*
X11340476Y-184603128D02*
X11402380Y-184850747D01*
X11402380Y-184850747D02*
X11402380Y-185036461D01*
X11402380Y-185036461D02*
X11340476Y-185284080D01*
X11340476Y-185284080D02*
X11278571Y-185407890D01*
X11278571Y-185407890D02*
X11154761Y-185531700D01*
X11154761Y-185531700D02*
X10969047Y-185593604D01*
X10969047Y-185593604D02*
X10659523Y-185593604D01*
D10*
D11*
X287002200Y-60000000D02*
X285002200Y-60000000D01*
D10*
D11*
X287002200Y-110000000D02*
X285002200Y-110000000D01*
D10*
D11*
X287002200Y-160000000D02*
X285002200Y-160000000D01*
D10*
D11*
X285692676Y-35222176D02*
X286311723Y-35222176D01*
X285568866Y-35593604D02*
X286002199Y-34293604D01*
X286002199Y-34293604D02*
X286435533Y-35593604D01*
D10*
D11*
X286095057Y-84912652D02*
X286280771Y-84974557D01*
X286280771Y-84974557D02*
X286342676Y-85036461D01*
X286342676Y-85036461D02*
X286404580Y-85160271D01*
X286404580Y-85160271D02*
X286404580Y-85345985D01*
X286404580Y-85345985D02*
X286342676Y-85469795D01*
X286342676Y-85469795D02*
X286280771Y-85531700D01*
X286280771Y-85531700D02*
X286156961Y-85593604D01*
X286156961Y-85593604D02*
X285661723Y-85593604D01*
X285661723Y-85593604D02*
X285661723Y-84293604D01*
X285661723Y-84293604D02*
X286095057Y-84293604D01*
X286095057Y-84293604D02*
X286218866Y-84355509D01*
X286218866Y-84355509D02*
X286280771Y-84417414D01*
X286280771Y-84417414D02*
X286342676Y-84541223D01*
X286342676Y-84541223D02*
X286342676Y-84665033D01*
X286342676Y-84665033D02*
X286280771Y-84788842D01*
X286280771Y-84788842D02*
X286218866Y-84850747D01*
X286218866Y-84850747D02*
X286095057Y-84912652D01*
X286095057Y-84912652D02*
X285661723Y-84912652D01*
D10*
D11*
X286404580Y-135469795D02*
X286342676Y-135531700D01*
X286342676Y-135531700D02*
X286156961Y-135593604D01*
X286156961Y-135593604D02*
X286033152Y-135593604D01*
X286033152Y-135593604D02*
X285847438Y-135531700D01*
X285847438Y-135531700D02*
X285723628Y-135407890D01*
X285723628Y-135407890D02*
X285661723Y-135284080D01*
X285661723Y-135284080D02*
X285599819Y-135036461D01*
X285599819Y-135036461D02*
X285599819Y-134850747D01*
X285599819Y-134850747D02*
X285661723Y-134603128D01*
X285661723Y-134603128D02*
X285723628Y-134479319D01*
X285723628Y-134479319D02*
X285847438Y-134355509D01*
X285847438Y-134355509D02*
X286033152Y-134293604D01*
X286033152Y-134293604D02*
X286156961Y-134293604D01*
X286156961Y-134293604D02*
X286342676Y-134355509D01*
X286342676Y-134355509D02*
X286404580Y-134417414D01*
D10*
D11*
X285661723Y-185593604D02*
X285661723Y-184293604D01*
X285661723Y-184293604D02*
X285971247Y-184293604D01*
X285971247Y-184293604D02*
X286156961Y-184355509D01*
X286156961Y-184355509D02*
X286280771Y-184479319D01*
X286280771Y-184479319D02*
X286342676Y-184603128D01*
X286342676Y-184603128D02*
X286404580Y-184850747D01*
X286404580Y-184850747D02*
X286404580Y-185036461D01*
X286404580Y-185036461D02*
X286342676Y-185284080D01*
X286342676Y-185284080D02*
X286280771Y-185407890D01*
X286280771Y-185407890D02*
X286156961Y-185531700D01*
X286156961Y-185531700D02*
X285971247Y-185593604D01*
X285971247Y-185593604D02*
X285661723Y-185593604D01*
D10*
D11*
X200458026Y-193793328D02*
X200458026Y-192293328D01*
X200458026Y-192293328D02*
X200815169Y-192293328D01*
X200815169Y-192293328D02*
X201029455Y-192364757D01*
X201029455Y-192364757D02*
X201172312Y-192507614D01*
X201172312Y-192507614D02*
X201243741Y-192650471D01*
X201243741Y-192650471D02*
X201315169Y-192936185D01*
X201315169Y-192936185D02*
X201315169Y-193150471D01*
X201315169Y-193150471D02*
X201243741Y-193436185D01*
X201243741Y-193436185D02*
X201172312Y-193579042D01*
X201172312Y-193579042D02*
X201029455Y-193721900D01*
X201029455Y-193721900D02*
X200815169Y-193793328D01*
X200815169Y-193793328D02*
X200458026Y-193793328D01*
X202600884Y-193793328D02*
X202600884Y-193007614D01*
X202600884Y-193007614D02*
X202529455Y-192864757D01*
X202529455Y-192864757D02*
X202386598Y-192793328D01*
X202386598Y-192793328D02*
X202100884Y-192793328D01*
X202100884Y-192793328D02*
X201958026Y-192864757D01*
X202600884Y-193721900D02*
X202458026Y-193793328D01*
X202458026Y-193793328D02*
X202100884Y-193793328D01*
X202100884Y-193793328D02*
X201958026Y-193721900D01*
X201958026Y-193721900D02*
X201886598Y-193579042D01*
X201886598Y-193579042D02*
X201886598Y-193436185D01*
X201886598Y-193436185D02*
X201958026Y-193293328D01*
X201958026Y-193293328D02*
X202100884Y-193221900D01*
X202100884Y-193221900D02*
X202458026Y-193221900D01*
X202458026Y-193221900D02*
X202600884Y-193150471D01*
X203100884Y-192793328D02*
X203672312Y-192793328D01*
X203315169Y-192293328D02*
X203315169Y-193579042D01*
X203315169Y-193579042D02*
X203386598Y-193721900D01*
X203386598Y-193721900D02*
X203529455Y-193793328D01*
X203529455Y-193793328D02*
X203672312Y-193793328D01*
X204743741Y-193721900D02*
X204600884Y-193793328D01*
X204600884Y-193793328D02*
X204315170Y-193793328D01*
X204315170Y-193793328D02*
X204172312Y-193721900D01*
X204172312Y-193721900D02*
X204100884Y-193579042D01*
X204100884Y-193579042D02*
X204100884Y-193007614D01*
X204100884Y-193007614D02*
X204172312Y-192864757D01*
X204172312Y-192864757D02*
X204315170Y-192793328D01*
X204315170Y-192793328D02*
X204600884Y-192793328D01*
X204600884Y-192793328D02*
X204743741Y-192864757D01*
X204743741Y-192864757D02*
X204815170Y-193007614D01*
X204815170Y-193007614D02*
X204815170Y-193150471D01*
X204815170Y-193150471D02*
X204100884Y-193293328D01*
X205458026Y-193650471D02*
X205529455Y-193721900D01*
X205529455Y-193721900D02*
X205458026Y-193793328D01*
X205458026Y-193793328D02*
X205386598Y-193721900D01*
X205386598Y-193721900D02*
X205458026Y-193650471D01*
X205458026Y-193650471D02*
X205458026Y-193793328D01*
X205458026Y-192864757D02*
X205529455Y-192936185D01*
X205529455Y-192936185D02*
X205458026Y-193007614D01*
X205458026Y-193007614D02*
X205386598Y-192936185D01*
X205386598Y-192936185D02*
X205458026Y-192864757D01*
X205458026Y-192864757D02*
X205458026Y-193007614D01*
X207243741Y-192436185D02*
X207315169Y-192364757D01*
X207315169Y-192364757D02*
X207458027Y-192293328D01*
X207458027Y-192293328D02*
X207815169Y-192293328D01*
X207815169Y-192293328D02*
X207958027Y-192364757D01*
X207958027Y-192364757D02*
X208029455Y-192436185D01*
X208029455Y-192436185D02*
X208100884Y-192579042D01*
X208100884Y-192579042D02*
X208100884Y-192721900D01*
X208100884Y-192721900D02*
X208029455Y-192936185D01*
X208029455Y-192936185D02*
X207172312Y-193793328D01*
X207172312Y-193793328D02*
X208100884Y-193793328D01*
X209029455Y-192293328D02*
X209172312Y-192293328D01*
X209172312Y-192293328D02*
X209315169Y-192364757D01*
X209315169Y-192364757D02*
X209386598Y-192436185D01*
X209386598Y-192436185D02*
X209458026Y-192579042D01*
X209458026Y-192579042D02*
X209529455Y-192864757D01*
X209529455Y-192864757D02*
X209529455Y-193221900D01*
X209529455Y-193221900D02*
X209458026Y-193507614D01*
X209458026Y-193507614D02*
X209386598Y-193650471D01*
X209386598Y-193650471D02*
X209315169Y-193721900D01*
X209315169Y-193721900D02*
X209172312Y-193793328D01*
X209172312Y-193793328D02*
X209029455Y-193793328D01*
X209029455Y-193793328D02*
X208886598Y-193721900D01*
X208886598Y-193721900D02*
X208815169Y-193650471D01*
X208815169Y-193650471D02*
X208743740Y-193507614D01*
X208743740Y-193507614D02*
X208672312Y-193221900D01*
X208672312Y-193221900D02*
X208672312Y-192864757D01*
X208672312Y-192864757D02*
X208743740Y-192579042D01*
X208743740Y-192579042D02*
X208815169Y-192436185D01*
X208815169Y-192436185D02*
X208886598Y-192364757D01*
X208886598Y-192364757D02*
X209029455Y-192293328D01*
X210100883Y-192436185D02*
X210172311Y-192364757D01*
X210172311Y-192364757D02*
X210315169Y-192293328D01*
X210315169Y-192293328D02*
X210672311Y-192293328D01*
X210672311Y-192293328D02*
X210815169Y-192364757D01*
X210815169Y-192364757D02*
X210886597Y-192436185D01*
X210886597Y-192436185D02*
X210958026Y-192579042D01*
X210958026Y-192579042D02*
X210958026Y-192721900D01*
X210958026Y-192721900D02*
X210886597Y-192936185D01*
X210886597Y-192936185D02*
X210029454Y-193793328D01*
X210029454Y-193793328D02*
X210958026Y-193793328D01*
X211529454Y-192436185D02*
X211600882Y-192364757D01*
X211600882Y-192364757D02*
X211743740Y-192293328D01*
X211743740Y-192293328D02*
X212100882Y-192293328D01*
X212100882Y-192293328D02*
X212243740Y-192364757D01*
X212243740Y-192364757D02*
X212315168Y-192436185D01*
X212315168Y-192436185D02*
X212386597Y-192579042D01*
X212386597Y-192579042D02*
X212386597Y-192721900D01*
X212386597Y-192721900D02*
X212315168Y-192936185D01*
X212315168Y-192936185D02*
X211458025Y-193793328D01*
X211458025Y-193793328D02*
X212386597Y-193793328D01*
X213029453Y-193221900D02*
X214172311Y-193221900D01*
X215172311Y-192293328D02*
X215315168Y-192293328D01*
X215315168Y-192293328D02*
X215458025Y-192364757D01*
X215458025Y-192364757D02*
X215529454Y-192436185D01*
X215529454Y-192436185D02*
X215600882Y-192579042D01*
X215600882Y-192579042D02*
X215672311Y-192864757D01*
X215672311Y-192864757D02*
X215672311Y-193221900D01*
X215672311Y-193221900D02*
X215600882Y-193507614D01*
X215600882Y-193507614D02*
X215529454Y-193650471D01*
X215529454Y-193650471D02*
X215458025Y-193721900D01*
X215458025Y-193721900D02*
X215315168Y-193793328D01*
X215315168Y-193793328D02*
X215172311Y-193793328D01*
X215172311Y-193793328D02*
X215029454Y-193721900D01*
X215029454Y-193721900D02*
X214958025Y-193650471D01*
X214958025Y-193650471D02*
X214886596Y-193507614D01*
X214886596Y-193507614D02*
X214815168Y-193221900D01*
X214815168Y-193221900D02*
X214815168Y-192864757D01*
X214815168Y-192864757D02*
X214886596Y-192579042D01*
X214886596Y-192579042D02*
X214958025Y-192436185D01*
X214958025Y-192436185D02*
X215029454Y-192364757D01*
X215029454Y-192364757D02*
X215172311Y-192293328D01*
X216529453Y-192936185D02*
X216386596Y-192864757D01*
X216386596Y-192864757D02*
X216315167Y-192793328D01*
X216315167Y-192793328D02*
X216243739Y-192650471D01*
X216243739Y-192650471D02*
X216243739Y-192579042D01*
X216243739Y-192579042D02*
X216315167Y-192436185D01*
X216315167Y-192436185D02*
X216386596Y-192364757D01*
X216386596Y-192364757D02*
X216529453Y-192293328D01*
X216529453Y-192293328D02*
X216815167Y-192293328D01*
X216815167Y-192293328D02*
X216958025Y-192364757D01*
X216958025Y-192364757D02*
X217029453Y-192436185D01*
X217029453Y-192436185D02*
X217100882Y-192579042D01*
X217100882Y-192579042D02*
X217100882Y-192650471D01*
X217100882Y-192650471D02*
X217029453Y-192793328D01*
X217029453Y-192793328D02*
X216958025Y-192864757D01*
X216958025Y-192864757D02*
X216815167Y-192936185D01*
X216815167Y-192936185D02*
X216529453Y-192936185D01*
X216529453Y-192936185D02*
X216386596Y-193007614D01*
X216386596Y-193007614D02*
X216315167Y-193079042D01*
X216315167Y-193079042D02*
X216243739Y-193221900D01*
X216243739Y-193221900D02*
X216243739Y-193507614D01*
X216243739Y-193507614D02*
X216315167Y-193650471D01*
X216315167Y-193650471D02*
X216386596Y-193721900D01*
X216386596Y-193721900D02*
X216529453Y-193793328D01*
X216529453Y-193793328D02*
X216815167Y-193793328D01*
X216815167Y-193793328D02*
X216958025Y-193721900D01*
X216958025Y-193721900D02*
X217029453Y-193650471D01*
X217029453Y-193650471D02*
X217100882Y-193507614D01*
X217100882Y-193507614D02*
X217100882Y-193221900D01*
X217100882Y-193221900D02*
X217029453Y-193079042D01*
X217029453Y-193079042D02*
X216958025Y-193007614D01*
X216958025Y-193007614D02*
X216815167Y-192936185D01*
X217743738Y-193221900D02*
X218886596Y-193221900D01*
X219529453Y-192436185D02*
X219600881Y-192364757D01*
X219600881Y-192364757D02*
X219743739Y-192293328D01*
X219743739Y-192293328D02*
X220100881Y-192293328D01*
X220100881Y-192293328D02*
X220243739Y-192364757D01*
X220243739Y-192364757D02*
X220315167Y-192436185D01*
X220315167Y-192436185D02*
X220386596Y-192579042D01*
X220386596Y-192579042D02*
X220386596Y-192721900D01*
X220386596Y-192721900D02*
X220315167Y-192936185D01*
X220315167Y-192936185D02*
X219458024Y-193793328D01*
X219458024Y-193793328D02*
X220386596Y-193793328D01*
X221672310Y-192793328D02*
X221672310Y-193793328D01*
X221315167Y-192221900D02*
X220958024Y-193293328D01*
X220958024Y-193293328D02*
X221886595Y-193293328D01*
D10*
D11*
X177002200Y-194507200D02*
X285002200Y-194507200D01*
D10*
D11*
X178458026Y-196593328D02*
X178458026Y-195093328D01*
X179315169Y-196593328D02*
X178672312Y-195736185D01*
X179315169Y-195093328D02*
X178458026Y-195950471D01*
X179958026Y-196593328D02*
X179958026Y-195593328D01*
X179958026Y-195093328D02*
X179886598Y-195164757D01*
X179886598Y-195164757D02*
X179958026Y-195236185D01*
X179958026Y-195236185D02*
X180029455Y-195164757D01*
X180029455Y-195164757D02*
X179958026Y-195093328D01*
X179958026Y-195093328D02*
X179958026Y-195236185D01*
X181529455Y-196450471D02*
X181458027Y-196521900D01*
X181458027Y-196521900D02*
X181243741Y-196593328D01*
X181243741Y-196593328D02*
X181100884Y-196593328D01*
X181100884Y-196593328D02*
X180886598Y-196521900D01*
X180886598Y-196521900D02*
X180743741Y-196379042D01*
X180743741Y-196379042D02*
X180672312Y-196236185D01*
X180672312Y-196236185D02*
X180600884Y-195950471D01*
X180600884Y-195950471D02*
X180600884Y-195736185D01*
X180600884Y-195736185D02*
X180672312Y-195450471D01*
X180672312Y-195450471D02*
X180743741Y-195307614D01*
X180743741Y-195307614D02*
X180886598Y-195164757D01*
X180886598Y-195164757D02*
X181100884Y-195093328D01*
X181100884Y-195093328D02*
X181243741Y-195093328D01*
X181243741Y-195093328D02*
X181458027Y-195164757D01*
X181458027Y-195164757D02*
X181529455Y-195236185D01*
X182815170Y-196593328D02*
X182815170Y-195807614D01*
X182815170Y-195807614D02*
X182743741Y-195664757D01*
X182743741Y-195664757D02*
X182600884Y-195593328D01*
X182600884Y-195593328D02*
X182315170Y-195593328D01*
X182315170Y-195593328D02*
X182172312Y-195664757D01*
X182815170Y-196521900D02*
X182672312Y-196593328D01*
X182672312Y-196593328D02*
X182315170Y-196593328D01*
X182315170Y-196593328D02*
X182172312Y-196521900D01*
X182172312Y-196521900D02*
X182100884Y-196379042D01*
X182100884Y-196379042D02*
X182100884Y-196236185D01*
X182100884Y-196236185D02*
X182172312Y-196093328D01*
X182172312Y-196093328D02*
X182315170Y-196021900D01*
X182315170Y-196021900D02*
X182672312Y-196021900D01*
X182672312Y-196021900D02*
X182815170Y-195950471D01*
X184172313Y-196593328D02*
X184172313Y-195093328D01*
X184172313Y-196521900D02*
X184029455Y-196593328D01*
X184029455Y-196593328D02*
X183743741Y-196593328D01*
X183743741Y-196593328D02*
X183600884Y-196521900D01*
X183600884Y-196521900D02*
X183529455Y-196450471D01*
X183529455Y-196450471D02*
X183458027Y-196307614D01*
X183458027Y-196307614D02*
X183458027Y-195879042D01*
X183458027Y-195879042D02*
X183529455Y-195736185D01*
X183529455Y-195736185D02*
X183600884Y-195664757D01*
X183600884Y-195664757D02*
X183743741Y-195593328D01*
X183743741Y-195593328D02*
X184029455Y-195593328D01*
X184029455Y-195593328D02*
X184172313Y-195664757D01*
X186029455Y-195807614D02*
X186529455Y-195807614D01*
X186743741Y-196593328D02*
X186029455Y-196593328D01*
X186029455Y-196593328D02*
X186029455Y-195093328D01*
X186029455Y-195093328D02*
X186743741Y-195093328D01*
X187386598Y-196450471D02*
X187458027Y-196521900D01*
X187458027Y-196521900D02*
X187386598Y-196593328D01*
X187386598Y-196593328D02*
X187315170Y-196521900D01*
X187315170Y-196521900D02*
X187386598Y-196450471D01*
X187386598Y-196450471D02*
X187386598Y-196593328D01*
X188100884Y-196593328D02*
X188100884Y-195093328D01*
X188100884Y-195093328D02*
X188458027Y-195093328D01*
X188458027Y-195093328D02*
X188672313Y-195164757D01*
X188672313Y-195164757D02*
X188815170Y-195307614D01*
X188815170Y-195307614D02*
X188886599Y-195450471D01*
X188886599Y-195450471D02*
X188958027Y-195736185D01*
X188958027Y-195736185D02*
X188958027Y-195950471D01*
X188958027Y-195950471D02*
X188886599Y-196236185D01*
X188886599Y-196236185D02*
X188815170Y-196379042D01*
X188815170Y-196379042D02*
X188672313Y-196521900D01*
X188672313Y-196521900D02*
X188458027Y-196593328D01*
X188458027Y-196593328D02*
X188100884Y-196593328D01*
X189600884Y-196450471D02*
X189672313Y-196521900D01*
X189672313Y-196521900D02*
X189600884Y-196593328D01*
X189600884Y-196593328D02*
X189529456Y-196521900D01*
X189529456Y-196521900D02*
X189600884Y-196450471D01*
X189600884Y-196450471D02*
X189600884Y-196593328D01*
X190243742Y-196164757D02*
X190958028Y-196164757D01*
X190100885Y-196593328D02*
X190600885Y-195093328D01*
X190600885Y-195093328D02*
X191100885Y-196593328D01*
X191600884Y-196450471D02*
X191672313Y-196521900D01*
X191672313Y-196521900D02*
X191600884Y-196593328D01*
X191600884Y-196593328D02*
X191529456Y-196521900D01*
X191529456Y-196521900D02*
X191600884Y-196450471D01*
X191600884Y-196450471D02*
X191600884Y-196593328D01*
X193672313Y-195736185D02*
X193529456Y-195664757D01*
X193529456Y-195664757D02*
X193458027Y-195593328D01*
X193458027Y-195593328D02*
X193386599Y-195450471D01*
X193386599Y-195450471D02*
X193386599Y-195379042D01*
X193386599Y-195379042D02*
X193458027Y-195236185D01*
X193458027Y-195236185D02*
X193529456Y-195164757D01*
X193529456Y-195164757D02*
X193672313Y-195093328D01*
X193672313Y-195093328D02*
X193958027Y-195093328D01*
X193958027Y-195093328D02*
X194100885Y-195164757D01*
X194100885Y-195164757D02*
X194172313Y-195236185D01*
X194172313Y-195236185D02*
X194243742Y-195379042D01*
X194243742Y-195379042D02*
X194243742Y-195450471D01*
X194243742Y-195450471D02*
X194172313Y-195593328D01*
X194172313Y-195593328D02*
X194100885Y-195664757D01*
X194100885Y-195664757D02*
X193958027Y-195736185D01*
X193958027Y-195736185D02*
X193672313Y-195736185D01*
X193672313Y-195736185D02*
X193529456Y-195807614D01*
X193529456Y-195807614D02*
X193458027Y-195879042D01*
X193458027Y-195879042D02*
X193386599Y-196021900D01*
X193386599Y-196021900D02*
X193386599Y-196307614D01*
X193386599Y-196307614D02*
X193458027Y-196450471D01*
X193458027Y-196450471D02*
X193529456Y-196521900D01*
X193529456Y-196521900D02*
X193672313Y-196593328D01*
X193672313Y-196593328D02*
X193958027Y-196593328D01*
X193958027Y-196593328D02*
X194100885Y-196521900D01*
X194100885Y-196521900D02*
X194172313Y-196450471D01*
X194172313Y-196450471D02*
X194243742Y-196307614D01*
X194243742Y-196307614D02*
X194243742Y-196021900D01*
X194243742Y-196021900D02*
X194172313Y-195879042D01*
X194172313Y-195879042D02*
X194100885Y-195807614D01*
X194100885Y-195807614D02*
X193958027Y-195736185D01*
X194886598Y-196450471D02*
X194958027Y-196521900D01*
X194958027Y-196521900D02*
X194886598Y-196593328D01*
X194886598Y-196593328D02*
X194815170Y-196521900D01*
X194815170Y-196521900D02*
X194886598Y-196450471D01*
X194886598Y-196450471D02*
X194886598Y-196593328D01*
X195886599Y-195093328D02*
X196029456Y-195093328D01*
X196029456Y-195093328D02*
X196172313Y-195164757D01*
X196172313Y-195164757D02*
X196243742Y-195236185D01*
X196243742Y-195236185D02*
X196315170Y-195379042D01*
X196315170Y-195379042D02*
X196386599Y-195664757D01*
X196386599Y-195664757D02*
X196386599Y-196021900D01*
X196386599Y-196021900D02*
X196315170Y-196307614D01*
X196315170Y-196307614D02*
X196243742Y-196450471D01*
X196243742Y-196450471D02*
X196172313Y-196521900D01*
X196172313Y-196521900D02*
X196029456Y-196593328D01*
X196029456Y-196593328D02*
X195886599Y-196593328D01*
X195886599Y-196593328D02*
X195743742Y-196521900D01*
X195743742Y-196521900D02*
X195672313Y-196450471D01*
X195672313Y-196450471D02*
X195600884Y-196307614D01*
X195600884Y-196307614D02*
X195529456Y-196021900D01*
X195529456Y-196021900D02*
X195529456Y-195664757D01*
X195529456Y-195664757D02*
X195600884Y-195379042D01*
X195600884Y-195379042D02*
X195672313Y-195236185D01*
X195672313Y-195236185D02*
X195743742Y-195164757D01*
X195743742Y-195164757D02*
X195886599Y-195093328D01*
X197029455Y-196450471D02*
X197100884Y-196521900D01*
X197100884Y-196521900D02*
X197029455Y-196593328D01*
X197029455Y-196593328D02*
X196958027Y-196521900D01*
X196958027Y-196521900D02*
X197029455Y-196450471D01*
X197029455Y-196450471D02*
X197029455Y-196593328D01*
X197672313Y-195236185D02*
X197743741Y-195164757D01*
X197743741Y-195164757D02*
X197886599Y-195093328D01*
X197886599Y-195093328D02*
X198243741Y-195093328D01*
X198243741Y-195093328D02*
X198386599Y-195164757D01*
X198386599Y-195164757D02*
X198458027Y-195236185D01*
X198458027Y-195236185D02*
X198529456Y-195379042D01*
X198529456Y-195379042D02*
X198529456Y-195521900D01*
X198529456Y-195521900D02*
X198458027Y-195736185D01*
X198458027Y-195736185D02*
X197600884Y-196593328D01*
X197600884Y-196593328D02*
X198529456Y-196593328D01*
D10*
D11*
X177002200Y-191507200D02*
X285002200Y-191507200D01*
D10*
D12*
X264413853Y-193785528D02*
X263913853Y-193071242D01*
X263556710Y-193785528D02*
X263556710Y-192285528D01*
X263556710Y-192285528D02*
X264128139Y-192285528D01*
X264128139Y-192285528D02*
X264270996Y-192356957D01*
X264270996Y-192356957D02*
X264342425Y-192428385D01*
X264342425Y-192428385D02*
X264413853Y-192571242D01*
X264413853Y-192571242D02*
X264413853Y-192785528D01*
X264413853Y-192785528D02*
X264342425Y-192928385D01*
X264342425Y-192928385D02*
X264270996Y-192999814D01*
X264270996Y-192999814D02*
X264128139Y-193071242D01*
X264128139Y-193071242D02*
X263556710Y-193071242D01*
X265628139Y-193714100D02*
X265485282Y-193785528D01*
X265485282Y-193785528D02*
X265199568Y-193785528D01*
X265199568Y-193785528D02*
X265056710Y-193714100D01*
X265056710Y-193714100D02*
X264985282Y-193571242D01*
X264985282Y-193571242D02*
X264985282Y-192999814D01*
X264985282Y-192999814D02*
X265056710Y-192856957D01*
X265056710Y-192856957D02*
X265199568Y-192785528D01*
X265199568Y-192785528D02*
X265485282Y-192785528D01*
X265485282Y-192785528D02*
X265628139Y-192856957D01*
X265628139Y-192856957D02*
X265699568Y-192999814D01*
X265699568Y-192999814D02*
X265699568Y-193142671D01*
X265699568Y-193142671D02*
X264985282Y-193285528D01*
X266199567Y-192785528D02*
X266556710Y-193785528D01*
X266556710Y-193785528D02*
X266913853Y-192785528D01*
X267485281Y-193642671D02*
X267556710Y-193714100D01*
X267556710Y-193714100D02*
X267485281Y-193785528D01*
X267485281Y-193785528D02*
X267413853Y-193714100D01*
X267413853Y-193714100D02*
X267485281Y-193642671D01*
X267485281Y-193642671D02*
X267485281Y-193785528D01*
X267485281Y-192856957D02*
X267556710Y-192928385D01*
X267556710Y-192928385D02*
X267485281Y-192999814D01*
X267485281Y-192999814D02*
X267413853Y-192928385D01*
X267413853Y-192928385D02*
X267485281Y-192856957D01*
X267485281Y-192856957D02*
X267485281Y-192999814D01*
X270199567Y-193785528D02*
X269699567Y-193071242D01*
X269342424Y-193785528D02*
X269342424Y-192285528D01*
X269342424Y-192285528D02*
X269913853Y-192285528D01*
X269913853Y-192285528D02*
X270056710Y-192356957D01*
X270056710Y-192356957D02*
X270128139Y-192428385D01*
X270128139Y-192428385D02*
X270199567Y-192571242D01*
X270199567Y-192571242D02*
X270199567Y-192785528D01*
X270199567Y-192785528D02*
X270128139Y-192928385D01*
X270128139Y-192928385D02*
X270056710Y-192999814D01*
X270056710Y-192999814D02*
X269913853Y-193071242D01*
X269913853Y-193071242D02*
X269342424Y-193071242D01*
X270842424Y-192999814D02*
X271342424Y-192999814D01*
X271556710Y-193785528D02*
X270842424Y-193785528D01*
X270842424Y-193785528D02*
X270842424Y-192285528D01*
X270842424Y-192285528D02*
X271556710Y-192285528D01*
X271985282Y-192285528D02*
X272485282Y-193785528D01*
X272485282Y-193785528D02*
X272985282Y-192285528D01*
X274270996Y-193785528D02*
X273413853Y-193785528D01*
X273842424Y-193785528D02*
X273842424Y-192285528D01*
X273842424Y-192285528D02*
X273699567Y-192499814D01*
X273699567Y-192499814D02*
X273556710Y-192642671D01*
X273556710Y-192642671D02*
X273413853Y-192714100D01*
D10*
D11*
X178386598Y-193721900D02*
X178600884Y-193793328D01*
X178600884Y-193793328D02*
X178958026Y-193793328D01*
X178958026Y-193793328D02*
X179100884Y-193721900D01*
X179100884Y-193721900D02*
X179172312Y-193650471D01*
X179172312Y-193650471D02*
X179243741Y-193507614D01*
X179243741Y-193507614D02*
X179243741Y-193364757D01*
X179243741Y-193364757D02*
X179172312Y-193221900D01*
X179172312Y-193221900D02*
X179100884Y-193150471D01*
X179100884Y-193150471D02*
X178958026Y-193079042D01*
X178958026Y-193079042D02*
X178672312Y-193007614D01*
X178672312Y-193007614D02*
X178529455Y-192936185D01*
X178529455Y-192936185D02*
X178458026Y-192864757D01*
X178458026Y-192864757D02*
X178386598Y-192721900D01*
X178386598Y-192721900D02*
X178386598Y-192579042D01*
X178386598Y-192579042D02*
X178458026Y-192436185D01*
X178458026Y-192436185D02*
X178529455Y-192364757D01*
X178529455Y-192364757D02*
X178672312Y-192293328D01*
X178672312Y-192293328D02*
X179029455Y-192293328D01*
X179029455Y-192293328D02*
X179243741Y-192364757D01*
X179886597Y-193793328D02*
X179886597Y-192793328D01*
X179886597Y-192293328D02*
X179815169Y-192364757D01*
X179815169Y-192364757D02*
X179886597Y-192436185D01*
X179886597Y-192436185D02*
X179958026Y-192364757D01*
X179958026Y-192364757D02*
X179886597Y-192293328D01*
X179886597Y-192293328D02*
X179886597Y-192436185D01*
X180458026Y-192793328D02*
X181243741Y-192793328D01*
X181243741Y-192793328D02*
X180458026Y-193793328D01*
X180458026Y-193793328D02*
X181243741Y-193793328D01*
X182386598Y-193721900D02*
X182243741Y-193793328D01*
X182243741Y-193793328D02*
X181958027Y-193793328D01*
X181958027Y-193793328D02*
X181815169Y-193721900D01*
X181815169Y-193721900D02*
X181743741Y-193579042D01*
X181743741Y-193579042D02*
X181743741Y-193007614D01*
X181743741Y-193007614D02*
X181815169Y-192864757D01*
X181815169Y-192864757D02*
X181958027Y-192793328D01*
X181958027Y-192793328D02*
X182243741Y-192793328D01*
X182243741Y-192793328D02*
X182386598Y-192864757D01*
X182386598Y-192864757D02*
X182458027Y-193007614D01*
X182458027Y-193007614D02*
X182458027Y-193150471D01*
X182458027Y-193150471D02*
X181743741Y-193293328D01*
X183100883Y-193650471D02*
X183172312Y-193721900D01*
X183172312Y-193721900D02*
X183100883Y-193793328D01*
X183100883Y-193793328D02*
X183029455Y-193721900D01*
X183029455Y-193721900D02*
X183100883Y-193650471D01*
X183100883Y-193650471D02*
X183100883Y-193793328D01*
X183100883Y-192864757D02*
X183172312Y-192936185D01*
X183172312Y-192936185D02*
X183100883Y-193007614D01*
X183100883Y-193007614D02*
X183029455Y-192936185D01*
X183029455Y-192936185D02*
X183100883Y-192864757D01*
X183100883Y-192864757D02*
X183100883Y-193007614D01*
X184886598Y-193364757D02*
X185600884Y-193364757D01*
X184743741Y-193793328D02*
X185243741Y-192293328D01*
X185243741Y-192293328D02*
X185743741Y-193793328D01*
X186886598Y-192793328D02*
X186886598Y-193793328D01*
X186529455Y-192221900D02*
X186172312Y-193293328D01*
X186172312Y-193293328D02*
X187100883Y-193293328D01*
D10*
D11*
X263458026Y-196593328D02*
X263458026Y-195093328D01*
X264815170Y-196593328D02*
X264815170Y-195093328D01*
X264815170Y-196521900D02*
X264672312Y-196593328D01*
X264672312Y-196593328D02*
X264386598Y-196593328D01*
X264386598Y-196593328D02*
X264243741Y-196521900D01*
X264243741Y-196521900D02*
X264172312Y-196450471D01*
X264172312Y-196450471D02*
X264100884Y-196307614D01*
X264100884Y-196307614D02*
X264100884Y-195879042D01*
X264100884Y-195879042D02*
X264172312Y-195736185D01*
X264172312Y-195736185D02*
X264243741Y-195664757D01*
X264243741Y-195664757D02*
X264386598Y-195593328D01*
X264386598Y-195593328D02*
X264672312Y-195593328D01*
X264672312Y-195593328D02*
X264815170Y-195664757D01*
X265529455Y-196450471D02*
X265600884Y-196521900D01*
X265600884Y-196521900D02*
X265529455Y-196593328D01*
X265529455Y-196593328D02*
X265458027Y-196521900D01*
X265458027Y-196521900D02*
X265529455Y-196450471D01*
X265529455Y-196450471D02*
X265529455Y-196593328D01*
X265529455Y-195664757D02*
X265600884Y-195736185D01*
X265600884Y-195736185D02*
X265529455Y-195807614D01*
X265529455Y-195807614D02*
X265458027Y-195736185D01*
X265458027Y-195736185D02*
X265529455Y-195664757D01*
X265529455Y-195664757D02*
X265529455Y-195807614D01*
X268172313Y-196593328D02*
X267315170Y-196593328D01*
X267743741Y-196593328D02*
X267743741Y-195093328D01*
X267743741Y-195093328D02*
X267600884Y-195307614D01*
X267600884Y-195307614D02*
X267458027Y-195450471D01*
X267458027Y-195450471D02*
X267315170Y-195521900D01*
X269886598Y-195021900D02*
X268600884Y-196950471D01*
X271172313Y-196593328D02*
X270315170Y-196593328D01*
X270743741Y-196593328D02*
X270743741Y-195093328D01*
X270743741Y-195093328D02*
X270600884Y-195307614D01*
X270600884Y-195307614D02*
X270458027Y-195450471D01*
X270458027Y-195450471D02*
X270315170Y-195521900D01*
D10*
D11*
X177002200Y-187507200D02*
X285002200Y-187507200D01*
D10*
D13*
X178693928Y-188211638D02*
X179836785Y-188211638D01*
X179015357Y-190211638D02*
X179265357Y-188211638D01*
X180253452Y-190211638D02*
X180420119Y-188878304D01*
X180503452Y-188211638D02*
X180396309Y-188306876D01*
X180396309Y-188306876D02*
X180479643Y-188402114D01*
X180479643Y-188402114D02*
X180586786Y-188306876D01*
X180586786Y-188306876D02*
X180503452Y-188211638D01*
X180503452Y-188211638D02*
X180479643Y-188402114D01*
X181086786Y-188878304D02*
X181848690Y-188878304D01*
X181455833Y-188211638D02*
X181241548Y-189925923D01*
X181241548Y-189925923D02*
X181312976Y-190116400D01*
X181312976Y-190116400D02*
X181491548Y-190211638D01*
X181491548Y-190211638D02*
X181682024Y-190211638D01*
X182634405Y-190211638D02*
X182455833Y-190116400D01*
X182455833Y-190116400D02*
X182384405Y-189925923D01*
X182384405Y-189925923D02*
X182598690Y-188211638D01*
X184170119Y-190116400D02*
X183967738Y-190211638D01*
X183967738Y-190211638D02*
X183586785Y-190211638D01*
X183586785Y-190211638D02*
X183408214Y-190116400D01*
X183408214Y-190116400D02*
X183336785Y-189925923D01*
X183336785Y-189925923D02*
X183432024Y-189164019D01*
X183432024Y-189164019D02*
X183551071Y-188973542D01*
X183551071Y-188973542D02*
X183753452Y-188878304D01*
X183753452Y-188878304D02*
X184134404Y-188878304D01*
X184134404Y-188878304D02*
X184312976Y-188973542D01*
X184312976Y-188973542D02*
X184384404Y-189164019D01*
X184384404Y-189164019D02*
X184360595Y-189354495D01*
X184360595Y-189354495D02*
X183384404Y-189544971D01*
X185134405Y-190021161D02*
X185217738Y-190116400D01*
X185217738Y-190116400D02*
X185110595Y-190211638D01*
X185110595Y-190211638D02*
X185027262Y-190116400D01*
X185027262Y-190116400D02*
X185134405Y-190021161D01*
X185134405Y-190021161D02*
X185110595Y-190211638D01*
X185265357Y-188973542D02*
X185348690Y-189068780D01*
X185348690Y-189068780D02*
X185241548Y-189164019D01*
X185241548Y-189164019D02*
X185158214Y-189068780D01*
X185158214Y-189068780D02*
X185265357Y-188973542D01*
X185265357Y-188973542D02*
X185241548Y-189164019D01*
X187753453Y-188878304D02*
X187503453Y-190878304D01*
X187741548Y-188973542D02*
X187943929Y-188878304D01*
X187943929Y-188878304D02*
X188324881Y-188878304D01*
X188324881Y-188878304D02*
X188503453Y-188973542D01*
X188503453Y-188973542D02*
X188586786Y-189068780D01*
X188586786Y-189068780D02*
X188658215Y-189259257D01*
X188658215Y-189259257D02*
X188586786Y-189830685D01*
X188586786Y-189830685D02*
X188467739Y-190021161D01*
X188467739Y-190021161D02*
X188360596Y-190116400D01*
X188360596Y-190116400D02*
X188158215Y-190211638D01*
X188158215Y-190211638D02*
X187777262Y-190211638D01*
X187777262Y-190211638D02*
X187598691Y-190116400D01*
X189396310Y-190211638D02*
X189562977Y-188878304D01*
X189646310Y-188211638D02*
X189539167Y-188306876D01*
X189539167Y-188306876D02*
X189622501Y-188402114D01*
X189622501Y-188402114D02*
X189729644Y-188306876D01*
X189729644Y-188306876D02*
X189646310Y-188211638D01*
X189646310Y-188211638D02*
X189622501Y-188402114D01*
X191217739Y-190116400D02*
X191015358Y-190211638D01*
X191015358Y-190211638D02*
X190634406Y-190211638D01*
X190634406Y-190211638D02*
X190455834Y-190116400D01*
X190455834Y-190116400D02*
X190372501Y-190021161D01*
X190372501Y-190021161D02*
X190301072Y-189830685D01*
X190301072Y-189830685D02*
X190372501Y-189259257D01*
X190372501Y-189259257D02*
X190491548Y-189068780D01*
X190491548Y-189068780D02*
X190598691Y-188973542D01*
X190598691Y-188973542D02*
X190801072Y-188878304D01*
X190801072Y-188878304D02*
X191182025Y-188878304D01*
X191182025Y-188878304D02*
X191360596Y-188973542D01*
X192348692Y-190211638D02*
X192170120Y-190116400D01*
X192170120Y-190116400D02*
X192086787Y-190021161D01*
X192086787Y-190021161D02*
X192015358Y-189830685D01*
X192015358Y-189830685D02*
X192086787Y-189259257D01*
X192086787Y-189259257D02*
X192205834Y-189068780D01*
X192205834Y-189068780D02*
X192312977Y-188973542D01*
X192312977Y-188973542D02*
X192515358Y-188878304D01*
X192515358Y-188878304D02*
X192801072Y-188878304D01*
X192801072Y-188878304D02*
X192979644Y-188973542D01*
X192979644Y-188973542D02*
X193062977Y-189068780D01*
X193062977Y-189068780D02*
X193134406Y-189259257D01*
X193134406Y-189259257D02*
X193062977Y-189830685D01*
X193062977Y-189830685D02*
X192943930Y-190021161D01*
X192943930Y-190021161D02*
X192836787Y-190116400D01*
X192836787Y-190116400D02*
X192634406Y-190211638D01*
X192634406Y-190211638D02*
X192348692Y-190211638D01*
X193967739Y-189449733D02*
X195491549Y-189449733D01*
X196348691Y-190211638D02*
X196515358Y-188878304D01*
X196598691Y-188211638D02*
X196491548Y-188306876D01*
X196491548Y-188306876D02*
X196574882Y-188402114D01*
X196574882Y-188402114D02*
X196682025Y-188306876D01*
X196682025Y-188306876D02*
X196598691Y-188211638D01*
X196598691Y-188211638D02*
X196574882Y-188402114D01*
X198170120Y-190116400D02*
X197967739Y-190211638D01*
X197967739Y-190211638D02*
X197586787Y-190211638D01*
X197586787Y-190211638D02*
X197408215Y-190116400D01*
X197408215Y-190116400D02*
X197324882Y-190021161D01*
X197324882Y-190021161D02*
X197253453Y-189830685D01*
X197253453Y-189830685D02*
X197324882Y-189259257D01*
X197324882Y-189259257D02*
X197443929Y-189068780D01*
X197443929Y-189068780D02*
X197551072Y-188973542D01*
X197551072Y-188973542D02*
X197753453Y-188878304D01*
X197753453Y-188878304D02*
X198134406Y-188878304D01*
X198134406Y-188878304D02*
X198312977Y-188973542D01*
X199789168Y-190116400D02*
X199586787Y-190211638D01*
X199586787Y-190211638D02*
X199205834Y-190211638D01*
X199205834Y-190211638D02*
X199027263Y-190116400D01*
X199027263Y-190116400D02*
X198955834Y-189925923D01*
X198955834Y-189925923D02*
X199051073Y-189164019D01*
X199051073Y-189164019D02*
X199170120Y-188973542D01*
X199170120Y-188973542D02*
X199372501Y-188878304D01*
X199372501Y-188878304D02*
X199753453Y-188878304D01*
X199753453Y-188878304D02*
X199932025Y-188973542D01*
X199932025Y-188973542D02*
X200003453Y-189164019D01*
X200003453Y-189164019D02*
X199979644Y-189354495D01*
X199979644Y-189354495D02*
X199003453Y-189544971D01*
D10*
D11*
X178958026Y-185607614D02*
X178458026Y-185607614D01*
X178458026Y-186393328D02*
X178458026Y-184893328D01*
X178458026Y-184893328D02*
X179172312Y-184893328D01*
X179743740Y-186393328D02*
X179743740Y-185393328D01*
X179743740Y-184893328D02*
X179672312Y-184964757D01*
X179672312Y-184964757D02*
X179743740Y-185036185D01*
X179743740Y-185036185D02*
X179815169Y-184964757D01*
X179815169Y-184964757D02*
X179743740Y-184893328D01*
X179743740Y-184893328D02*
X179743740Y-185036185D01*
X180672312Y-186393328D02*
X180529455Y-186321900D01*
X180529455Y-186321900D02*
X180458026Y-186179042D01*
X180458026Y-186179042D02*
X180458026Y-184893328D01*
X181815169Y-186321900D02*
X181672312Y-186393328D01*
X181672312Y-186393328D02*
X181386598Y-186393328D01*
X181386598Y-186393328D02*
X181243740Y-186321900D01*
X181243740Y-186321900D02*
X181172312Y-186179042D01*
X181172312Y-186179042D02*
X181172312Y-185607614D01*
X181172312Y-185607614D02*
X181243740Y-185464757D01*
X181243740Y-185464757D02*
X181386598Y-185393328D01*
X181386598Y-185393328D02*
X181672312Y-185393328D01*
X181672312Y-185393328D02*
X181815169Y-185464757D01*
X181815169Y-185464757D02*
X181886598Y-185607614D01*
X181886598Y-185607614D02*
X181886598Y-185750471D01*
X181886598Y-185750471D02*
X181172312Y-185893328D01*
X182529454Y-186250471D02*
X182600883Y-186321900D01*
X182600883Y-186321900D02*
X182529454Y-186393328D01*
X182529454Y-186393328D02*
X182458026Y-186321900D01*
X182458026Y-186321900D02*
X182529454Y-186250471D01*
X182529454Y-186250471D02*
X182529454Y-186393328D01*
X182529454Y-185464757D02*
X182600883Y-185536185D01*
X182600883Y-185536185D02*
X182529454Y-185607614D01*
X182529454Y-185607614D02*
X182458026Y-185536185D01*
X182458026Y-185536185D02*
X182529454Y-185464757D01*
X182529454Y-185464757D02*
X182529454Y-185607614D01*
X184386597Y-185393328D02*
X184386597Y-186893328D01*
X184386597Y-185464757D02*
X184529455Y-185393328D01*
X184529455Y-185393328D02*
X184815169Y-185393328D01*
X184815169Y-185393328D02*
X184958026Y-185464757D01*
X184958026Y-185464757D02*
X185029455Y-185536185D01*
X185029455Y-185536185D02*
X185100883Y-185679042D01*
X185100883Y-185679042D02*
X185100883Y-186107614D01*
X185100883Y-186107614D02*
X185029455Y-186250471D01*
X185029455Y-186250471D02*
X184958026Y-186321900D01*
X184958026Y-186321900D02*
X184815169Y-186393328D01*
X184815169Y-186393328D02*
X184529455Y-186393328D01*
X184529455Y-186393328D02*
X184386597Y-186321900D01*
X185743740Y-186393328D02*
X185743740Y-185393328D01*
X185743740Y-184893328D02*
X185672312Y-184964757D01*
X185672312Y-184964757D02*
X185743740Y-185036185D01*
X185743740Y-185036185D02*
X185815169Y-184964757D01*
X185815169Y-184964757D02*
X185743740Y-184893328D01*
X185743740Y-184893328D02*
X185743740Y-185036185D01*
X187100884Y-186321900D02*
X186958026Y-186393328D01*
X186958026Y-186393328D02*
X186672312Y-186393328D01*
X186672312Y-186393328D02*
X186529455Y-186321900D01*
X186529455Y-186321900D02*
X186458026Y-186250471D01*
X186458026Y-186250471D02*
X186386598Y-186107614D01*
X186386598Y-186107614D02*
X186386598Y-185679042D01*
X186386598Y-185679042D02*
X186458026Y-185536185D01*
X186458026Y-185536185D02*
X186529455Y-185464757D01*
X186529455Y-185464757D02*
X186672312Y-185393328D01*
X186672312Y-185393328D02*
X186958026Y-185393328D01*
X186958026Y-185393328D02*
X187100884Y-185464757D01*
X187958026Y-186393328D02*
X187815169Y-186321900D01*
X187815169Y-186321900D02*
X187743740Y-186250471D01*
X187743740Y-186250471D02*
X187672312Y-186107614D01*
X187672312Y-186107614D02*
X187672312Y-185679042D01*
X187672312Y-185679042D02*
X187743740Y-185536185D01*
X187743740Y-185536185D02*
X187815169Y-185464757D01*
X187815169Y-185464757D02*
X187958026Y-185393328D01*
X187958026Y-185393328D02*
X188172312Y-185393328D01*
X188172312Y-185393328D02*
X188315169Y-185464757D01*
X188315169Y-185464757D02*
X188386598Y-185536185D01*
X188386598Y-185536185D02*
X188458026Y-185679042D01*
X188458026Y-185679042D02*
X188458026Y-186107614D01*
X188458026Y-186107614D02*
X188386598Y-186250471D01*
X188386598Y-186250471D02*
X188315169Y-186321900D01*
X188315169Y-186321900D02*
X188172312Y-186393328D01*
X188172312Y-186393328D02*
X187958026Y-186393328D01*
X189029455Y-185036185D02*
X189100883Y-184964757D01*
X189100883Y-184964757D02*
X189243741Y-184893328D01*
X189243741Y-184893328D02*
X189600883Y-184893328D01*
X189600883Y-184893328D02*
X189743741Y-184964757D01*
X189743741Y-184964757D02*
X189815169Y-185036185D01*
X189815169Y-185036185D02*
X189886598Y-185179042D01*
X189886598Y-185179042D02*
X189886598Y-185321900D01*
X189886598Y-185321900D02*
X189815169Y-185536185D01*
X189815169Y-185536185D02*
X188958026Y-186393328D01*
X188958026Y-186393328D02*
X189886598Y-186393328D01*
X190529454Y-185821900D02*
X191672312Y-185821900D01*
X192386597Y-186393328D02*
X192386597Y-185393328D01*
X192386597Y-184893328D02*
X192315169Y-184964757D01*
X192315169Y-184964757D02*
X192386597Y-185036185D01*
X192386597Y-185036185D02*
X192458026Y-184964757D01*
X192458026Y-184964757D02*
X192386597Y-184893328D01*
X192386597Y-184893328D02*
X192386597Y-185036185D01*
X193743741Y-186321900D02*
X193600883Y-186393328D01*
X193600883Y-186393328D02*
X193315169Y-186393328D01*
X193315169Y-186393328D02*
X193172312Y-186321900D01*
X193172312Y-186321900D02*
X193100883Y-186250471D01*
X193100883Y-186250471D02*
X193029455Y-186107614D01*
X193029455Y-186107614D02*
X193029455Y-185679042D01*
X193029455Y-185679042D02*
X193100883Y-185536185D01*
X193100883Y-185536185D02*
X193172312Y-185464757D01*
X193172312Y-185464757D02*
X193315169Y-185393328D01*
X193315169Y-185393328D02*
X193600883Y-185393328D01*
X193600883Y-185393328D02*
X193743741Y-185464757D01*
X194958026Y-186321900D02*
X194815169Y-186393328D01*
X194815169Y-186393328D02*
X194529455Y-186393328D01*
X194529455Y-186393328D02*
X194386597Y-186321900D01*
X194386597Y-186321900D02*
X194315169Y-186179042D01*
X194315169Y-186179042D02*
X194315169Y-185607614D01*
X194315169Y-185607614D02*
X194386597Y-185464757D01*
X194386597Y-185464757D02*
X194529455Y-185393328D01*
X194529455Y-185393328D02*
X194815169Y-185393328D01*
X194815169Y-185393328D02*
X194958026Y-185464757D01*
X194958026Y-185464757D02*
X195029455Y-185607614D01*
X195029455Y-185607614D02*
X195029455Y-185750471D01*
X195029455Y-185750471D02*
X194315169Y-185893328D01*
X195672311Y-186250471D02*
X195743740Y-186321900D01*
X195743740Y-186321900D02*
X195672311Y-186393328D01*
X195672311Y-186393328D02*
X195600883Y-186321900D01*
X195600883Y-186321900D02*
X195672311Y-186250471D01*
X195672311Y-186250471D02*
X195672311Y-186393328D01*
X196386597Y-186393328D02*
X196386597Y-184893328D01*
X196529455Y-185821900D02*
X196958026Y-186393328D01*
X196958026Y-185393328D02*
X196386597Y-185964757D01*
X197600883Y-186393328D02*
X197600883Y-185393328D01*
X197600883Y-184893328D02*
X197529455Y-184964757D01*
X197529455Y-184964757D02*
X197600883Y-185036185D01*
X197600883Y-185036185D02*
X197672312Y-184964757D01*
X197672312Y-184964757D02*
X197600883Y-184893328D01*
X197600883Y-184893328D02*
X197600883Y-185036185D01*
X198958027Y-186321900D02*
X198815169Y-186393328D01*
X198815169Y-186393328D02*
X198529455Y-186393328D01*
X198529455Y-186393328D02*
X198386598Y-186321900D01*
X198386598Y-186321900D02*
X198315169Y-186250471D01*
X198315169Y-186250471D02*
X198243741Y-186107614D01*
X198243741Y-186107614D02*
X198243741Y-185679042D01*
X198243741Y-185679042D02*
X198315169Y-185536185D01*
X198315169Y-185536185D02*
X198386598Y-185464757D01*
X198386598Y-185464757D02*
X198529455Y-185393328D01*
X198529455Y-185393328D02*
X198815169Y-185393328D01*
X198815169Y-185393328D02*
X198958027Y-185464757D01*
X200243741Y-186393328D02*
X200243741Y-185607614D01*
X200243741Y-185607614D02*
X200172312Y-185464757D01*
X200172312Y-185464757D02*
X200029455Y-185393328D01*
X200029455Y-185393328D02*
X199743741Y-185393328D01*
X199743741Y-185393328D02*
X199600883Y-185464757D01*
X200243741Y-186321900D02*
X200100883Y-186393328D01*
X200100883Y-186393328D02*
X199743741Y-186393328D01*
X199743741Y-186393328D02*
X199600883Y-186321900D01*
X199600883Y-186321900D02*
X199529455Y-186179042D01*
X199529455Y-186179042D02*
X199529455Y-186036185D01*
X199529455Y-186036185D02*
X199600883Y-185893328D01*
X199600883Y-185893328D02*
X199743741Y-185821900D01*
X199743741Y-185821900D02*
X200100883Y-185821900D01*
X200100883Y-185821900D02*
X200243741Y-185750471D01*
X201600884Y-186393328D02*
X201600884Y-184893328D01*
X201600884Y-186321900D02*
X201458026Y-186393328D01*
X201458026Y-186393328D02*
X201172312Y-186393328D01*
X201172312Y-186393328D02*
X201029455Y-186321900D01*
X201029455Y-186321900D02*
X200958026Y-186250471D01*
X200958026Y-186250471D02*
X200886598Y-186107614D01*
X200886598Y-186107614D02*
X200886598Y-185679042D01*
X200886598Y-185679042D02*
X200958026Y-185536185D01*
X200958026Y-185536185D02*
X201029455Y-185464757D01*
X201029455Y-185464757D02*
X201172312Y-185393328D01*
X201172312Y-185393328D02*
X201458026Y-185393328D01*
X201458026Y-185393328D02*
X201600884Y-185464757D01*
X201958027Y-186536185D02*
X203100884Y-186536185D01*
X203458026Y-185393328D02*
X203458026Y-186893328D01*
X203458026Y-185464757D02*
X203600884Y-185393328D01*
X203600884Y-185393328D02*
X203886598Y-185393328D01*
X203886598Y-185393328D02*
X204029455Y-185464757D01*
X204029455Y-185464757D02*
X204100884Y-185536185D01*
X204100884Y-185536185D02*
X204172312Y-185679042D01*
X204172312Y-185679042D02*
X204172312Y-186107614D01*
X204172312Y-186107614D02*
X204100884Y-186250471D01*
X204100884Y-186250471D02*
X204029455Y-186321900D01*
X204029455Y-186321900D02*
X203886598Y-186393328D01*
X203886598Y-186393328D02*
X203600884Y-186393328D01*
X203600884Y-186393328D02*
X203458026Y-186321900D01*
X205458027Y-186321900D02*
X205315169Y-186393328D01*
X205315169Y-186393328D02*
X205029455Y-186393328D01*
X205029455Y-186393328D02*
X204886598Y-186321900D01*
X204886598Y-186321900D02*
X204815169Y-186250471D01*
X204815169Y-186250471D02*
X204743741Y-186107614D01*
X204743741Y-186107614D02*
X204743741Y-185679042D01*
X204743741Y-185679042D02*
X204815169Y-185536185D01*
X204815169Y-185536185D02*
X204886598Y-185464757D01*
X204886598Y-185464757D02*
X205029455Y-185393328D01*
X205029455Y-185393328D02*
X205315169Y-185393328D01*
X205315169Y-185393328D02*
X205458027Y-185464757D01*
X206100883Y-186393328D02*
X206100883Y-184893328D01*
X206100883Y-185464757D02*
X206243741Y-185393328D01*
X206243741Y-185393328D02*
X206529455Y-185393328D01*
X206529455Y-185393328D02*
X206672312Y-185464757D01*
X206672312Y-185464757D02*
X206743741Y-185536185D01*
X206743741Y-185536185D02*
X206815169Y-185679042D01*
X206815169Y-185679042D02*
X206815169Y-186107614D01*
X206815169Y-186107614D02*
X206743741Y-186250471D01*
X206743741Y-186250471D02*
X206672312Y-186321900D01*
X206672312Y-186321900D02*
X206529455Y-186393328D01*
X206529455Y-186393328D02*
X206243741Y-186393328D01*
X206243741Y-186393328D02*
X206100883Y-186321900D01*
D10*
D11*
X177002200Y-181507200D02*
X285002200Y-181507200D01*
D10*
D11*
X178386598Y-183621900D02*
X178600884Y-183693328D01*
X178600884Y-183693328D02*
X178958026Y-183693328D01*
X178958026Y-183693328D02*
X179100884Y-183621900D01*
X179100884Y-183621900D02*
X179172312Y-183550471D01*
X179172312Y-183550471D02*
X179243741Y-183407614D01*
X179243741Y-183407614D02*
X179243741Y-183264757D01*
X179243741Y-183264757D02*
X179172312Y-183121900D01*
X179172312Y-183121900D02*
X179100884Y-183050471D01*
X179100884Y-183050471D02*
X178958026Y-182979042D01*
X178958026Y-182979042D02*
X178672312Y-182907614D01*
X178672312Y-182907614D02*
X178529455Y-182836185D01*
X178529455Y-182836185D02*
X178458026Y-182764757D01*
X178458026Y-182764757D02*
X178386598Y-182621900D01*
X178386598Y-182621900D02*
X178386598Y-182479042D01*
X178386598Y-182479042D02*
X178458026Y-182336185D01*
X178458026Y-182336185D02*
X178529455Y-182264757D01*
X178529455Y-182264757D02*
X178672312Y-182193328D01*
X178672312Y-182193328D02*
X179029455Y-182193328D01*
X179029455Y-182193328D02*
X179243741Y-182264757D01*
X179886597Y-183693328D02*
X179886597Y-182193328D01*
X180529455Y-183693328D02*
X180529455Y-182907614D01*
X180529455Y-182907614D02*
X180458026Y-182764757D01*
X180458026Y-182764757D02*
X180315169Y-182693328D01*
X180315169Y-182693328D02*
X180100883Y-182693328D01*
X180100883Y-182693328D02*
X179958026Y-182764757D01*
X179958026Y-182764757D02*
X179886597Y-182836185D01*
X181815169Y-183621900D02*
X181672312Y-183693328D01*
X181672312Y-183693328D02*
X181386598Y-183693328D01*
X181386598Y-183693328D02*
X181243740Y-183621900D01*
X181243740Y-183621900D02*
X181172312Y-183479042D01*
X181172312Y-183479042D02*
X181172312Y-182907614D01*
X181172312Y-182907614D02*
X181243740Y-182764757D01*
X181243740Y-182764757D02*
X181386598Y-182693328D01*
X181386598Y-182693328D02*
X181672312Y-182693328D01*
X181672312Y-182693328D02*
X181815169Y-182764757D01*
X181815169Y-182764757D02*
X181886598Y-182907614D01*
X181886598Y-182907614D02*
X181886598Y-183050471D01*
X181886598Y-183050471D02*
X181172312Y-183193328D01*
X183100883Y-183621900D02*
X182958026Y-183693328D01*
X182958026Y-183693328D02*
X182672312Y-183693328D01*
X182672312Y-183693328D02*
X182529454Y-183621900D01*
X182529454Y-183621900D02*
X182458026Y-183479042D01*
X182458026Y-183479042D02*
X182458026Y-182907614D01*
X182458026Y-182907614D02*
X182529454Y-182764757D01*
X182529454Y-182764757D02*
X182672312Y-182693328D01*
X182672312Y-182693328D02*
X182958026Y-182693328D01*
X182958026Y-182693328D02*
X183100883Y-182764757D01*
X183100883Y-182764757D02*
X183172312Y-182907614D01*
X183172312Y-182907614D02*
X183172312Y-183050471D01*
X183172312Y-183050471D02*
X182458026Y-183193328D01*
X183600883Y-182693328D02*
X184172311Y-182693328D01*
X183815168Y-182193328D02*
X183815168Y-183479042D01*
X183815168Y-183479042D02*
X183886597Y-183621900D01*
X183886597Y-183621900D02*
X184029454Y-183693328D01*
X184029454Y-183693328D02*
X184172311Y-183693328D01*
X184672311Y-183550471D02*
X184743740Y-183621900D01*
X184743740Y-183621900D02*
X184672311Y-183693328D01*
X184672311Y-183693328D02*
X184600883Y-183621900D01*
X184600883Y-183621900D02*
X184672311Y-183550471D01*
X184672311Y-183550471D02*
X184672311Y-183693328D01*
X184672311Y-182764757D02*
X184743740Y-182836185D01*
X184743740Y-182836185D02*
X184672311Y-182907614D01*
X184672311Y-182907614D02*
X184600883Y-182836185D01*
X184600883Y-182836185D02*
X184672311Y-182764757D01*
X184672311Y-182764757D02*
X184672311Y-182907614D01*
D10*
D12*
X178342425Y-179685528D02*
X178913853Y-179685528D01*
X178556710Y-179185528D02*
X178556710Y-180471242D01*
X178556710Y-180471242D02*
X178628139Y-180614100D01*
X178628139Y-180614100D02*
X178770996Y-180685528D01*
X178770996Y-180685528D02*
X178913853Y-180685528D01*
X179413853Y-180685528D02*
X179413853Y-179685528D01*
X179413853Y-179185528D02*
X179342425Y-179256957D01*
X179342425Y-179256957D02*
X179413853Y-179328385D01*
X179413853Y-179328385D02*
X179485282Y-179256957D01*
X179485282Y-179256957D02*
X179413853Y-179185528D01*
X179413853Y-179185528D02*
X179413853Y-179328385D01*
X180128139Y-179685528D02*
X180128139Y-180685528D01*
X180128139Y-179828385D02*
X180199568Y-179756957D01*
X180199568Y-179756957D02*
X180342425Y-179685528D01*
X180342425Y-179685528D02*
X180556711Y-179685528D01*
X180556711Y-179685528D02*
X180699568Y-179756957D01*
X180699568Y-179756957D02*
X180770997Y-179899814D01*
X180770997Y-179899814D02*
X180770997Y-180685528D01*
X181342425Y-179685528D02*
X181699568Y-180685528D01*
X182056711Y-179685528D02*
X181699568Y-180685528D01*
X181699568Y-180685528D02*
X181556711Y-181042671D01*
X181556711Y-181042671D02*
X181485282Y-181114100D01*
X181485282Y-181114100D02*
X181342425Y-181185528D01*
X182413854Y-179185528D02*
X182913854Y-180685528D01*
X182913854Y-180685528D02*
X183413854Y-179185528D01*
X183913853Y-180685528D02*
X183913853Y-179685528D01*
X183913853Y-179185528D02*
X183842425Y-179256957D01*
X183842425Y-179256957D02*
X183913853Y-179328385D01*
X183913853Y-179328385D02*
X183985282Y-179256957D01*
X183985282Y-179256957D02*
X183913853Y-179185528D01*
X183913853Y-179185528D02*
X183913853Y-179328385D01*
X184556711Y-180614100D02*
X184699568Y-180685528D01*
X184699568Y-180685528D02*
X184985282Y-180685528D01*
X184985282Y-180685528D02*
X185128139Y-180614100D01*
X185128139Y-180614100D02*
X185199568Y-180471242D01*
X185199568Y-180471242D02*
X185199568Y-180399814D01*
X185199568Y-180399814D02*
X185128139Y-180256957D01*
X185128139Y-180256957D02*
X184985282Y-180185528D01*
X184985282Y-180185528D02*
X184770997Y-180185528D01*
X184770997Y-180185528D02*
X184628139Y-180114100D01*
X184628139Y-180114100D02*
X184556711Y-179971242D01*
X184556711Y-179971242D02*
X184556711Y-179899814D01*
X184556711Y-179899814D02*
X184628139Y-179756957D01*
X184628139Y-179756957D02*
X184770997Y-179685528D01*
X184770997Y-179685528D02*
X184985282Y-179685528D01*
X184985282Y-179685528D02*
X185128139Y-179756957D01*
X185842425Y-180685528D02*
X185842425Y-179685528D01*
X185842425Y-179185528D02*
X185770997Y-179256957D01*
X185770997Y-179256957D02*
X185842425Y-179328385D01*
X185842425Y-179328385D02*
X185913854Y-179256957D01*
X185913854Y-179256957D02*
X185842425Y-179185528D01*
X185842425Y-179185528D02*
X185842425Y-179328385D01*
X186770997Y-180685528D02*
X186628140Y-180614100D01*
X186628140Y-180614100D02*
X186556711Y-180542671D01*
X186556711Y-180542671D02*
X186485283Y-180399814D01*
X186485283Y-180399814D02*
X186485283Y-179971242D01*
X186485283Y-179971242D02*
X186556711Y-179828385D01*
X186556711Y-179828385D02*
X186628140Y-179756957D01*
X186628140Y-179756957D02*
X186770997Y-179685528D01*
X186770997Y-179685528D02*
X186985283Y-179685528D01*
X186985283Y-179685528D02*
X187128140Y-179756957D01*
X187128140Y-179756957D02*
X187199569Y-179828385D01*
X187199569Y-179828385D02*
X187270997Y-179971242D01*
X187270997Y-179971242D02*
X187270997Y-180399814D01*
X187270997Y-180399814D02*
X187199569Y-180542671D01*
X187199569Y-180542671D02*
X187128140Y-180614100D01*
X187128140Y-180614100D02*
X186985283Y-180685528D01*
X186985283Y-180685528D02*
X186770997Y-180685528D01*
X187913854Y-179685528D02*
X187913854Y-180685528D01*
X187913854Y-179828385D02*
X187985283Y-179756957D01*
X187985283Y-179756957D02*
X188128140Y-179685528D01*
X188128140Y-179685528D02*
X188342426Y-179685528D01*
X188342426Y-179685528D02*
X188485283Y-179756957D01*
X188485283Y-179756957D02*
X188556712Y-179899814D01*
X188556712Y-179899814D02*
X188556712Y-180685528D01*
X189270997Y-180542671D02*
X189342426Y-180614100D01*
X189342426Y-180614100D02*
X189270997Y-180685528D01*
X189270997Y-180685528D02*
X189199569Y-180614100D01*
X189199569Y-180614100D02*
X189270997Y-180542671D01*
X189270997Y-180542671D02*
X189270997Y-180685528D01*
X190628141Y-180685528D02*
X190628141Y-179899814D01*
X190628141Y-179899814D02*
X190556712Y-179756957D01*
X190556712Y-179756957D02*
X190413855Y-179685528D01*
X190413855Y-179685528D02*
X190128141Y-179685528D01*
X190128141Y-179685528D02*
X189985283Y-179756957D01*
X190628141Y-180614100D02*
X190485283Y-180685528D01*
X190485283Y-180685528D02*
X190128141Y-180685528D01*
X190128141Y-180685528D02*
X189985283Y-180614100D01*
X189985283Y-180614100D02*
X189913855Y-180471242D01*
X189913855Y-180471242D02*
X189913855Y-180328385D01*
X189913855Y-180328385D02*
X189985283Y-180185528D01*
X189985283Y-180185528D02*
X190128141Y-180114100D01*
X190128141Y-180114100D02*
X190485283Y-180114100D01*
X190485283Y-180114100D02*
X190628141Y-180042671D01*
X191342426Y-180685528D02*
X191342426Y-179685528D01*
X191342426Y-179185528D02*
X191270998Y-179256957D01*
X191270998Y-179256957D02*
X191342426Y-179328385D01*
X191342426Y-179328385D02*
X191413855Y-179256957D01*
X191413855Y-179256957D02*
X191342426Y-179185528D01*
X191342426Y-179185528D02*
X191342426Y-179328385D01*
X193199569Y-180685528D02*
X193199569Y-179185528D01*
X193913855Y-179685528D02*
X193913855Y-180685528D01*
X193913855Y-179828385D02*
X193985284Y-179756957D01*
X193985284Y-179756957D02*
X194128141Y-179685528D01*
X194128141Y-179685528D02*
X194342427Y-179685528D01*
X194342427Y-179685528D02*
X194485284Y-179756957D01*
X194485284Y-179756957D02*
X194556713Y-179899814D01*
X194556713Y-179899814D02*
X194556713Y-180685528D01*
X195913856Y-180614100D02*
X195770998Y-180685528D01*
X195770998Y-180685528D02*
X195485284Y-180685528D01*
X195485284Y-180685528D02*
X195342427Y-180614100D01*
X195342427Y-180614100D02*
X195270998Y-180542671D01*
X195270998Y-180542671D02*
X195199570Y-180399814D01*
X195199570Y-180399814D02*
X195199570Y-179971242D01*
X195199570Y-179971242D02*
X195270998Y-179828385D01*
X195270998Y-179828385D02*
X195342427Y-179756957D01*
X195342427Y-179756957D02*
X195485284Y-179685528D01*
X195485284Y-179685528D02*
X195770998Y-179685528D01*
X195770998Y-179685528D02*
X195913856Y-179756957D01*
X196556712Y-180542671D02*
X196628141Y-180614100D01*
X196628141Y-180614100D02*
X196556712Y-180685528D01*
X196556712Y-180685528D02*
X196485284Y-180614100D01*
X196485284Y-180614100D02*
X196556712Y-180542671D01*
X196556712Y-180542671D02*
X196556712Y-180685528D01*
D10*
D11*
X197002200Y-191507200D02*
X197002200Y-194507200D01*
D10*
D11*
X261002200Y-191507200D02*
X261002200Y-198007200D01*
D14*
X64770000Y-134620000D02*
G75*
G02*
X60960000Y-130810000I109500J3919500D01*
G01*
X80010000Y-73660000D02*
G75*
G02*
X83820000Y-77470000I55700J-3754300D01*
G01*
X60960000Y-130810000D02*
X60960000Y-77470000D01*
X64770000Y-73660000D02*
X80010000Y-73660000D01*
X60960000Y-77470000D02*
G75*
G02*
X64770000Y-73660000I3754300J55700D01*
G01*
X83820000Y-130810000D02*
G75*
G02*
X80010000Y-134620000I-3919500J109500D01*
G01*
X80010000Y-134620000D02*
X64770000Y-134620000D01*
X83820000Y-77470000D02*
X83820000Y-130810000D01*
D15*
X71750575Y-77774071D02*
X71663908Y-77650262D01*
X71602003Y-77774071D02*
X71602003Y-77514071D01*
X71602003Y-77514071D02*
X71701051Y-77514071D01*
X71701051Y-77514071D02*
X71725813Y-77526452D01*
X71725813Y-77526452D02*
X71738194Y-77538833D01*
X71738194Y-77538833D02*
X71750575Y-77563595D01*
X71750575Y-77563595D02*
X71750575Y-77600738D01*
X71750575Y-77600738D02*
X71738194Y-77625500D01*
X71738194Y-77625500D02*
X71725813Y-77637881D01*
X71725813Y-77637881D02*
X71701051Y-77650262D01*
X71701051Y-77650262D02*
X71602003Y-77650262D01*
X71998194Y-77774071D02*
X71849622Y-77774071D01*
X71923908Y-77774071D02*
X71923908Y-77514071D01*
X71923908Y-77514071D02*
X71899146Y-77551214D01*
X71899146Y-77551214D02*
X71874384Y-77575976D01*
X71874384Y-77575976D02*
X71849622Y-77588357D01*
X72122003Y-77774071D02*
X72171527Y-77774071D01*
X72171527Y-77774071D02*
X72196289Y-77761691D01*
X72196289Y-77761691D02*
X72208670Y-77749310D01*
X72208670Y-77749310D02*
X72233432Y-77712167D01*
X72233432Y-77712167D02*
X72245813Y-77662643D01*
X72245813Y-77662643D02*
X72245813Y-77563595D01*
X72245813Y-77563595D02*
X72233432Y-77538833D01*
X72233432Y-77538833D02*
X72221051Y-77526452D01*
X72221051Y-77526452D02*
X72196289Y-77514071D01*
X72196289Y-77514071D02*
X72146765Y-77514071D01*
X72146765Y-77514071D02*
X72122003Y-77526452D01*
X72122003Y-77526452D02*
X72109622Y-77538833D01*
X72109622Y-77538833D02*
X72097241Y-77563595D01*
X72097241Y-77563595D02*
X72097241Y-77625500D01*
X72097241Y-77625500D02*
X72109622Y-77650262D01*
X72109622Y-77650262D02*
X72122003Y-77662643D01*
X72122003Y-77662643D02*
X72146765Y-77675024D01*
X72146765Y-77675024D02*
X72196289Y-77675024D01*
X72196289Y-77675024D02*
X72221051Y-77662643D01*
X72221051Y-77662643D02*
X72233432Y-77650262D01*
X72233432Y-77650262D02*
X72245813Y-77625500D01*
D11*
X60198095Y-132534819D02*
X60198095Y-131534819D01*
X60198095Y-132011009D02*
X60769523Y-132011009D01*
X60769523Y-132534819D02*
X60769523Y-131534819D01*
X61674285Y-131868152D02*
X61674285Y-132534819D01*
X61436190Y-131487200D02*
X61198095Y-132201485D01*
X61198095Y-132201485D02*
X61817142Y-132201485D01*
D15*
X67642203Y-113254836D02*
X67630299Y-113266741D01*
X67630299Y-113266741D02*
X67594584Y-113278645D01*
X67594584Y-113278645D02*
X67570775Y-113278645D01*
X67570775Y-113278645D02*
X67535061Y-113266741D01*
X67535061Y-113266741D02*
X67511251Y-113242931D01*
X67511251Y-113242931D02*
X67499346Y-113219121D01*
X67499346Y-113219121D02*
X67487442Y-113171502D01*
X67487442Y-113171502D02*
X67487442Y-113135788D01*
X67487442Y-113135788D02*
X67499346Y-113088169D01*
X67499346Y-113088169D02*
X67511251Y-113064360D01*
X67511251Y-113064360D02*
X67535061Y-113040550D01*
X67535061Y-113040550D02*
X67570775Y-113028645D01*
X67570775Y-113028645D02*
X67594584Y-113028645D01*
X67594584Y-113028645D02*
X67630299Y-113040550D01*
X67630299Y-113040550D02*
X67642203Y-113052455D01*
X67880299Y-113278645D02*
X67737442Y-113278645D01*
X67808870Y-113278645D02*
X67808870Y-113028645D01*
X67808870Y-113028645D02*
X67785061Y-113064360D01*
X67785061Y-113064360D02*
X67761251Y-113088169D01*
X67761251Y-113088169D02*
X67737442Y-113100074D01*
X67975537Y-113052455D02*
X67987441Y-113040550D01*
X67987441Y-113040550D02*
X68011251Y-113028645D01*
X68011251Y-113028645D02*
X68070775Y-113028645D01*
X68070775Y-113028645D02*
X68094584Y-113040550D01*
X68094584Y-113040550D02*
X68106489Y-113052455D01*
X68106489Y-113052455D02*
X68118394Y-113076264D01*
X68118394Y-113076264D02*
X68118394Y-113100074D01*
X68118394Y-113100074D02*
X68106489Y-113135788D01*
X68106489Y-113135788D02*
X67963632Y-113278645D01*
X67963632Y-113278645D02*
X68118394Y-113278645D01*
D16*
X75574127Y-73521047D02*
X75074127Y-73521047D01*
X75074127Y-73521047D02*
X75074127Y-73401999D01*
X75074127Y-73401999D02*
X75097937Y-73330571D01*
X75097937Y-73330571D02*
X75145556Y-73282952D01*
X75145556Y-73282952D02*
X75193175Y-73259142D01*
X75193175Y-73259142D02*
X75288413Y-73235333D01*
X75288413Y-73235333D02*
X75359841Y-73235333D01*
X75359841Y-73235333D02*
X75455079Y-73259142D01*
X75455079Y-73259142D02*
X75502698Y-73282952D01*
X75502698Y-73282952D02*
X75550318Y-73330571D01*
X75550318Y-73330571D02*
X75574127Y-73401999D01*
X75574127Y-73401999D02*
X75574127Y-73521047D01*
X75240794Y-72806761D02*
X75574127Y-72806761D01*
X75050318Y-72925809D02*
X75407460Y-73044856D01*
X75407460Y-73044856D02*
X75407460Y-72735333D01*
D15*
X77211575Y-115950271D02*
X77124908Y-115826462D01*
X77063003Y-115950271D02*
X77063003Y-115690271D01*
X77063003Y-115690271D02*
X77162051Y-115690271D01*
X77162051Y-115690271D02*
X77186813Y-115702652D01*
X77186813Y-115702652D02*
X77199194Y-115715033D01*
X77199194Y-115715033D02*
X77211575Y-115739795D01*
X77211575Y-115739795D02*
X77211575Y-115776938D01*
X77211575Y-115776938D02*
X77199194Y-115801700D01*
X77199194Y-115801700D02*
X77186813Y-115814081D01*
X77186813Y-115814081D02*
X77162051Y-115826462D01*
X77162051Y-115826462D02*
X77063003Y-115826462D01*
X77459194Y-115950271D02*
X77310622Y-115950271D01*
X77384908Y-115950271D02*
X77384908Y-115690271D01*
X77384908Y-115690271D02*
X77360146Y-115727414D01*
X77360146Y-115727414D02*
X77335384Y-115752176D01*
X77335384Y-115752176D02*
X77310622Y-115764557D01*
X77694432Y-115690271D02*
X77570622Y-115690271D01*
X77570622Y-115690271D02*
X77558241Y-115814081D01*
X77558241Y-115814081D02*
X77570622Y-115801700D01*
X77570622Y-115801700D02*
X77595384Y-115789319D01*
X77595384Y-115789319D02*
X77657289Y-115789319D01*
X77657289Y-115789319D02*
X77682051Y-115801700D01*
X77682051Y-115801700D02*
X77694432Y-115814081D01*
X77694432Y-115814081D02*
X77706813Y-115838843D01*
X77706813Y-115838843D02*
X77706813Y-115900748D01*
X77706813Y-115900748D02*
X77694432Y-115925510D01*
X77694432Y-115925510D02*
X77682051Y-115937891D01*
X77682051Y-115937891D02*
X77657289Y-115950271D01*
X77657289Y-115950271D02*
X77595384Y-115950271D01*
X77595384Y-115950271D02*
X77570622Y-115937891D01*
X77570622Y-115937891D02*
X77558241Y-115925510D01*
D11*
X77148718Y-75404128D02*
X77196337Y-75356509D01*
X77196337Y-75356509D02*
X77291575Y-75308890D01*
X77291575Y-75308890D02*
X77529670Y-75308890D01*
X77529670Y-75308890D02*
X77624908Y-75356509D01*
X77624908Y-75356509D02*
X77672527Y-75404128D01*
X77672527Y-75404128D02*
X77720146Y-75499366D01*
X77720146Y-75499366D02*
X77720146Y-75594604D01*
X77720146Y-75594604D02*
X77672527Y-75737461D01*
X77672527Y-75737461D02*
X77101099Y-76308890D01*
X77101099Y-76308890D02*
X77720146Y-76308890D01*
X78148718Y-76213651D02*
X78196337Y-76261271D01*
X78196337Y-76261271D02*
X78148718Y-76308890D01*
X78148718Y-76308890D02*
X78101099Y-76261271D01*
X78101099Y-76261271D02*
X78148718Y-76213651D01*
X78148718Y-76213651D02*
X78148718Y-76308890D01*
X78577289Y-75404128D02*
X78624908Y-75356509D01*
X78624908Y-75356509D02*
X78720146Y-75308890D01*
X78720146Y-75308890D02*
X78958241Y-75308890D01*
X78958241Y-75308890D02*
X79053479Y-75356509D01*
X79053479Y-75356509D02*
X79101098Y-75404128D01*
X79101098Y-75404128D02*
X79148717Y-75499366D01*
X79148717Y-75499366D02*
X79148717Y-75594604D01*
X79148717Y-75594604D02*
X79101098Y-75737461D01*
X79101098Y-75737461D02*
X78529670Y-76308890D01*
X78529670Y-76308890D02*
X79148717Y-76308890D01*
X79577289Y-76308890D02*
X79577289Y-75308890D01*
X80148717Y-76308890D02*
X79720146Y-75737461D01*
X80148717Y-75308890D02*
X79577289Y-75880318D01*
D15*
X78481575Y-74802271D02*
X78394908Y-74678462D01*
X78333003Y-74802271D02*
X78333003Y-74542271D01*
X78333003Y-74542271D02*
X78432051Y-74542271D01*
X78432051Y-74542271D02*
X78456813Y-74554652D01*
X78456813Y-74554652D02*
X78469194Y-74567033D01*
X78469194Y-74567033D02*
X78481575Y-74591795D01*
X78481575Y-74591795D02*
X78481575Y-74628938D01*
X78481575Y-74628938D02*
X78469194Y-74653700D01*
X78469194Y-74653700D02*
X78456813Y-74666081D01*
X78456813Y-74666081D02*
X78432051Y-74678462D01*
X78432051Y-74678462D02*
X78333003Y-74678462D01*
X78729194Y-74802271D02*
X78580622Y-74802271D01*
X78654908Y-74802271D02*
X78654908Y-74542271D01*
X78654908Y-74542271D02*
X78630146Y-74579414D01*
X78630146Y-74579414D02*
X78605384Y-74604176D01*
X78605384Y-74604176D02*
X78580622Y-74616557D01*
X78952051Y-74628938D02*
X78952051Y-74802271D01*
X78890146Y-74529891D02*
X78828241Y-74715605D01*
X78828241Y-74715605D02*
X78989194Y-74715605D01*
X72972683Y-113765537D02*
X72984588Y-113777441D01*
X72984588Y-113777441D02*
X72996492Y-113813156D01*
X72996492Y-113813156D02*
X72996492Y-113836965D01*
X72996492Y-113836965D02*
X72984588Y-113872679D01*
X72984588Y-113872679D02*
X72960778Y-113896489D01*
X72960778Y-113896489D02*
X72936968Y-113908394D01*
X72936968Y-113908394D02*
X72889349Y-113920298D01*
X72889349Y-113920298D02*
X72853635Y-113920298D01*
X72853635Y-113920298D02*
X72806016Y-113908394D01*
X72806016Y-113908394D02*
X72782207Y-113896489D01*
X72782207Y-113896489D02*
X72758397Y-113872679D01*
X72758397Y-113872679D02*
X72746492Y-113836965D01*
X72746492Y-113836965D02*
X72746492Y-113813156D01*
X72746492Y-113813156D02*
X72758397Y-113777441D01*
X72758397Y-113777441D02*
X72770302Y-113765537D01*
X72829826Y-113551251D02*
X72996492Y-113551251D01*
X72734588Y-113610775D02*
X72913159Y-113670298D01*
X72913159Y-113670298D02*
X72913159Y-113515537D01*
X79478603Y-106803236D02*
X79466699Y-106815141D01*
X79466699Y-106815141D02*
X79430984Y-106827045D01*
X79430984Y-106827045D02*
X79407175Y-106827045D01*
X79407175Y-106827045D02*
X79371461Y-106815141D01*
X79371461Y-106815141D02*
X79347651Y-106791331D01*
X79347651Y-106791331D02*
X79335746Y-106767521D01*
X79335746Y-106767521D02*
X79323842Y-106719902D01*
X79323842Y-106719902D02*
X79323842Y-106684188D01*
X79323842Y-106684188D02*
X79335746Y-106636569D01*
X79335746Y-106636569D02*
X79347651Y-106612760D01*
X79347651Y-106612760D02*
X79371461Y-106588950D01*
X79371461Y-106588950D02*
X79407175Y-106577045D01*
X79407175Y-106577045D02*
X79430984Y-106577045D01*
X79430984Y-106577045D02*
X79466699Y-106588950D01*
X79466699Y-106588950D02*
X79478603Y-106600855D01*
X79716699Y-106827045D02*
X79573842Y-106827045D01*
X79645270Y-106827045D02*
X79645270Y-106577045D01*
X79645270Y-106577045D02*
X79621461Y-106612760D01*
X79621461Y-106612760D02*
X79597651Y-106636569D01*
X79597651Y-106636569D02*
X79573842Y-106648474D01*
X79835746Y-106827045D02*
X79883365Y-106827045D01*
X79883365Y-106827045D02*
X79907175Y-106815141D01*
X79907175Y-106815141D02*
X79919079Y-106803236D01*
X79919079Y-106803236D02*
X79942889Y-106767521D01*
X79942889Y-106767521D02*
X79954794Y-106719902D01*
X79954794Y-106719902D02*
X79954794Y-106624664D01*
X79954794Y-106624664D02*
X79942889Y-106600855D01*
X79942889Y-106600855D02*
X79930984Y-106588950D01*
X79930984Y-106588950D02*
X79907175Y-106577045D01*
X79907175Y-106577045D02*
X79859556Y-106577045D01*
X79859556Y-106577045D02*
X79835746Y-106588950D01*
X79835746Y-106588950D02*
X79823841Y-106600855D01*
X79823841Y-106600855D02*
X79811937Y-106624664D01*
X79811937Y-106624664D02*
X79811937Y-106684188D01*
X79811937Y-106684188D02*
X79823841Y-106707998D01*
X79823841Y-106707998D02*
X79835746Y-106719902D01*
X79835746Y-106719902D02*
X79859556Y-106731807D01*
X79859556Y-106731807D02*
X79907175Y-106731807D01*
X79907175Y-106731807D02*
X79930984Y-106719902D01*
X79930984Y-106719902D02*
X79942889Y-106707998D01*
X79942889Y-106707998D02*
X79954794Y-106684188D01*
D17*
X78277280Y-73367398D02*
X78277280Y-72967398D01*
X78277280Y-72967398D02*
X78372518Y-72967398D01*
X78372518Y-72967398D02*
X78429661Y-72986446D01*
X78429661Y-72986446D02*
X78467756Y-73024541D01*
X78467756Y-73024541D02*
X78486803Y-73062636D01*
X78486803Y-73062636D02*
X78505851Y-73138827D01*
X78505851Y-73138827D02*
X78505851Y-73195970D01*
X78505851Y-73195970D02*
X78486803Y-73272160D01*
X78486803Y-73272160D02*
X78467756Y-73310255D01*
X78467756Y-73310255D02*
X78429661Y-73348351D01*
X78429661Y-73348351D02*
X78372518Y-73367398D01*
X78372518Y-73367398D02*
X78277280Y-73367398D01*
X78639184Y-72967398D02*
X78886803Y-72967398D01*
X78886803Y-72967398D02*
X78753470Y-73119779D01*
X78753470Y-73119779D02*
X78810613Y-73119779D01*
X78810613Y-73119779D02*
X78848708Y-73138827D01*
X78848708Y-73138827D02*
X78867756Y-73157874D01*
X78867756Y-73157874D02*
X78886803Y-73195970D01*
X78886803Y-73195970D02*
X78886803Y-73291208D01*
X78886803Y-73291208D02*
X78867756Y-73329303D01*
X78867756Y-73329303D02*
X78848708Y-73348351D01*
X78848708Y-73348351D02*
X78810613Y-73367398D01*
X78810613Y-73367398D02*
X78696327Y-73367398D01*
X78696327Y-73367398D02*
X78658232Y-73348351D01*
X78658232Y-73348351D02*
X78639184Y-73329303D01*
D15*
X75432051Y-113356436D02*
X75420147Y-113368341D01*
X75420147Y-113368341D02*
X75384432Y-113380245D01*
X75384432Y-113380245D02*
X75360623Y-113380245D01*
X75360623Y-113380245D02*
X75324909Y-113368341D01*
X75324909Y-113368341D02*
X75301099Y-113344531D01*
X75301099Y-113344531D02*
X75289194Y-113320721D01*
X75289194Y-113320721D02*
X75277290Y-113273102D01*
X75277290Y-113273102D02*
X75277290Y-113237388D01*
X75277290Y-113237388D02*
X75289194Y-113189769D01*
X75289194Y-113189769D02*
X75301099Y-113165960D01*
X75301099Y-113165960D02*
X75324909Y-113142150D01*
X75324909Y-113142150D02*
X75360623Y-113130245D01*
X75360623Y-113130245D02*
X75384432Y-113130245D01*
X75384432Y-113130245D02*
X75420147Y-113142150D01*
X75420147Y-113142150D02*
X75432051Y-113154055D01*
X75551099Y-113380245D02*
X75598718Y-113380245D01*
X75598718Y-113380245D02*
X75622528Y-113368341D01*
X75622528Y-113368341D02*
X75634432Y-113356436D01*
X75634432Y-113356436D02*
X75658242Y-113320721D01*
X75658242Y-113320721D02*
X75670147Y-113273102D01*
X75670147Y-113273102D02*
X75670147Y-113177864D01*
X75670147Y-113177864D02*
X75658242Y-113154055D01*
X75658242Y-113154055D02*
X75646337Y-113142150D01*
X75646337Y-113142150D02*
X75622528Y-113130245D01*
X75622528Y-113130245D02*
X75574909Y-113130245D01*
X75574909Y-113130245D02*
X75551099Y-113142150D01*
X75551099Y-113142150D02*
X75539194Y-113154055D01*
X75539194Y-113154055D02*
X75527290Y-113177864D01*
X75527290Y-113177864D02*
X75527290Y-113237388D01*
X75527290Y-113237388D02*
X75539194Y-113261198D01*
X75539194Y-113261198D02*
X75551099Y-113273102D01*
X75551099Y-113273102D02*
X75574909Y-113285007D01*
X75574909Y-113285007D02*
X75622528Y-113285007D01*
X75622528Y-113285007D02*
X75646337Y-113273102D01*
X75646337Y-113273102D02*
X75658242Y-113261198D01*
X75658242Y-113261198D02*
X75670147Y-113237388D01*
X75306575Y-115289871D02*
X75219908Y-115166062D01*
X75158003Y-115289871D02*
X75158003Y-115029871D01*
X75158003Y-115029871D02*
X75257051Y-115029871D01*
X75257051Y-115029871D02*
X75281813Y-115042252D01*
X75281813Y-115042252D02*
X75294194Y-115054633D01*
X75294194Y-115054633D02*
X75306575Y-115079395D01*
X75306575Y-115079395D02*
X75306575Y-115116538D01*
X75306575Y-115116538D02*
X75294194Y-115141300D01*
X75294194Y-115141300D02*
X75281813Y-115153681D01*
X75281813Y-115153681D02*
X75257051Y-115166062D01*
X75257051Y-115166062D02*
X75158003Y-115166062D01*
X75405622Y-115054633D02*
X75418003Y-115042252D01*
X75418003Y-115042252D02*
X75442765Y-115029871D01*
X75442765Y-115029871D02*
X75504670Y-115029871D01*
X75504670Y-115029871D02*
X75529432Y-115042252D01*
X75529432Y-115042252D02*
X75541813Y-115054633D01*
X75541813Y-115054633D02*
X75554194Y-115079395D01*
X75554194Y-115079395D02*
X75554194Y-115104157D01*
X75554194Y-115104157D02*
X75541813Y-115141300D01*
X75541813Y-115141300D02*
X75393241Y-115289871D01*
X75393241Y-115289871D02*
X75554194Y-115289871D01*
X75789432Y-115029871D02*
X75665622Y-115029871D01*
X75665622Y-115029871D02*
X75653241Y-115153681D01*
X75653241Y-115153681D02*
X75665622Y-115141300D01*
X75665622Y-115141300D02*
X75690384Y-115128919D01*
X75690384Y-115128919D02*
X75752289Y-115128919D01*
X75752289Y-115128919D02*
X75777051Y-115141300D01*
X75777051Y-115141300D02*
X75789432Y-115153681D01*
X75789432Y-115153681D02*
X75801813Y-115178443D01*
X75801813Y-115178443D02*
X75801813Y-115240348D01*
X75801813Y-115240348D02*
X75789432Y-115265110D01*
X75789432Y-115265110D02*
X75777051Y-115277491D01*
X75777051Y-115277491D02*
X75752289Y-115289871D01*
X75752289Y-115289871D02*
X75690384Y-115289871D01*
X75690384Y-115289871D02*
X75665622Y-115277491D01*
X75665622Y-115277491D02*
X75653241Y-115265110D01*
X65221251Y-107362036D02*
X65209347Y-107373941D01*
X65209347Y-107373941D02*
X65173632Y-107385845D01*
X65173632Y-107385845D02*
X65149823Y-107385845D01*
X65149823Y-107385845D02*
X65114109Y-107373941D01*
X65114109Y-107373941D02*
X65090299Y-107350131D01*
X65090299Y-107350131D02*
X65078394Y-107326321D01*
X65078394Y-107326321D02*
X65066490Y-107278702D01*
X65066490Y-107278702D02*
X65066490Y-107242988D01*
X65066490Y-107242988D02*
X65078394Y-107195369D01*
X65078394Y-107195369D02*
X65090299Y-107171560D01*
X65090299Y-107171560D02*
X65114109Y-107147750D01*
X65114109Y-107147750D02*
X65149823Y-107135845D01*
X65149823Y-107135845D02*
X65173632Y-107135845D01*
X65173632Y-107135845D02*
X65209347Y-107147750D01*
X65209347Y-107147750D02*
X65221251Y-107159655D01*
X65447442Y-107135845D02*
X65328394Y-107135845D01*
X65328394Y-107135845D02*
X65316490Y-107254893D01*
X65316490Y-107254893D02*
X65328394Y-107242988D01*
X65328394Y-107242988D02*
X65352204Y-107231083D01*
X65352204Y-107231083D02*
X65411728Y-107231083D01*
X65411728Y-107231083D02*
X65435537Y-107242988D01*
X65435537Y-107242988D02*
X65447442Y-107254893D01*
X65447442Y-107254893D02*
X65459347Y-107278702D01*
X65459347Y-107278702D02*
X65459347Y-107338226D01*
X65459347Y-107338226D02*
X65447442Y-107362036D01*
X65447442Y-107362036D02*
X65435537Y-107373941D01*
X65435537Y-107373941D02*
X65411728Y-107385845D01*
X65411728Y-107385845D02*
X65352204Y-107385845D01*
X65352204Y-107385845D02*
X65328394Y-107373941D01*
X65328394Y-107373941D02*
X65316490Y-107362036D01*
D18*
X67402360Y-76275804D02*
X67462836Y-76094375D01*
X67462836Y-76094375D02*
X67462836Y-75791994D01*
X67462836Y-75791994D02*
X67402360Y-75671042D01*
X67402360Y-75671042D02*
X67341883Y-75610566D01*
X67341883Y-75610566D02*
X67220931Y-75550089D01*
X67220931Y-75550089D02*
X67099979Y-75550089D01*
X67099979Y-75550089D02*
X66979026Y-75610566D01*
X66979026Y-75610566D02*
X66918550Y-75671042D01*
X66918550Y-75671042D02*
X66858074Y-75791994D01*
X66858074Y-75791994D02*
X66797598Y-76033899D01*
X66797598Y-76033899D02*
X66737121Y-76154851D01*
X66737121Y-76154851D02*
X66676645Y-76215328D01*
X66676645Y-76215328D02*
X66555693Y-76275804D01*
X66555693Y-76275804D02*
X66434740Y-76275804D01*
X66434740Y-76275804D02*
X66313788Y-76215328D01*
X66313788Y-76215328D02*
X66253312Y-76154851D01*
X66253312Y-76154851D02*
X66192836Y-76033899D01*
X66192836Y-76033899D02*
X66192836Y-75731518D01*
X66192836Y-75731518D02*
X66253312Y-75550089D01*
X66192836Y-75126756D02*
X67462836Y-74824375D01*
X67462836Y-74824375D02*
X66555693Y-74582470D01*
X66555693Y-74582470D02*
X67462836Y-74340565D01*
X67462836Y-74340565D02*
X66192836Y-74038185D01*
X66313788Y-73614851D02*
X66253312Y-73554375D01*
X66253312Y-73554375D02*
X66192836Y-73433422D01*
X66192836Y-73433422D02*
X66192836Y-73131041D01*
X66192836Y-73131041D02*
X66253312Y-73010089D01*
X66253312Y-73010089D02*
X66313788Y-72949613D01*
X66313788Y-72949613D02*
X66434740Y-72889136D01*
X66434740Y-72889136D02*
X66555693Y-72889136D01*
X66555693Y-72889136D02*
X66737121Y-72949613D01*
X66737121Y-72949613D02*
X67462836Y-73675327D01*
X67462836Y-73675327D02*
X67462836Y-72889136D01*
D11*
X82146537Y-121513347D02*
X82146537Y-122084775D01*
X82146537Y-121799061D02*
X81146537Y-121799061D01*
X81146537Y-121799061D02*
X81289394Y-121894299D01*
X81289394Y-121894299D02*
X81384632Y-121989537D01*
X81384632Y-121989537D02*
X81432251Y-122084775D01*
X82146537Y-121084775D02*
X81146537Y-121084775D01*
X81146537Y-121084775D02*
X82146537Y-120513347D01*
X82146537Y-120513347D02*
X81146537Y-120513347D01*
X81146537Y-119560966D02*
X81146537Y-120037156D01*
X81146537Y-120037156D02*
X81622727Y-120084775D01*
X81622727Y-120084775D02*
X81575108Y-120037156D01*
X81575108Y-120037156D02*
X81527489Y-119941918D01*
X81527489Y-119941918D02*
X81527489Y-119703823D01*
X81527489Y-119703823D02*
X81575108Y-119608585D01*
X81575108Y-119608585D02*
X81622727Y-119560966D01*
X81622727Y-119560966D02*
X81717965Y-119513347D01*
X81717965Y-119513347D02*
X81956060Y-119513347D01*
X81956060Y-119513347D02*
X82051298Y-119560966D01*
X82051298Y-119560966D02*
X82098918Y-119608585D01*
X82098918Y-119608585D02*
X82146537Y-119703823D01*
X82146537Y-119703823D02*
X82146537Y-119941918D01*
X82146537Y-119941918D02*
X82098918Y-120037156D01*
X82098918Y-120037156D02*
X82051298Y-120084775D01*
X81575108Y-118941918D02*
X81527489Y-119037156D01*
X81527489Y-119037156D02*
X81479870Y-119084775D01*
X81479870Y-119084775D02*
X81384632Y-119132394D01*
X81384632Y-119132394D02*
X81337013Y-119132394D01*
X81337013Y-119132394D02*
X81241775Y-119084775D01*
X81241775Y-119084775D02*
X81194156Y-119037156D01*
X81194156Y-119037156D02*
X81146537Y-118941918D01*
X81146537Y-118941918D02*
X81146537Y-118751442D01*
X81146537Y-118751442D02*
X81194156Y-118656204D01*
X81194156Y-118656204D02*
X81241775Y-118608585D01*
X81241775Y-118608585D02*
X81337013Y-118560966D01*
X81337013Y-118560966D02*
X81384632Y-118560966D01*
X81384632Y-118560966D02*
X81479870Y-118608585D01*
X81479870Y-118608585D02*
X81527489Y-118656204D01*
X81527489Y-118656204D02*
X81575108Y-118751442D01*
X81575108Y-118751442D02*
X81575108Y-118941918D01*
X81575108Y-118941918D02*
X81622727Y-119037156D01*
X81622727Y-119037156D02*
X81670346Y-119084775D01*
X81670346Y-119084775D02*
X81765584Y-119132394D01*
X81765584Y-119132394D02*
X81956060Y-119132394D01*
X81956060Y-119132394D02*
X82051298Y-119084775D01*
X82051298Y-119084775D02*
X82098918Y-119037156D01*
X82098918Y-119037156D02*
X82146537Y-118941918D01*
X82146537Y-118941918D02*
X82146537Y-118751442D01*
X82146537Y-118751442D02*
X82098918Y-118656204D01*
X82098918Y-118656204D02*
X82051298Y-118608585D01*
X82051298Y-118608585D02*
X81956060Y-118560966D01*
X81956060Y-118560966D02*
X81765584Y-118560966D01*
X81765584Y-118560966D02*
X81670346Y-118608585D01*
X81670346Y-118608585D02*
X81622727Y-118656204D01*
X81622727Y-118656204D02*
X81575108Y-118751442D01*
X82146537Y-117608585D02*
X82146537Y-118180013D01*
X82146537Y-117894299D02*
X81146537Y-117894299D01*
X81146537Y-117894299D02*
X81289394Y-117989537D01*
X81289394Y-117989537D02*
X81384632Y-118084775D01*
X81384632Y-118084775D02*
X81432251Y-118180013D01*
X82146537Y-117132394D02*
X82146537Y-116941918D01*
X82146537Y-116941918D02*
X82098918Y-116846680D01*
X82098918Y-116846680D02*
X82051298Y-116799061D01*
X82051298Y-116799061D02*
X81908441Y-116703823D01*
X81908441Y-116703823D02*
X81717965Y-116656204D01*
X81717965Y-116656204D02*
X81337013Y-116656204D01*
X81337013Y-116656204D02*
X81241775Y-116703823D01*
X81241775Y-116703823D02*
X81194156Y-116751442D01*
X81194156Y-116751442D02*
X81146537Y-116846680D01*
X81146537Y-116846680D02*
X81146537Y-117037156D01*
X81146537Y-117037156D02*
X81194156Y-117132394D01*
X81194156Y-117132394D02*
X81241775Y-117180013D01*
X81241775Y-117180013D02*
X81337013Y-117227632D01*
X81337013Y-117227632D02*
X81575108Y-117227632D01*
X81575108Y-117227632D02*
X81670346Y-117180013D01*
X81670346Y-117180013D02*
X81717965Y-117132394D01*
X81717965Y-117132394D02*
X81765584Y-117037156D01*
X81765584Y-117037156D02*
X81765584Y-116846680D01*
X81765584Y-116846680D02*
X81717965Y-116751442D01*
X81717965Y-116751442D02*
X81670346Y-116703823D01*
X81670346Y-116703823D02*
X81575108Y-116656204D01*
X81146537Y-116322870D02*
X82146537Y-116084775D01*
X82146537Y-116084775D02*
X81432251Y-115894299D01*
X81432251Y-115894299D02*
X82146537Y-115703823D01*
X82146537Y-115703823D02*
X81146537Y-115465728D01*
X82098918Y-115132394D02*
X82146537Y-114989537D01*
X82146537Y-114989537D02*
X82146537Y-114751442D01*
X82146537Y-114751442D02*
X82098918Y-114656204D01*
X82098918Y-114656204D02*
X82051298Y-114608585D01*
X82051298Y-114608585D02*
X81956060Y-114560966D01*
X81956060Y-114560966D02*
X81860822Y-114560966D01*
X81860822Y-114560966D02*
X81765584Y-114608585D01*
X81765584Y-114608585D02*
X81717965Y-114656204D01*
X81717965Y-114656204D02*
X81670346Y-114751442D01*
X81670346Y-114751442D02*
X81622727Y-114941918D01*
X81622727Y-114941918D02*
X81575108Y-115037156D01*
X81575108Y-115037156D02*
X81527489Y-115084775D01*
X81527489Y-115084775D02*
X81432251Y-115132394D01*
X81432251Y-115132394D02*
X81337013Y-115132394D01*
X81337013Y-115132394D02*
X81241775Y-115084775D01*
X81241775Y-115084775D02*
X81194156Y-115037156D01*
X81194156Y-115037156D02*
X81146537Y-114941918D01*
X81146537Y-114941918D02*
X81146537Y-114703823D01*
X81146537Y-114703823D02*
X81194156Y-114560966D01*
X78396537Y-119160965D02*
X77396537Y-119160965D01*
X77396537Y-119160965D02*
X77396537Y-118922870D01*
X77396537Y-118922870D02*
X77444156Y-118780013D01*
X77444156Y-118780013D02*
X77539394Y-118684775D01*
X77539394Y-118684775D02*
X77634632Y-118637156D01*
X77634632Y-118637156D02*
X77825108Y-118589537D01*
X77825108Y-118589537D02*
X77967965Y-118589537D01*
X77967965Y-118589537D02*
X78158441Y-118637156D01*
X78158441Y-118637156D02*
X78253679Y-118684775D01*
X78253679Y-118684775D02*
X78348918Y-118780013D01*
X78348918Y-118780013D02*
X78396537Y-118922870D01*
X78396537Y-118922870D02*
X78396537Y-119160965D01*
X77396537Y-117732394D02*
X77396537Y-117922870D01*
X77396537Y-117922870D02*
X77444156Y-118018108D01*
X77444156Y-118018108D02*
X77491775Y-118065727D01*
X77491775Y-118065727D02*
X77634632Y-118160965D01*
X77634632Y-118160965D02*
X77825108Y-118208584D01*
X77825108Y-118208584D02*
X78206060Y-118208584D01*
X78206060Y-118208584D02*
X78301298Y-118160965D01*
X78301298Y-118160965D02*
X78348918Y-118113346D01*
X78348918Y-118113346D02*
X78396537Y-118018108D01*
X78396537Y-118018108D02*
X78396537Y-117827632D01*
X78396537Y-117827632D02*
X78348918Y-117732394D01*
X78348918Y-117732394D02*
X78301298Y-117684775D01*
X78301298Y-117684775D02*
X78206060Y-117637156D01*
X78206060Y-117637156D02*
X77967965Y-117637156D01*
X77967965Y-117637156D02*
X77872727Y-117684775D01*
X77872727Y-117684775D02*
X77825108Y-117732394D01*
X77825108Y-117732394D02*
X77777489Y-117827632D01*
X77777489Y-117827632D02*
X77777489Y-118018108D01*
X77777489Y-118018108D02*
X77825108Y-118113346D01*
X77825108Y-118113346D02*
X77872727Y-118160965D01*
X77872727Y-118160965D02*
X77967965Y-118208584D01*
X64556632Y-76941290D02*
X64651870Y-76941290D01*
X64651870Y-76941290D02*
X64747108Y-76988909D01*
X64747108Y-76988909D02*
X64794727Y-77036528D01*
X64794727Y-77036528D02*
X64842346Y-77131766D01*
X64842346Y-77131766D02*
X64889965Y-77322242D01*
X64889965Y-77322242D02*
X64889965Y-77560337D01*
X64889965Y-77560337D02*
X64842346Y-77750813D01*
X64842346Y-77750813D02*
X64794727Y-77846051D01*
X64794727Y-77846051D02*
X64747108Y-77893671D01*
X64747108Y-77893671D02*
X64651870Y-77941290D01*
X64651870Y-77941290D02*
X64556632Y-77941290D01*
X64556632Y-77941290D02*
X64461394Y-77893671D01*
X64461394Y-77893671D02*
X64413775Y-77846051D01*
X64413775Y-77846051D02*
X64366156Y-77750813D01*
X64366156Y-77750813D02*
X64318537Y-77560337D01*
X64318537Y-77560337D02*
X64318537Y-77322242D01*
X64318537Y-77322242D02*
X64366156Y-77131766D01*
X64366156Y-77131766D02*
X64413775Y-77036528D01*
X64413775Y-77036528D02*
X64461394Y-76988909D01*
X64461394Y-76988909D02*
X64556632Y-76941290D01*
X65318537Y-77846051D02*
X65366156Y-77893671D01*
X65366156Y-77893671D02*
X65318537Y-77941290D01*
X65318537Y-77941290D02*
X65270918Y-77893671D01*
X65270918Y-77893671D02*
X65318537Y-77846051D01*
X65318537Y-77846051D02*
X65318537Y-77941290D01*
X66318536Y-77941290D02*
X65747108Y-77941290D01*
X66032822Y-77941290D02*
X66032822Y-76941290D01*
X66032822Y-76941290D02*
X65937584Y-77084147D01*
X65937584Y-77084147D02*
X65842346Y-77179385D01*
X65842346Y-77179385D02*
X65747108Y-77227004D01*
X67175679Y-77274623D02*
X67175679Y-77941290D01*
X66747108Y-77274623D02*
X66747108Y-77798432D01*
X66747108Y-77798432D02*
X66794727Y-77893671D01*
X66794727Y-77893671D02*
X66889965Y-77941290D01*
X66889965Y-77941290D02*
X67032822Y-77941290D01*
X67032822Y-77941290D02*
X67128060Y-77893671D01*
X67128060Y-77893671D02*
X67175679Y-77846051D01*
D15*
X65610203Y-78736236D02*
X65598299Y-78748141D01*
X65598299Y-78748141D02*
X65562584Y-78760045D01*
X65562584Y-78760045D02*
X65538775Y-78760045D01*
X65538775Y-78760045D02*
X65503061Y-78748141D01*
X65503061Y-78748141D02*
X65479251Y-78724331D01*
X65479251Y-78724331D02*
X65467346Y-78700521D01*
X65467346Y-78700521D02*
X65455442Y-78652902D01*
X65455442Y-78652902D02*
X65455442Y-78617188D01*
X65455442Y-78617188D02*
X65467346Y-78569569D01*
X65467346Y-78569569D02*
X65479251Y-78545760D01*
X65479251Y-78545760D02*
X65503061Y-78521950D01*
X65503061Y-78521950D02*
X65538775Y-78510045D01*
X65538775Y-78510045D02*
X65562584Y-78510045D01*
X65562584Y-78510045D02*
X65598299Y-78521950D01*
X65598299Y-78521950D02*
X65610203Y-78533855D01*
X65848299Y-78760045D02*
X65705442Y-78760045D01*
X65776870Y-78760045D02*
X65776870Y-78510045D01*
X65776870Y-78510045D02*
X65753061Y-78545760D01*
X65753061Y-78545760D02*
X65729251Y-78569569D01*
X65729251Y-78569569D02*
X65705442Y-78581474D01*
X66062584Y-78593379D02*
X66062584Y-78760045D01*
X66003060Y-78498141D02*
X65943537Y-78676712D01*
X65943537Y-78676712D02*
X66098298Y-78676712D01*
D11*
X74497527Y-112834623D02*
X74497527Y-113501290D01*
X74259432Y-112453671D02*
X74021337Y-113167956D01*
X74021337Y-113167956D02*
X74640384Y-113167956D01*
X75021337Y-113406051D02*
X75068956Y-113453671D01*
X75068956Y-113453671D02*
X75021337Y-113501290D01*
X75021337Y-113501290D02*
X74973718Y-113453671D01*
X74973718Y-113453671D02*
X75021337Y-113406051D01*
X75021337Y-113406051D02*
X75021337Y-113501290D01*
X75402289Y-112501290D02*
X76068955Y-112501290D01*
X76068955Y-112501290D02*
X75640384Y-113501290D01*
X76878479Y-112834623D02*
X76878479Y-113501290D01*
X76449908Y-112834623D02*
X76449908Y-113358432D01*
X76449908Y-113358432D02*
X76497527Y-113453671D01*
X76497527Y-113453671D02*
X76592765Y-113501290D01*
X76592765Y-113501290D02*
X76735622Y-113501290D01*
X76735622Y-113501290D02*
X76830860Y-113453671D01*
X76830860Y-113453671D02*
X76878479Y-113406051D01*
D15*
X75313003Y-114296236D02*
X75301099Y-114308141D01*
X75301099Y-114308141D02*
X75265384Y-114320045D01*
X75265384Y-114320045D02*
X75241575Y-114320045D01*
X75241575Y-114320045D02*
X75205861Y-114308141D01*
X75205861Y-114308141D02*
X75182051Y-114284331D01*
X75182051Y-114284331D02*
X75170146Y-114260521D01*
X75170146Y-114260521D02*
X75158242Y-114212902D01*
X75158242Y-114212902D02*
X75158242Y-114177188D01*
X75158242Y-114177188D02*
X75170146Y-114129569D01*
X75170146Y-114129569D02*
X75182051Y-114105760D01*
X75182051Y-114105760D02*
X75205861Y-114081950D01*
X75205861Y-114081950D02*
X75241575Y-114070045D01*
X75241575Y-114070045D02*
X75265384Y-114070045D01*
X75265384Y-114070045D02*
X75301099Y-114081950D01*
X75301099Y-114081950D02*
X75313003Y-114093855D01*
X75396337Y-114070045D02*
X75551099Y-114070045D01*
X75551099Y-114070045D02*
X75467765Y-114165283D01*
X75467765Y-114165283D02*
X75503480Y-114165283D01*
X75503480Y-114165283D02*
X75527289Y-114177188D01*
X75527289Y-114177188D02*
X75539194Y-114189093D01*
X75539194Y-114189093D02*
X75551099Y-114212902D01*
X75551099Y-114212902D02*
X75551099Y-114272426D01*
X75551099Y-114272426D02*
X75539194Y-114296236D01*
X75539194Y-114296236D02*
X75527289Y-114308141D01*
X75527289Y-114308141D02*
X75503480Y-114320045D01*
X75503480Y-114320045D02*
X75432051Y-114320045D01*
X75432051Y-114320045D02*
X75408242Y-114308141D01*
X75408242Y-114308141D02*
X75396337Y-114296236D01*
X75777289Y-114070045D02*
X75658241Y-114070045D01*
X75658241Y-114070045D02*
X75646337Y-114189093D01*
X75646337Y-114189093D02*
X75658241Y-114177188D01*
X75658241Y-114177188D02*
X75682051Y-114165283D01*
X75682051Y-114165283D02*
X75741575Y-114165283D01*
X75741575Y-114165283D02*
X75765384Y-114177188D01*
X75765384Y-114177188D02*
X75777289Y-114189093D01*
X75777289Y-114189093D02*
X75789194Y-114212902D01*
X75789194Y-114212902D02*
X75789194Y-114272426D01*
X75789194Y-114272426D02*
X75777289Y-114296236D01*
X75777289Y-114296236D02*
X75765384Y-114308141D01*
X75765384Y-114308141D02*
X75741575Y-114320045D01*
X75741575Y-114320045D02*
X75682051Y-114320045D01*
X75682051Y-114320045D02*
X75658241Y-114308141D01*
X75658241Y-114308141D02*
X75646337Y-114296236D01*
D11*
X78459927Y-112284423D02*
X78459927Y-112951090D01*
X78221832Y-111903471D02*
X77983737Y-112617756D01*
X77983737Y-112617756D02*
X78602784Y-112617756D01*
X78983737Y-112855851D02*
X79031356Y-112903471D01*
X79031356Y-112903471D02*
X78983737Y-112951090D01*
X78983737Y-112951090D02*
X78936118Y-112903471D01*
X78936118Y-112903471D02*
X78983737Y-112855851D01*
X78983737Y-112855851D02*
X78983737Y-112951090D01*
X79364689Y-111951090D02*
X80031355Y-111951090D01*
X80031355Y-111951090D02*
X79602784Y-112951090D01*
X80840879Y-112284423D02*
X80840879Y-112951090D01*
X80412308Y-112284423D02*
X80412308Y-112808232D01*
X80412308Y-112808232D02*
X80459927Y-112903471D01*
X80459927Y-112903471D02*
X80555165Y-112951090D01*
X80555165Y-112951090D02*
X80698022Y-112951090D01*
X80698022Y-112951090D02*
X80793260Y-112903471D01*
X80793260Y-112903471D02*
X80840879Y-112855851D01*
D15*
X79275403Y-111426036D02*
X79263499Y-111437941D01*
X79263499Y-111437941D02*
X79227784Y-111449845D01*
X79227784Y-111449845D02*
X79203975Y-111449845D01*
X79203975Y-111449845D02*
X79168261Y-111437941D01*
X79168261Y-111437941D02*
X79144451Y-111414131D01*
X79144451Y-111414131D02*
X79132546Y-111390321D01*
X79132546Y-111390321D02*
X79120642Y-111342702D01*
X79120642Y-111342702D02*
X79120642Y-111306988D01*
X79120642Y-111306988D02*
X79132546Y-111259369D01*
X79132546Y-111259369D02*
X79144451Y-111235560D01*
X79144451Y-111235560D02*
X79168261Y-111211750D01*
X79168261Y-111211750D02*
X79203975Y-111199845D01*
X79203975Y-111199845D02*
X79227784Y-111199845D01*
X79227784Y-111199845D02*
X79263499Y-111211750D01*
X79263499Y-111211750D02*
X79275403Y-111223655D01*
X79370642Y-111223655D02*
X79382546Y-111211750D01*
X79382546Y-111211750D02*
X79406356Y-111199845D01*
X79406356Y-111199845D02*
X79465880Y-111199845D01*
X79465880Y-111199845D02*
X79489689Y-111211750D01*
X79489689Y-111211750D02*
X79501594Y-111223655D01*
X79501594Y-111223655D02*
X79513499Y-111247464D01*
X79513499Y-111247464D02*
X79513499Y-111271274D01*
X79513499Y-111271274D02*
X79501594Y-111306988D01*
X79501594Y-111306988D02*
X79358737Y-111449845D01*
X79358737Y-111449845D02*
X79513499Y-111449845D01*
X79596832Y-111199845D02*
X79751594Y-111199845D01*
X79751594Y-111199845D02*
X79668260Y-111295083D01*
X79668260Y-111295083D02*
X79703975Y-111295083D01*
X79703975Y-111295083D02*
X79727784Y-111306988D01*
X79727784Y-111306988D02*
X79739689Y-111318893D01*
X79739689Y-111318893D02*
X79751594Y-111342702D01*
X79751594Y-111342702D02*
X79751594Y-111402226D01*
X79751594Y-111402226D02*
X79739689Y-111426036D01*
X79739689Y-111426036D02*
X79727784Y-111437941D01*
X79727784Y-111437941D02*
X79703975Y-111449845D01*
X79703975Y-111449845D02*
X79632546Y-111449845D01*
X79632546Y-111449845D02*
X79608737Y-111437941D01*
X79608737Y-111437941D02*
X79596832Y-111426036D01*
X79478603Y-104568036D02*
X79466699Y-104579941D01*
X79466699Y-104579941D02*
X79430984Y-104591845D01*
X79430984Y-104591845D02*
X79407175Y-104591845D01*
X79407175Y-104591845D02*
X79371461Y-104579941D01*
X79371461Y-104579941D02*
X79347651Y-104556131D01*
X79347651Y-104556131D02*
X79335746Y-104532321D01*
X79335746Y-104532321D02*
X79323842Y-104484702D01*
X79323842Y-104484702D02*
X79323842Y-104448988D01*
X79323842Y-104448988D02*
X79335746Y-104401369D01*
X79335746Y-104401369D02*
X79347651Y-104377560D01*
X79347651Y-104377560D02*
X79371461Y-104353750D01*
X79371461Y-104353750D02*
X79407175Y-104341845D01*
X79407175Y-104341845D02*
X79430984Y-104341845D01*
X79430984Y-104341845D02*
X79466699Y-104353750D01*
X79466699Y-104353750D02*
X79478603Y-104365655D01*
X79716699Y-104591845D02*
X79573842Y-104591845D01*
X79645270Y-104591845D02*
X79645270Y-104341845D01*
X79645270Y-104341845D02*
X79621461Y-104377560D01*
X79621461Y-104377560D02*
X79597651Y-104401369D01*
X79597651Y-104401369D02*
X79573842Y-104413274D01*
X79954794Y-104591845D02*
X79811937Y-104591845D01*
X79883365Y-104591845D02*
X79883365Y-104341845D01*
X79883365Y-104341845D02*
X79859556Y-104377560D01*
X79859556Y-104377560D02*
X79835746Y-104401369D01*
X79835746Y-104401369D02*
X79811937Y-104413274D01*
X77141803Y-113356436D02*
X77129899Y-113368341D01*
X77129899Y-113368341D02*
X77094184Y-113380245D01*
X77094184Y-113380245D02*
X77070375Y-113380245D01*
X77070375Y-113380245D02*
X77034661Y-113368341D01*
X77034661Y-113368341D02*
X77010851Y-113344531D01*
X77010851Y-113344531D02*
X76998946Y-113320721D01*
X76998946Y-113320721D02*
X76987042Y-113273102D01*
X76987042Y-113273102D02*
X76987042Y-113237388D01*
X76987042Y-113237388D02*
X76998946Y-113189769D01*
X76998946Y-113189769D02*
X77010851Y-113165960D01*
X77010851Y-113165960D02*
X77034661Y-113142150D01*
X77034661Y-113142150D02*
X77070375Y-113130245D01*
X77070375Y-113130245D02*
X77094184Y-113130245D01*
X77094184Y-113130245D02*
X77129899Y-113142150D01*
X77129899Y-113142150D02*
X77141803Y-113154055D01*
X77379899Y-113380245D02*
X77237042Y-113380245D01*
X77308470Y-113380245D02*
X77308470Y-113130245D01*
X77308470Y-113130245D02*
X77284661Y-113165960D01*
X77284661Y-113165960D02*
X77260851Y-113189769D01*
X77260851Y-113189769D02*
X77237042Y-113201674D01*
X77522756Y-113237388D02*
X77498946Y-113225483D01*
X77498946Y-113225483D02*
X77487041Y-113213579D01*
X77487041Y-113213579D02*
X77475137Y-113189769D01*
X77475137Y-113189769D02*
X77475137Y-113177864D01*
X77475137Y-113177864D02*
X77487041Y-113154055D01*
X77487041Y-113154055D02*
X77498946Y-113142150D01*
X77498946Y-113142150D02*
X77522756Y-113130245D01*
X77522756Y-113130245D02*
X77570375Y-113130245D01*
X77570375Y-113130245D02*
X77594184Y-113142150D01*
X77594184Y-113142150D02*
X77606089Y-113154055D01*
X77606089Y-113154055D02*
X77617994Y-113177864D01*
X77617994Y-113177864D02*
X77617994Y-113189769D01*
X77617994Y-113189769D02*
X77606089Y-113213579D01*
X77606089Y-113213579D02*
X77594184Y-113225483D01*
X77594184Y-113225483D02*
X77570375Y-113237388D01*
X77570375Y-113237388D02*
X77522756Y-113237388D01*
X77522756Y-113237388D02*
X77498946Y-113249293D01*
X77498946Y-113249293D02*
X77487041Y-113261198D01*
X77487041Y-113261198D02*
X77475137Y-113285007D01*
X77475137Y-113285007D02*
X77475137Y-113332626D01*
X77475137Y-113332626D02*
X77487041Y-113356436D01*
X77487041Y-113356436D02*
X77498946Y-113368341D01*
X77498946Y-113368341D02*
X77522756Y-113380245D01*
X77522756Y-113380245D02*
X77570375Y-113380245D01*
X77570375Y-113380245D02*
X77594184Y-113368341D01*
X77594184Y-113368341D02*
X77606089Y-113356436D01*
X77606089Y-113356436D02*
X77617994Y-113332626D01*
X77617994Y-113332626D02*
X77617994Y-113285007D01*
X77617994Y-113285007D02*
X77606089Y-113261198D01*
X77606089Y-113261198D02*
X77594184Y-113249293D01*
X77594184Y-113249293D02*
X77570375Y-113237388D01*
X71750575Y-75843671D02*
X71663908Y-75719862D01*
X71602003Y-75843671D02*
X71602003Y-75583671D01*
X71602003Y-75583671D02*
X71701051Y-75583671D01*
X71701051Y-75583671D02*
X71725813Y-75596052D01*
X71725813Y-75596052D02*
X71738194Y-75608433D01*
X71738194Y-75608433D02*
X71750575Y-75633195D01*
X71750575Y-75633195D02*
X71750575Y-75670338D01*
X71750575Y-75670338D02*
X71738194Y-75695100D01*
X71738194Y-75695100D02*
X71725813Y-75707481D01*
X71725813Y-75707481D02*
X71701051Y-75719862D01*
X71701051Y-75719862D02*
X71602003Y-75719862D01*
X71998194Y-75843671D02*
X71849622Y-75843671D01*
X71923908Y-75843671D02*
X71923908Y-75583671D01*
X71923908Y-75583671D02*
X71899146Y-75620814D01*
X71899146Y-75620814D02*
X71874384Y-75645576D01*
X71874384Y-75645576D02*
X71849622Y-75657957D01*
X72084860Y-75583671D02*
X72258194Y-75583671D01*
X72258194Y-75583671D02*
X72146765Y-75843671D01*
D11*
X72056666Y-130391819D02*
X72056666Y-131106104D01*
X72056666Y-131106104D02*
X72009047Y-131248961D01*
X72009047Y-131248961D02*
X71913809Y-131344200D01*
X71913809Y-131344200D02*
X71770952Y-131391819D01*
X71770952Y-131391819D02*
X71675714Y-131391819D01*
X73056666Y-131391819D02*
X72485238Y-131391819D01*
X72770952Y-131391819D02*
X72770952Y-130391819D01*
X72770952Y-130391819D02*
X72675714Y-130534676D01*
X72675714Y-130534676D02*
X72580476Y-130629914D01*
X72580476Y-130629914D02*
X72485238Y-130677533D01*
D15*
X78234003Y-124303836D02*
X78222099Y-124315741D01*
X78222099Y-124315741D02*
X78186384Y-124327645D01*
X78186384Y-124327645D02*
X78162575Y-124327645D01*
X78162575Y-124327645D02*
X78126861Y-124315741D01*
X78126861Y-124315741D02*
X78103051Y-124291931D01*
X78103051Y-124291931D02*
X78091146Y-124268121D01*
X78091146Y-124268121D02*
X78079242Y-124220502D01*
X78079242Y-124220502D02*
X78079242Y-124184788D01*
X78079242Y-124184788D02*
X78091146Y-124137169D01*
X78091146Y-124137169D02*
X78103051Y-124113360D01*
X78103051Y-124113360D02*
X78126861Y-124089550D01*
X78126861Y-124089550D02*
X78162575Y-124077645D01*
X78162575Y-124077645D02*
X78186384Y-124077645D01*
X78186384Y-124077645D02*
X78222099Y-124089550D01*
X78222099Y-124089550D02*
X78234003Y-124101455D01*
X78448289Y-124160979D02*
X78448289Y-124327645D01*
X78388765Y-124065741D02*
X78329242Y-124244312D01*
X78329242Y-124244312D02*
X78484003Y-124244312D01*
X78567337Y-124101455D02*
X78579241Y-124089550D01*
X78579241Y-124089550D02*
X78603051Y-124077645D01*
X78603051Y-124077645D02*
X78662575Y-124077645D01*
X78662575Y-124077645D02*
X78686384Y-124089550D01*
X78686384Y-124089550D02*
X78698289Y-124101455D01*
X78698289Y-124101455D02*
X78710194Y-124125264D01*
X78710194Y-124125264D02*
X78710194Y-124149074D01*
X78710194Y-124149074D02*
X78698289Y-124184788D01*
X78698289Y-124184788D02*
X78555432Y-124327645D01*
X78555432Y-124327645D02*
X78710194Y-124327645D01*
D11*
X61752118Y-119825080D02*
X61894975Y-119872699D01*
X61894975Y-119872699D02*
X61942594Y-119920318D01*
X61942594Y-119920318D02*
X61990213Y-120015556D01*
X61990213Y-120015556D02*
X61990213Y-120158413D01*
X61990213Y-120158413D02*
X61942594Y-120253651D01*
X61942594Y-120253651D02*
X61894975Y-120301271D01*
X61894975Y-120301271D02*
X61799737Y-120348890D01*
X61799737Y-120348890D02*
X61418785Y-120348890D01*
X61418785Y-120348890D02*
X61418785Y-119348890D01*
X61418785Y-119348890D02*
X61752118Y-119348890D01*
X61752118Y-119348890D02*
X61847356Y-119396509D01*
X61847356Y-119396509D02*
X61894975Y-119444128D01*
X61894975Y-119444128D02*
X61942594Y-119539366D01*
X61942594Y-119539366D02*
X61942594Y-119634604D01*
X61942594Y-119634604D02*
X61894975Y-119729842D01*
X61894975Y-119729842D02*
X61847356Y-119777461D01*
X61847356Y-119777461D02*
X61752118Y-119825080D01*
X61752118Y-119825080D02*
X61418785Y-119825080D01*
X62418785Y-120348890D02*
X62418785Y-119348890D01*
X62418785Y-119348890D02*
X62752118Y-120063175D01*
X62752118Y-120063175D02*
X63085451Y-119348890D01*
X63085451Y-119348890D02*
X63085451Y-120348890D01*
X63752118Y-119348890D02*
X63847356Y-119348890D01*
X63847356Y-119348890D02*
X63942594Y-119396509D01*
X63942594Y-119396509D02*
X63990213Y-119444128D01*
X63990213Y-119444128D02*
X64037832Y-119539366D01*
X64037832Y-119539366D02*
X64085451Y-119729842D01*
X64085451Y-119729842D02*
X64085451Y-119967937D01*
X64085451Y-119967937D02*
X64037832Y-120158413D01*
X64037832Y-120158413D02*
X63990213Y-120253651D01*
X63990213Y-120253651D02*
X63942594Y-120301271D01*
X63942594Y-120301271D02*
X63847356Y-120348890D01*
X63847356Y-120348890D02*
X63752118Y-120348890D01*
X63752118Y-120348890D02*
X63656880Y-120301271D01*
X63656880Y-120301271D02*
X63609261Y-120253651D01*
X63609261Y-120253651D02*
X63561642Y-120158413D01*
X63561642Y-120158413D02*
X63514023Y-119967937D01*
X63514023Y-119967937D02*
X63514023Y-119729842D01*
X63514023Y-119729842D02*
X63561642Y-119539366D01*
X63561642Y-119539366D02*
X63609261Y-119444128D01*
X63609261Y-119444128D02*
X63656880Y-119396509D01*
X63656880Y-119396509D02*
X63752118Y-119348890D01*
X64418785Y-119348890D02*
X65037832Y-119348890D01*
X65037832Y-119348890D02*
X64704499Y-119729842D01*
X64704499Y-119729842D02*
X64847356Y-119729842D01*
X64847356Y-119729842D02*
X64942594Y-119777461D01*
X64942594Y-119777461D02*
X64990213Y-119825080D01*
X64990213Y-119825080D02*
X65037832Y-119920318D01*
X65037832Y-119920318D02*
X65037832Y-120158413D01*
X65037832Y-120158413D02*
X64990213Y-120253651D01*
X64990213Y-120253651D02*
X64942594Y-120301271D01*
X64942594Y-120301271D02*
X64847356Y-120348890D01*
X64847356Y-120348890D02*
X64561642Y-120348890D01*
X64561642Y-120348890D02*
X64466404Y-120301271D01*
X64466404Y-120301271D02*
X64418785Y-120253651D01*
X65799737Y-119825080D02*
X65942594Y-119872699D01*
X65942594Y-119872699D02*
X65990213Y-119920318D01*
X65990213Y-119920318D02*
X66037832Y-120015556D01*
X66037832Y-120015556D02*
X66037832Y-120158413D01*
X66037832Y-120158413D02*
X65990213Y-120253651D01*
X65990213Y-120253651D02*
X65942594Y-120301271D01*
X65942594Y-120301271D02*
X65847356Y-120348890D01*
X65847356Y-120348890D02*
X65466404Y-120348890D01*
X65466404Y-120348890D02*
X65466404Y-119348890D01*
X65466404Y-119348890D02*
X65799737Y-119348890D01*
X65799737Y-119348890D02*
X65894975Y-119396509D01*
X65894975Y-119396509D02*
X65942594Y-119444128D01*
X65942594Y-119444128D02*
X65990213Y-119539366D01*
X65990213Y-119539366D02*
X65990213Y-119634604D01*
X65990213Y-119634604D02*
X65942594Y-119729842D01*
X65942594Y-119729842D02*
X65894975Y-119777461D01*
X65894975Y-119777461D02*
X65799737Y-119825080D01*
X65799737Y-119825080D02*
X65466404Y-119825080D01*
X66466404Y-119967937D02*
X67228309Y-119967937D01*
X67656880Y-120301271D02*
X67799737Y-120348890D01*
X67799737Y-120348890D02*
X68037832Y-120348890D01*
X68037832Y-120348890D02*
X68133070Y-120301271D01*
X68133070Y-120301271D02*
X68180689Y-120253651D01*
X68180689Y-120253651D02*
X68228308Y-120158413D01*
X68228308Y-120158413D02*
X68228308Y-120063175D01*
X68228308Y-120063175D02*
X68180689Y-119967937D01*
X68180689Y-119967937D02*
X68133070Y-119920318D01*
X68133070Y-119920318D02*
X68037832Y-119872699D01*
X68037832Y-119872699D02*
X67847356Y-119825080D01*
X67847356Y-119825080D02*
X67752118Y-119777461D01*
X67752118Y-119777461D02*
X67704499Y-119729842D01*
X67704499Y-119729842D02*
X67656880Y-119634604D01*
X67656880Y-119634604D02*
X67656880Y-119539366D01*
X67656880Y-119539366D02*
X67704499Y-119444128D01*
X67704499Y-119444128D02*
X67752118Y-119396509D01*
X67752118Y-119396509D02*
X67847356Y-119348890D01*
X67847356Y-119348890D02*
X68085451Y-119348890D01*
X68085451Y-119348890D02*
X68228308Y-119396509D01*
X69228308Y-120348890D02*
X68894975Y-119872699D01*
X68656880Y-120348890D02*
X68656880Y-119348890D01*
X68656880Y-119348890D02*
X69037832Y-119348890D01*
X69037832Y-119348890D02*
X69133070Y-119396509D01*
X69133070Y-119396509D02*
X69180689Y-119444128D01*
X69180689Y-119444128D02*
X69228308Y-119539366D01*
X69228308Y-119539366D02*
X69228308Y-119682223D01*
X69228308Y-119682223D02*
X69180689Y-119777461D01*
X69180689Y-119777461D02*
X69133070Y-119825080D01*
X69133070Y-119825080D02*
X69037832Y-119872699D01*
X69037832Y-119872699D02*
X68656880Y-119872699D01*
X69609261Y-120301271D02*
X69752118Y-120348890D01*
X69752118Y-120348890D02*
X69990213Y-120348890D01*
X69990213Y-120348890D02*
X70085451Y-120301271D01*
X70085451Y-120301271D02*
X70133070Y-120253651D01*
X70133070Y-120253651D02*
X70180689Y-120158413D01*
X70180689Y-120158413D02*
X70180689Y-120063175D01*
X70180689Y-120063175D02*
X70133070Y-119967937D01*
X70133070Y-119967937D02*
X70085451Y-119920318D01*
X70085451Y-119920318D02*
X69990213Y-119872699D01*
X69990213Y-119872699D02*
X69799737Y-119825080D01*
X69799737Y-119825080D02*
X69704499Y-119777461D01*
X69704499Y-119777461D02*
X69656880Y-119729842D01*
X69656880Y-119729842D02*
X69609261Y-119634604D01*
X69609261Y-119634604D02*
X69609261Y-119539366D01*
X69609261Y-119539366D02*
X69656880Y-119444128D01*
X69656880Y-119444128D02*
X69704499Y-119396509D01*
X69704499Y-119396509D02*
X69799737Y-119348890D01*
X69799737Y-119348890D02*
X70037832Y-119348890D01*
X70037832Y-119348890D02*
X70180689Y-119396509D01*
X70561642Y-120301271D02*
X70704499Y-120348890D01*
X70704499Y-120348890D02*
X70942594Y-120348890D01*
X70942594Y-120348890D02*
X71037832Y-120301271D01*
X71037832Y-120301271D02*
X71085451Y-120253651D01*
X71085451Y-120253651D02*
X71133070Y-120158413D01*
X71133070Y-120158413D02*
X71133070Y-120063175D01*
X71133070Y-120063175D02*
X71085451Y-119967937D01*
X71085451Y-119967937D02*
X71037832Y-119920318D01*
X71037832Y-119920318D02*
X70942594Y-119872699D01*
X70942594Y-119872699D02*
X70752118Y-119825080D01*
X70752118Y-119825080D02*
X70656880Y-119777461D01*
X70656880Y-119777461D02*
X70609261Y-119729842D01*
X70609261Y-119729842D02*
X70561642Y-119634604D01*
X70561642Y-119634604D02*
X70561642Y-119539366D01*
X70561642Y-119539366D02*
X70609261Y-119444128D01*
X70609261Y-119444128D02*
X70656880Y-119396509D01*
X70656880Y-119396509D02*
X70752118Y-119348890D01*
X70752118Y-119348890D02*
X70990213Y-119348890D01*
X70990213Y-119348890D02*
X71133070Y-119396509D01*
X71561642Y-119967937D02*
X72323547Y-119967937D01*
X72656880Y-119348890D02*
X73228308Y-119348890D01*
X72942594Y-120348890D02*
X72942594Y-119348890D01*
X73894975Y-119825080D02*
X74037832Y-119872699D01*
X74037832Y-119872699D02*
X74085451Y-119920318D01*
X74085451Y-119920318D02*
X74133070Y-120015556D01*
X74133070Y-120015556D02*
X74133070Y-120158413D01*
X74133070Y-120158413D02*
X74085451Y-120253651D01*
X74085451Y-120253651D02*
X74037832Y-120301271D01*
X74037832Y-120301271D02*
X73942594Y-120348890D01*
X73942594Y-120348890D02*
X73561642Y-120348890D01*
X73561642Y-120348890D02*
X73561642Y-119348890D01*
X73561642Y-119348890D02*
X73894975Y-119348890D01*
X73894975Y-119348890D02*
X73990213Y-119396509D01*
X73990213Y-119396509D02*
X74037832Y-119444128D01*
X74037832Y-119444128D02*
X74085451Y-119539366D01*
X74085451Y-119539366D02*
X74085451Y-119634604D01*
X74085451Y-119634604D02*
X74037832Y-119729842D01*
X74037832Y-119729842D02*
X73990213Y-119777461D01*
X73990213Y-119777461D02*
X73894975Y-119825080D01*
X73894975Y-119825080D02*
X73561642Y-119825080D01*
X67418784Y-115798890D02*
X67418784Y-116513175D01*
X67418784Y-116513175D02*
X67371165Y-116656032D01*
X67371165Y-116656032D02*
X67275927Y-116751271D01*
X67275927Y-116751271D02*
X67133070Y-116798890D01*
X67133070Y-116798890D02*
X67037832Y-116798890D01*
X68371165Y-115798890D02*
X67894975Y-115798890D01*
X67894975Y-115798890D02*
X67847356Y-116275080D01*
X67847356Y-116275080D02*
X67894975Y-116227461D01*
X67894975Y-116227461D02*
X67990213Y-116179842D01*
X67990213Y-116179842D02*
X68228308Y-116179842D01*
X68228308Y-116179842D02*
X68323546Y-116227461D01*
X68323546Y-116227461D02*
X68371165Y-116275080D01*
X68371165Y-116275080D02*
X68418784Y-116370318D01*
X68418784Y-116370318D02*
X68418784Y-116608413D01*
X68418784Y-116608413D02*
X68371165Y-116703651D01*
X68371165Y-116703651D02*
X68323546Y-116751271D01*
X68323546Y-116751271D02*
X68228308Y-116798890D01*
X68228308Y-116798890D02*
X67990213Y-116798890D01*
X67990213Y-116798890D02*
X67894975Y-116751271D01*
X67894975Y-116751271D02*
X67847356Y-116703651D01*
D15*
X65018051Y-100300836D02*
X65006147Y-100312741D01*
X65006147Y-100312741D02*
X64970432Y-100324645D01*
X64970432Y-100324645D02*
X64946623Y-100324645D01*
X64946623Y-100324645D02*
X64910909Y-100312741D01*
X64910909Y-100312741D02*
X64887099Y-100288931D01*
X64887099Y-100288931D02*
X64875194Y-100265121D01*
X64875194Y-100265121D02*
X64863290Y-100217502D01*
X64863290Y-100217502D02*
X64863290Y-100181788D01*
X64863290Y-100181788D02*
X64875194Y-100134169D01*
X64875194Y-100134169D02*
X64887099Y-100110360D01*
X64887099Y-100110360D02*
X64910909Y-100086550D01*
X64910909Y-100086550D02*
X64946623Y-100074645D01*
X64946623Y-100074645D02*
X64970432Y-100074645D01*
X64970432Y-100074645D02*
X65006147Y-100086550D01*
X65006147Y-100086550D02*
X65018051Y-100098455D01*
X65256147Y-100324645D02*
X65113290Y-100324645D01*
X65184718Y-100324645D02*
X65184718Y-100074645D01*
X65184718Y-100074645D02*
X65160909Y-100110360D01*
X65160909Y-100110360D02*
X65137099Y-100134169D01*
X65137099Y-100134169D02*
X65113290Y-100146074D01*
X75836785Y-100176871D02*
X75750118Y-100053062D01*
X75688213Y-100176871D02*
X75688213Y-99916871D01*
X75688213Y-99916871D02*
X75787261Y-99916871D01*
X75787261Y-99916871D02*
X75812023Y-99929252D01*
X75812023Y-99929252D02*
X75824404Y-99941633D01*
X75824404Y-99941633D02*
X75836785Y-99966395D01*
X75836785Y-99966395D02*
X75836785Y-100003538D01*
X75836785Y-100003538D02*
X75824404Y-100028300D01*
X75824404Y-100028300D02*
X75812023Y-100040681D01*
X75812023Y-100040681D02*
X75787261Y-100053062D01*
X75787261Y-100053062D02*
X75688213Y-100053062D01*
X75960594Y-100176871D02*
X76010118Y-100176871D01*
X76010118Y-100176871D02*
X76034880Y-100164491D01*
X76034880Y-100164491D02*
X76047261Y-100152110D01*
X76047261Y-100152110D02*
X76072023Y-100114967D01*
X76072023Y-100114967D02*
X76084404Y-100065443D01*
X76084404Y-100065443D02*
X76084404Y-99966395D01*
X76084404Y-99966395D02*
X76072023Y-99941633D01*
X76072023Y-99941633D02*
X76059642Y-99929252D01*
X76059642Y-99929252D02*
X76034880Y-99916871D01*
X76034880Y-99916871D02*
X75985356Y-99916871D01*
X75985356Y-99916871D02*
X75960594Y-99929252D01*
X75960594Y-99929252D02*
X75948213Y-99941633D01*
X75948213Y-99941633D02*
X75935832Y-99966395D01*
X75935832Y-99966395D02*
X75935832Y-100028300D01*
X75935832Y-100028300D02*
X75948213Y-100053062D01*
X75948213Y-100053062D02*
X75960594Y-100065443D01*
X75960594Y-100065443D02*
X75985356Y-100077824D01*
X75985356Y-100077824D02*
X76034880Y-100077824D01*
X76034880Y-100077824D02*
X76059642Y-100065443D01*
X76059642Y-100065443D02*
X76072023Y-100053062D01*
X76072023Y-100053062D02*
X76084404Y-100028300D01*
X75160603Y-74977036D02*
X75148699Y-74988941D01*
X75148699Y-74988941D02*
X75112984Y-75000845D01*
X75112984Y-75000845D02*
X75089175Y-75000845D01*
X75089175Y-75000845D02*
X75053461Y-74988941D01*
X75053461Y-74988941D02*
X75029651Y-74965131D01*
X75029651Y-74965131D02*
X75017746Y-74941321D01*
X75017746Y-74941321D02*
X75005842Y-74893702D01*
X75005842Y-74893702D02*
X75005842Y-74857988D01*
X75005842Y-74857988D02*
X75017746Y-74810369D01*
X75017746Y-74810369D02*
X75029651Y-74786560D01*
X75029651Y-74786560D02*
X75053461Y-74762750D01*
X75053461Y-74762750D02*
X75089175Y-74750845D01*
X75089175Y-74750845D02*
X75112984Y-74750845D01*
X75112984Y-74750845D02*
X75148699Y-74762750D01*
X75148699Y-74762750D02*
X75160603Y-74774655D01*
X75398699Y-75000845D02*
X75255842Y-75000845D01*
X75327270Y-75000845D02*
X75327270Y-74750845D01*
X75327270Y-74750845D02*
X75303461Y-74786560D01*
X75303461Y-74786560D02*
X75279651Y-74810369D01*
X75279651Y-74810369D02*
X75255842Y-74822274D01*
X75482032Y-74750845D02*
X75636794Y-74750845D01*
X75636794Y-74750845D02*
X75553460Y-74846083D01*
X75553460Y-74846083D02*
X75589175Y-74846083D01*
X75589175Y-74846083D02*
X75612984Y-74857988D01*
X75612984Y-74857988D02*
X75624889Y-74869893D01*
X75624889Y-74869893D02*
X75636794Y-74893702D01*
X75636794Y-74893702D02*
X75636794Y-74953226D01*
X75636794Y-74953226D02*
X75624889Y-74977036D01*
X75624889Y-74977036D02*
X75612984Y-74988941D01*
X75612984Y-74988941D02*
X75589175Y-75000845D01*
X75589175Y-75000845D02*
X75517746Y-75000845D01*
X75517746Y-75000845D02*
X75493937Y-74988941D01*
X75493937Y-74988941D02*
X75482032Y-74977036D01*
D11*
X75447284Y-120769737D02*
X76240618Y-120769737D01*
X76240618Y-120769737D02*
X76333951Y-120723071D01*
X76333951Y-120723071D02*
X76380618Y-120676404D01*
X76380618Y-120676404D02*
X76427284Y-120583071D01*
X76427284Y-120583071D02*
X76427284Y-120396404D01*
X76427284Y-120396404D02*
X76380618Y-120303071D01*
X76380618Y-120303071D02*
X76333951Y-120256404D01*
X76333951Y-120256404D02*
X76240618Y-120209737D01*
X76240618Y-120209737D02*
X75447284Y-120209737D01*
X75447284Y-119276404D02*
X75447284Y-119743070D01*
X75447284Y-119743070D02*
X75913951Y-119789737D01*
X75913951Y-119789737D02*
X75867284Y-119743070D01*
X75867284Y-119743070D02*
X75820618Y-119649737D01*
X75820618Y-119649737D02*
X75820618Y-119416404D01*
X75820618Y-119416404D02*
X75867284Y-119323070D01*
X75867284Y-119323070D02*
X75913951Y-119276404D01*
X75913951Y-119276404D02*
X76007284Y-119229737D01*
X76007284Y-119229737D02*
X76240618Y-119229737D01*
X76240618Y-119229737D02*
X76333951Y-119276404D01*
X76333951Y-119276404D02*
X76380618Y-119323070D01*
X76380618Y-119323070D02*
X76427284Y-119416404D01*
X76427284Y-119416404D02*
X76427284Y-119649737D01*
X76427284Y-119649737D02*
X76380618Y-119743070D01*
X76380618Y-119743070D02*
X76333951Y-119789737D01*
X83274819Y-104473333D02*
X83989104Y-104473333D01*
X83989104Y-104473333D02*
X84131961Y-104520952D01*
X84131961Y-104520952D02*
X84227200Y-104616190D01*
X84227200Y-104616190D02*
X84274819Y-104759047D01*
X84274819Y-104759047D02*
X84274819Y-104854285D01*
X83274819Y-104092380D02*
X83274819Y-103473333D01*
X83274819Y-103473333D02*
X83655771Y-103806666D01*
X83655771Y-103806666D02*
X83655771Y-103663809D01*
X83655771Y-103663809D02*
X83703390Y-103568571D01*
X83703390Y-103568571D02*
X83751009Y-103520952D01*
X83751009Y-103520952D02*
X83846247Y-103473333D01*
X83846247Y-103473333D02*
X84084342Y-103473333D01*
X84084342Y-103473333D02*
X84179580Y-103520952D01*
X84179580Y-103520952D02*
X84227200Y-103568571D01*
X84227200Y-103568571D02*
X84274819Y-103663809D01*
X84274819Y-103663809D02*
X84274819Y-103949523D01*
X84274819Y-103949523D02*
X84227200Y-104044761D01*
X84227200Y-104044761D02*
X84179580Y-104092380D01*
D16*
X72145127Y-73521047D02*
X71645127Y-73521047D01*
X71645127Y-73521047D02*
X71645127Y-73401999D01*
X71645127Y-73401999D02*
X71668937Y-73330571D01*
X71668937Y-73330571D02*
X71716556Y-73282952D01*
X71716556Y-73282952D02*
X71764175Y-73259142D01*
X71764175Y-73259142D02*
X71859413Y-73235333D01*
X71859413Y-73235333D02*
X71930841Y-73235333D01*
X71930841Y-73235333D02*
X72026079Y-73259142D01*
X72026079Y-73259142D02*
X72073698Y-73282952D01*
X72073698Y-73282952D02*
X72121318Y-73330571D01*
X72121318Y-73330571D02*
X72145127Y-73401999D01*
X72145127Y-73401999D02*
X72145127Y-73521047D01*
X71692746Y-73044856D02*
X71668937Y-73021047D01*
X71668937Y-73021047D02*
X71645127Y-72973428D01*
X71645127Y-72973428D02*
X71645127Y-72854380D01*
X71645127Y-72854380D02*
X71668937Y-72806761D01*
X71668937Y-72806761D02*
X71692746Y-72782952D01*
X71692746Y-72782952D02*
X71740365Y-72759142D01*
X71740365Y-72759142D02*
X71787984Y-72759142D01*
X71787984Y-72759142D02*
X71859413Y-72782952D01*
X71859413Y-72782952D02*
X72145127Y-73068666D01*
X72145127Y-73068666D02*
X72145127Y-72759142D01*
D15*
X77694175Y-97230471D02*
X77607508Y-97106662D01*
X77545603Y-97230471D02*
X77545603Y-96970471D01*
X77545603Y-96970471D02*
X77644651Y-96970471D01*
X77644651Y-96970471D02*
X77669413Y-96982852D01*
X77669413Y-96982852D02*
X77681794Y-96995233D01*
X77681794Y-96995233D02*
X77694175Y-97019995D01*
X77694175Y-97019995D02*
X77694175Y-97057138D01*
X77694175Y-97057138D02*
X77681794Y-97081900D01*
X77681794Y-97081900D02*
X77669413Y-97094281D01*
X77669413Y-97094281D02*
X77644651Y-97106662D01*
X77644651Y-97106662D02*
X77545603Y-97106662D01*
X77793222Y-96995233D02*
X77805603Y-96982852D01*
X77805603Y-96982852D02*
X77830365Y-96970471D01*
X77830365Y-96970471D02*
X77892270Y-96970471D01*
X77892270Y-96970471D02*
X77917032Y-96982852D01*
X77917032Y-96982852D02*
X77929413Y-96995233D01*
X77929413Y-96995233D02*
X77941794Y-97019995D01*
X77941794Y-97019995D02*
X77941794Y-97044757D01*
X77941794Y-97044757D02*
X77929413Y-97081900D01*
X77929413Y-97081900D02*
X77780841Y-97230471D01*
X77780841Y-97230471D02*
X77941794Y-97230471D01*
X78028460Y-96970471D02*
X78189413Y-96970471D01*
X78189413Y-96970471D02*
X78102746Y-97069519D01*
X78102746Y-97069519D02*
X78139889Y-97069519D01*
X78139889Y-97069519D02*
X78164651Y-97081900D01*
X78164651Y-97081900D02*
X78177032Y-97094281D01*
X78177032Y-97094281D02*
X78189413Y-97119043D01*
X78189413Y-97119043D02*
X78189413Y-97180948D01*
X78189413Y-97180948D02*
X78177032Y-97205710D01*
X78177032Y-97205710D02*
X78164651Y-97218091D01*
X78164651Y-97218091D02*
X78139889Y-97230471D01*
X78139889Y-97230471D02*
X78065603Y-97230471D01*
X78065603Y-97230471D02*
X78040841Y-97218091D01*
X78040841Y-97218091D02*
X78028460Y-97205710D01*
D11*
X60414819Y-104473333D02*
X61129104Y-104473333D01*
X61129104Y-104473333D02*
X61271961Y-104520952D01*
X61271961Y-104520952D02*
X61367200Y-104616190D01*
X61367200Y-104616190D02*
X61414819Y-104759047D01*
X61414819Y-104759047D02*
X61414819Y-104854285D01*
X60510057Y-104044761D02*
X60462438Y-103997142D01*
X60462438Y-103997142D02*
X60414819Y-103901904D01*
X60414819Y-103901904D02*
X60414819Y-103663809D01*
X60414819Y-103663809D02*
X60462438Y-103568571D01*
X60462438Y-103568571D02*
X60510057Y-103520952D01*
X60510057Y-103520952D02*
X60605295Y-103473333D01*
X60605295Y-103473333D02*
X60700533Y-103473333D01*
X60700533Y-103473333D02*
X60843390Y-103520952D01*
X60843390Y-103520952D02*
X61414819Y-104092380D01*
X61414819Y-104092380D02*
X61414819Y-103473333D01*
D19*
X64941489Y-126072713D02*
X64841489Y-126072713D01*
X64841489Y-126229856D02*
X64841489Y-125929856D01*
X64841489Y-125929856D02*
X64984346Y-125929856D01*
X65098632Y-126229856D02*
X65098632Y-125929856D01*
X65241489Y-126229856D02*
X65241489Y-125929856D01*
X65241489Y-125929856D02*
X65312918Y-125929856D01*
X65312918Y-125929856D02*
X65355775Y-125944142D01*
X65355775Y-125944142D02*
X65384346Y-125972713D01*
X65384346Y-125972713D02*
X65398632Y-126001285D01*
X65398632Y-126001285D02*
X65412918Y-126058428D01*
X65412918Y-126058428D02*
X65412918Y-126101285D01*
X65412918Y-126101285D02*
X65398632Y-126158428D01*
X65398632Y-126158428D02*
X65384346Y-126186999D01*
X65384346Y-126186999D02*
X65355775Y-126215571D01*
X65355775Y-126215571D02*
X65312918Y-126229856D01*
X65312918Y-126229856D02*
X65241489Y-126229856D01*
X65512918Y-125929856D02*
X65698632Y-125929856D01*
X65698632Y-125929856D02*
X65598632Y-126044142D01*
X65598632Y-126044142D02*
X65641489Y-126044142D01*
X65641489Y-126044142D02*
X65670061Y-126058428D01*
X65670061Y-126058428D02*
X65684346Y-126072713D01*
X65684346Y-126072713D02*
X65698632Y-126101285D01*
X65698632Y-126101285D02*
X65698632Y-126172713D01*
X65698632Y-126172713D02*
X65684346Y-126201285D01*
X65684346Y-126201285D02*
X65670061Y-126215571D01*
X65670061Y-126215571D02*
X65641489Y-126229856D01*
X65641489Y-126229856D02*
X65555775Y-126229856D01*
X65555775Y-126229856D02*
X65527203Y-126215571D01*
X65527203Y-126215571D02*
X65512918Y-126201285D01*
D11*
X77419537Y-110880470D02*
X77419537Y-110261423D01*
X77419537Y-110261423D02*
X77800489Y-110594756D01*
X77800489Y-110594756D02*
X77800489Y-110451899D01*
X77800489Y-110451899D02*
X77848108Y-110356661D01*
X77848108Y-110356661D02*
X77895727Y-110309042D01*
X77895727Y-110309042D02*
X77990965Y-110261423D01*
X77990965Y-110261423D02*
X78229060Y-110261423D01*
X78229060Y-110261423D02*
X78324298Y-110309042D01*
X78324298Y-110309042D02*
X78371918Y-110356661D01*
X78371918Y-110356661D02*
X78419537Y-110451899D01*
X78419537Y-110451899D02*
X78419537Y-110737613D01*
X78419537Y-110737613D02*
X78371918Y-110832851D01*
X78371918Y-110832851D02*
X78324298Y-110880470D01*
X78324298Y-109832851D02*
X78371918Y-109785232D01*
X78371918Y-109785232D02*
X78419537Y-109832851D01*
X78419537Y-109832851D02*
X78371918Y-109880470D01*
X78371918Y-109880470D02*
X78324298Y-109832851D01*
X78324298Y-109832851D02*
X78419537Y-109832851D01*
X77419537Y-109451899D02*
X77419537Y-108832852D01*
X77419537Y-108832852D02*
X77800489Y-109166185D01*
X77800489Y-109166185D02*
X77800489Y-109023328D01*
X77800489Y-109023328D02*
X77848108Y-108928090D01*
X77848108Y-108928090D02*
X77895727Y-108880471D01*
X77895727Y-108880471D02*
X77990965Y-108832852D01*
X77990965Y-108832852D02*
X78229060Y-108832852D01*
X78229060Y-108832852D02*
X78324298Y-108880471D01*
X78324298Y-108880471D02*
X78371918Y-108928090D01*
X78371918Y-108928090D02*
X78419537Y-109023328D01*
X78419537Y-109023328D02*
X78419537Y-109309042D01*
X78419537Y-109309042D02*
X78371918Y-109404280D01*
X78371918Y-109404280D02*
X78324298Y-109451899D01*
X77752870Y-107975709D02*
X78419537Y-107975709D01*
X77752870Y-108404280D02*
X78276679Y-108404280D01*
X78276679Y-108404280D02*
X78371918Y-108356661D01*
X78371918Y-108356661D02*
X78419537Y-108261423D01*
X78419537Y-108261423D02*
X78419537Y-108118566D01*
X78419537Y-108118566D02*
X78371918Y-108023328D01*
X78371918Y-108023328D02*
X78324298Y-107975709D01*
D16*
X81292127Y-109463804D02*
X81292127Y-109701899D01*
X81292127Y-109701899D02*
X80792127Y-109701899D01*
X81292127Y-109035232D02*
X81292127Y-109320946D01*
X81292127Y-109178089D02*
X80792127Y-109178089D01*
X80792127Y-109178089D02*
X80863556Y-109225708D01*
X80863556Y-109225708D02*
X80911175Y-109273327D01*
X80911175Y-109273327D02*
X80934984Y-109320946D01*
D18*
X65931784Y-122695913D02*
X66113213Y-122756389D01*
X66113213Y-122756389D02*
X66415594Y-122756389D01*
X66415594Y-122756389D02*
X66536546Y-122695913D01*
X66536546Y-122695913D02*
X66597022Y-122635436D01*
X66597022Y-122635436D02*
X66657499Y-122514484D01*
X66657499Y-122514484D02*
X66657499Y-122393532D01*
X66657499Y-122393532D02*
X66597022Y-122272579D01*
X66597022Y-122272579D02*
X66536546Y-122212103D01*
X66536546Y-122212103D02*
X66415594Y-122151627D01*
X66415594Y-122151627D02*
X66173689Y-122091151D01*
X66173689Y-122091151D02*
X66052737Y-122030674D01*
X66052737Y-122030674D02*
X65992260Y-121970198D01*
X65992260Y-121970198D02*
X65931784Y-121849246D01*
X65931784Y-121849246D02*
X65931784Y-121728293D01*
X65931784Y-121728293D02*
X65992260Y-121607341D01*
X65992260Y-121607341D02*
X66052737Y-121546865D01*
X66052737Y-121546865D02*
X66173689Y-121486389D01*
X66173689Y-121486389D02*
X66476070Y-121486389D01*
X66476070Y-121486389D02*
X66657499Y-121546865D01*
X67080832Y-121486389D02*
X67383213Y-122756389D01*
X67383213Y-122756389D02*
X67625118Y-121849246D01*
X67625118Y-121849246D02*
X67867023Y-122756389D01*
X67867023Y-122756389D02*
X68169404Y-121486389D01*
X69318452Y-122756389D02*
X68592737Y-122756389D01*
X68955594Y-122756389D02*
X68955594Y-121486389D01*
X68955594Y-121486389D02*
X68834642Y-121667817D01*
X68834642Y-121667817D02*
X68713690Y-121788770D01*
X68713690Y-121788770D02*
X68592737Y-121849246D01*
D15*
X71750575Y-76808871D02*
X71663908Y-76685062D01*
X71602003Y-76808871D02*
X71602003Y-76548871D01*
X71602003Y-76548871D02*
X71701051Y-76548871D01*
X71701051Y-76548871D02*
X71725813Y-76561252D01*
X71725813Y-76561252D02*
X71738194Y-76573633D01*
X71738194Y-76573633D02*
X71750575Y-76598395D01*
X71750575Y-76598395D02*
X71750575Y-76635538D01*
X71750575Y-76635538D02*
X71738194Y-76660300D01*
X71738194Y-76660300D02*
X71725813Y-76672681D01*
X71725813Y-76672681D02*
X71701051Y-76685062D01*
X71701051Y-76685062D02*
X71602003Y-76685062D01*
X71998194Y-76808871D02*
X71849622Y-76808871D01*
X71923908Y-76808871D02*
X71923908Y-76548871D01*
X71923908Y-76548871D02*
X71899146Y-76586014D01*
X71899146Y-76586014D02*
X71874384Y-76610776D01*
X71874384Y-76610776D02*
X71849622Y-76623157D01*
X72146765Y-76660300D02*
X72122003Y-76647919D01*
X72122003Y-76647919D02*
X72109622Y-76635538D01*
X72109622Y-76635538D02*
X72097241Y-76610776D01*
X72097241Y-76610776D02*
X72097241Y-76598395D01*
X72097241Y-76598395D02*
X72109622Y-76573633D01*
X72109622Y-76573633D02*
X72122003Y-76561252D01*
X72122003Y-76561252D02*
X72146765Y-76548871D01*
X72146765Y-76548871D02*
X72196289Y-76548871D01*
X72196289Y-76548871D02*
X72221051Y-76561252D01*
X72221051Y-76561252D02*
X72233432Y-76573633D01*
X72233432Y-76573633D02*
X72245813Y-76598395D01*
X72245813Y-76598395D02*
X72245813Y-76610776D01*
X72245813Y-76610776D02*
X72233432Y-76635538D01*
X72233432Y-76635538D02*
X72221051Y-76647919D01*
X72221051Y-76647919D02*
X72196289Y-76660300D01*
X72196289Y-76660300D02*
X72146765Y-76660300D01*
X72146765Y-76660300D02*
X72122003Y-76672681D01*
X72122003Y-76672681D02*
X72109622Y-76685062D01*
X72109622Y-76685062D02*
X72097241Y-76709824D01*
X72097241Y-76709824D02*
X72097241Y-76759348D01*
X72097241Y-76759348D02*
X72109622Y-76784110D01*
X72109622Y-76784110D02*
X72122003Y-76796491D01*
X72122003Y-76796491D02*
X72146765Y-76808871D01*
X72146765Y-76808871D02*
X72196289Y-76808871D01*
X72196289Y-76808871D02*
X72221051Y-76796491D01*
X72221051Y-76796491D02*
X72233432Y-76784110D01*
X72233432Y-76784110D02*
X72245813Y-76759348D01*
X72245813Y-76759348D02*
X72245813Y-76709824D01*
X72245813Y-76709824D02*
X72233432Y-76685062D01*
X72233432Y-76685062D02*
X72221051Y-76672681D01*
X72221051Y-76672681D02*
X72196289Y-76660300D01*
D16*
X67914879Y-79305680D02*
X67748213Y-79067585D01*
X67629165Y-79305680D02*
X67629165Y-78805680D01*
X67629165Y-78805680D02*
X67819641Y-78805680D01*
X67819641Y-78805680D02*
X67867260Y-78829490D01*
X67867260Y-78829490D02*
X67891070Y-78853299D01*
X67891070Y-78853299D02*
X67914879Y-78900918D01*
X67914879Y-78900918D02*
X67914879Y-78972347D01*
X67914879Y-78972347D02*
X67891070Y-79019966D01*
X67891070Y-79019966D02*
X67867260Y-79043775D01*
X67867260Y-79043775D02*
X67819641Y-79067585D01*
X67819641Y-79067585D02*
X67629165Y-79067585D01*
X68129165Y-79305680D02*
X68129165Y-78805680D01*
X68129165Y-78805680D02*
X68414879Y-79305680D01*
X68414879Y-79305680D02*
X68414879Y-78805680D01*
X68914880Y-79305680D02*
X68629166Y-79305680D01*
X68772023Y-79305680D02*
X68772023Y-78805680D01*
X68772023Y-78805680D02*
X68724404Y-78877109D01*
X68724404Y-78877109D02*
X68676785Y-78924728D01*
X68676785Y-78924728D02*
X68629166Y-78948537D01*
D15*
X65601775Y-79729871D02*
X65515108Y-79606062D01*
X65453203Y-79729871D02*
X65453203Y-79469871D01*
X65453203Y-79469871D02*
X65552251Y-79469871D01*
X65552251Y-79469871D02*
X65577013Y-79482252D01*
X65577013Y-79482252D02*
X65589394Y-79494633D01*
X65589394Y-79494633D02*
X65601775Y-79519395D01*
X65601775Y-79519395D02*
X65601775Y-79556538D01*
X65601775Y-79556538D02*
X65589394Y-79581300D01*
X65589394Y-79581300D02*
X65577013Y-79593681D01*
X65577013Y-79593681D02*
X65552251Y-79606062D01*
X65552251Y-79606062D02*
X65453203Y-79606062D01*
X65700822Y-79494633D02*
X65713203Y-79482252D01*
X65713203Y-79482252D02*
X65737965Y-79469871D01*
X65737965Y-79469871D02*
X65799870Y-79469871D01*
X65799870Y-79469871D02*
X65824632Y-79482252D01*
X65824632Y-79482252D02*
X65837013Y-79494633D01*
X65837013Y-79494633D02*
X65849394Y-79519395D01*
X65849394Y-79519395D02*
X65849394Y-79544157D01*
X65849394Y-79544157D02*
X65837013Y-79581300D01*
X65837013Y-79581300D02*
X65688441Y-79729871D01*
X65688441Y-79729871D02*
X65849394Y-79729871D01*
X66097013Y-79729871D02*
X65948441Y-79729871D01*
X66022727Y-79729871D02*
X66022727Y-79469871D01*
X66022727Y-79469871D02*
X65997965Y-79507014D01*
X65997965Y-79507014D02*
X65973203Y-79531776D01*
X65973203Y-79531776D02*
X65948441Y-79544157D01*
D11*
X65894819Y-111584762D02*
X65418628Y-111918095D01*
X65894819Y-112156190D02*
X64894819Y-112156190D01*
X64894819Y-112156190D02*
X64894819Y-111775238D01*
X64894819Y-111775238D02*
X64942438Y-111680000D01*
X64942438Y-111680000D02*
X64990057Y-111632381D01*
X64990057Y-111632381D02*
X65085295Y-111584762D01*
X65085295Y-111584762D02*
X65228152Y-111584762D01*
X65228152Y-111584762D02*
X65323390Y-111632381D01*
X65323390Y-111632381D02*
X65371009Y-111680000D01*
X65371009Y-111680000D02*
X65418628Y-111775238D01*
X65418628Y-111775238D02*
X65418628Y-112156190D01*
X65894819Y-111156190D02*
X64894819Y-111156190D01*
X64894819Y-111156190D02*
X64894819Y-110775238D01*
X64894819Y-110775238D02*
X64942438Y-110680000D01*
X64942438Y-110680000D02*
X64990057Y-110632381D01*
X64990057Y-110632381D02*
X65085295Y-110584762D01*
X65085295Y-110584762D02*
X65228152Y-110584762D01*
X65228152Y-110584762D02*
X65323390Y-110632381D01*
X65323390Y-110632381D02*
X65371009Y-110680000D01*
X65371009Y-110680000D02*
X65418628Y-110775238D01*
X65418628Y-110775238D02*
X65418628Y-111156190D01*
X64990057Y-110203809D02*
X64942438Y-110156190D01*
X64942438Y-110156190D02*
X64894819Y-110060952D01*
X64894819Y-110060952D02*
X64894819Y-109822857D01*
X64894819Y-109822857D02*
X64942438Y-109727619D01*
X64942438Y-109727619D02*
X64990057Y-109680000D01*
X64990057Y-109680000D02*
X65085295Y-109632381D01*
X65085295Y-109632381D02*
X65180533Y-109632381D01*
X65180533Y-109632381D02*
X65323390Y-109680000D01*
X65323390Y-109680000D02*
X65894819Y-110251428D01*
X65894819Y-110251428D02*
X65894819Y-109632381D01*
X64894819Y-109299047D02*
X64894819Y-108680000D01*
X64894819Y-108680000D02*
X65275771Y-109013333D01*
X65275771Y-109013333D02*
X65275771Y-108870476D01*
X65275771Y-108870476D02*
X65323390Y-108775238D01*
X65323390Y-108775238D02*
X65371009Y-108727619D01*
X65371009Y-108727619D02*
X65466247Y-108680000D01*
X65466247Y-108680000D02*
X65704342Y-108680000D01*
X65704342Y-108680000D02*
X65799580Y-108727619D01*
X65799580Y-108727619D02*
X65847200Y-108775238D01*
X65847200Y-108775238D02*
X65894819Y-108870476D01*
X65894819Y-108870476D02*
X65894819Y-109156190D01*
X65894819Y-109156190D02*
X65847200Y-109251428D01*
X65847200Y-109251428D02*
X65799580Y-109299047D01*
X64894819Y-107775238D02*
X64894819Y-108251428D01*
X64894819Y-108251428D02*
X65371009Y-108299047D01*
X65371009Y-108299047D02*
X65323390Y-108251428D01*
X65323390Y-108251428D02*
X65275771Y-108156190D01*
X65275771Y-108156190D02*
X65275771Y-107918095D01*
X65275771Y-107918095D02*
X65323390Y-107822857D01*
X65323390Y-107822857D02*
X65371009Y-107775238D01*
X65371009Y-107775238D02*
X65466247Y-107727619D01*
X65466247Y-107727619D02*
X65704342Y-107727619D01*
X65704342Y-107727619D02*
X65799580Y-107775238D01*
X65799580Y-107775238D02*
X65847200Y-107822857D01*
X65847200Y-107822857D02*
X65894819Y-107918095D01*
X65894819Y-107918095D02*
X65894819Y-108156190D01*
X65894819Y-108156190D02*
X65847200Y-108251428D01*
X65847200Y-108251428D02*
X65799580Y-108299047D01*
X64894819Y-107108571D02*
X64894819Y-107013333D01*
X64894819Y-107013333D02*
X64942438Y-106918095D01*
X64942438Y-106918095D02*
X64990057Y-106870476D01*
X64990057Y-106870476D02*
X65085295Y-106822857D01*
X65085295Y-106822857D02*
X65275771Y-106775238D01*
X65275771Y-106775238D02*
X65513866Y-106775238D01*
X65513866Y-106775238D02*
X65704342Y-106822857D01*
X65704342Y-106822857D02*
X65799580Y-106870476D01*
X65799580Y-106870476D02*
X65847200Y-106918095D01*
X65847200Y-106918095D02*
X65894819Y-107013333D01*
X65894819Y-107013333D02*
X65894819Y-107108571D01*
X65894819Y-107108571D02*
X65847200Y-107203809D01*
X65847200Y-107203809D02*
X65799580Y-107251428D01*
X65799580Y-107251428D02*
X65704342Y-107299047D01*
X65704342Y-107299047D02*
X65513866Y-107346666D01*
X65513866Y-107346666D02*
X65275771Y-107346666D01*
X65275771Y-107346666D02*
X65085295Y-107299047D01*
X65085295Y-107299047D02*
X64990057Y-107251428D01*
X64990057Y-107251428D02*
X64942438Y-107203809D01*
X64942438Y-107203809D02*
X64894819Y-107108571D01*
X65990057Y-106584762D02*
X65990057Y-105822857D01*
X65323390Y-105441904D02*
X65275771Y-105537142D01*
X65275771Y-105537142D02*
X65228152Y-105584761D01*
X65228152Y-105584761D02*
X65132914Y-105632380D01*
X65132914Y-105632380D02*
X65085295Y-105632380D01*
X65085295Y-105632380D02*
X64990057Y-105584761D01*
X64990057Y-105584761D02*
X64942438Y-105537142D01*
X64942438Y-105537142D02*
X64894819Y-105441904D01*
X64894819Y-105441904D02*
X64894819Y-105251428D01*
X64894819Y-105251428D02*
X64942438Y-105156190D01*
X64942438Y-105156190D02*
X64990057Y-105108571D01*
X64990057Y-105108571D02*
X65085295Y-105060952D01*
X65085295Y-105060952D02*
X65132914Y-105060952D01*
X65132914Y-105060952D02*
X65228152Y-105108571D01*
X65228152Y-105108571D02*
X65275771Y-105156190D01*
X65275771Y-105156190D02*
X65323390Y-105251428D01*
X65323390Y-105251428D02*
X65323390Y-105441904D01*
X65323390Y-105441904D02*
X65371009Y-105537142D01*
X65371009Y-105537142D02*
X65418628Y-105584761D01*
X65418628Y-105584761D02*
X65513866Y-105632380D01*
X65513866Y-105632380D02*
X65704342Y-105632380D01*
X65704342Y-105632380D02*
X65799580Y-105584761D01*
X65799580Y-105584761D02*
X65847200Y-105537142D01*
X65847200Y-105537142D02*
X65894819Y-105441904D01*
X65894819Y-105441904D02*
X65894819Y-105251428D01*
X65894819Y-105251428D02*
X65847200Y-105156190D01*
X65847200Y-105156190D02*
X65799580Y-105108571D01*
X65799580Y-105108571D02*
X65704342Y-105060952D01*
X65704342Y-105060952D02*
X65513866Y-105060952D01*
X65513866Y-105060952D02*
X65418628Y-105108571D01*
X65418628Y-105108571D02*
X65371009Y-105156190D01*
X65371009Y-105156190D02*
X65323390Y-105251428D01*
X64894819Y-104441904D02*
X64894819Y-104346666D01*
X64894819Y-104346666D02*
X64942438Y-104251428D01*
X64942438Y-104251428D02*
X64990057Y-104203809D01*
X64990057Y-104203809D02*
X65085295Y-104156190D01*
X65085295Y-104156190D02*
X65275771Y-104108571D01*
X65275771Y-104108571D02*
X65513866Y-104108571D01*
X65513866Y-104108571D02*
X65704342Y-104156190D01*
X65704342Y-104156190D02*
X65799580Y-104203809D01*
X65799580Y-104203809D02*
X65847200Y-104251428D01*
X65847200Y-104251428D02*
X65894819Y-104346666D01*
X65894819Y-104346666D02*
X65894819Y-104441904D01*
X65894819Y-104441904D02*
X65847200Y-104537142D01*
X65847200Y-104537142D02*
X65799580Y-104584761D01*
X65799580Y-104584761D02*
X65704342Y-104632380D01*
X65704342Y-104632380D02*
X65513866Y-104679999D01*
X65513866Y-104679999D02*
X65275771Y-104679999D01*
X65275771Y-104679999D02*
X65085295Y-104632380D01*
X65085295Y-104632380D02*
X64990057Y-104584761D01*
X64990057Y-104584761D02*
X64942438Y-104537142D01*
X64942438Y-104537142D02*
X64894819Y-104441904D01*
X65990057Y-103013333D02*
X65942438Y-103108571D01*
X65942438Y-103108571D02*
X65847200Y-103203809D01*
X65847200Y-103203809D02*
X65704342Y-103346666D01*
X65704342Y-103346666D02*
X65656723Y-103441904D01*
X65656723Y-103441904D02*
X65656723Y-103537142D01*
X65894819Y-103489523D02*
X65847200Y-103584761D01*
X65847200Y-103584761D02*
X65751961Y-103679999D01*
X65751961Y-103679999D02*
X65561485Y-103727618D01*
X65561485Y-103727618D02*
X65228152Y-103727618D01*
X65228152Y-103727618D02*
X65037676Y-103679999D01*
X65037676Y-103679999D02*
X64942438Y-103584761D01*
X64942438Y-103584761D02*
X64894819Y-103489523D01*
X64894819Y-103489523D02*
X64894819Y-103299047D01*
X64894819Y-103299047D02*
X64942438Y-103203809D01*
X64942438Y-103203809D02*
X65037676Y-103108571D01*
X65037676Y-103108571D02*
X65228152Y-103060952D01*
X65228152Y-103060952D02*
X65561485Y-103060952D01*
X65561485Y-103060952D02*
X65751961Y-103108571D01*
X65751961Y-103108571D02*
X65847200Y-103203809D01*
X65847200Y-103203809D02*
X65894819Y-103299047D01*
X65894819Y-103299047D02*
X65894819Y-103489523D01*
X65371009Y-102299047D02*
X65371009Y-102632380D01*
X65894819Y-102632380D02*
X64894819Y-102632380D01*
X64894819Y-102632380D02*
X64894819Y-102156190D01*
X65894819Y-101775237D02*
X64894819Y-101775237D01*
X64894819Y-101775237D02*
X65894819Y-101203809D01*
X65894819Y-101203809D02*
X64894819Y-101203809D01*
X71844819Y-107441904D02*
X72654342Y-107441904D01*
X72654342Y-107441904D02*
X72749580Y-107394285D01*
X72749580Y-107394285D02*
X72797200Y-107346666D01*
X72797200Y-107346666D02*
X72844819Y-107251428D01*
X72844819Y-107251428D02*
X72844819Y-107060952D01*
X72844819Y-107060952D02*
X72797200Y-106965714D01*
X72797200Y-106965714D02*
X72749580Y-106918095D01*
X72749580Y-106918095D02*
X72654342Y-106870476D01*
X72654342Y-106870476D02*
X71844819Y-106870476D01*
X71844819Y-106489523D02*
X71844819Y-105870476D01*
X71844819Y-105870476D02*
X72225771Y-106203809D01*
X72225771Y-106203809D02*
X72225771Y-106060952D01*
X72225771Y-106060952D02*
X72273390Y-105965714D01*
X72273390Y-105965714D02*
X72321009Y-105918095D01*
X72321009Y-105918095D02*
X72416247Y-105870476D01*
X72416247Y-105870476D02*
X72654342Y-105870476D01*
X72654342Y-105870476D02*
X72749580Y-105918095D01*
X72749580Y-105918095D02*
X72797200Y-105965714D01*
X72797200Y-105965714D02*
X72844819Y-106060952D01*
X72844819Y-106060952D02*
X72844819Y-106346666D01*
X72844819Y-106346666D02*
X72797200Y-106441904D01*
X72797200Y-106441904D02*
X72749580Y-106489523D01*
D19*
X78936889Y-80835313D02*
X78836889Y-80835313D01*
X78836889Y-80992456D02*
X78836889Y-80692456D01*
X78836889Y-80692456D02*
X78979746Y-80692456D01*
X79094032Y-80992456D02*
X79094032Y-80692456D01*
X79236889Y-80992456D02*
X79236889Y-80692456D01*
X79236889Y-80692456D02*
X79308318Y-80692456D01*
X79308318Y-80692456D02*
X79351175Y-80706742D01*
X79351175Y-80706742D02*
X79379746Y-80735313D01*
X79379746Y-80735313D02*
X79394032Y-80763885D01*
X79394032Y-80763885D02*
X79408318Y-80821028D01*
X79408318Y-80821028D02*
X79408318Y-80863885D01*
X79408318Y-80863885D02*
X79394032Y-80921028D01*
X79394032Y-80921028D02*
X79379746Y-80949599D01*
X79379746Y-80949599D02*
X79351175Y-80978171D01*
X79351175Y-80978171D02*
X79308318Y-80992456D01*
X79308318Y-80992456D02*
X79236889Y-80992456D01*
X79694032Y-80992456D02*
X79522603Y-80992456D01*
X79608318Y-80992456D02*
X79608318Y-80692456D01*
X79608318Y-80692456D02*
X79579746Y-80735313D01*
X79579746Y-80735313D02*
X79551175Y-80763885D01*
X79551175Y-80763885D02*
X79522603Y-80778171D01*
D11*
X68440822Y-102853594D02*
X68440822Y-102377404D01*
X68726537Y-102948832D02*
X67726537Y-102615499D01*
X67726537Y-102615499D02*
X68726537Y-102282166D01*
X68202727Y-101615499D02*
X68250346Y-101472642D01*
X68250346Y-101472642D02*
X68297965Y-101425023D01*
X68297965Y-101425023D02*
X68393203Y-101377404D01*
X68393203Y-101377404D02*
X68536060Y-101377404D01*
X68536060Y-101377404D02*
X68631298Y-101425023D01*
X68631298Y-101425023D02*
X68678918Y-101472642D01*
X68678918Y-101472642D02*
X68726537Y-101567880D01*
X68726537Y-101567880D02*
X68726537Y-101948832D01*
X68726537Y-101948832D02*
X67726537Y-101948832D01*
X67726537Y-101948832D02*
X67726537Y-101615499D01*
X67726537Y-101615499D02*
X67774156Y-101520261D01*
X67774156Y-101520261D02*
X67821775Y-101472642D01*
X67821775Y-101472642D02*
X67917013Y-101425023D01*
X67917013Y-101425023D02*
X68012251Y-101425023D01*
X68012251Y-101425023D02*
X68107489Y-101472642D01*
X68107489Y-101472642D02*
X68155108Y-101520261D01*
X68155108Y-101520261D02*
X68202727Y-101615499D01*
X68202727Y-101615499D02*
X68202727Y-101948832D01*
X68726537Y-100948832D02*
X67726537Y-100948832D01*
X67726537Y-100948832D02*
X68440822Y-100615499D01*
X68440822Y-100615499D02*
X67726537Y-100282166D01*
X67726537Y-100282166D02*
X68726537Y-100282166D01*
X68155108Y-99663118D02*
X68107489Y-99758356D01*
X68107489Y-99758356D02*
X68059870Y-99805975D01*
X68059870Y-99805975D02*
X67964632Y-99853594D01*
X67964632Y-99853594D02*
X67917013Y-99853594D01*
X67917013Y-99853594D02*
X67821775Y-99805975D01*
X67821775Y-99805975D02*
X67774156Y-99758356D01*
X67774156Y-99758356D02*
X67726537Y-99663118D01*
X67726537Y-99663118D02*
X67726537Y-99472642D01*
X67726537Y-99472642D02*
X67774156Y-99377404D01*
X67774156Y-99377404D02*
X67821775Y-99329785D01*
X67821775Y-99329785D02*
X67917013Y-99282166D01*
X67917013Y-99282166D02*
X67964632Y-99282166D01*
X67964632Y-99282166D02*
X68059870Y-99329785D01*
X68059870Y-99329785D02*
X68107489Y-99377404D01*
X68107489Y-99377404D02*
X68155108Y-99472642D01*
X68155108Y-99472642D02*
X68155108Y-99663118D01*
X68155108Y-99663118D02*
X68202727Y-99758356D01*
X68202727Y-99758356D02*
X68250346Y-99805975D01*
X68250346Y-99805975D02*
X68345584Y-99853594D01*
X68345584Y-99853594D02*
X68536060Y-99853594D01*
X68536060Y-99853594D02*
X68631298Y-99805975D01*
X68631298Y-99805975D02*
X68678918Y-99758356D01*
X68678918Y-99758356D02*
X68726537Y-99663118D01*
X68726537Y-99663118D02*
X68726537Y-99472642D01*
X68726537Y-99472642D02*
X68678918Y-99377404D01*
X68678918Y-99377404D02*
X68631298Y-99329785D01*
X68631298Y-99329785D02*
X68536060Y-99282166D01*
X68536060Y-99282166D02*
X68345584Y-99282166D01*
X68345584Y-99282166D02*
X68250346Y-99329785D01*
X68250346Y-99329785D02*
X68202727Y-99377404D01*
X68202727Y-99377404D02*
X68155108Y-99472642D01*
X68345584Y-98853594D02*
X68345584Y-98091690D01*
X67821775Y-97663118D02*
X67774156Y-97615499D01*
X67774156Y-97615499D02*
X67726537Y-97520261D01*
X67726537Y-97520261D02*
X67726537Y-97282166D01*
X67726537Y-97282166D02*
X67774156Y-97186928D01*
X67774156Y-97186928D02*
X67821775Y-97139309D01*
X67821775Y-97139309D02*
X67917013Y-97091690D01*
X67917013Y-97091690D02*
X68012251Y-97091690D01*
X68012251Y-97091690D02*
X68155108Y-97139309D01*
X68155108Y-97139309D02*
X68726537Y-97710737D01*
X68726537Y-97710737D02*
X68726537Y-97091690D01*
X67726537Y-96758356D02*
X67726537Y-96091690D01*
X67726537Y-96091690D02*
X68726537Y-96520261D01*
X67821775Y-95758356D02*
X67774156Y-95710737D01*
X67774156Y-95710737D02*
X67726537Y-95615499D01*
X67726537Y-95615499D02*
X67726537Y-95377404D01*
X67726537Y-95377404D02*
X67774156Y-95282166D01*
X67774156Y-95282166D02*
X67821775Y-95234547D01*
X67821775Y-95234547D02*
X67917013Y-95186928D01*
X67917013Y-95186928D02*
X68012251Y-95186928D01*
X68012251Y-95186928D02*
X68155108Y-95234547D01*
X68155108Y-95234547D02*
X68726537Y-95805975D01*
X68726537Y-95805975D02*
X68726537Y-95186928D01*
X68345584Y-94758356D02*
X68345584Y-93996452D01*
X67726537Y-93663118D02*
X67726537Y-93091690D01*
X68726537Y-93377404D02*
X67726537Y-93377404D01*
X67726537Y-92853594D02*
X67726537Y-92234547D01*
X67726537Y-92234547D02*
X68107489Y-92567880D01*
X68107489Y-92567880D02*
X68107489Y-92425023D01*
X68107489Y-92425023D02*
X68155108Y-92329785D01*
X68155108Y-92329785D02*
X68202727Y-92282166D01*
X68202727Y-92282166D02*
X68297965Y-92234547D01*
X68297965Y-92234547D02*
X68536060Y-92234547D01*
X68536060Y-92234547D02*
X68631298Y-92282166D01*
X68631298Y-92282166D02*
X68678918Y-92329785D01*
X68678918Y-92329785D02*
X68726537Y-92425023D01*
X68726537Y-92425023D02*
X68726537Y-92710737D01*
X68726537Y-92710737D02*
X68678918Y-92805975D01*
X68678918Y-92805975D02*
X68631298Y-92853594D01*
D20*
X65806758Y-97877404D02*
X66140091Y-97877404D01*
X65440091Y-98110737D02*
X65806758Y-97877404D01*
X65806758Y-97877404D02*
X65440091Y-97644070D01*
X66140091Y-97044070D02*
X66140091Y-97444070D01*
X66140091Y-97244070D02*
X65440091Y-97244070D01*
X65440091Y-97244070D02*
X65540091Y-97310737D01*
X65540091Y-97310737D02*
X65606758Y-97377404D01*
X65606758Y-97377404D02*
X65640091Y-97444070D01*
D11*
X83058095Y-132534819D02*
X83058095Y-131534819D01*
X83058095Y-132011009D02*
X83629523Y-132011009D01*
X83629523Y-132534819D02*
X83629523Y-131534819D01*
X84010476Y-131534819D02*
X84629523Y-131534819D01*
X84629523Y-131534819D02*
X84296190Y-131915771D01*
X84296190Y-131915771D02*
X84439047Y-131915771D01*
X84439047Y-131915771D02*
X84534285Y-131963390D01*
X84534285Y-131963390D02*
X84581904Y-132011009D01*
X84581904Y-132011009D02*
X84629523Y-132106247D01*
X84629523Y-132106247D02*
X84629523Y-132344342D01*
X84629523Y-132344342D02*
X84581904Y-132439580D01*
X84581904Y-132439580D02*
X84534285Y-132487200D01*
X84534285Y-132487200D02*
X84439047Y-132534819D01*
X84439047Y-132534819D02*
X84153333Y-132534819D01*
X84153333Y-132534819D02*
X84058095Y-132487200D01*
X84058095Y-132487200D02*
X84010476Y-132439580D01*
D15*
X72032883Y-113884585D02*
X72044788Y-113896489D01*
X72044788Y-113896489D02*
X72056692Y-113932204D01*
X72056692Y-113932204D02*
X72056692Y-113956013D01*
X72056692Y-113956013D02*
X72044788Y-113991727D01*
X72044788Y-113991727D02*
X72020978Y-114015537D01*
X72020978Y-114015537D02*
X71997168Y-114027442D01*
X71997168Y-114027442D02*
X71949549Y-114039346D01*
X71949549Y-114039346D02*
X71913835Y-114039346D01*
X71913835Y-114039346D02*
X71866216Y-114027442D01*
X71866216Y-114027442D02*
X71842407Y-114015537D01*
X71842407Y-114015537D02*
X71818597Y-113991727D01*
X71818597Y-113991727D02*
X71806692Y-113956013D01*
X71806692Y-113956013D02*
X71806692Y-113932204D01*
X71806692Y-113932204D02*
X71818597Y-113896489D01*
X71818597Y-113896489D02*
X71830502Y-113884585D01*
X72056692Y-113646489D02*
X72056692Y-113789346D01*
X72056692Y-113717918D02*
X71806692Y-113717918D01*
X71806692Y-113717918D02*
X71842407Y-113741727D01*
X71842407Y-113741727D02*
X71866216Y-113765537D01*
X71866216Y-113765537D02*
X71878121Y-113789346D01*
X71806692Y-113491728D02*
X71806692Y-113467918D01*
X71806692Y-113467918D02*
X71818597Y-113444109D01*
X71818597Y-113444109D02*
X71830502Y-113432204D01*
X71830502Y-113432204D02*
X71854311Y-113420299D01*
X71854311Y-113420299D02*
X71901930Y-113408394D01*
X71901930Y-113408394D02*
X71961454Y-113408394D01*
X71961454Y-113408394D02*
X72009073Y-113420299D01*
X72009073Y-113420299D02*
X72032883Y-113432204D01*
X72032883Y-113432204D02*
X72044788Y-113444109D01*
X72044788Y-113444109D02*
X72056692Y-113467918D01*
X72056692Y-113467918D02*
X72056692Y-113491728D01*
X72056692Y-113491728D02*
X72044788Y-113515537D01*
X72044788Y-113515537D02*
X72032883Y-113527442D01*
X72032883Y-113527442D02*
X72009073Y-113539347D01*
X72009073Y-113539347D02*
X71961454Y-113551251D01*
X71961454Y-113551251D02*
X71901930Y-113551251D01*
X71901930Y-113551251D02*
X71854311Y-113539347D01*
X71854311Y-113539347D02*
X71830502Y-113527442D01*
X71830502Y-113527442D02*
X71818597Y-113515537D01*
X71818597Y-113515537D02*
X71806692Y-113491728D01*
X66923051Y-100300836D02*
X66911147Y-100312741D01*
X66911147Y-100312741D02*
X66875432Y-100324645D01*
X66875432Y-100324645D02*
X66851623Y-100324645D01*
X66851623Y-100324645D02*
X66815909Y-100312741D01*
X66815909Y-100312741D02*
X66792099Y-100288931D01*
X66792099Y-100288931D02*
X66780194Y-100265121D01*
X66780194Y-100265121D02*
X66768290Y-100217502D01*
X66768290Y-100217502D02*
X66768290Y-100181788D01*
X66768290Y-100181788D02*
X66780194Y-100134169D01*
X66780194Y-100134169D02*
X66792099Y-100110360D01*
X66792099Y-100110360D02*
X66815909Y-100086550D01*
X66815909Y-100086550D02*
X66851623Y-100074645D01*
X66851623Y-100074645D02*
X66875432Y-100074645D01*
X66875432Y-100074645D02*
X66911147Y-100086550D01*
X66911147Y-100086550D02*
X66923051Y-100098455D01*
X67018290Y-100098455D02*
X67030194Y-100086550D01*
X67030194Y-100086550D02*
X67054004Y-100074645D01*
X67054004Y-100074645D02*
X67113528Y-100074645D01*
X67113528Y-100074645D02*
X67137337Y-100086550D01*
X67137337Y-100086550D02*
X67149242Y-100098455D01*
X67149242Y-100098455D02*
X67161147Y-100122264D01*
X67161147Y-100122264D02*
X67161147Y-100146074D01*
X67161147Y-100146074D02*
X67149242Y-100181788D01*
X67149242Y-100181788D02*
X67006385Y-100324645D01*
X67006385Y-100324645D02*
X67161147Y-100324645D01*
D11*
X78699613Y-113046928D02*
X78747232Y-112999309D01*
X78747232Y-112999309D02*
X78842470Y-112951690D01*
X78842470Y-112951690D02*
X79080565Y-112951690D01*
X79080565Y-112951690D02*
X79175803Y-112999309D01*
X79175803Y-112999309D02*
X79223422Y-113046928D01*
X79223422Y-113046928D02*
X79271041Y-113142166D01*
X79271041Y-113142166D02*
X79271041Y-113237404D01*
X79271041Y-113237404D02*
X79223422Y-113380261D01*
X79223422Y-113380261D02*
X78651994Y-113951690D01*
X78651994Y-113951690D02*
X79271041Y-113951690D01*
X79604375Y-112951690D02*
X80271041Y-112951690D01*
X80271041Y-112951690D02*
X79842470Y-113951690D01*
D15*
X79294375Y-112445071D02*
X79207708Y-112321262D01*
X79145803Y-112445071D02*
X79145803Y-112185071D01*
X79145803Y-112185071D02*
X79244851Y-112185071D01*
X79244851Y-112185071D02*
X79269613Y-112197452D01*
X79269613Y-112197452D02*
X79281994Y-112209833D01*
X79281994Y-112209833D02*
X79294375Y-112234595D01*
X79294375Y-112234595D02*
X79294375Y-112271738D01*
X79294375Y-112271738D02*
X79281994Y-112296500D01*
X79281994Y-112296500D02*
X79269613Y-112308881D01*
X79269613Y-112308881D02*
X79244851Y-112321262D01*
X79244851Y-112321262D02*
X79145803Y-112321262D01*
X79393422Y-112209833D02*
X79405803Y-112197452D01*
X79405803Y-112197452D02*
X79430565Y-112185071D01*
X79430565Y-112185071D02*
X79492470Y-112185071D01*
X79492470Y-112185071D02*
X79517232Y-112197452D01*
X79517232Y-112197452D02*
X79529613Y-112209833D01*
X79529613Y-112209833D02*
X79541994Y-112234595D01*
X79541994Y-112234595D02*
X79541994Y-112259357D01*
X79541994Y-112259357D02*
X79529613Y-112296500D01*
X79529613Y-112296500D02*
X79381041Y-112445071D01*
X79381041Y-112445071D02*
X79541994Y-112445071D01*
X79764851Y-112185071D02*
X79715327Y-112185071D01*
X79715327Y-112185071D02*
X79690565Y-112197452D01*
X79690565Y-112197452D02*
X79678184Y-112209833D01*
X79678184Y-112209833D02*
X79653422Y-112246976D01*
X79653422Y-112246976D02*
X79641041Y-112296500D01*
X79641041Y-112296500D02*
X79641041Y-112395548D01*
X79641041Y-112395548D02*
X79653422Y-112420310D01*
X79653422Y-112420310D02*
X79665803Y-112432691D01*
X79665803Y-112432691D02*
X79690565Y-112445071D01*
X79690565Y-112445071D02*
X79740089Y-112445071D01*
X79740089Y-112445071D02*
X79764851Y-112432691D01*
X79764851Y-112432691D02*
X79777232Y-112420310D01*
X79777232Y-112420310D02*
X79789613Y-112395548D01*
X79789613Y-112395548D02*
X79789613Y-112333643D01*
X79789613Y-112333643D02*
X79777232Y-112308881D01*
X79777232Y-112308881D02*
X79764851Y-112296500D01*
X79764851Y-112296500D02*
X79740089Y-112284119D01*
X79740089Y-112284119D02*
X79690565Y-112284119D01*
X79690565Y-112284119D02*
X79665803Y-112296500D01*
X79665803Y-112296500D02*
X79653422Y-112308881D01*
X79653422Y-112308881D02*
X79641041Y-112333643D01*
X65016385Y-101345271D02*
X64929718Y-101221462D01*
X64867813Y-101345271D02*
X64867813Y-101085271D01*
X64867813Y-101085271D02*
X64966861Y-101085271D01*
X64966861Y-101085271D02*
X64991623Y-101097652D01*
X64991623Y-101097652D02*
X65004004Y-101110033D01*
X65004004Y-101110033D02*
X65016385Y-101134795D01*
X65016385Y-101134795D02*
X65016385Y-101171938D01*
X65016385Y-101171938D02*
X65004004Y-101196700D01*
X65004004Y-101196700D02*
X64991623Y-101209081D01*
X64991623Y-101209081D02*
X64966861Y-101221462D01*
X64966861Y-101221462D02*
X64867813Y-101221462D01*
X65264004Y-101345271D02*
X65115432Y-101345271D01*
X65189718Y-101345271D02*
X65189718Y-101085271D01*
X65189718Y-101085271D02*
X65164956Y-101122414D01*
X65164956Y-101122414D02*
X65140194Y-101147176D01*
X65140194Y-101147176D02*
X65115432Y-101159557D01*
X77694175Y-96265271D02*
X77607508Y-96141462D01*
X77545603Y-96265271D02*
X77545603Y-96005271D01*
X77545603Y-96005271D02*
X77644651Y-96005271D01*
X77644651Y-96005271D02*
X77669413Y-96017652D01*
X77669413Y-96017652D02*
X77681794Y-96030033D01*
X77681794Y-96030033D02*
X77694175Y-96054795D01*
X77694175Y-96054795D02*
X77694175Y-96091938D01*
X77694175Y-96091938D02*
X77681794Y-96116700D01*
X77681794Y-96116700D02*
X77669413Y-96129081D01*
X77669413Y-96129081D02*
X77644651Y-96141462D01*
X77644651Y-96141462D02*
X77545603Y-96141462D01*
X77941794Y-96265271D02*
X77793222Y-96265271D01*
X77867508Y-96265271D02*
X77867508Y-96005271D01*
X77867508Y-96005271D02*
X77842746Y-96042414D01*
X77842746Y-96042414D02*
X77817984Y-96067176D01*
X77817984Y-96067176D02*
X77793222Y-96079557D01*
X78028460Y-96005271D02*
X78189413Y-96005271D01*
X78189413Y-96005271D02*
X78102746Y-96104319D01*
X78102746Y-96104319D02*
X78139889Y-96104319D01*
X78139889Y-96104319D02*
X78164651Y-96116700D01*
X78164651Y-96116700D02*
X78177032Y-96129081D01*
X78177032Y-96129081D02*
X78189413Y-96153843D01*
X78189413Y-96153843D02*
X78189413Y-96215748D01*
X78189413Y-96215748D02*
X78177032Y-96240510D01*
X78177032Y-96240510D02*
X78164651Y-96252891D01*
X78164651Y-96252891D02*
X78139889Y-96265271D01*
X78139889Y-96265271D02*
X78065603Y-96265271D01*
X78065603Y-96265271D02*
X78040841Y-96252891D01*
X78040841Y-96252891D02*
X78028460Y-96240510D01*
D19*
X67151289Y-81394113D02*
X67051289Y-81394113D01*
X67051289Y-81551256D02*
X67051289Y-81251256D01*
X67051289Y-81251256D02*
X67194146Y-81251256D01*
X67308432Y-81551256D02*
X67308432Y-81251256D01*
X67451289Y-81551256D02*
X67451289Y-81251256D01*
X67451289Y-81251256D02*
X67522718Y-81251256D01*
X67522718Y-81251256D02*
X67565575Y-81265542D01*
X67565575Y-81265542D02*
X67594146Y-81294113D01*
X67594146Y-81294113D02*
X67608432Y-81322685D01*
X67608432Y-81322685D02*
X67622718Y-81379828D01*
X67622718Y-81379828D02*
X67622718Y-81422685D01*
X67622718Y-81422685D02*
X67608432Y-81479828D01*
X67608432Y-81479828D02*
X67594146Y-81508399D01*
X67594146Y-81508399D02*
X67565575Y-81536971D01*
X67565575Y-81536971D02*
X67522718Y-81551256D01*
X67522718Y-81551256D02*
X67451289Y-81551256D01*
X67894146Y-81251256D02*
X67751289Y-81251256D01*
X67751289Y-81251256D02*
X67737003Y-81394113D01*
X67737003Y-81394113D02*
X67751289Y-81379828D01*
X67751289Y-81379828D02*
X67779861Y-81365542D01*
X67779861Y-81365542D02*
X67851289Y-81365542D01*
X67851289Y-81365542D02*
X67879861Y-81379828D01*
X67879861Y-81379828D02*
X67894146Y-81394113D01*
X67894146Y-81394113D02*
X67908432Y-81422685D01*
X67908432Y-81422685D02*
X67908432Y-81494113D01*
X67908432Y-81494113D02*
X67894146Y-81522685D01*
X67894146Y-81522685D02*
X67879861Y-81536971D01*
X67879861Y-81536971D02*
X67851289Y-81551256D01*
X67851289Y-81551256D02*
X67779861Y-81551256D01*
X67779861Y-81551256D02*
X67751289Y-81536971D01*
X67751289Y-81536971D02*
X67737003Y-81522685D01*
D11*
X78663127Y-106281423D02*
X78663127Y-106948090D01*
X78425032Y-105900471D02*
X78186937Y-106614756D01*
X78186937Y-106614756D02*
X78805984Y-106614756D01*
X79186937Y-106852851D02*
X79234556Y-106900471D01*
X79234556Y-106900471D02*
X79186937Y-106948090D01*
X79186937Y-106948090D02*
X79139318Y-106900471D01*
X79139318Y-106900471D02*
X79186937Y-106852851D01*
X79186937Y-106852851D02*
X79186937Y-106948090D01*
X79567889Y-105948090D02*
X80234555Y-105948090D01*
X80234555Y-105948090D02*
X79805984Y-106948090D01*
X81044079Y-106281423D02*
X81044079Y-106948090D01*
X80615508Y-106281423D02*
X80615508Y-106805232D01*
X80615508Y-106805232D02*
X80663127Y-106900471D01*
X80663127Y-106900471D02*
X80758365Y-106948090D01*
X80758365Y-106948090D02*
X80901222Y-106948090D01*
X80901222Y-106948090D02*
X80996460Y-106900471D01*
X80996460Y-106900471D02*
X81044079Y-106852851D01*
D15*
X79478603Y-107743036D02*
X79466699Y-107754941D01*
X79466699Y-107754941D02*
X79430984Y-107766845D01*
X79430984Y-107766845D02*
X79407175Y-107766845D01*
X79407175Y-107766845D02*
X79371461Y-107754941D01*
X79371461Y-107754941D02*
X79347651Y-107731131D01*
X79347651Y-107731131D02*
X79335746Y-107707321D01*
X79335746Y-107707321D02*
X79323842Y-107659702D01*
X79323842Y-107659702D02*
X79323842Y-107623988D01*
X79323842Y-107623988D02*
X79335746Y-107576369D01*
X79335746Y-107576369D02*
X79347651Y-107552560D01*
X79347651Y-107552560D02*
X79371461Y-107528750D01*
X79371461Y-107528750D02*
X79407175Y-107516845D01*
X79407175Y-107516845D02*
X79430984Y-107516845D01*
X79430984Y-107516845D02*
X79466699Y-107528750D01*
X79466699Y-107528750D02*
X79478603Y-107540655D01*
X79561937Y-107516845D02*
X79716699Y-107516845D01*
X79716699Y-107516845D02*
X79633365Y-107612083D01*
X79633365Y-107612083D02*
X79669080Y-107612083D01*
X79669080Y-107612083D02*
X79692889Y-107623988D01*
X79692889Y-107623988D02*
X79704794Y-107635893D01*
X79704794Y-107635893D02*
X79716699Y-107659702D01*
X79716699Y-107659702D02*
X79716699Y-107719226D01*
X79716699Y-107719226D02*
X79704794Y-107743036D01*
X79704794Y-107743036D02*
X79692889Y-107754941D01*
X79692889Y-107754941D02*
X79669080Y-107766845D01*
X79669080Y-107766845D02*
X79597651Y-107766845D01*
X79597651Y-107766845D02*
X79573842Y-107754941D01*
X79573842Y-107754941D02*
X79561937Y-107743036D01*
X79859556Y-107623988D02*
X79835746Y-107612083D01*
X79835746Y-107612083D02*
X79823841Y-107600179D01*
X79823841Y-107600179D02*
X79811937Y-107576369D01*
X79811937Y-107576369D02*
X79811937Y-107564464D01*
X79811937Y-107564464D02*
X79823841Y-107540655D01*
X79823841Y-107540655D02*
X79835746Y-107528750D01*
X79835746Y-107528750D02*
X79859556Y-107516845D01*
X79859556Y-107516845D02*
X79907175Y-107516845D01*
X79907175Y-107516845D02*
X79930984Y-107528750D01*
X79930984Y-107528750D02*
X79942889Y-107540655D01*
X79942889Y-107540655D02*
X79954794Y-107564464D01*
X79954794Y-107564464D02*
X79954794Y-107576369D01*
X79954794Y-107576369D02*
X79942889Y-107600179D01*
X79942889Y-107600179D02*
X79930984Y-107612083D01*
X79930984Y-107612083D02*
X79907175Y-107623988D01*
X79907175Y-107623988D02*
X79859556Y-107623988D01*
X79859556Y-107623988D02*
X79835746Y-107635893D01*
X79835746Y-107635893D02*
X79823841Y-107647798D01*
X79823841Y-107647798D02*
X79811937Y-107671607D01*
X79811937Y-107671607D02*
X79811937Y-107719226D01*
X79811937Y-107719226D02*
X79823841Y-107743036D01*
X79823841Y-107743036D02*
X79835746Y-107754941D01*
X79835746Y-107754941D02*
X79859556Y-107766845D01*
X79859556Y-107766845D02*
X79907175Y-107766845D01*
X79907175Y-107766845D02*
X79930984Y-107754941D01*
X79930984Y-107754941D02*
X79942889Y-107743036D01*
X79942889Y-107743036D02*
X79954794Y-107719226D01*
X79954794Y-107719226D02*
X79954794Y-107671607D01*
X79954794Y-107671607D02*
X79942889Y-107647798D01*
X79942889Y-107647798D02*
X79930984Y-107635893D01*
X79930984Y-107635893D02*
X79907175Y-107623988D01*
X71757003Y-74875436D02*
X71745099Y-74887341D01*
X71745099Y-74887341D02*
X71709384Y-74899245D01*
X71709384Y-74899245D02*
X71685575Y-74899245D01*
X71685575Y-74899245D02*
X71649861Y-74887341D01*
X71649861Y-74887341D02*
X71626051Y-74863531D01*
X71626051Y-74863531D02*
X71614146Y-74839721D01*
X71614146Y-74839721D02*
X71602242Y-74792102D01*
X71602242Y-74792102D02*
X71602242Y-74756388D01*
X71602242Y-74756388D02*
X71614146Y-74708769D01*
X71614146Y-74708769D02*
X71626051Y-74684960D01*
X71626051Y-74684960D02*
X71649861Y-74661150D01*
X71649861Y-74661150D02*
X71685575Y-74649245D01*
X71685575Y-74649245D02*
X71709384Y-74649245D01*
X71709384Y-74649245D02*
X71745099Y-74661150D01*
X71745099Y-74661150D02*
X71757003Y-74673055D01*
X71840337Y-74649245D02*
X71995099Y-74649245D01*
X71995099Y-74649245D02*
X71911765Y-74744483D01*
X71911765Y-74744483D02*
X71947480Y-74744483D01*
X71947480Y-74744483D02*
X71971289Y-74756388D01*
X71971289Y-74756388D02*
X71983194Y-74768293D01*
X71983194Y-74768293D02*
X71995099Y-74792102D01*
X71995099Y-74792102D02*
X71995099Y-74851626D01*
X71995099Y-74851626D02*
X71983194Y-74875436D01*
X71983194Y-74875436D02*
X71971289Y-74887341D01*
X71971289Y-74887341D02*
X71947480Y-74899245D01*
X71947480Y-74899245D02*
X71876051Y-74899245D01*
X71876051Y-74899245D02*
X71852242Y-74887341D01*
X71852242Y-74887341D02*
X71840337Y-74875436D01*
X72090337Y-74673055D02*
X72102241Y-74661150D01*
X72102241Y-74661150D02*
X72126051Y-74649245D01*
X72126051Y-74649245D02*
X72185575Y-74649245D01*
X72185575Y-74649245D02*
X72209384Y-74661150D01*
X72209384Y-74661150D02*
X72221289Y-74673055D01*
X72221289Y-74673055D02*
X72233194Y-74696864D01*
X72233194Y-74696864D02*
X72233194Y-74720674D01*
X72233194Y-74720674D02*
X72221289Y-74756388D01*
X72221289Y-74756388D02*
X72078432Y-74899245D01*
X72078432Y-74899245D02*
X72233194Y-74899245D01*
D11*
X57583332Y-96918580D02*
X57535713Y-96966200D01*
X57535713Y-96966200D02*
X57392856Y-97013819D01*
X57392856Y-97013819D02*
X57297618Y-97013819D01*
X57297618Y-97013819D02*
X57154761Y-96966200D01*
X57154761Y-96966200D02*
X57059523Y-96870961D01*
X57059523Y-96870961D02*
X57011904Y-96775723D01*
X57011904Y-96775723D02*
X56964285Y-96585247D01*
X56964285Y-96585247D02*
X56964285Y-96442390D01*
X56964285Y-96442390D02*
X57011904Y-96251914D01*
X57011904Y-96251914D02*
X57059523Y-96156676D01*
X57059523Y-96156676D02*
X57154761Y-96061438D01*
X57154761Y-96061438D02*
X57297618Y-96013819D01*
X57297618Y-96013819D02*
X57392856Y-96013819D01*
X57392856Y-96013819D02*
X57535713Y-96061438D01*
X57535713Y-96061438D02*
X57583332Y-96109057D01*
X58154761Y-97013819D02*
X58059523Y-96966200D01*
X58059523Y-96966200D02*
X58011904Y-96918580D01*
X58011904Y-96918580D02*
X57964285Y-96823342D01*
X57964285Y-96823342D02*
X57964285Y-96537628D01*
X57964285Y-96537628D02*
X58011904Y-96442390D01*
X58011904Y-96442390D02*
X58059523Y-96394771D01*
X58059523Y-96394771D02*
X58154761Y-96347152D01*
X58154761Y-96347152D02*
X58297618Y-96347152D01*
X58297618Y-96347152D02*
X58392856Y-96394771D01*
X58392856Y-96394771D02*
X58440475Y-96442390D01*
X58440475Y-96442390D02*
X58488094Y-96537628D01*
X58488094Y-96537628D02*
X58488094Y-96823342D01*
X58488094Y-96823342D02*
X58440475Y-96918580D01*
X58440475Y-96918580D02*
X58392856Y-96966200D01*
X58392856Y-96966200D02*
X58297618Y-97013819D01*
X58297618Y-97013819D02*
X58154761Y-97013819D01*
X58916666Y-96347152D02*
X58916666Y-97013819D01*
X58916666Y-96442390D02*
X58964285Y-96394771D01*
X58964285Y-96394771D02*
X59059523Y-96347152D01*
X59059523Y-96347152D02*
X59202380Y-96347152D01*
X59202380Y-96347152D02*
X59297618Y-96394771D01*
X59297618Y-96394771D02*
X59345237Y-96490009D01*
X59345237Y-96490009D02*
X59345237Y-97013819D01*
X59821428Y-96347152D02*
X59821428Y-97013819D01*
X59821428Y-96442390D02*
X59869047Y-96394771D01*
X59869047Y-96394771D02*
X59964285Y-96347152D01*
X59964285Y-96347152D02*
X60107142Y-96347152D01*
X60107142Y-96347152D02*
X60202380Y-96394771D01*
X60202380Y-96394771D02*
X60249999Y-96490009D01*
X60249999Y-96490009D02*
X60249999Y-97013819D01*
X60488095Y-97109057D02*
X61249999Y-97109057D01*
X61678571Y-96013819D02*
X61773809Y-96013819D01*
X61773809Y-96013819D02*
X61869047Y-96061438D01*
X61869047Y-96061438D02*
X61916666Y-96109057D01*
X61916666Y-96109057D02*
X61964285Y-96204295D01*
X61964285Y-96204295D02*
X62011904Y-96394771D01*
X62011904Y-96394771D02*
X62011904Y-96632866D01*
X62011904Y-96632866D02*
X61964285Y-96823342D01*
X61964285Y-96823342D02*
X61916666Y-96918580D01*
X61916666Y-96918580D02*
X61869047Y-96966200D01*
X61869047Y-96966200D02*
X61773809Y-97013819D01*
X61773809Y-97013819D02*
X61678571Y-97013819D01*
X61678571Y-97013819D02*
X61583333Y-96966200D01*
X61583333Y-96966200D02*
X61535714Y-96918580D01*
X61535714Y-96918580D02*
X61488095Y-96823342D01*
X61488095Y-96823342D02*
X61440476Y-96632866D01*
X61440476Y-96632866D02*
X61440476Y-96394771D01*
X61440476Y-96394771D02*
X61488095Y-96204295D01*
X61488095Y-96204295D02*
X61535714Y-96109057D01*
X61535714Y-96109057D02*
X61583333Y-96061438D01*
X61583333Y-96061438D02*
X61678571Y-96013819D01*
X62964285Y-97013819D02*
X62392857Y-97013819D01*
X62678571Y-97013819D02*
X62678571Y-96013819D01*
X62678571Y-96013819D02*
X62583333Y-96156676D01*
X62583333Y-96156676D02*
X62488095Y-96251914D01*
X62488095Y-96251914D02*
X62392857Y-96299533D01*
X63297619Y-97013819D02*
X63821428Y-96347152D01*
X63297619Y-96347152D02*
X63821428Y-97013819D01*
X64154762Y-96109057D02*
X64202381Y-96061438D01*
X64202381Y-96061438D02*
X64297619Y-96013819D01*
X64297619Y-96013819D02*
X64535714Y-96013819D01*
X64535714Y-96013819D02*
X64630952Y-96061438D01*
X64630952Y-96061438D02*
X64678571Y-96109057D01*
X64678571Y-96109057D02*
X64726190Y-96204295D01*
X64726190Y-96204295D02*
X64726190Y-96299533D01*
X64726190Y-96299533D02*
X64678571Y-96442390D01*
X64678571Y-96442390D02*
X64107143Y-97013819D01*
X64107143Y-97013819D02*
X64726190Y-97013819D01*
X65107143Y-96109057D02*
X65154762Y-96061438D01*
X65154762Y-96061438D02*
X65250000Y-96013819D01*
X65250000Y-96013819D02*
X65488095Y-96013819D01*
X65488095Y-96013819D02*
X65583333Y-96061438D01*
X65583333Y-96061438D02*
X65630952Y-96109057D01*
X65630952Y-96109057D02*
X65678571Y-96204295D01*
X65678571Y-96204295D02*
X65678571Y-96299533D01*
X65678571Y-96299533D02*
X65630952Y-96442390D01*
X65630952Y-96442390D02*
X65059524Y-97013819D01*
X65059524Y-97013819D02*
X65678571Y-97013819D01*
X65869048Y-97109057D02*
X66630952Y-97109057D01*
X66869048Y-97013819D02*
X66869048Y-96013819D01*
X66869048Y-96013819D02*
X67202381Y-96728104D01*
X67202381Y-96728104D02*
X67535714Y-96013819D01*
X67535714Y-96013819D02*
X67535714Y-97013819D01*
X68154762Y-97013819D02*
X68059524Y-96966200D01*
X68059524Y-96966200D02*
X68011905Y-96918580D01*
X68011905Y-96918580D02*
X67964286Y-96823342D01*
X67964286Y-96823342D02*
X67964286Y-96537628D01*
X67964286Y-96537628D02*
X68011905Y-96442390D01*
X68011905Y-96442390D02*
X68059524Y-96394771D01*
X68059524Y-96394771D02*
X68154762Y-96347152D01*
X68154762Y-96347152D02*
X68297619Y-96347152D01*
X68297619Y-96347152D02*
X68392857Y-96394771D01*
X68392857Y-96394771D02*
X68440476Y-96442390D01*
X68440476Y-96442390D02*
X68488095Y-96537628D01*
X68488095Y-96537628D02*
X68488095Y-96823342D01*
X68488095Y-96823342D02*
X68440476Y-96918580D01*
X68440476Y-96918580D02*
X68392857Y-96966200D01*
X68392857Y-96966200D02*
X68297619Y-97013819D01*
X68297619Y-97013819D02*
X68154762Y-97013819D01*
X69345238Y-96347152D02*
X69345238Y-97013819D01*
X68916667Y-96347152D02*
X68916667Y-96870961D01*
X68916667Y-96870961D02*
X68964286Y-96966200D01*
X68964286Y-96966200D02*
X69059524Y-97013819D01*
X69059524Y-97013819D02*
X69202381Y-97013819D01*
X69202381Y-97013819D02*
X69297619Y-96966200D01*
X69297619Y-96966200D02*
X69345238Y-96918580D01*
X69821429Y-96347152D02*
X69821429Y-97013819D01*
X69821429Y-96442390D02*
X69869048Y-96394771D01*
X69869048Y-96394771D02*
X69964286Y-96347152D01*
X69964286Y-96347152D02*
X70107143Y-96347152D01*
X70107143Y-96347152D02*
X70202381Y-96394771D01*
X70202381Y-96394771D02*
X70250000Y-96490009D01*
X70250000Y-96490009D02*
X70250000Y-97013819D01*
X70583334Y-96347152D02*
X70964286Y-96347152D01*
X70726191Y-96013819D02*
X70726191Y-96870961D01*
X70726191Y-96870961D02*
X70773810Y-96966200D01*
X70773810Y-96966200D02*
X70869048Y-97013819D01*
X70869048Y-97013819D02*
X70964286Y-97013819D01*
X71297620Y-97013819D02*
X71297620Y-96347152D01*
X71297620Y-96013819D02*
X71250001Y-96061438D01*
X71250001Y-96061438D02*
X71297620Y-96109057D01*
X71297620Y-96109057D02*
X71345239Y-96061438D01*
X71345239Y-96061438D02*
X71297620Y-96013819D01*
X71297620Y-96013819D02*
X71297620Y-96109057D01*
X71773810Y-96347152D02*
X71773810Y-97013819D01*
X71773810Y-96442390D02*
X71821429Y-96394771D01*
X71821429Y-96394771D02*
X71916667Y-96347152D01*
X71916667Y-96347152D02*
X72059524Y-96347152D01*
X72059524Y-96347152D02*
X72154762Y-96394771D01*
X72154762Y-96394771D02*
X72202381Y-96490009D01*
X72202381Y-96490009D02*
X72202381Y-97013819D01*
X73107143Y-96347152D02*
X73107143Y-97156676D01*
X73107143Y-97156676D02*
X73059524Y-97251914D01*
X73059524Y-97251914D02*
X73011905Y-97299533D01*
X73011905Y-97299533D02*
X72916667Y-97347152D01*
X72916667Y-97347152D02*
X72773810Y-97347152D01*
X72773810Y-97347152D02*
X72678572Y-97299533D01*
X73107143Y-96966200D02*
X73011905Y-97013819D01*
X73011905Y-97013819D02*
X72821429Y-97013819D01*
X72821429Y-97013819D02*
X72726191Y-96966200D01*
X72726191Y-96966200D02*
X72678572Y-96918580D01*
X72678572Y-96918580D02*
X72630953Y-96823342D01*
X72630953Y-96823342D02*
X72630953Y-96537628D01*
X72630953Y-96537628D02*
X72678572Y-96442390D01*
X72678572Y-96442390D02*
X72726191Y-96394771D01*
X72726191Y-96394771D02*
X72821429Y-96347152D01*
X72821429Y-96347152D02*
X73011905Y-96347152D01*
X73011905Y-96347152D02*
X73107143Y-96394771D01*
X73583334Y-97013819D02*
X73583334Y-96013819D01*
X73583334Y-96013819D02*
X73964286Y-96013819D01*
X73964286Y-96013819D02*
X74059524Y-96061438D01*
X74059524Y-96061438D02*
X74107143Y-96109057D01*
X74107143Y-96109057D02*
X74154762Y-96204295D01*
X74154762Y-96204295D02*
X74154762Y-96347152D01*
X74154762Y-96347152D02*
X74107143Y-96442390D01*
X74107143Y-96442390D02*
X74059524Y-96490009D01*
X74059524Y-96490009D02*
X73964286Y-96537628D01*
X73964286Y-96537628D02*
X73583334Y-96537628D01*
X74583334Y-97013819D02*
X74583334Y-96347152D01*
X74583334Y-96013819D02*
X74535715Y-96061438D01*
X74535715Y-96061438D02*
X74583334Y-96109057D01*
X74583334Y-96109057D02*
X74630953Y-96061438D01*
X74630953Y-96061438D02*
X74583334Y-96013819D01*
X74583334Y-96013819D02*
X74583334Y-96109057D01*
X75059524Y-96347152D02*
X75059524Y-97013819D01*
X75059524Y-96442390D02*
X75107143Y-96394771D01*
X75107143Y-96394771D02*
X75202381Y-96347152D01*
X75202381Y-96347152D02*
X75345238Y-96347152D01*
X75345238Y-96347152D02*
X75440476Y-96394771D01*
X75440476Y-96394771D02*
X75488095Y-96490009D01*
X75488095Y-96490009D02*
X75488095Y-97013819D01*
D10*
X71392718Y-77385871D02*
X72442718Y-77385871D01*
X71392718Y-77925871D02*
X71392718Y-77385871D01*
X72442718Y-77385871D02*
X72442718Y-77925871D01*
X72442718Y-77925871D02*
X71392718Y-77925871D01*
X67302918Y-112915071D02*
X68302918Y-112915071D01*
X67302918Y-113415071D02*
X67302918Y-112915071D01*
X68302918Y-112915071D02*
X68302918Y-113415071D01*
X68302918Y-113415071D02*
X67302918Y-113415071D01*
X74846718Y-72652000D02*
X74846718Y-73652000D01*
X74846718Y-73652000D02*
X75846718Y-73652000D01*
X75846718Y-72652000D02*
X74846718Y-72652000D01*
X75846718Y-73152000D02*
X75346718Y-72652000D01*
X75846718Y-73652000D02*
X75846718Y-72652000D01*
X76853718Y-115562071D02*
X76853718Y-116102071D01*
X76853718Y-116102071D02*
X77903718Y-116102071D01*
X77903718Y-115562071D02*
X76853718Y-115562071D01*
X77903718Y-116102071D02*
X77903718Y-115562071D01*
X78123718Y-74414071D02*
X79173718Y-74414071D01*
X78123718Y-74954071D02*
X78123718Y-74414071D01*
X79173718Y-74414071D02*
X79173718Y-74954071D01*
X79173718Y-74954071D02*
X78123718Y-74954071D01*
X72632918Y-113223871D02*
X72632918Y-114223871D01*
X72632918Y-114223871D02*
X73132918Y-114223871D01*
X73132918Y-113223871D02*
X72632918Y-113223871D01*
X73132918Y-114223871D02*
X73132918Y-113223871D01*
X79139318Y-106463471D02*
X80139318Y-106463471D01*
X79139318Y-106963471D02*
X79139318Y-106463471D01*
X80139318Y-106463471D02*
X80139318Y-106963471D01*
X80139318Y-106963471D02*
X79139318Y-106963471D01*
X77772518Y-72785471D02*
X77772518Y-73585471D01*
X77772518Y-73585471D02*
X79072518Y-73585471D01*
X79072518Y-73585471D02*
X79372518Y-73285471D01*
X79372518Y-72785471D02*
X77772518Y-72785471D01*
X79372518Y-73285471D02*
X79372518Y-72785471D01*
X74973718Y-113016671D02*
X74973718Y-113516671D01*
X74973718Y-113516671D02*
X75973718Y-113516671D01*
X75973718Y-113016671D02*
X74973718Y-113016671D01*
X75973718Y-113516671D02*
X75973718Y-113016671D01*
X74948718Y-114901671D02*
X75998718Y-114901671D01*
X74948718Y-115441671D02*
X74948718Y-114901671D01*
X75998718Y-114901671D02*
X75998718Y-115441671D01*
X75998718Y-115441671D02*
X74948718Y-115441671D01*
X64762918Y-107022271D02*
X65762918Y-107022271D01*
X64762918Y-107522271D02*
X64762918Y-107022271D01*
X65762918Y-107022271D02*
X65762918Y-107522271D01*
X65762918Y-107522271D02*
X64762918Y-107522271D01*
X65438518Y-72632471D02*
X68338518Y-72632471D01*
X65438518Y-76532471D02*
X65438518Y-72632471D01*
X68338518Y-72632471D02*
X68338518Y-76532471D01*
X68338518Y-76532471D02*
X65438518Y-76532471D01*
X79091718Y-117522871D02*
X80491718Y-117522871D01*
X79091718Y-119322871D02*
X79091718Y-117522871D01*
X79441718Y-118222871D02*
X80141718Y-118222871D01*
X79441718Y-118722871D02*
X80141718Y-118722871D01*
X79791718Y-118222871D02*
X79791718Y-117972871D01*
X79791718Y-118722871D02*
X79441718Y-118222871D01*
X79791718Y-118722871D02*
X79791718Y-118922871D01*
X80141718Y-118222871D02*
X79791718Y-118722871D01*
X80491718Y-117522871D02*
X80491718Y-119322871D01*
X80491718Y-119322871D02*
X79091718Y-119322871D01*
X65270918Y-78396471D02*
X66270918Y-78396471D01*
X65270918Y-78896471D02*
X65270918Y-78396471D01*
X66270918Y-78396471D02*
X66270918Y-78896471D01*
X66270918Y-78896471D02*
X65270918Y-78896471D01*
X74973718Y-113956471D02*
X75973718Y-113956471D01*
X74973718Y-114456471D02*
X74973718Y-113956471D01*
X75973718Y-113956471D02*
X75973718Y-114456471D01*
X75973718Y-114456471D02*
X74973718Y-114456471D01*
X78936118Y-111086271D02*
X79936118Y-111086271D01*
X78936118Y-111586271D02*
X78936118Y-111086271D01*
X79936118Y-111086271D02*
X79936118Y-111586271D01*
X79936118Y-111586271D02*
X78936118Y-111586271D01*
X79139318Y-104228271D02*
X80139318Y-104228271D01*
X79139318Y-104728271D02*
X79139318Y-104228271D01*
X80139318Y-104228271D02*
X80139318Y-104728271D01*
X80139318Y-104728271D02*
X79139318Y-104728271D01*
X76802518Y-113016671D02*
X77802518Y-113016671D01*
X76802518Y-113516671D02*
X76802518Y-113016671D01*
X77802518Y-113016671D02*
X77802518Y-113516671D01*
X77802518Y-113516671D02*
X76802518Y-113516671D01*
X71392718Y-75455471D02*
X72442718Y-75455471D01*
X71392718Y-75995471D02*
X71392718Y-75455471D01*
X72442718Y-75455471D02*
X72442718Y-75995471D01*
X72442718Y-75995471D02*
X71392718Y-75995471D01*
X67920000Y-127287000D02*
X67920000Y-134587000D01*
X67920000Y-127287000D02*
X76860000Y-127287000D01*
X67920000Y-134587000D02*
X76860000Y-134587000D01*
X76860000Y-127287000D02*
X76860000Y-134587000D01*
X77894718Y-123964071D02*
X77894718Y-124464071D01*
X77894718Y-124464071D02*
X78894718Y-124464071D01*
X78894718Y-123964071D02*
X77894718Y-123964071D01*
X78894718Y-124464071D02*
X78894718Y-123964071D01*
X65252118Y-114694071D02*
X70252118Y-114694071D01*
X65252118Y-117594071D02*
X65252118Y-114694071D01*
X65252118Y-117594071D02*
X70252118Y-117594071D01*
X66252118Y-117594071D02*
X66752118Y-116886964D01*
X66602118Y-115044071D02*
X66602118Y-115644071D01*
X66602118Y-115644071D02*
X66902118Y-115644071D01*
X66752118Y-116886964D02*
X67252118Y-117594071D01*
X66902118Y-115044071D02*
X66602118Y-115044071D01*
X66902118Y-115644071D02*
X66902118Y-115044071D01*
X67602118Y-115044071D02*
X67602118Y-115644071D01*
X67602118Y-115644071D02*
X67902118Y-115644071D01*
X67902118Y-115044071D02*
X67602118Y-115044071D01*
X67902118Y-115644071D02*
X67902118Y-115044071D01*
X68602118Y-115044071D02*
X68602118Y-115644071D01*
X68602118Y-115644071D02*
X68902118Y-115644071D01*
X68902118Y-115044071D02*
X68602118Y-115044071D01*
X68902118Y-115644071D02*
X68902118Y-115044071D01*
X70252118Y-117594071D02*
X70252118Y-114694071D01*
X64559718Y-99961071D02*
X65559718Y-99961071D01*
X64559718Y-100461071D02*
X64559718Y-99961071D01*
X65559718Y-99961071D02*
X65559718Y-100461071D01*
X65559718Y-100461071D02*
X64559718Y-100461071D01*
X75355118Y-99788671D02*
X76405118Y-99788671D01*
X75355118Y-100328671D02*
X75355118Y-99788671D01*
X76405118Y-99788671D02*
X76405118Y-100328671D01*
X76405118Y-100328671D02*
X75355118Y-100328671D01*
X74821318Y-74637271D02*
X74821318Y-75137271D01*
X74821318Y-75137271D02*
X75821318Y-75137271D01*
X75821318Y-74637271D02*
X74821318Y-74637271D01*
X75821318Y-75137271D02*
X75821318Y-74637271D01*
X73531718Y-118073071D02*
X73531718Y-121973071D01*
X73531718Y-121973071D02*
X78431718Y-121973071D01*
X77456718Y-118073071D02*
X73531718Y-118073071D01*
X78431718Y-119048071D02*
X77456718Y-118073071D01*
X78431718Y-121973071D02*
X78431718Y-119048071D01*
X81280000Y-80010000D02*
X82550000Y-78740000D01*
X81280000Y-129540000D02*
X81280000Y-80010000D01*
X82550000Y-78740000D02*
X86360000Y-78740000D01*
X86360000Y-78740000D02*
X86360000Y-129540000D01*
X86360000Y-129540000D02*
X81280000Y-129540000D01*
X71417718Y-72652000D02*
X71417718Y-73652000D01*
X71417718Y-73652000D02*
X72417718Y-73652000D01*
X72417718Y-72652000D02*
X71417718Y-72652000D01*
X72417718Y-73152000D02*
X71917718Y-72652000D01*
X72417718Y-73652000D02*
X72417718Y-72652000D01*
X77336318Y-96842271D02*
X78386318Y-96842271D01*
X77336318Y-97382271D02*
X77336318Y-96842271D01*
X78386318Y-96842271D02*
X78386318Y-97382271D01*
X78386318Y-97382271D02*
X77336318Y-97382271D01*
X58420000Y-80010000D02*
X59690000Y-78740000D01*
X58420000Y-129540000D02*
X58420000Y-80010000D01*
X59690000Y-78740000D02*
X63500000Y-78740000D01*
X63500000Y-78740000D02*
X63500000Y-129540000D01*
X63500000Y-129540000D02*
X58420000Y-129540000D01*
X66012918Y-126093671D02*
G75*
G02*
X64512918Y-126093671I-750000J0D01*
G01*
X64512918Y-126093671D02*
G75*
G02*
X66012918Y-126093671I750000J0D01*
G01*
X78864718Y-108380471D02*
X78864718Y-110380471D01*
X78864718Y-110380471D02*
X80464718Y-110380471D01*
X80464718Y-108380471D02*
X78864718Y-108380471D01*
X80464718Y-110380471D02*
X80464718Y-108380471D01*
D21*
X79801521Y-108680471D02*
G75*
G02*
X79527915Y-108680471I-136803J0D01*
G01*
X79527915Y-108680471D02*
G75*
G02*
X79801521Y-108680471I136803J0D01*
G01*
D10*
X65675118Y-120732071D02*
X69575118Y-120732071D01*
X65675118Y-123632071D02*
X65675118Y-120732071D01*
X69575118Y-120732071D02*
X69575118Y-123632071D01*
X69575118Y-123632071D02*
X65675118Y-123632071D01*
X71392718Y-76420671D02*
X72442718Y-76420671D01*
X71392718Y-76960671D02*
X71392718Y-76420671D01*
X72442718Y-76420671D02*
X72442718Y-76960671D01*
X72442718Y-76960671D02*
X71392718Y-76960671D01*
X67260118Y-78578271D02*
X69260118Y-78578271D01*
X67260118Y-79578271D02*
X67260118Y-78578271D01*
X69260118Y-78578271D02*
X69260118Y-79578271D01*
X69260118Y-79578271D02*
X67260118Y-79578271D01*
X65243918Y-79341671D02*
X66293918Y-79341671D01*
X65243918Y-79881671D02*
X65243918Y-79341671D01*
X66293918Y-79341671D02*
X66293918Y-79881671D01*
X66293918Y-79881671D02*
X65243918Y-79881671D01*
D11*
X67103500Y-101393500D02*
X67103500Y-111966500D01*
X67103500Y-111966500D02*
X77676500Y-111966500D01*
X76676500Y-101393500D02*
X67103500Y-101393500D01*
X77676500Y-102393500D02*
X76676500Y-101393500D01*
X77676500Y-111966500D02*
X77676500Y-102393500D01*
D10*
X80008318Y-80856271D02*
G75*
G02*
X78508318Y-80856271I-750000J0D01*
G01*
X78508318Y-80856271D02*
G75*
G02*
X80008318Y-80856271I750000J0D01*
G01*
X64571718Y-95944071D02*
X64571718Y-99144071D01*
X64571718Y-99144071D02*
X67071718Y-99144071D01*
X66071718Y-99144071D02*
X67071718Y-98144071D01*
X67071718Y-95944071D02*
X64571718Y-95944071D01*
X67071718Y-99144071D02*
X67071718Y-95944071D01*
X71693118Y-113223871D02*
X72193118Y-113223871D01*
X71693118Y-114223871D02*
X71693118Y-113223871D01*
X72193118Y-113223871D02*
X72193118Y-114223871D01*
X72193118Y-114223871D02*
X71693118Y-114223871D01*
X66464718Y-99961071D02*
X67464718Y-99961071D01*
X66464718Y-100461071D02*
X66464718Y-99961071D01*
X67464718Y-99961071D02*
X67464718Y-100461071D01*
X67464718Y-100461071D02*
X66464718Y-100461071D01*
X78936518Y-112056871D02*
X79986518Y-112056871D01*
X78936518Y-112596871D02*
X78936518Y-112056871D01*
X79986518Y-112056871D02*
X79986518Y-112596871D01*
X79986518Y-112596871D02*
X78936518Y-112596871D01*
X64534718Y-100957071D02*
X65584718Y-100957071D01*
X64534718Y-101497071D02*
X64534718Y-100957071D01*
X65584718Y-100957071D02*
X65584718Y-101497071D01*
X65584718Y-101497071D02*
X64534718Y-101497071D01*
X77336318Y-95877071D02*
X77336318Y-96417071D01*
X77336318Y-96417071D02*
X78386318Y-96417071D01*
X78386318Y-95877071D02*
X77336318Y-95877071D01*
X78386318Y-96417071D02*
X78386318Y-95877071D01*
X68222718Y-81415071D02*
G75*
G02*
X66722718Y-81415071I-750000J0D01*
G01*
X66722718Y-81415071D02*
G75*
G02*
X68222718Y-81415071I750000J0D01*
G01*
X79139318Y-107403271D02*
X80139318Y-107403271D01*
X79139318Y-107903271D02*
X79139318Y-107403271D01*
X80139318Y-107403271D02*
X80139318Y-107903271D01*
X80139318Y-107903271D02*
X79139318Y-107903271D01*
X71417718Y-74535671D02*
X72417718Y-74535671D01*
X71417718Y-75035671D02*
X71417718Y-74535671D01*
X72417718Y-74535671D02*
X72417718Y-75035671D01*
X72417718Y-75035671D02*
X71417718Y-75035671D01*
D14*
X64140000Y-88194000D02*
X64140000Y-89594000D01*
X64140000Y-89594000D02*
X64140000Y-93794000D01*
X64140000Y-93794000D02*
X80640000Y-93794000D01*
X80640000Y-88194000D02*
X64140000Y-88194000D01*
X80640000Y-89594000D02*
X64140000Y-89594000D01*
X80640000Y-89594000D02*
X80640000Y-88194000D01*
X80640000Y-93794000D02*
X80640000Y-89594000D01*
D22*
X77773200Y-95394000D02*
G75*
G02*
X77573200Y-95394000I-100000J0D01*
G01*
X77573200Y-95394000D02*
G75*
G02*
X77773200Y-95394000I100000J0D01*
G01*
M02*
