%TF.GenerationSoftware,KiCad,Pcbnew,9.0.2*%
%TF.CreationDate,2025-05-16T12:05:08+05:30*%
%TF.ProjectId,pico2-ice,7069636f-322d-4696-9365-2e6b69636164,REV2*%
%TF.SameCoordinates,Original*%
%TF.FileFunction,Legend,Top*%
%TF.FilePolarity,Positive*%
%FSLAX46Y46*%
G04 Gerber Fmt 4.6, Leading zero omitted, Abs format (unit mm)*
G04 Created by KiCad (PCBNEW 9.0.2) date 2025-05-16 12:05:08*
%MOMM*%
%LPD*%
G01*
G04 APERTURE LIST*
%ADD10C,0.120000*%
%ADD11C,0.150000*%
%ADD12C,0.127000*%
%ADD13C,0.200000*%
%ADD14C,0.000000*%
%ADD15C,0.254000*%
%ADD16C,0.191421*%
%ADD17C,0.539246*%
%TA.AperFunction,Profile*%
%ADD18C,0.127000*%
%TD*%
G04 APERTURE END LIST*
D10*
X63205718Y-121089071D02*
X63505718Y-121089071D01*
X63555718Y-121089071D02*
X63510318Y-114993871D01*
X63038218Y-97289071D02*
X63673218Y-97289071D01*
X63510318Y-89466871D02*
X63510318Y-90863871D01*
X81773218Y-107389071D02*
X81138218Y-107389071D01*
X81112518Y-115044671D02*
X81147718Y-120889071D01*
X63510318Y-86926871D02*
X63510318Y-88196871D01*
X81147718Y-120889071D02*
X81455718Y-120889071D01*
X63510318Y-108516871D02*
X63510318Y-107189071D01*
X63510318Y-84389071D02*
X63510318Y-85402871D01*
X63637318Y-95816871D02*
X63637318Y-94800871D01*
X63002318Y-84389071D02*
X63510318Y-84389071D01*
X81255718Y-84490571D02*
X81255718Y-85887571D01*
X81274718Y-98389071D02*
X81655718Y-98389071D01*
X81682718Y-84489071D02*
X81228718Y-84489071D01*
X63510318Y-113723871D02*
X63510318Y-112199871D01*
X81255718Y-92289071D02*
X81255718Y-98389071D01*
X81112518Y-112631671D02*
X81112518Y-113774671D01*
X81112518Y-107424671D02*
X81112518Y-108567671D01*
X63510318Y-107189071D02*
X63002318Y-107189071D01*
X81239518Y-89644671D02*
X81239518Y-90660671D01*
X63510318Y-111056871D02*
X63510318Y-109786871D01*
X63510318Y-93403871D02*
X63510318Y-92260871D01*
X81112518Y-109837671D02*
X81112518Y-111361671D01*
X81239518Y-87104671D02*
X81239518Y-88247671D01*
D11*
X63205546Y-96407832D02*
X63205546Y-96941166D01*
X63015070Y-96103071D02*
X62824593Y-96674499D01*
X62824593Y-96674499D02*
X63319832Y-96674499D01*
X63548403Y-96141166D02*
X64043641Y-96141166D01*
X64043641Y-96141166D02*
X63776975Y-96445928D01*
X63776975Y-96445928D02*
X63891260Y-96445928D01*
X63891260Y-96445928D02*
X63967451Y-96484023D01*
X63967451Y-96484023D02*
X64005546Y-96522118D01*
X64005546Y-96522118D02*
X64043641Y-96598309D01*
X64043641Y-96598309D02*
X64043641Y-96788785D01*
X64043641Y-96788785D02*
X64005546Y-96864975D01*
X64005546Y-96864975D02*
X63967451Y-96903071D01*
X63967451Y-96903071D02*
X63891260Y-96941166D01*
X63891260Y-96941166D02*
X63662689Y-96941166D01*
X63662689Y-96941166D02*
X63586498Y-96903071D01*
X63586498Y-96903071D02*
X63548403Y-96864975D01*
X83519241Y-78945271D02*
X83633527Y-78983366D01*
X83633527Y-78983366D02*
X83824003Y-78983366D01*
X83824003Y-78983366D02*
X83900194Y-78945271D01*
X83900194Y-78945271D02*
X83938289Y-78907175D01*
X83938289Y-78907175D02*
X83976384Y-78830985D01*
X83976384Y-78830985D02*
X83976384Y-78754794D01*
X83976384Y-78754794D02*
X83938289Y-78678604D01*
X83938289Y-78678604D02*
X83900194Y-78640509D01*
X83900194Y-78640509D02*
X83824003Y-78602413D01*
X83824003Y-78602413D02*
X83671622Y-78564318D01*
X83671622Y-78564318D02*
X83595432Y-78526223D01*
X83595432Y-78526223D02*
X83557337Y-78488128D01*
X83557337Y-78488128D02*
X83519241Y-78411937D01*
X83519241Y-78411937D02*
X83519241Y-78335747D01*
X83519241Y-78335747D02*
X83557337Y-78259556D01*
X83557337Y-78259556D02*
X83595432Y-78221461D01*
X83595432Y-78221461D02*
X83671622Y-78183366D01*
X83671622Y-78183366D02*
X83862099Y-78183366D01*
X83862099Y-78183366D02*
X83976384Y-78221461D01*
X84433527Y-78983366D02*
X84357337Y-78945271D01*
X84357337Y-78945271D02*
X84319242Y-78907175D01*
X84319242Y-78907175D02*
X84281146Y-78830985D01*
X84281146Y-78830985D02*
X84281146Y-78602413D01*
X84281146Y-78602413D02*
X84319242Y-78526223D01*
X84319242Y-78526223D02*
X84357337Y-78488128D01*
X84357337Y-78488128D02*
X84433527Y-78450032D01*
X84433527Y-78450032D02*
X84547813Y-78450032D01*
X84547813Y-78450032D02*
X84624004Y-78488128D01*
X84624004Y-78488128D02*
X84662099Y-78526223D01*
X84662099Y-78526223D02*
X84700194Y-78602413D01*
X84700194Y-78602413D02*
X84700194Y-78830985D01*
X84700194Y-78830985D02*
X84662099Y-78907175D01*
X84662099Y-78907175D02*
X84624004Y-78945271D01*
X84624004Y-78945271D02*
X84547813Y-78983366D01*
X84547813Y-78983366D02*
X84433527Y-78983366D01*
X63389698Y-124487518D02*
X63503984Y-124525613D01*
X63503984Y-124525613D02*
X63542079Y-124563709D01*
X63542079Y-124563709D02*
X63580175Y-124639899D01*
X63580175Y-124639899D02*
X63580175Y-124754185D01*
X63580175Y-124754185D02*
X63542079Y-124830375D01*
X63542079Y-124830375D02*
X63503984Y-124868471D01*
X63503984Y-124868471D02*
X63427794Y-124906566D01*
X63427794Y-124906566D02*
X63123032Y-124906566D01*
X63123032Y-124906566D02*
X63123032Y-124106566D01*
X63123032Y-124106566D02*
X63389698Y-124106566D01*
X63389698Y-124106566D02*
X63465889Y-124144661D01*
X63465889Y-124144661D02*
X63503984Y-124182756D01*
X63503984Y-124182756D02*
X63542079Y-124258947D01*
X63542079Y-124258947D02*
X63542079Y-124335137D01*
X63542079Y-124335137D02*
X63503984Y-124411328D01*
X63503984Y-124411328D02*
X63465889Y-124449423D01*
X63465889Y-124449423D02*
X63389698Y-124487518D01*
X63389698Y-124487518D02*
X63123032Y-124487518D01*
X63808746Y-124106566D02*
X64265889Y-124106566D01*
X64037317Y-124906566D02*
X64037317Y-124106566D01*
X63012556Y-123884471D02*
X64262080Y-123884471D01*
X60817936Y-104434166D02*
X60360793Y-104434166D01*
X60589365Y-104434166D02*
X60589365Y-103634166D01*
X60589365Y-103634166D02*
X60513174Y-103748451D01*
X60513174Y-103748451D02*
X60436984Y-103824642D01*
X60436984Y-103824642D02*
X60360793Y-103862737D01*
X61313175Y-103634166D02*
X61389365Y-103634166D01*
X61389365Y-103634166D02*
X61465556Y-103672261D01*
X61465556Y-103672261D02*
X61503651Y-103710356D01*
X61503651Y-103710356D02*
X61541746Y-103786547D01*
X61541746Y-103786547D02*
X61579841Y-103938928D01*
X61579841Y-103938928D02*
X61579841Y-104129404D01*
X61579841Y-104129404D02*
X61541746Y-104281785D01*
X61541746Y-104281785D02*
X61503651Y-104357975D01*
X61503651Y-104357975D02*
X61465556Y-104396071D01*
X61465556Y-104396071D02*
X61389365Y-104434166D01*
X61389365Y-104434166D02*
X61313175Y-104434166D01*
X61313175Y-104434166D02*
X61236984Y-104396071D01*
X61236984Y-104396071D02*
X61198889Y-104357975D01*
X61198889Y-104357975D02*
X61160794Y-104281785D01*
X61160794Y-104281785D02*
X61122698Y-104129404D01*
X61122698Y-104129404D02*
X61122698Y-103938928D01*
X61122698Y-103938928D02*
X61160794Y-103786547D01*
X61160794Y-103786547D02*
X61198889Y-103710356D01*
X61198889Y-103710356D02*
X61236984Y-103672261D01*
X61236984Y-103672261D02*
X61313175Y-103634166D01*
X60690946Y-96357032D02*
X60690946Y-96890366D01*
X60500470Y-96052271D02*
X60309993Y-96623699D01*
X60309993Y-96623699D02*
X60805232Y-96623699D01*
X61071898Y-96166556D02*
X61109994Y-96128461D01*
X61109994Y-96128461D02*
X61186184Y-96090366D01*
X61186184Y-96090366D02*
X61376660Y-96090366D01*
X61376660Y-96090366D02*
X61452851Y-96128461D01*
X61452851Y-96128461D02*
X61490946Y-96166556D01*
X61490946Y-96166556D02*
X61529041Y-96242747D01*
X61529041Y-96242747D02*
X61529041Y-96318937D01*
X61529041Y-96318937D02*
X61490946Y-96433223D01*
X61490946Y-96433223D02*
X61033803Y-96890366D01*
X61033803Y-96890366D02*
X61529041Y-96890366D01*
X60767136Y-101944966D02*
X60309993Y-101944966D01*
X60538565Y-101944966D02*
X60538565Y-101144966D01*
X60538565Y-101144966D02*
X60462374Y-101259251D01*
X60462374Y-101259251D02*
X60386184Y-101335442D01*
X60386184Y-101335442D02*
X60309993Y-101373537D01*
X61529041Y-101944966D02*
X61071898Y-101944966D01*
X61300470Y-101944966D02*
X61300470Y-101144966D01*
X61300470Y-101144966D02*
X61224279Y-101259251D01*
X61224279Y-101259251D02*
X61148089Y-101335442D01*
X61148089Y-101335442D02*
X61071898Y-101373537D01*
X60367146Y-122252271D02*
X60481432Y-122290366D01*
X60481432Y-122290366D02*
X60671908Y-122290366D01*
X60671908Y-122290366D02*
X60748099Y-122252271D01*
X60748099Y-122252271D02*
X60786194Y-122214175D01*
X60786194Y-122214175D02*
X60824289Y-122137985D01*
X60824289Y-122137985D02*
X60824289Y-122061794D01*
X60824289Y-122061794D02*
X60786194Y-121985604D01*
X60786194Y-121985604D02*
X60748099Y-121947509D01*
X60748099Y-121947509D02*
X60671908Y-121909413D01*
X60671908Y-121909413D02*
X60519527Y-121871318D01*
X60519527Y-121871318D02*
X60443337Y-121833223D01*
X60443337Y-121833223D02*
X60405242Y-121795128D01*
X60405242Y-121795128D02*
X60367146Y-121718937D01*
X60367146Y-121718937D02*
X60367146Y-121642747D01*
X60367146Y-121642747D02*
X60405242Y-121566556D01*
X60405242Y-121566556D02*
X60443337Y-121528461D01*
X60443337Y-121528461D02*
X60519527Y-121490366D01*
X60519527Y-121490366D02*
X60710004Y-121490366D01*
X60710004Y-121490366D02*
X60824289Y-121528461D01*
X61167147Y-122290366D02*
X61167147Y-121490366D01*
X61167147Y-121490366D02*
X61357623Y-121490366D01*
X61357623Y-121490366D02*
X61471909Y-121528461D01*
X61471909Y-121528461D02*
X61548099Y-121604651D01*
X61548099Y-121604651D02*
X61586194Y-121680842D01*
X61586194Y-121680842D02*
X61624290Y-121833223D01*
X61624290Y-121833223D02*
X61624290Y-121947509D01*
X61624290Y-121947509D02*
X61586194Y-122099890D01*
X61586194Y-122099890D02*
X61548099Y-122176080D01*
X61548099Y-122176080D02*
X61471909Y-122252271D01*
X61471909Y-122252271D02*
X61357623Y-122290366D01*
X61357623Y-122290366D02*
X61167147Y-122290366D01*
X62735698Y-93626566D02*
X63230936Y-93626566D01*
X63230936Y-93626566D02*
X62964270Y-93931328D01*
X62964270Y-93931328D02*
X63078555Y-93931328D01*
X63078555Y-93931328D02*
X63154746Y-93969423D01*
X63154746Y-93969423D02*
X63192841Y-94007518D01*
X63192841Y-94007518D02*
X63230936Y-94083709D01*
X63230936Y-94083709D02*
X63230936Y-94274185D01*
X63230936Y-94274185D02*
X63192841Y-94350375D01*
X63192841Y-94350375D02*
X63154746Y-94388471D01*
X63154746Y-94388471D02*
X63078555Y-94426566D01*
X63078555Y-94426566D02*
X62849984Y-94426566D01*
X62849984Y-94426566D02*
X62773793Y-94388471D01*
X62773793Y-94388471D02*
X62735698Y-94350375D01*
X63688079Y-93969423D02*
X63611889Y-93931328D01*
X63611889Y-93931328D02*
X63573794Y-93893232D01*
X63573794Y-93893232D02*
X63535698Y-93817042D01*
X63535698Y-93817042D02*
X63535698Y-93778947D01*
X63535698Y-93778947D02*
X63573794Y-93702756D01*
X63573794Y-93702756D02*
X63611889Y-93664661D01*
X63611889Y-93664661D02*
X63688079Y-93626566D01*
X63688079Y-93626566D02*
X63840460Y-93626566D01*
X63840460Y-93626566D02*
X63916651Y-93664661D01*
X63916651Y-93664661D02*
X63954746Y-93702756D01*
X63954746Y-93702756D02*
X63992841Y-93778947D01*
X63992841Y-93778947D02*
X63992841Y-93817042D01*
X63992841Y-93817042D02*
X63954746Y-93893232D01*
X63954746Y-93893232D02*
X63916651Y-93931328D01*
X63916651Y-93931328D02*
X63840460Y-93969423D01*
X63840460Y-93969423D02*
X63688079Y-93969423D01*
X63688079Y-93969423D02*
X63611889Y-94007518D01*
X63611889Y-94007518D02*
X63573794Y-94045613D01*
X63573794Y-94045613D02*
X63535698Y-94121804D01*
X63535698Y-94121804D02*
X63535698Y-94274185D01*
X63535698Y-94274185D02*
X63573794Y-94350375D01*
X63573794Y-94350375D02*
X63611889Y-94388471D01*
X63611889Y-94388471D02*
X63688079Y-94426566D01*
X63688079Y-94426566D02*
X63840460Y-94426566D01*
X63840460Y-94426566D02*
X63916651Y-94388471D01*
X63916651Y-94388471D02*
X63954746Y-94350375D01*
X63954746Y-94350375D02*
X63992841Y-94274185D01*
X63992841Y-94274185D02*
X63992841Y-94121804D01*
X63992841Y-94121804D02*
X63954746Y-94045613D01*
X63954746Y-94045613D02*
X63916651Y-94007518D01*
X63916651Y-94007518D02*
X63840460Y-93969423D01*
X80795089Y-109387194D02*
X81176042Y-109387194D01*
X80718899Y-109615766D02*
X80985566Y-108815766D01*
X80985566Y-108815766D02*
X81252232Y-109615766D01*
X81480803Y-108891956D02*
X81518899Y-108853861D01*
X81518899Y-108853861D02*
X81595089Y-108815766D01*
X81595089Y-108815766D02*
X81785565Y-108815766D01*
X81785565Y-108815766D02*
X81861756Y-108853861D01*
X81861756Y-108853861D02*
X81899851Y-108891956D01*
X81899851Y-108891956D02*
X81937946Y-108968147D01*
X81937946Y-108968147D02*
X81937946Y-109044337D01*
X81937946Y-109044337D02*
X81899851Y-109158623D01*
X81899851Y-109158623D02*
X81442708Y-109615766D01*
X81442708Y-109615766D02*
X81937946Y-109615766D01*
X83728728Y-81751975D02*
X83690632Y-81790071D01*
X83690632Y-81790071D02*
X83576347Y-81828166D01*
X83576347Y-81828166D02*
X83500156Y-81828166D01*
X83500156Y-81828166D02*
X83385870Y-81790071D01*
X83385870Y-81790071D02*
X83309680Y-81713880D01*
X83309680Y-81713880D02*
X83271585Y-81637690D01*
X83271585Y-81637690D02*
X83233489Y-81485309D01*
X83233489Y-81485309D02*
X83233489Y-81371023D01*
X83233489Y-81371023D02*
X83271585Y-81218642D01*
X83271585Y-81218642D02*
X83309680Y-81142451D01*
X83309680Y-81142451D02*
X83385870Y-81066261D01*
X83385870Y-81066261D02*
X83500156Y-81028166D01*
X83500156Y-81028166D02*
X83576347Y-81028166D01*
X83576347Y-81028166D02*
X83690632Y-81066261D01*
X83690632Y-81066261D02*
X83728728Y-81104356D01*
X84071585Y-81828166D02*
X84071585Y-81028166D01*
X84147775Y-81523404D02*
X84376347Y-81828166D01*
X84376347Y-81294832D02*
X84071585Y-81599594D01*
X67879527Y-87843890D02*
X67546194Y-87367699D01*
X67308099Y-87843890D02*
X67308099Y-86843890D01*
X67308099Y-86843890D02*
X67689051Y-86843890D01*
X67689051Y-86843890D02*
X67784289Y-86891509D01*
X67784289Y-86891509D02*
X67831908Y-86939128D01*
X67831908Y-86939128D02*
X67879527Y-87034366D01*
X67879527Y-87034366D02*
X67879527Y-87177223D01*
X67879527Y-87177223D02*
X67831908Y-87272461D01*
X67831908Y-87272461D02*
X67784289Y-87320080D01*
X67784289Y-87320080D02*
X67689051Y-87367699D01*
X67689051Y-87367699D02*
X67308099Y-87367699D01*
X68689051Y-87796271D02*
X68593813Y-87843890D01*
X68593813Y-87843890D02*
X68403337Y-87843890D01*
X68403337Y-87843890D02*
X68308099Y-87796271D01*
X68308099Y-87796271D02*
X68260480Y-87701032D01*
X68260480Y-87701032D02*
X68260480Y-87320080D01*
X68260480Y-87320080D02*
X68308099Y-87224842D01*
X68308099Y-87224842D02*
X68403337Y-87177223D01*
X68403337Y-87177223D02*
X68593813Y-87177223D01*
X68593813Y-87177223D02*
X68689051Y-87224842D01*
X68689051Y-87224842D02*
X68736670Y-87320080D01*
X68736670Y-87320080D02*
X68736670Y-87415318D01*
X68736670Y-87415318D02*
X68260480Y-87510556D01*
X69070004Y-87177223D02*
X69308099Y-87843890D01*
X69308099Y-87843890D02*
X69546194Y-87177223D01*
X69879528Y-86939128D02*
X69927147Y-86891509D01*
X69927147Y-86891509D02*
X70022385Y-86843890D01*
X70022385Y-86843890D02*
X70260480Y-86843890D01*
X70260480Y-86843890D02*
X70355718Y-86891509D01*
X70355718Y-86891509D02*
X70403337Y-86939128D01*
X70403337Y-86939128D02*
X70450956Y-87034366D01*
X70450956Y-87034366D02*
X70450956Y-87129604D01*
X70450956Y-87129604D02*
X70403337Y-87272461D01*
X70403337Y-87272461D02*
X69831909Y-87843890D01*
X69831909Y-87843890D02*
X70450956Y-87843890D01*
X63618241Y-85917661D02*
X63542051Y-85879566D01*
X63542051Y-85879566D02*
X63427765Y-85879566D01*
X63427765Y-85879566D02*
X63313479Y-85917661D01*
X63313479Y-85917661D02*
X63237289Y-85993851D01*
X63237289Y-85993851D02*
X63199194Y-86070042D01*
X63199194Y-86070042D02*
X63161098Y-86222423D01*
X63161098Y-86222423D02*
X63161098Y-86336709D01*
X63161098Y-86336709D02*
X63199194Y-86489090D01*
X63199194Y-86489090D02*
X63237289Y-86565280D01*
X63237289Y-86565280D02*
X63313479Y-86641471D01*
X63313479Y-86641471D02*
X63427765Y-86679566D01*
X63427765Y-86679566D02*
X63503956Y-86679566D01*
X63503956Y-86679566D02*
X63618241Y-86641471D01*
X63618241Y-86641471D02*
X63656337Y-86603375D01*
X63656337Y-86603375D02*
X63656337Y-86336709D01*
X63656337Y-86336709D02*
X63503956Y-86336709D01*
X60322698Y-91061166D02*
X60817936Y-91061166D01*
X60817936Y-91061166D02*
X60551270Y-91365928D01*
X60551270Y-91365928D02*
X60665555Y-91365928D01*
X60665555Y-91365928D02*
X60741746Y-91404023D01*
X60741746Y-91404023D02*
X60779841Y-91442118D01*
X60779841Y-91442118D02*
X60817936Y-91518309D01*
X60817936Y-91518309D02*
X60817936Y-91708785D01*
X60817936Y-91708785D02*
X60779841Y-91784975D01*
X60779841Y-91784975D02*
X60741746Y-91823071D01*
X60741746Y-91823071D02*
X60665555Y-91861166D01*
X60665555Y-91861166D02*
X60436984Y-91861166D01*
X60436984Y-91861166D02*
X60360793Y-91823071D01*
X60360793Y-91823071D02*
X60322698Y-91784975D01*
X61122698Y-91137356D02*
X61160794Y-91099261D01*
X61160794Y-91099261D02*
X61236984Y-91061166D01*
X61236984Y-91061166D02*
X61427460Y-91061166D01*
X61427460Y-91061166D02*
X61503651Y-91099261D01*
X61503651Y-91099261D02*
X61541746Y-91137356D01*
X61541746Y-91137356D02*
X61579841Y-91213547D01*
X61579841Y-91213547D02*
X61579841Y-91289737D01*
X61579841Y-91289737D02*
X61541746Y-91404023D01*
X61541746Y-91404023D02*
X61084603Y-91861166D01*
X61084603Y-91861166D02*
X61579841Y-91861166D01*
D12*
X80170903Y-121605630D02*
X80382569Y-122240630D01*
X80382569Y-122240630D02*
X80594236Y-121605630D01*
X80805903Y-122240630D02*
X80805903Y-121605630D01*
X80805903Y-121847534D02*
X80866379Y-121817296D01*
X80866379Y-121817296D02*
X80987332Y-121817296D01*
X80987332Y-121817296D02*
X81047808Y-121847534D01*
X81047808Y-121847534D02*
X81078046Y-121877772D01*
X81078046Y-121877772D02*
X81108284Y-121938249D01*
X81108284Y-121938249D02*
X81108284Y-122119677D01*
X81108284Y-122119677D02*
X81078046Y-122180153D01*
X81078046Y-122180153D02*
X81047808Y-122210392D01*
X81047808Y-122210392D02*
X80987332Y-122240630D01*
X80987332Y-122240630D02*
X80866379Y-122240630D01*
X80866379Y-122240630D02*
X80805903Y-122210392D01*
X81652570Y-121817296D02*
X81652570Y-122240630D01*
X81380427Y-121817296D02*
X81380427Y-122149915D01*
X81380427Y-122149915D02*
X81410665Y-122210392D01*
X81410665Y-122210392D02*
X81471141Y-122240630D01*
X81471141Y-122240630D02*
X81561856Y-122240630D01*
X81561856Y-122240630D02*
X81622332Y-122210392D01*
X81622332Y-122210392D02*
X81652570Y-122180153D01*
X81924713Y-122210392D02*
X81985189Y-122240630D01*
X81985189Y-122240630D02*
X82106141Y-122240630D01*
X82106141Y-122240630D02*
X82166618Y-122210392D01*
X82166618Y-122210392D02*
X82196856Y-122149915D01*
X82196856Y-122149915D02*
X82196856Y-122119677D01*
X82196856Y-122119677D02*
X82166618Y-122059201D01*
X82166618Y-122059201D02*
X82106141Y-122028963D01*
X82106141Y-122028963D02*
X82015427Y-122028963D01*
X82015427Y-122028963D02*
X81954951Y-121998725D01*
X81954951Y-121998725D02*
X81924713Y-121938249D01*
X81924713Y-121938249D02*
X81924713Y-121908011D01*
X81924713Y-121908011D02*
X81954951Y-121847534D01*
X81954951Y-121847534D02*
X82015427Y-121817296D01*
X82015427Y-121817296D02*
X82106141Y-121817296D01*
X82106141Y-121817296D02*
X82166618Y-121847534D01*
D11*
X83754136Y-86831966D02*
X83296993Y-86831966D01*
X83525565Y-86831966D02*
X83525565Y-86031966D01*
X83525565Y-86031966D02*
X83449374Y-86146251D01*
X83449374Y-86146251D02*
X83373184Y-86222442D01*
X83373184Y-86222442D02*
X83296993Y-86260537D01*
X84211279Y-86374823D02*
X84135089Y-86336728D01*
X84135089Y-86336728D02*
X84096994Y-86298632D01*
X84096994Y-86298632D02*
X84058898Y-86222442D01*
X84058898Y-86222442D02*
X84058898Y-86184347D01*
X84058898Y-86184347D02*
X84096994Y-86108156D01*
X84096994Y-86108156D02*
X84135089Y-86070061D01*
X84135089Y-86070061D02*
X84211279Y-86031966D01*
X84211279Y-86031966D02*
X84363660Y-86031966D01*
X84363660Y-86031966D02*
X84439851Y-86070061D01*
X84439851Y-86070061D02*
X84477946Y-86108156D01*
X84477946Y-86108156D02*
X84516041Y-86184347D01*
X84516041Y-86184347D02*
X84516041Y-86222442D01*
X84516041Y-86222442D02*
X84477946Y-86298632D01*
X84477946Y-86298632D02*
X84439851Y-86336728D01*
X84439851Y-86336728D02*
X84363660Y-86374823D01*
X84363660Y-86374823D02*
X84211279Y-86374823D01*
X84211279Y-86374823D02*
X84135089Y-86412918D01*
X84135089Y-86412918D02*
X84096994Y-86451013D01*
X84096994Y-86451013D02*
X84058898Y-86527204D01*
X84058898Y-86527204D02*
X84058898Y-86679585D01*
X84058898Y-86679585D02*
X84096994Y-86755775D01*
X84096994Y-86755775D02*
X84135089Y-86793871D01*
X84135089Y-86793871D02*
X84211279Y-86831966D01*
X84211279Y-86831966D02*
X84363660Y-86831966D01*
X84363660Y-86831966D02*
X84439851Y-86793871D01*
X84439851Y-86793871D02*
X84477946Y-86755775D01*
X84477946Y-86755775D02*
X84516041Y-86679585D01*
X84516041Y-86679585D02*
X84516041Y-86527204D01*
X84516041Y-86527204D02*
X84477946Y-86451013D01*
X84477946Y-86451013D02*
X84439851Y-86412918D01*
X84439851Y-86412918D02*
X84363660Y-86374823D01*
X80371751Y-88622403D02*
X80038418Y-88855736D01*
X80371751Y-89022403D02*
X79671751Y-89022403D01*
X79671751Y-89022403D02*
X79671751Y-88755736D01*
X79671751Y-88755736D02*
X79705084Y-88689070D01*
X79705084Y-88689070D02*
X79738418Y-88655736D01*
X79738418Y-88655736D02*
X79805084Y-88622403D01*
X79805084Y-88622403D02*
X79905084Y-88622403D01*
X79905084Y-88622403D02*
X79971751Y-88655736D01*
X79971751Y-88655736D02*
X80005084Y-88689070D01*
X80005084Y-88689070D02*
X80038418Y-88755736D01*
X80038418Y-88755736D02*
X80038418Y-89022403D01*
X80371751Y-88322403D02*
X79671751Y-88322403D01*
X79671751Y-88322403D02*
X79671751Y-88055736D01*
X79671751Y-88055736D02*
X79705084Y-87989070D01*
X79705084Y-87989070D02*
X79738418Y-87955736D01*
X79738418Y-87955736D02*
X79805084Y-87922403D01*
X79805084Y-87922403D02*
X79905084Y-87922403D01*
X79905084Y-87922403D02*
X79971751Y-87955736D01*
X79971751Y-87955736D02*
X80005084Y-87989070D01*
X80005084Y-87989070D02*
X80038418Y-88055736D01*
X80038418Y-88055736D02*
X80038418Y-88322403D01*
X80105084Y-87622403D02*
X80105084Y-87089070D01*
X80371751Y-86755736D02*
X79905084Y-86755736D01*
X79671751Y-86755736D02*
X79705084Y-86789069D01*
X79705084Y-86789069D02*
X79738418Y-86755736D01*
X79738418Y-86755736D02*
X79705084Y-86722403D01*
X79705084Y-86722403D02*
X79671751Y-86755736D01*
X79671751Y-86755736D02*
X79738418Y-86755736D01*
X80305084Y-86022403D02*
X80338418Y-86055736D01*
X80338418Y-86055736D02*
X80371751Y-86155736D01*
X80371751Y-86155736D02*
X80371751Y-86222403D01*
X80371751Y-86222403D02*
X80338418Y-86322403D01*
X80338418Y-86322403D02*
X80271751Y-86389070D01*
X80271751Y-86389070D02*
X80205084Y-86422403D01*
X80205084Y-86422403D02*
X80071751Y-86455736D01*
X80071751Y-86455736D02*
X79971751Y-86455736D01*
X79971751Y-86455736D02*
X79838418Y-86422403D01*
X79838418Y-86422403D02*
X79771751Y-86389070D01*
X79771751Y-86389070D02*
X79705084Y-86322403D01*
X79705084Y-86322403D02*
X79671751Y-86222403D01*
X79671751Y-86222403D02*
X79671751Y-86155736D01*
X79671751Y-86155736D02*
X79705084Y-86055736D01*
X79705084Y-86055736D02*
X79738418Y-86022403D01*
X80005084Y-85722403D02*
X80005084Y-85489070D01*
X80371751Y-85389070D02*
X80371751Y-85722403D01*
X80371751Y-85722403D02*
X79671751Y-85722403D01*
X79671751Y-85722403D02*
X79671751Y-85389070D01*
X80371751Y-84555737D02*
X79671751Y-84555737D01*
X79671751Y-84555737D02*
X79671751Y-84289070D01*
X79671751Y-84289070D02*
X79705084Y-84222404D01*
X79705084Y-84222404D02*
X79738418Y-84189070D01*
X79738418Y-84189070D02*
X79805084Y-84155737D01*
X79805084Y-84155737D02*
X79905084Y-84155737D01*
X79905084Y-84155737D02*
X79971751Y-84189070D01*
X79971751Y-84189070D02*
X80005084Y-84222404D01*
X80005084Y-84222404D02*
X80038418Y-84289070D01*
X80038418Y-84289070D02*
X80038418Y-84555737D01*
X80371751Y-83855737D02*
X79671751Y-83855737D01*
X79671751Y-83855737D02*
X80171751Y-83622404D01*
X80171751Y-83622404D02*
X79671751Y-83389070D01*
X79671751Y-83389070D02*
X80371751Y-83389070D01*
X79671751Y-82922404D02*
X79671751Y-82789070D01*
X79671751Y-82789070D02*
X79705084Y-82722404D01*
X79705084Y-82722404D02*
X79771751Y-82655737D01*
X79771751Y-82655737D02*
X79905084Y-82622404D01*
X79905084Y-82622404D02*
X80138418Y-82622404D01*
X80138418Y-82622404D02*
X80271751Y-82655737D01*
X80271751Y-82655737D02*
X80338418Y-82722404D01*
X80338418Y-82722404D02*
X80371751Y-82789070D01*
X80371751Y-82789070D02*
X80371751Y-82922404D01*
X80371751Y-82922404D02*
X80338418Y-82989070D01*
X80338418Y-82989070D02*
X80271751Y-83055737D01*
X80271751Y-83055737D02*
X80138418Y-83089070D01*
X80138418Y-83089070D02*
X79905084Y-83089070D01*
X79905084Y-83089070D02*
X79771751Y-83055737D01*
X79771751Y-83055737D02*
X79705084Y-82989070D01*
X79705084Y-82989070D02*
X79671751Y-82922404D01*
X80371751Y-82322404D02*
X79671751Y-82322404D01*
X79671751Y-82322404D02*
X79671751Y-82155737D01*
X79671751Y-82155737D02*
X79705084Y-82055737D01*
X79705084Y-82055737D02*
X79771751Y-81989071D01*
X79771751Y-81989071D02*
X79838418Y-81955737D01*
X79838418Y-81955737D02*
X79971751Y-81922404D01*
X79971751Y-81922404D02*
X80071751Y-81922404D01*
X80071751Y-81922404D02*
X80205084Y-81955737D01*
X80205084Y-81955737D02*
X80271751Y-81989071D01*
X80271751Y-81989071D02*
X80338418Y-82055737D01*
X80338418Y-82055737D02*
X80371751Y-82155737D01*
X80371751Y-82155737D02*
X80371751Y-82322404D01*
X83582708Y-106732918D02*
X83696994Y-106771013D01*
X83696994Y-106771013D02*
X83735089Y-106809109D01*
X83735089Y-106809109D02*
X83773185Y-106885299D01*
X83773185Y-106885299D02*
X83773185Y-106999585D01*
X83773185Y-106999585D02*
X83735089Y-107075775D01*
X83735089Y-107075775D02*
X83696994Y-107113871D01*
X83696994Y-107113871D02*
X83620804Y-107151966D01*
X83620804Y-107151966D02*
X83316042Y-107151966D01*
X83316042Y-107151966D02*
X83316042Y-106351966D01*
X83316042Y-106351966D02*
X83582708Y-106351966D01*
X83582708Y-106351966D02*
X83658899Y-106390061D01*
X83658899Y-106390061D02*
X83696994Y-106428156D01*
X83696994Y-106428156D02*
X83735089Y-106504347D01*
X83735089Y-106504347D02*
X83735089Y-106580537D01*
X83735089Y-106580537D02*
X83696994Y-106656728D01*
X83696994Y-106656728D02*
X83658899Y-106694823D01*
X83658899Y-106694823D02*
X83582708Y-106732918D01*
X83582708Y-106732918D02*
X83316042Y-106732918D01*
X84535089Y-107151966D02*
X84077946Y-107151966D01*
X84306518Y-107151966D02*
X84306518Y-106351966D01*
X84306518Y-106351966D02*
X84230327Y-106466251D01*
X84230327Y-106466251D02*
X84154137Y-106542442D01*
X84154137Y-106542442D02*
X84077946Y-106580537D01*
X80795089Y-114543394D02*
X81176042Y-114543394D01*
X80718899Y-114771966D02*
X80985566Y-113971966D01*
X80985566Y-113971966D02*
X81252232Y-114771966D01*
X81861756Y-114238632D02*
X81861756Y-114771966D01*
X81671280Y-113933871D02*
X81480803Y-114505299D01*
X81480803Y-114505299D02*
X81976042Y-114505299D01*
X80693470Y-81739271D02*
X80807756Y-81777366D01*
X80807756Y-81777366D02*
X80998232Y-81777366D01*
X80998232Y-81777366D02*
X81074423Y-81739271D01*
X81074423Y-81739271D02*
X81112518Y-81701175D01*
X81112518Y-81701175D02*
X81150613Y-81624985D01*
X81150613Y-81624985D02*
X81150613Y-81548794D01*
X81150613Y-81548794D02*
X81112518Y-81472604D01*
X81112518Y-81472604D02*
X81074423Y-81434509D01*
X81074423Y-81434509D02*
X80998232Y-81396413D01*
X80998232Y-81396413D02*
X80845851Y-81358318D01*
X80845851Y-81358318D02*
X80769661Y-81320223D01*
X80769661Y-81320223D02*
X80731566Y-81282128D01*
X80731566Y-81282128D02*
X80693470Y-81205937D01*
X80693470Y-81205937D02*
X80693470Y-81129747D01*
X80693470Y-81129747D02*
X80731566Y-81053556D01*
X80731566Y-81053556D02*
X80769661Y-81015461D01*
X80769661Y-81015461D02*
X80845851Y-80977366D01*
X80845851Y-80977366D02*
X81036328Y-80977366D01*
X81036328Y-80977366D02*
X81150613Y-81015461D01*
X81493471Y-81777366D02*
X81493471Y-81244032D01*
X81493471Y-80977366D02*
X81455375Y-81015461D01*
X81455375Y-81015461D02*
X81493471Y-81053556D01*
X81493471Y-81053556D02*
X81531566Y-81015461D01*
X81531566Y-81015461D02*
X81493471Y-80977366D01*
X81493471Y-80977366D02*
X81493471Y-81053556D01*
X61052841Y-108828461D02*
X60976651Y-108790366D01*
X60976651Y-108790366D02*
X60862365Y-108790366D01*
X60862365Y-108790366D02*
X60748079Y-108828461D01*
X60748079Y-108828461D02*
X60671889Y-108904651D01*
X60671889Y-108904651D02*
X60633794Y-108980842D01*
X60633794Y-108980842D02*
X60595698Y-109133223D01*
X60595698Y-109133223D02*
X60595698Y-109247509D01*
X60595698Y-109247509D02*
X60633794Y-109399890D01*
X60633794Y-109399890D02*
X60671889Y-109476080D01*
X60671889Y-109476080D02*
X60748079Y-109552271D01*
X60748079Y-109552271D02*
X60862365Y-109590366D01*
X60862365Y-109590366D02*
X60938556Y-109590366D01*
X60938556Y-109590366D02*
X61052841Y-109552271D01*
X61052841Y-109552271D02*
X61090937Y-109514175D01*
X61090937Y-109514175D02*
X61090937Y-109247509D01*
X61090937Y-109247509D02*
X60938556Y-109247509D01*
X60348098Y-98706566D02*
X60843336Y-98706566D01*
X60843336Y-98706566D02*
X60576670Y-99011328D01*
X60576670Y-99011328D02*
X60690955Y-99011328D01*
X60690955Y-99011328D02*
X60767146Y-99049423D01*
X60767146Y-99049423D02*
X60805241Y-99087518D01*
X60805241Y-99087518D02*
X60843336Y-99163709D01*
X60843336Y-99163709D02*
X60843336Y-99354185D01*
X60843336Y-99354185D02*
X60805241Y-99430375D01*
X60805241Y-99430375D02*
X60767146Y-99468471D01*
X60767146Y-99468471D02*
X60690955Y-99506566D01*
X60690955Y-99506566D02*
X60462384Y-99506566D01*
X60462384Y-99506566D02*
X60386193Y-99468471D01*
X60386193Y-99468471D02*
X60348098Y-99430375D01*
X61110003Y-98706566D02*
X61643337Y-98706566D01*
X61643337Y-98706566D02*
X61300479Y-99506566D01*
X63027746Y-114238632D02*
X63027746Y-114771966D01*
X62837270Y-113933871D02*
X62646793Y-114505299D01*
X62646793Y-114505299D02*
X63142032Y-114505299D01*
X63827746Y-113971966D02*
X63446794Y-113971966D01*
X63446794Y-113971966D02*
X63408698Y-114352918D01*
X63408698Y-114352918D02*
X63446794Y-114314823D01*
X63446794Y-114314823D02*
X63522984Y-114276728D01*
X63522984Y-114276728D02*
X63713460Y-114276728D01*
X63713460Y-114276728D02*
X63789651Y-114314823D01*
X63789651Y-114314823D02*
X63827746Y-114352918D01*
X63827746Y-114352918D02*
X63865841Y-114429109D01*
X63865841Y-114429109D02*
X63865841Y-114619585D01*
X63865841Y-114619585D02*
X63827746Y-114695775D01*
X63827746Y-114695775D02*
X63789651Y-114733871D01*
X63789651Y-114733871D02*
X63713460Y-114771966D01*
X63713460Y-114771966D02*
X63522984Y-114771966D01*
X63522984Y-114771966D02*
X63446794Y-114733871D01*
X63446794Y-114733871D02*
X63408698Y-114695775D01*
X84116041Y-93563061D02*
X84039851Y-93524966D01*
X84039851Y-93524966D02*
X83925565Y-93524966D01*
X83925565Y-93524966D02*
X83811279Y-93563061D01*
X83811279Y-93563061D02*
X83735089Y-93639251D01*
X83735089Y-93639251D02*
X83696994Y-93715442D01*
X83696994Y-93715442D02*
X83658898Y-93867823D01*
X83658898Y-93867823D02*
X83658898Y-93982109D01*
X83658898Y-93982109D02*
X83696994Y-94134490D01*
X83696994Y-94134490D02*
X83735089Y-94210680D01*
X83735089Y-94210680D02*
X83811279Y-94286871D01*
X83811279Y-94286871D02*
X83925565Y-94324966D01*
X83925565Y-94324966D02*
X84001756Y-94324966D01*
X84001756Y-94324966D02*
X84116041Y-94286871D01*
X84116041Y-94286871D02*
X84154137Y-94248775D01*
X84154137Y-94248775D02*
X84154137Y-93982109D01*
X84154137Y-93982109D02*
X84001756Y-93982109D01*
X62976956Y-78932566D02*
X62710289Y-78551613D01*
X62519813Y-78932566D02*
X62519813Y-78132566D01*
X62519813Y-78132566D02*
X62824575Y-78132566D01*
X62824575Y-78132566D02*
X62900765Y-78170661D01*
X62900765Y-78170661D02*
X62938860Y-78208756D01*
X62938860Y-78208756D02*
X62976956Y-78284947D01*
X62976956Y-78284947D02*
X62976956Y-78399232D01*
X62976956Y-78399232D02*
X62938860Y-78475423D01*
X62938860Y-78475423D02*
X62900765Y-78513518D01*
X62900765Y-78513518D02*
X62824575Y-78551613D01*
X62824575Y-78551613D02*
X62519813Y-78551613D01*
X63281717Y-78894471D02*
X63357908Y-78932566D01*
X63357908Y-78932566D02*
X63510289Y-78932566D01*
X63510289Y-78932566D02*
X63586479Y-78894471D01*
X63586479Y-78894471D02*
X63624575Y-78818280D01*
X63624575Y-78818280D02*
X63624575Y-78780185D01*
X63624575Y-78780185D02*
X63586479Y-78703994D01*
X63586479Y-78703994D02*
X63510289Y-78665899D01*
X63510289Y-78665899D02*
X63396003Y-78665899D01*
X63396003Y-78665899D02*
X63319813Y-78627804D01*
X63319813Y-78627804D02*
X63281717Y-78551613D01*
X63281717Y-78551613D02*
X63281717Y-78513518D01*
X63281717Y-78513518D02*
X63319813Y-78437328D01*
X63319813Y-78437328D02*
X63396003Y-78399232D01*
X63396003Y-78399232D02*
X63510289Y-78399232D01*
X63510289Y-78399232D02*
X63586479Y-78437328D01*
X63853146Y-78399232D02*
X64157908Y-78399232D01*
X63967432Y-78132566D02*
X63967432Y-78818280D01*
X63967432Y-78818280D02*
X64005527Y-78894471D01*
X64005527Y-78894471D02*
X64081717Y-78932566D01*
X64081717Y-78932566D02*
X64157908Y-78932566D01*
X62409337Y-77910471D02*
X64154099Y-77910471D01*
X63865241Y-126689461D02*
X63789051Y-126651366D01*
X63789051Y-126651366D02*
X63674765Y-126651366D01*
X63674765Y-126651366D02*
X63560479Y-126689461D01*
X63560479Y-126689461D02*
X63484289Y-126765651D01*
X63484289Y-126765651D02*
X63446194Y-126841842D01*
X63446194Y-126841842D02*
X63408098Y-126994223D01*
X63408098Y-126994223D02*
X63408098Y-127108509D01*
X63408098Y-127108509D02*
X63446194Y-127260890D01*
X63446194Y-127260890D02*
X63484289Y-127337080D01*
X63484289Y-127337080D02*
X63560479Y-127413271D01*
X63560479Y-127413271D02*
X63674765Y-127451366D01*
X63674765Y-127451366D02*
X63750956Y-127451366D01*
X63750956Y-127451366D02*
X63865241Y-127413271D01*
X63865241Y-127413271D02*
X63903337Y-127375175D01*
X63903337Y-127375175D02*
X63903337Y-127108509D01*
X63903337Y-127108509D02*
X63750956Y-127108509D01*
X63592841Y-108752261D02*
X63516651Y-108714166D01*
X63516651Y-108714166D02*
X63402365Y-108714166D01*
X63402365Y-108714166D02*
X63288079Y-108752261D01*
X63288079Y-108752261D02*
X63211889Y-108828451D01*
X63211889Y-108828451D02*
X63173794Y-108904642D01*
X63173794Y-108904642D02*
X63135698Y-109057023D01*
X63135698Y-109057023D02*
X63135698Y-109171309D01*
X63135698Y-109171309D02*
X63173794Y-109323690D01*
X63173794Y-109323690D02*
X63211889Y-109399880D01*
X63211889Y-109399880D02*
X63288079Y-109476071D01*
X63288079Y-109476071D02*
X63402365Y-109514166D01*
X63402365Y-109514166D02*
X63478556Y-109514166D01*
X63478556Y-109514166D02*
X63592841Y-109476071D01*
X63592841Y-109476071D02*
X63630937Y-109437975D01*
X63630937Y-109437975D02*
X63630937Y-109171309D01*
X63630937Y-109171309D02*
X63478556Y-109171309D01*
X60665546Y-116727832D02*
X60665546Y-117261166D01*
X60475070Y-116423071D02*
X60284593Y-116994499D01*
X60284593Y-116994499D02*
X60779832Y-116994499D01*
X61427451Y-116727832D02*
X61427451Y-117261166D01*
X61236975Y-116423071D02*
X61046498Y-116994499D01*
X61046498Y-116994499D02*
X61541737Y-116994499D01*
X80883993Y-88648156D02*
X80922089Y-88610061D01*
X80922089Y-88610061D02*
X80998279Y-88571966D01*
X80998279Y-88571966D02*
X81188755Y-88571966D01*
X81188755Y-88571966D02*
X81264946Y-88610061D01*
X81264946Y-88610061D02*
X81303041Y-88648156D01*
X81303041Y-88648156D02*
X81341136Y-88724347D01*
X81341136Y-88724347D02*
X81341136Y-88800537D01*
X81341136Y-88800537D02*
X81303041Y-88914823D01*
X81303041Y-88914823D02*
X80845898Y-89371966D01*
X80845898Y-89371966D02*
X81341136Y-89371966D01*
X81607803Y-88571966D02*
X82141137Y-88571966D01*
X82141137Y-88571966D02*
X81798279Y-89371966D01*
X60309993Y-88571956D02*
X60348089Y-88533861D01*
X60348089Y-88533861D02*
X60424279Y-88495766D01*
X60424279Y-88495766D02*
X60614755Y-88495766D01*
X60614755Y-88495766D02*
X60690946Y-88533861D01*
X60690946Y-88533861D02*
X60729041Y-88571956D01*
X60729041Y-88571956D02*
X60767136Y-88648147D01*
X60767136Y-88648147D02*
X60767136Y-88724337D01*
X60767136Y-88724337D02*
X60729041Y-88838623D01*
X60729041Y-88838623D02*
X60271898Y-89295766D01*
X60271898Y-89295766D02*
X60767136Y-89295766D01*
X61224279Y-88838623D02*
X61148089Y-88800528D01*
X61148089Y-88800528D02*
X61109994Y-88762432D01*
X61109994Y-88762432D02*
X61071898Y-88686242D01*
X61071898Y-88686242D02*
X61071898Y-88648147D01*
X61071898Y-88648147D02*
X61109994Y-88571956D01*
X61109994Y-88571956D02*
X61148089Y-88533861D01*
X61148089Y-88533861D02*
X61224279Y-88495766D01*
X61224279Y-88495766D02*
X61376660Y-88495766D01*
X61376660Y-88495766D02*
X61452851Y-88533861D01*
X61452851Y-88533861D02*
X61490946Y-88571956D01*
X61490946Y-88571956D02*
X61529041Y-88648147D01*
X61529041Y-88648147D02*
X61529041Y-88686242D01*
X61529041Y-88686242D02*
X61490946Y-88762432D01*
X61490946Y-88762432D02*
X61452851Y-88800528D01*
X61452851Y-88800528D02*
X61376660Y-88838623D01*
X61376660Y-88838623D02*
X61224279Y-88838623D01*
X61224279Y-88838623D02*
X61148089Y-88876718D01*
X61148089Y-88876718D02*
X61109994Y-88914813D01*
X61109994Y-88914813D02*
X61071898Y-88991004D01*
X61071898Y-88991004D02*
X61071898Y-89143385D01*
X61071898Y-89143385D02*
X61109994Y-89219575D01*
X61109994Y-89219575D02*
X61148089Y-89257671D01*
X61148089Y-89257671D02*
X61224279Y-89295766D01*
X61224279Y-89295766D02*
X61376660Y-89295766D01*
X61376660Y-89295766D02*
X61452851Y-89257671D01*
X61452851Y-89257671D02*
X61490946Y-89219575D01*
X61490946Y-89219575D02*
X61529041Y-89143385D01*
X61529041Y-89143385D02*
X61529041Y-88991004D01*
X61529041Y-88991004D02*
X61490946Y-88914813D01*
X61490946Y-88914813D02*
X61452851Y-88876718D01*
X61452851Y-88876718D02*
X61376660Y-88838623D01*
X82465241Y-127146604D02*
X82503336Y-127108509D01*
X82503336Y-127108509D02*
X82579527Y-127070413D01*
X82579527Y-127070413D02*
X82731908Y-127146604D01*
X82731908Y-127146604D02*
X82808098Y-127108509D01*
X82808098Y-127108509D02*
X82846193Y-127070413D01*
X83531908Y-126651366D02*
X83150956Y-126651366D01*
X83150956Y-126651366D02*
X83112860Y-127032318D01*
X83112860Y-127032318D02*
X83150956Y-126994223D01*
X83150956Y-126994223D02*
X83227146Y-126956128D01*
X83227146Y-126956128D02*
X83417622Y-126956128D01*
X83417622Y-126956128D02*
X83493813Y-126994223D01*
X83493813Y-126994223D02*
X83531908Y-127032318D01*
X83531908Y-127032318D02*
X83570003Y-127108509D01*
X83570003Y-127108509D02*
X83570003Y-127298985D01*
X83570003Y-127298985D02*
X83531908Y-127375175D01*
X83531908Y-127375175D02*
X83493813Y-127413271D01*
X83493813Y-127413271D02*
X83417622Y-127451366D01*
X83417622Y-127451366D02*
X83227146Y-127451366D01*
X83227146Y-127451366D02*
X83150956Y-127413271D01*
X83150956Y-127413271D02*
X83112860Y-127375175D01*
X80668089Y-106923394D02*
X81049042Y-106923394D01*
X80591899Y-107151966D02*
X80858566Y-106351966D01*
X80858566Y-106351966D02*
X81125232Y-107151966D01*
X81810946Y-107151966D02*
X81353803Y-107151966D01*
X81582375Y-107151966D02*
X81582375Y-106351966D01*
X81582375Y-106351966D02*
X81506184Y-106466251D01*
X81506184Y-106466251D02*
X81429994Y-106542442D01*
X81429994Y-106542442D02*
X81353803Y-106580537D01*
X60602051Y-118848766D02*
X61097289Y-118848766D01*
X61097289Y-118848766D02*
X60830623Y-119153528D01*
X60830623Y-119153528D02*
X60944908Y-119153528D01*
X60944908Y-119153528D02*
X61021099Y-119191623D01*
X61021099Y-119191623D02*
X61059194Y-119229718D01*
X61059194Y-119229718D02*
X61097289Y-119305909D01*
X61097289Y-119305909D02*
X61097289Y-119496385D01*
X61097289Y-119496385D02*
X61059194Y-119572575D01*
X61059194Y-119572575D02*
X61021099Y-119610671D01*
X61021099Y-119610671D02*
X60944908Y-119648766D01*
X60944908Y-119648766D02*
X60716337Y-119648766D01*
X60716337Y-119648766D02*
X60640146Y-119610671D01*
X60640146Y-119610671D02*
X60602051Y-119572575D01*
X62900746Y-116461156D02*
X62938842Y-116423061D01*
X62938842Y-116423061D02*
X63015032Y-116384966D01*
X63015032Y-116384966D02*
X63205508Y-116384966D01*
X63205508Y-116384966D02*
X63281699Y-116423061D01*
X63281699Y-116423061D02*
X63319794Y-116461156D01*
X63319794Y-116461156D02*
X63357889Y-116537347D01*
X63357889Y-116537347D02*
X63357889Y-116613537D01*
X63357889Y-116613537D02*
X63319794Y-116727823D01*
X63319794Y-116727823D02*
X62862651Y-117184966D01*
X62862651Y-117184966D02*
X63357889Y-117184966D01*
X62684898Y-91061166D02*
X63180136Y-91061166D01*
X63180136Y-91061166D02*
X62913470Y-91365928D01*
X62913470Y-91365928D02*
X63027755Y-91365928D01*
X63027755Y-91365928D02*
X63103946Y-91404023D01*
X63103946Y-91404023D02*
X63142041Y-91442118D01*
X63142041Y-91442118D02*
X63180136Y-91518309D01*
X63180136Y-91518309D02*
X63180136Y-91708785D01*
X63180136Y-91708785D02*
X63142041Y-91784975D01*
X63142041Y-91784975D02*
X63103946Y-91823071D01*
X63103946Y-91823071D02*
X63027755Y-91861166D01*
X63027755Y-91861166D02*
X62799184Y-91861166D01*
X62799184Y-91861166D02*
X62722993Y-91823071D01*
X62722993Y-91823071D02*
X62684898Y-91784975D01*
X63865851Y-91327832D02*
X63865851Y-91861166D01*
X63675375Y-91023071D02*
X63484898Y-91594499D01*
X63484898Y-91594499D02*
X63980137Y-91594499D01*
X81214136Y-86882766D02*
X80756993Y-86882766D01*
X80985565Y-86882766D02*
X80985565Y-86082766D01*
X80985565Y-86082766D02*
X80909374Y-86197051D01*
X80909374Y-86197051D02*
X80833184Y-86273242D01*
X80833184Y-86273242D02*
X80756993Y-86311337D01*
X81595089Y-86882766D02*
X81747470Y-86882766D01*
X81747470Y-86882766D02*
X81823660Y-86844671D01*
X81823660Y-86844671D02*
X81861756Y-86806575D01*
X81861756Y-86806575D02*
X81937946Y-86692290D01*
X81937946Y-86692290D02*
X81976041Y-86539909D01*
X81976041Y-86539909D02*
X81976041Y-86235147D01*
X81976041Y-86235147D02*
X81937946Y-86158956D01*
X81937946Y-86158956D02*
X81899851Y-86120861D01*
X81899851Y-86120861D02*
X81823660Y-86082766D01*
X81823660Y-86082766D02*
X81671279Y-86082766D01*
X81671279Y-86082766D02*
X81595089Y-86120861D01*
X81595089Y-86120861D02*
X81556994Y-86158956D01*
X81556994Y-86158956D02*
X81518898Y-86235147D01*
X81518898Y-86235147D02*
X81518898Y-86425623D01*
X81518898Y-86425623D02*
X81556994Y-86501813D01*
X81556994Y-86501813D02*
X81595089Y-86539909D01*
X81595089Y-86539909D02*
X81671279Y-86578004D01*
X81671279Y-86578004D02*
X81823660Y-86578004D01*
X81823660Y-86578004D02*
X81899851Y-86539909D01*
X81899851Y-86539909D02*
X81937946Y-86501813D01*
X81937946Y-86501813D02*
X81976041Y-86425623D01*
X65418013Y-88336689D02*
X64884679Y-88336689D01*
X64618013Y-88336689D02*
X64656108Y-88374785D01*
X64656108Y-88374785D02*
X64694203Y-88336689D01*
X64694203Y-88336689D02*
X64656108Y-88298594D01*
X64656108Y-88298594D02*
X64618013Y-88336689D01*
X64618013Y-88336689D02*
X64694203Y-88336689D01*
X65341822Y-87498594D02*
X65379918Y-87536690D01*
X65379918Y-87536690D02*
X65418013Y-87650975D01*
X65418013Y-87650975D02*
X65418013Y-87727166D01*
X65418013Y-87727166D02*
X65379918Y-87841452D01*
X65379918Y-87841452D02*
X65303727Y-87917642D01*
X65303727Y-87917642D02*
X65227537Y-87955737D01*
X65227537Y-87955737D02*
X65075156Y-87993833D01*
X65075156Y-87993833D02*
X64960870Y-87993833D01*
X64960870Y-87993833D02*
X64808489Y-87955737D01*
X64808489Y-87955737D02*
X64732298Y-87917642D01*
X64732298Y-87917642D02*
X64656108Y-87841452D01*
X64656108Y-87841452D02*
X64618013Y-87727166D01*
X64618013Y-87727166D02*
X64618013Y-87650975D01*
X64618013Y-87650975D02*
X64656108Y-87536690D01*
X64656108Y-87536690D02*
X64694203Y-87498594D01*
X64998965Y-87155737D02*
X64998965Y-86889071D01*
X65418013Y-86774785D02*
X65418013Y-87155737D01*
X65418013Y-87155737D02*
X64618013Y-87155737D01*
X64618013Y-87155737D02*
X64618013Y-86774785D01*
X65418013Y-85822403D02*
X64618013Y-85822403D01*
X64618013Y-85822403D02*
X64618013Y-85517641D01*
X64618013Y-85517641D02*
X64656108Y-85441451D01*
X64656108Y-85441451D02*
X64694203Y-85403356D01*
X64694203Y-85403356D02*
X64770394Y-85365260D01*
X64770394Y-85365260D02*
X64884679Y-85365260D01*
X64884679Y-85365260D02*
X64960870Y-85403356D01*
X64960870Y-85403356D02*
X64998965Y-85441451D01*
X64998965Y-85441451D02*
X65037060Y-85517641D01*
X65037060Y-85517641D02*
X65037060Y-85822403D01*
X65418013Y-85022403D02*
X64618013Y-85022403D01*
X64618013Y-85022403D02*
X65189441Y-84755737D01*
X65189441Y-84755737D02*
X64618013Y-84489070D01*
X64618013Y-84489070D02*
X65418013Y-84489070D01*
X64618013Y-83955736D02*
X64618013Y-83803355D01*
X64618013Y-83803355D02*
X64656108Y-83727165D01*
X64656108Y-83727165D02*
X64732298Y-83650974D01*
X64732298Y-83650974D02*
X64884679Y-83612879D01*
X64884679Y-83612879D02*
X65151346Y-83612879D01*
X65151346Y-83612879D02*
X65303727Y-83650974D01*
X65303727Y-83650974D02*
X65379918Y-83727165D01*
X65379918Y-83727165D02*
X65418013Y-83803355D01*
X65418013Y-83803355D02*
X65418013Y-83955736D01*
X65418013Y-83955736D02*
X65379918Y-84031927D01*
X65379918Y-84031927D02*
X65303727Y-84108117D01*
X65303727Y-84108117D02*
X65151346Y-84146213D01*
X65151346Y-84146213D02*
X64884679Y-84146213D01*
X64884679Y-84146213D02*
X64732298Y-84108117D01*
X64732298Y-84108117D02*
X64656108Y-84031927D01*
X64656108Y-84031927D02*
X64618013Y-83955736D01*
X65418013Y-83270022D02*
X64618013Y-83270022D01*
X64618013Y-83270022D02*
X64618013Y-83079546D01*
X64618013Y-83079546D02*
X64656108Y-82965260D01*
X64656108Y-82965260D02*
X64732298Y-82889070D01*
X64732298Y-82889070D02*
X64808489Y-82850975D01*
X64808489Y-82850975D02*
X64960870Y-82812879D01*
X64960870Y-82812879D02*
X65075156Y-82812879D01*
X65075156Y-82812879D02*
X65227537Y-82850975D01*
X65227537Y-82850975D02*
X65303727Y-82889070D01*
X65303727Y-82889070D02*
X65379918Y-82965260D01*
X65379918Y-82965260D02*
X65418013Y-83079546D01*
X65418013Y-83079546D02*
X65418013Y-83270022D01*
X64998965Y-81593832D02*
X65037060Y-81479546D01*
X65037060Y-81479546D02*
X65075156Y-81441451D01*
X65075156Y-81441451D02*
X65151346Y-81403355D01*
X65151346Y-81403355D02*
X65265632Y-81403355D01*
X65265632Y-81403355D02*
X65341822Y-81441451D01*
X65341822Y-81441451D02*
X65379918Y-81479546D01*
X65379918Y-81479546D02*
X65418013Y-81555736D01*
X65418013Y-81555736D02*
X65418013Y-81860498D01*
X65418013Y-81860498D02*
X64618013Y-81860498D01*
X64618013Y-81860498D02*
X64618013Y-81593832D01*
X64618013Y-81593832D02*
X64656108Y-81517641D01*
X64656108Y-81517641D02*
X64694203Y-81479546D01*
X64694203Y-81479546D02*
X64770394Y-81441451D01*
X64770394Y-81441451D02*
X64846584Y-81441451D01*
X64846584Y-81441451D02*
X64922775Y-81479546D01*
X64922775Y-81479546D02*
X64960870Y-81517641D01*
X64960870Y-81517641D02*
X64998965Y-81593832D01*
X64998965Y-81593832D02*
X64998965Y-81860498D01*
X80693489Y-111977994D02*
X81074442Y-111977994D01*
X80617299Y-112206566D02*
X80883966Y-111406566D01*
X80883966Y-111406566D02*
X81150632Y-112206566D01*
X81341108Y-111406566D02*
X81836346Y-111406566D01*
X81836346Y-111406566D02*
X81569680Y-111711328D01*
X81569680Y-111711328D02*
X81683965Y-111711328D01*
X81683965Y-111711328D02*
X81760156Y-111749423D01*
X81760156Y-111749423D02*
X81798251Y-111787518D01*
X81798251Y-111787518D02*
X81836346Y-111863709D01*
X81836346Y-111863709D02*
X81836346Y-112054185D01*
X81836346Y-112054185D02*
X81798251Y-112130375D01*
X81798251Y-112130375D02*
X81760156Y-112168471D01*
X81760156Y-112168471D02*
X81683965Y-112206566D01*
X81683965Y-112206566D02*
X81455394Y-112206566D01*
X81455394Y-112206566D02*
X81379203Y-112168471D01*
X81379203Y-112168471D02*
X81341108Y-112130375D01*
X62786498Y-98681166D02*
X63281736Y-98681166D01*
X63281736Y-98681166D02*
X63015070Y-98985928D01*
X63015070Y-98985928D02*
X63129355Y-98985928D01*
X63129355Y-98985928D02*
X63205546Y-99024023D01*
X63205546Y-99024023D02*
X63243641Y-99062118D01*
X63243641Y-99062118D02*
X63281736Y-99138309D01*
X63281736Y-99138309D02*
X63281736Y-99328785D01*
X63281736Y-99328785D02*
X63243641Y-99404975D01*
X63243641Y-99404975D02*
X63205546Y-99443071D01*
X63205546Y-99443071D02*
X63129355Y-99481166D01*
X63129355Y-99481166D02*
X62900784Y-99481166D01*
X62900784Y-99481166D02*
X62824593Y-99443071D01*
X62824593Y-99443071D02*
X62786498Y-99404975D01*
X64005546Y-98681166D02*
X63624594Y-98681166D01*
X63624594Y-98681166D02*
X63586498Y-99062118D01*
X63586498Y-99062118D02*
X63624594Y-99024023D01*
X63624594Y-99024023D02*
X63700784Y-98985928D01*
X63700784Y-98985928D02*
X63891260Y-98985928D01*
X63891260Y-98985928D02*
X63967451Y-99024023D01*
X63967451Y-99024023D02*
X64005546Y-99062118D01*
X64005546Y-99062118D02*
X64043641Y-99138309D01*
X64043641Y-99138309D02*
X64043641Y-99328785D01*
X64043641Y-99328785D02*
X64005546Y-99404975D01*
X64005546Y-99404975D02*
X63967451Y-99443071D01*
X63967451Y-99443071D02*
X63891260Y-99481166D01*
X63891260Y-99481166D02*
X63700784Y-99481166D01*
X63700784Y-99481166D02*
X63624594Y-99443071D01*
X63624594Y-99443071D02*
X63586498Y-99404975D01*
X83963660Y-104192918D02*
X84077946Y-104231013D01*
X84077946Y-104231013D02*
X84116041Y-104269109D01*
X84116041Y-104269109D02*
X84154137Y-104345299D01*
X84154137Y-104345299D02*
X84154137Y-104459585D01*
X84154137Y-104459585D02*
X84116041Y-104535775D01*
X84116041Y-104535775D02*
X84077946Y-104573871D01*
X84077946Y-104573871D02*
X84001756Y-104611966D01*
X84001756Y-104611966D02*
X83696994Y-104611966D01*
X83696994Y-104611966D02*
X83696994Y-103811966D01*
X83696994Y-103811966D02*
X83963660Y-103811966D01*
X83963660Y-103811966D02*
X84039851Y-103850061D01*
X84039851Y-103850061D02*
X84077946Y-103888156D01*
X84077946Y-103888156D02*
X84116041Y-103964347D01*
X84116041Y-103964347D02*
X84116041Y-104040537D01*
X84116041Y-104040537D02*
X84077946Y-104116728D01*
X84077946Y-104116728D02*
X84039851Y-104154823D01*
X84039851Y-104154823D02*
X83963660Y-104192918D01*
X83963660Y-104192918D02*
X83696994Y-104192918D01*
X60614746Y-114162432D02*
X60614746Y-114695766D01*
X60424270Y-113857671D02*
X60233793Y-114429099D01*
X60233793Y-114429099D02*
X60729032Y-114429099D01*
X61376651Y-113895766D02*
X61224270Y-113895766D01*
X61224270Y-113895766D02*
X61148079Y-113933861D01*
X61148079Y-113933861D02*
X61109984Y-113971956D01*
X61109984Y-113971956D02*
X61033794Y-114086242D01*
X61033794Y-114086242D02*
X60995698Y-114238623D01*
X60995698Y-114238623D02*
X60995698Y-114543385D01*
X60995698Y-114543385D02*
X61033794Y-114619575D01*
X61033794Y-114619575D02*
X61071889Y-114657671D01*
X61071889Y-114657671D02*
X61148079Y-114695766D01*
X61148079Y-114695766D02*
X61300460Y-114695766D01*
X61300460Y-114695766D02*
X61376651Y-114657671D01*
X61376651Y-114657671D02*
X61414746Y-114619575D01*
X61414746Y-114619575D02*
X61452841Y-114543385D01*
X61452841Y-114543385D02*
X61452841Y-114352909D01*
X61452841Y-114352909D02*
X61414746Y-114276718D01*
X61414746Y-114276718D02*
X61376651Y-114238623D01*
X61376651Y-114238623D02*
X61300460Y-114200528D01*
X61300460Y-114200528D02*
X61148079Y-114200528D01*
X61148079Y-114200528D02*
X61071889Y-114238623D01*
X61071889Y-114238623D02*
X61033794Y-114276718D01*
X61033794Y-114276718D02*
X60995698Y-114352909D01*
X84116041Y-101310061D02*
X84039851Y-101271966D01*
X84039851Y-101271966D02*
X83925565Y-101271966D01*
X83925565Y-101271966D02*
X83811279Y-101310061D01*
X83811279Y-101310061D02*
X83735089Y-101386251D01*
X83735089Y-101386251D02*
X83696994Y-101462442D01*
X83696994Y-101462442D02*
X83658898Y-101614823D01*
X83658898Y-101614823D02*
X83658898Y-101729109D01*
X83658898Y-101729109D02*
X83696994Y-101881490D01*
X83696994Y-101881490D02*
X83735089Y-101957680D01*
X83735089Y-101957680D02*
X83811279Y-102033871D01*
X83811279Y-102033871D02*
X83925565Y-102071966D01*
X83925565Y-102071966D02*
X84001756Y-102071966D01*
X84001756Y-102071966D02*
X84116041Y-102033871D01*
X84116041Y-102033871D02*
X84154137Y-101995775D01*
X84154137Y-101995775D02*
X84154137Y-101729109D01*
X84154137Y-101729109D02*
X84001756Y-101729109D01*
X83296993Y-83568156D02*
X83335089Y-83530061D01*
X83335089Y-83530061D02*
X83411279Y-83491966D01*
X83411279Y-83491966D02*
X83601755Y-83491966D01*
X83601755Y-83491966D02*
X83677946Y-83530061D01*
X83677946Y-83530061D02*
X83716041Y-83568156D01*
X83716041Y-83568156D02*
X83754136Y-83644347D01*
X83754136Y-83644347D02*
X83754136Y-83720537D01*
X83754136Y-83720537D02*
X83716041Y-83834823D01*
X83716041Y-83834823D02*
X83258898Y-84291966D01*
X83258898Y-84291966D02*
X83754136Y-84291966D01*
X84020803Y-83491966D02*
X84516041Y-83491966D01*
X84516041Y-83491966D02*
X84249375Y-83796728D01*
X84249375Y-83796728D02*
X84363660Y-83796728D01*
X84363660Y-83796728D02*
X84439851Y-83834823D01*
X84439851Y-83834823D02*
X84477946Y-83872918D01*
X84477946Y-83872918D02*
X84516041Y-83949109D01*
X84516041Y-83949109D02*
X84516041Y-84139585D01*
X84516041Y-84139585D02*
X84477946Y-84215775D01*
X84477946Y-84215775D02*
X84439851Y-84253871D01*
X84439851Y-84253871D02*
X84363660Y-84291966D01*
X84363660Y-84291966D02*
X84135089Y-84291966D01*
X84135089Y-84291966D02*
X84058898Y-84253871D01*
X84058898Y-84253871D02*
X84020803Y-84215775D01*
X63415041Y-80913861D02*
X63338851Y-80875766D01*
X63338851Y-80875766D02*
X63224565Y-80875766D01*
X63224565Y-80875766D02*
X63110279Y-80913861D01*
X63110279Y-80913861D02*
X63034089Y-80990051D01*
X63034089Y-80990051D02*
X62995994Y-81066242D01*
X62995994Y-81066242D02*
X62957898Y-81218623D01*
X62957898Y-81218623D02*
X62957898Y-81332909D01*
X62957898Y-81332909D02*
X62995994Y-81485290D01*
X62995994Y-81485290D02*
X63034089Y-81561480D01*
X63034089Y-81561480D02*
X63110279Y-81637671D01*
X63110279Y-81637671D02*
X63224565Y-81675766D01*
X63224565Y-81675766D02*
X63300756Y-81675766D01*
X63300756Y-81675766D02*
X63415041Y-81637671D01*
X63415041Y-81637671D02*
X63453137Y-81599575D01*
X63453137Y-81599575D02*
X63453137Y-81332909D01*
X63453137Y-81332909D02*
X63300756Y-81332909D01*
X80649041Y-124500204D02*
X80687136Y-124462109D01*
X80687136Y-124462109D02*
X80763327Y-124424013D01*
X80763327Y-124424013D02*
X80915708Y-124500204D01*
X80915708Y-124500204D02*
X80991898Y-124462109D01*
X80991898Y-124462109D02*
X81029993Y-124424013D01*
X81258565Y-124004966D02*
X81753803Y-124004966D01*
X81753803Y-124004966D02*
X81487137Y-124309728D01*
X81487137Y-124309728D02*
X81601422Y-124309728D01*
X81601422Y-124309728D02*
X81677613Y-124347823D01*
X81677613Y-124347823D02*
X81715708Y-124385918D01*
X81715708Y-124385918D02*
X81753803Y-124462109D01*
X81753803Y-124462109D02*
X81753803Y-124652585D01*
X81753803Y-124652585D02*
X81715708Y-124728775D01*
X81715708Y-124728775D02*
X81677613Y-124766871D01*
X81677613Y-124766871D02*
X81601422Y-124804966D01*
X81601422Y-124804966D02*
X81372851Y-124804966D01*
X81372851Y-124804966D02*
X81296660Y-124766871D01*
X81296660Y-124766871D02*
X81258565Y-124728775D01*
X80649041Y-99227204D02*
X80687136Y-99189109D01*
X80687136Y-99189109D02*
X80763327Y-99151013D01*
X80763327Y-99151013D02*
X80915708Y-99227204D01*
X80915708Y-99227204D02*
X80991898Y-99189109D01*
X80991898Y-99189109D02*
X81029993Y-99151013D01*
X81487137Y-98731966D02*
X81563327Y-98731966D01*
X81563327Y-98731966D02*
X81639518Y-98770061D01*
X81639518Y-98770061D02*
X81677613Y-98808156D01*
X81677613Y-98808156D02*
X81715708Y-98884347D01*
X81715708Y-98884347D02*
X81753803Y-99036728D01*
X81753803Y-99036728D02*
X81753803Y-99227204D01*
X81753803Y-99227204D02*
X81715708Y-99379585D01*
X81715708Y-99379585D02*
X81677613Y-99455775D01*
X81677613Y-99455775D02*
X81639518Y-99493871D01*
X81639518Y-99493871D02*
X81563327Y-99531966D01*
X81563327Y-99531966D02*
X81487137Y-99531966D01*
X81487137Y-99531966D02*
X81410946Y-99493871D01*
X81410946Y-99493871D02*
X81372851Y-99455775D01*
X81372851Y-99455775D02*
X81334756Y-99379585D01*
X81334756Y-99379585D02*
X81296660Y-99227204D01*
X81296660Y-99227204D02*
X81296660Y-99036728D01*
X81296660Y-99036728D02*
X81334756Y-98884347D01*
X81334756Y-98884347D02*
X81372851Y-98808156D01*
X81372851Y-98808156D02*
X81410946Y-98770061D01*
X81410946Y-98770061D02*
X81487137Y-98731966D01*
X83341441Y-124678004D02*
X83379536Y-124639909D01*
X83379536Y-124639909D02*
X83455727Y-124601813D01*
X83455727Y-124601813D02*
X83608108Y-124678004D01*
X83608108Y-124678004D02*
X83684298Y-124639909D01*
X83684298Y-124639909D02*
X83722393Y-124601813D01*
X84370013Y-124449432D02*
X84370013Y-124982766D01*
X84179537Y-124144671D02*
X83989060Y-124716099D01*
X83989060Y-124716099D02*
X84484299Y-124716099D01*
X84116041Y-116550061D02*
X84039851Y-116511966D01*
X84039851Y-116511966D02*
X83925565Y-116511966D01*
X83925565Y-116511966D02*
X83811279Y-116550061D01*
X83811279Y-116550061D02*
X83735089Y-116626251D01*
X83735089Y-116626251D02*
X83696994Y-116702442D01*
X83696994Y-116702442D02*
X83658898Y-116854823D01*
X83658898Y-116854823D02*
X83658898Y-116969109D01*
X83658898Y-116969109D02*
X83696994Y-117121490D01*
X83696994Y-117121490D02*
X83735089Y-117197680D01*
X83735089Y-117197680D02*
X83811279Y-117273871D01*
X83811279Y-117273871D02*
X83925565Y-117311966D01*
X83925565Y-117311966D02*
X84001756Y-117311966D01*
X84001756Y-117311966D02*
X84116041Y-117273871D01*
X84116041Y-117273871D02*
X84154137Y-117235775D01*
X84154137Y-117235775D02*
X84154137Y-116969109D01*
X84154137Y-116969109D02*
X84001756Y-116969109D01*
X83036670Y-121566566D02*
X83303337Y-122366566D01*
X83303337Y-122366566D02*
X83570003Y-121566566D01*
X83836670Y-122366566D02*
X83836670Y-121833232D01*
X83836670Y-121566566D02*
X83798574Y-121604661D01*
X83798574Y-121604661D02*
X83836670Y-121642756D01*
X83836670Y-121642756D02*
X83874765Y-121604661D01*
X83874765Y-121604661D02*
X83836670Y-121566566D01*
X83836670Y-121566566D02*
X83836670Y-121642756D01*
X84217622Y-121833232D02*
X84217622Y-122366566D01*
X84217622Y-121909423D02*
X84255717Y-121871328D01*
X84255717Y-121871328D02*
X84331907Y-121833232D01*
X84331907Y-121833232D02*
X84446193Y-121833232D01*
X84446193Y-121833232D02*
X84522384Y-121871328D01*
X84522384Y-121871328D02*
X84560479Y-121947518D01*
X84560479Y-121947518D02*
X84560479Y-122366566D01*
X60729051Y-81409118D02*
X60462385Y-81409118D01*
X60462385Y-81828166D02*
X60462385Y-81028166D01*
X60462385Y-81028166D02*
X60843337Y-81028166D01*
X61071908Y-81028166D02*
X61567146Y-81028166D01*
X61567146Y-81028166D02*
X61300480Y-81332928D01*
X61300480Y-81332928D02*
X61414765Y-81332928D01*
X61414765Y-81332928D02*
X61490956Y-81371023D01*
X61490956Y-81371023D02*
X61529051Y-81409118D01*
X61529051Y-81409118D02*
X61567146Y-81485309D01*
X61567146Y-81485309D02*
X61567146Y-81675785D01*
X61567146Y-81675785D02*
X61529051Y-81751975D01*
X61529051Y-81751975D02*
X61490956Y-81790071D01*
X61490956Y-81790071D02*
X61414765Y-81828166D01*
X61414765Y-81828166D02*
X61186194Y-81828166D01*
X61186194Y-81828166D02*
X61110003Y-81790071D01*
X61110003Y-81790071D02*
X61071908Y-81751975D01*
X63427823Y-122468166D02*
X63161156Y-122087213D01*
X62970680Y-122468166D02*
X62970680Y-121668166D01*
X62970680Y-121668166D02*
X63275442Y-121668166D01*
X63275442Y-121668166D02*
X63351632Y-121706261D01*
X63351632Y-121706261D02*
X63389727Y-121744356D01*
X63389727Y-121744356D02*
X63427823Y-121820547D01*
X63427823Y-121820547D02*
X63427823Y-121934832D01*
X63427823Y-121934832D02*
X63389727Y-122011023D01*
X63389727Y-122011023D02*
X63351632Y-122049118D01*
X63351632Y-122049118D02*
X63275442Y-122087213D01*
X63275442Y-122087213D02*
X62970680Y-122087213D01*
X63732584Y-122430071D02*
X63846870Y-122468166D01*
X63846870Y-122468166D02*
X64037346Y-122468166D01*
X64037346Y-122468166D02*
X64113537Y-122430071D01*
X64113537Y-122430071D02*
X64151632Y-122391975D01*
X64151632Y-122391975D02*
X64189727Y-122315785D01*
X64189727Y-122315785D02*
X64189727Y-122239594D01*
X64189727Y-122239594D02*
X64151632Y-122163404D01*
X64151632Y-122163404D02*
X64113537Y-122125309D01*
X64113537Y-122125309D02*
X64037346Y-122087213D01*
X64037346Y-122087213D02*
X63884965Y-122049118D01*
X63884965Y-122049118D02*
X63808775Y-122011023D01*
X63808775Y-122011023D02*
X63770680Y-121972928D01*
X63770680Y-121972928D02*
X63732584Y-121896737D01*
X63732584Y-121896737D02*
X63732584Y-121820547D01*
X63732584Y-121820547D02*
X63770680Y-121744356D01*
X63770680Y-121744356D02*
X63808775Y-121706261D01*
X63808775Y-121706261D02*
X63884965Y-121668166D01*
X63884965Y-121668166D02*
X64075442Y-121668166D01*
X64075442Y-121668166D02*
X64189727Y-121706261D01*
X64418299Y-121668166D02*
X64875442Y-121668166D01*
X64646870Y-122468166D02*
X64646870Y-121668166D01*
X62860204Y-121446071D02*
X64871633Y-121446071D01*
X61129041Y-85943061D02*
X61052851Y-85904966D01*
X61052851Y-85904966D02*
X60938565Y-85904966D01*
X60938565Y-85904966D02*
X60824279Y-85943061D01*
X60824279Y-85943061D02*
X60748089Y-86019251D01*
X60748089Y-86019251D02*
X60709994Y-86095442D01*
X60709994Y-86095442D02*
X60671898Y-86247823D01*
X60671898Y-86247823D02*
X60671898Y-86362109D01*
X60671898Y-86362109D02*
X60709994Y-86514490D01*
X60709994Y-86514490D02*
X60748089Y-86590680D01*
X60748089Y-86590680D02*
X60824279Y-86666871D01*
X60824279Y-86666871D02*
X60938565Y-86704966D01*
X60938565Y-86704966D02*
X61014756Y-86704966D01*
X61014756Y-86704966D02*
X61129041Y-86666871D01*
X61129041Y-86666871D02*
X61167137Y-86628775D01*
X61167137Y-86628775D02*
X61167137Y-86362109D01*
X61167137Y-86362109D02*
X61014756Y-86362109D01*
X63332499Y-101170366D02*
X63180118Y-101170366D01*
X63180118Y-101170366D02*
X63103927Y-101208461D01*
X63103927Y-101208461D02*
X63065832Y-101246556D01*
X63065832Y-101246556D02*
X62989642Y-101360842D01*
X62989642Y-101360842D02*
X62951546Y-101513223D01*
X62951546Y-101513223D02*
X62951546Y-101817985D01*
X62951546Y-101817985D02*
X62989642Y-101894175D01*
X62989642Y-101894175D02*
X63027737Y-101932271D01*
X63027737Y-101932271D02*
X63103927Y-101970366D01*
X63103927Y-101970366D02*
X63256308Y-101970366D01*
X63256308Y-101970366D02*
X63332499Y-101932271D01*
X63332499Y-101932271D02*
X63370594Y-101894175D01*
X63370594Y-101894175D02*
X63408689Y-101817985D01*
X63408689Y-101817985D02*
X63408689Y-101627509D01*
X63408689Y-101627509D02*
X63370594Y-101551318D01*
X63370594Y-101551318D02*
X63332499Y-101513223D01*
X63332499Y-101513223D02*
X63256308Y-101475128D01*
X63256308Y-101475128D02*
X63103927Y-101475128D01*
X63103927Y-101475128D02*
X63027737Y-101513223D01*
X63027737Y-101513223D02*
X62989642Y-101551318D01*
X62989642Y-101551318D02*
X62951546Y-101627509D01*
X84194137Y-99652966D02*
X83927470Y-99272013D01*
X83736994Y-99652966D02*
X83736994Y-98852966D01*
X83736994Y-98852966D02*
X84041756Y-98852966D01*
X84041756Y-98852966D02*
X84117946Y-98891061D01*
X84117946Y-98891061D02*
X84156041Y-98929156D01*
X84156041Y-98929156D02*
X84194137Y-99005347D01*
X84194137Y-99005347D02*
X84194137Y-99119632D01*
X84194137Y-99119632D02*
X84156041Y-99195823D01*
X84156041Y-99195823D02*
X84117946Y-99233918D01*
X84117946Y-99233918D02*
X84041756Y-99272013D01*
X84041756Y-99272013D02*
X83736994Y-99272013D01*
X80649041Y-104307204D02*
X80687136Y-104269109D01*
X80687136Y-104269109D02*
X80763327Y-104231013D01*
X80763327Y-104231013D02*
X80915708Y-104307204D01*
X80915708Y-104307204D02*
X80991898Y-104269109D01*
X80991898Y-104269109D02*
X81029993Y-104231013D01*
X81296660Y-103888156D02*
X81334756Y-103850061D01*
X81334756Y-103850061D02*
X81410946Y-103811966D01*
X81410946Y-103811966D02*
X81601422Y-103811966D01*
X81601422Y-103811966D02*
X81677613Y-103850061D01*
X81677613Y-103850061D02*
X81715708Y-103888156D01*
X81715708Y-103888156D02*
X81753803Y-103964347D01*
X81753803Y-103964347D02*
X81753803Y-104040537D01*
X81753803Y-104040537D02*
X81715708Y-104154823D01*
X81715708Y-104154823D02*
X81258565Y-104611966D01*
X81258565Y-104611966D02*
X81753803Y-104611966D01*
X62878517Y-111642837D02*
X62878517Y-112109504D01*
X62711851Y-111376171D02*
X62545184Y-111876171D01*
X62545184Y-111876171D02*
X62978517Y-111876171D01*
X63178518Y-111409504D02*
X63645184Y-111409504D01*
X63645184Y-111409504D02*
X63345184Y-112109504D01*
X85165241Y-127146604D02*
X85203336Y-127108509D01*
X85203336Y-127108509D02*
X85279527Y-127070413D01*
X85279527Y-127070413D02*
X85431908Y-127146604D01*
X85431908Y-127146604D02*
X85508098Y-127108509D01*
X85508098Y-127108509D02*
X85546193Y-127070413D01*
X86193813Y-126651366D02*
X86041432Y-126651366D01*
X86041432Y-126651366D02*
X85965241Y-126689461D01*
X85965241Y-126689461D02*
X85927146Y-126727556D01*
X85927146Y-126727556D02*
X85850956Y-126841842D01*
X85850956Y-126841842D02*
X85812860Y-126994223D01*
X85812860Y-126994223D02*
X85812860Y-127298985D01*
X85812860Y-127298985D02*
X85850956Y-127375175D01*
X85850956Y-127375175D02*
X85889051Y-127413271D01*
X85889051Y-127413271D02*
X85965241Y-127451366D01*
X85965241Y-127451366D02*
X86117622Y-127451366D01*
X86117622Y-127451366D02*
X86193813Y-127413271D01*
X86193813Y-127413271D02*
X86231908Y-127375175D01*
X86231908Y-127375175D02*
X86270003Y-127298985D01*
X86270003Y-127298985D02*
X86270003Y-127108509D01*
X86270003Y-127108509D02*
X86231908Y-127032318D01*
X86231908Y-127032318D02*
X86193813Y-126994223D01*
X86193813Y-126994223D02*
X86117622Y-126956128D01*
X86117622Y-126956128D02*
X85965241Y-126956128D01*
X85965241Y-126956128D02*
X85889051Y-126994223D01*
X85889051Y-126994223D02*
X85850956Y-127032318D01*
X85850956Y-127032318D02*
X85812860Y-127108509D01*
X80858593Y-91061156D02*
X80896689Y-91023061D01*
X80896689Y-91023061D02*
X80972879Y-90984966D01*
X80972879Y-90984966D02*
X81163355Y-90984966D01*
X81163355Y-90984966D02*
X81239546Y-91023061D01*
X81239546Y-91023061D02*
X81277641Y-91061156D01*
X81277641Y-91061156D02*
X81315736Y-91137347D01*
X81315736Y-91137347D02*
X81315736Y-91213537D01*
X81315736Y-91213537D02*
X81277641Y-91327823D01*
X81277641Y-91327823D02*
X80820498Y-91784966D01*
X80820498Y-91784966D02*
X81315736Y-91784966D01*
X82077641Y-91784966D02*
X81620498Y-91784966D01*
X81849070Y-91784966D02*
X81849070Y-90984966D01*
X81849070Y-90984966D02*
X81772879Y-91099251D01*
X81772879Y-91099251D02*
X81696689Y-91175442D01*
X81696689Y-91175442D02*
X81620498Y-91213537D01*
X80629993Y-83427556D02*
X80668089Y-83389461D01*
X80668089Y-83389461D02*
X80744279Y-83351366D01*
X80744279Y-83351366D02*
X80934755Y-83351366D01*
X80934755Y-83351366D02*
X81010946Y-83389461D01*
X81010946Y-83389461D02*
X81049041Y-83427556D01*
X81049041Y-83427556D02*
X81087136Y-83503747D01*
X81087136Y-83503747D02*
X81087136Y-83579937D01*
X81087136Y-83579937D02*
X81049041Y-83694223D01*
X81049041Y-83694223D02*
X80591898Y-84151366D01*
X80591898Y-84151366D02*
X81087136Y-84151366D01*
X81810946Y-83351366D02*
X81429994Y-83351366D01*
X81429994Y-83351366D02*
X81391898Y-83732318D01*
X81391898Y-83732318D02*
X81429994Y-83694223D01*
X81429994Y-83694223D02*
X81506184Y-83656128D01*
X81506184Y-83656128D02*
X81696660Y-83656128D01*
X81696660Y-83656128D02*
X81772851Y-83694223D01*
X81772851Y-83694223D02*
X81810946Y-83732318D01*
X81810946Y-83732318D02*
X81849041Y-83808509D01*
X81849041Y-83808509D02*
X81849041Y-83998985D01*
X81849041Y-83998985D02*
X81810946Y-84075175D01*
X81810946Y-84075175D02*
X81772851Y-84113271D01*
X81772851Y-84113271D02*
X81696660Y-84151366D01*
X81696660Y-84151366D02*
X81506184Y-84151366D01*
X81506184Y-84151366D02*
X81429994Y-84113271D01*
X81429994Y-84113271D02*
X81391898Y-84075175D01*
X60322698Y-93601166D02*
X60817936Y-93601166D01*
X60817936Y-93601166D02*
X60551270Y-93905928D01*
X60551270Y-93905928D02*
X60665555Y-93905928D01*
X60665555Y-93905928D02*
X60741746Y-93944023D01*
X60741746Y-93944023D02*
X60779841Y-93982118D01*
X60779841Y-93982118D02*
X60817936Y-94058309D01*
X60817936Y-94058309D02*
X60817936Y-94248785D01*
X60817936Y-94248785D02*
X60779841Y-94324975D01*
X60779841Y-94324975D02*
X60741746Y-94363071D01*
X60741746Y-94363071D02*
X60665555Y-94401166D01*
X60665555Y-94401166D02*
X60436984Y-94401166D01*
X60436984Y-94401166D02*
X60360793Y-94363071D01*
X60360793Y-94363071D02*
X60322698Y-94324975D01*
X61503651Y-93601166D02*
X61351270Y-93601166D01*
X61351270Y-93601166D02*
X61275079Y-93639261D01*
X61275079Y-93639261D02*
X61236984Y-93677356D01*
X61236984Y-93677356D02*
X61160794Y-93791642D01*
X61160794Y-93791642D02*
X61122698Y-93944023D01*
X61122698Y-93944023D02*
X61122698Y-94248785D01*
X61122698Y-94248785D02*
X61160794Y-94324975D01*
X61160794Y-94324975D02*
X61198889Y-94363071D01*
X61198889Y-94363071D02*
X61275079Y-94401166D01*
X61275079Y-94401166D02*
X61427460Y-94401166D01*
X61427460Y-94401166D02*
X61503651Y-94363071D01*
X61503651Y-94363071D02*
X61541746Y-94324975D01*
X61541746Y-94324975D02*
X61579841Y-94248785D01*
X61579841Y-94248785D02*
X61579841Y-94058309D01*
X61579841Y-94058309D02*
X61541746Y-93982118D01*
X61541746Y-93982118D02*
X61503651Y-93944023D01*
X61503651Y-93944023D02*
X61427460Y-93905928D01*
X61427460Y-93905928D02*
X61275079Y-93905928D01*
X61275079Y-93905928D02*
X61198889Y-93944023D01*
X61198889Y-93944023D02*
X61160794Y-93982118D01*
X61160794Y-93982118D02*
X61122698Y-94058309D01*
X83296993Y-91188156D02*
X83335089Y-91150061D01*
X83335089Y-91150061D02*
X83411279Y-91111966D01*
X83411279Y-91111966D02*
X83601755Y-91111966D01*
X83601755Y-91111966D02*
X83677946Y-91150061D01*
X83677946Y-91150061D02*
X83716041Y-91188156D01*
X83716041Y-91188156D02*
X83754136Y-91264347D01*
X83754136Y-91264347D02*
X83754136Y-91340537D01*
X83754136Y-91340537D02*
X83716041Y-91454823D01*
X83716041Y-91454823D02*
X83258898Y-91911966D01*
X83258898Y-91911966D02*
X83754136Y-91911966D01*
X84249375Y-91111966D02*
X84325565Y-91111966D01*
X84325565Y-91111966D02*
X84401756Y-91150061D01*
X84401756Y-91150061D02*
X84439851Y-91188156D01*
X84439851Y-91188156D02*
X84477946Y-91264347D01*
X84477946Y-91264347D02*
X84516041Y-91416728D01*
X84516041Y-91416728D02*
X84516041Y-91607204D01*
X84516041Y-91607204D02*
X84477946Y-91759585D01*
X84477946Y-91759585D02*
X84439851Y-91835775D01*
X84439851Y-91835775D02*
X84401756Y-91873871D01*
X84401756Y-91873871D02*
X84325565Y-91911966D01*
X84325565Y-91911966D02*
X84249375Y-91911966D01*
X84249375Y-91911966D02*
X84173184Y-91873871D01*
X84173184Y-91873871D02*
X84135089Y-91835775D01*
X84135089Y-91835775D02*
X84096994Y-91759585D01*
X84096994Y-91759585D02*
X84058898Y-91607204D01*
X84058898Y-91607204D02*
X84058898Y-91416728D01*
X84058898Y-91416728D02*
X84096994Y-91264347D01*
X84096994Y-91264347D02*
X84135089Y-91188156D01*
X84135089Y-91188156D02*
X84173184Y-91150061D01*
X84173184Y-91150061D02*
X84249375Y-91111966D01*
X83582708Y-114352918D02*
X83696994Y-114391013D01*
X83696994Y-114391013D02*
X83735089Y-114429109D01*
X83735089Y-114429109D02*
X83773185Y-114505299D01*
X83773185Y-114505299D02*
X83773185Y-114619585D01*
X83773185Y-114619585D02*
X83735089Y-114695775D01*
X83735089Y-114695775D02*
X83696994Y-114733871D01*
X83696994Y-114733871D02*
X83620804Y-114771966D01*
X83620804Y-114771966D02*
X83316042Y-114771966D01*
X83316042Y-114771966D02*
X83316042Y-113971966D01*
X83316042Y-113971966D02*
X83582708Y-113971966D01*
X83582708Y-113971966D02*
X83658899Y-114010061D01*
X83658899Y-114010061D02*
X83696994Y-114048156D01*
X83696994Y-114048156D02*
X83735089Y-114124347D01*
X83735089Y-114124347D02*
X83735089Y-114200537D01*
X83735089Y-114200537D02*
X83696994Y-114276728D01*
X83696994Y-114276728D02*
X83658899Y-114314823D01*
X83658899Y-114314823D02*
X83582708Y-114352918D01*
X83582708Y-114352918D02*
X83316042Y-114352918D01*
X84458899Y-114238632D02*
X84458899Y-114771966D01*
X84268423Y-113933871D02*
X84077946Y-114505299D01*
X84077946Y-114505299D02*
X84573185Y-114505299D01*
X83481108Y-109145918D02*
X83595394Y-109184013D01*
X83595394Y-109184013D02*
X83633489Y-109222109D01*
X83633489Y-109222109D02*
X83671585Y-109298299D01*
X83671585Y-109298299D02*
X83671585Y-109412585D01*
X83671585Y-109412585D02*
X83633489Y-109488775D01*
X83633489Y-109488775D02*
X83595394Y-109526871D01*
X83595394Y-109526871D02*
X83519204Y-109564966D01*
X83519204Y-109564966D02*
X83214442Y-109564966D01*
X83214442Y-109564966D02*
X83214442Y-108764966D01*
X83214442Y-108764966D02*
X83481108Y-108764966D01*
X83481108Y-108764966D02*
X83557299Y-108803061D01*
X83557299Y-108803061D02*
X83595394Y-108841156D01*
X83595394Y-108841156D02*
X83633489Y-108917347D01*
X83633489Y-108917347D02*
X83633489Y-108993537D01*
X83633489Y-108993537D02*
X83595394Y-109069728D01*
X83595394Y-109069728D02*
X83557299Y-109107823D01*
X83557299Y-109107823D02*
X83481108Y-109145918D01*
X83481108Y-109145918D02*
X83214442Y-109145918D01*
X83976346Y-108841156D02*
X84014442Y-108803061D01*
X84014442Y-108803061D02*
X84090632Y-108764966D01*
X84090632Y-108764966D02*
X84281108Y-108764966D01*
X84281108Y-108764966D02*
X84357299Y-108803061D01*
X84357299Y-108803061D02*
X84395394Y-108841156D01*
X84395394Y-108841156D02*
X84433489Y-108917347D01*
X84433489Y-108917347D02*
X84433489Y-108993537D01*
X84433489Y-108993537D02*
X84395394Y-109107823D01*
X84395394Y-109107823D02*
X83938251Y-109564966D01*
X83938251Y-109564966D02*
X84433489Y-109564966D01*
X82966822Y-119026566D02*
X83462060Y-119026566D01*
X83462060Y-119026566D02*
X83195394Y-119331328D01*
X83195394Y-119331328D02*
X83309679Y-119331328D01*
X83309679Y-119331328D02*
X83385870Y-119369423D01*
X83385870Y-119369423D02*
X83423965Y-119407518D01*
X83423965Y-119407518D02*
X83462060Y-119483709D01*
X83462060Y-119483709D02*
X83462060Y-119674185D01*
X83462060Y-119674185D02*
X83423965Y-119750375D01*
X83423965Y-119750375D02*
X83385870Y-119788471D01*
X83385870Y-119788471D02*
X83309679Y-119826566D01*
X83309679Y-119826566D02*
X83081108Y-119826566D01*
X83081108Y-119826566D02*
X83004917Y-119788471D01*
X83004917Y-119788471D02*
X82966822Y-119750375D01*
X83804918Y-119750375D02*
X83843013Y-119788471D01*
X83843013Y-119788471D02*
X83804918Y-119826566D01*
X83804918Y-119826566D02*
X83766822Y-119788471D01*
X83766822Y-119788471D02*
X83804918Y-119750375D01*
X83804918Y-119750375D02*
X83804918Y-119826566D01*
X84109679Y-119026566D02*
X84604917Y-119026566D01*
X84604917Y-119026566D02*
X84338251Y-119331328D01*
X84338251Y-119331328D02*
X84452536Y-119331328D01*
X84452536Y-119331328D02*
X84528727Y-119369423D01*
X84528727Y-119369423D02*
X84566822Y-119407518D01*
X84566822Y-119407518D02*
X84604917Y-119483709D01*
X84604917Y-119483709D02*
X84604917Y-119674185D01*
X84604917Y-119674185D02*
X84566822Y-119750375D01*
X84566822Y-119750375D02*
X84528727Y-119788471D01*
X84528727Y-119788471D02*
X84452536Y-119826566D01*
X84452536Y-119826566D02*
X84223965Y-119826566D01*
X84223965Y-119826566D02*
X84147774Y-119788471D01*
X84147774Y-119788471D02*
X84109679Y-119750375D01*
X64918013Y-114367642D02*
X64384679Y-114367642D01*
X64118013Y-114367642D02*
X64156108Y-114403356D01*
X64156108Y-114403356D02*
X64194203Y-114367642D01*
X64194203Y-114367642D02*
X64156108Y-114331928D01*
X64156108Y-114331928D02*
X64118013Y-114367642D01*
X64118013Y-114367642D02*
X64194203Y-114367642D01*
X64841822Y-113581928D02*
X64879918Y-113617642D01*
X64879918Y-113617642D02*
X64918013Y-113724785D01*
X64918013Y-113724785D02*
X64918013Y-113796213D01*
X64918013Y-113796213D02*
X64879918Y-113903356D01*
X64879918Y-113903356D02*
X64803727Y-113974785D01*
X64803727Y-113974785D02*
X64727537Y-114010499D01*
X64727537Y-114010499D02*
X64575156Y-114046213D01*
X64575156Y-114046213D02*
X64460870Y-114046213D01*
X64460870Y-114046213D02*
X64308489Y-114010499D01*
X64308489Y-114010499D02*
X64232298Y-113974785D01*
X64232298Y-113974785D02*
X64156108Y-113903356D01*
X64156108Y-113903356D02*
X64118013Y-113796213D01*
X64118013Y-113796213D02*
X64118013Y-113724785D01*
X64118013Y-113724785D02*
X64156108Y-113617642D01*
X64156108Y-113617642D02*
X64194203Y-113581928D01*
X64498965Y-113260499D02*
X64498965Y-113010499D01*
X64918013Y-112903356D02*
X64918013Y-113260499D01*
X64918013Y-113260499D02*
X64118013Y-113260499D01*
X64118013Y-113260499D02*
X64118013Y-112903356D01*
X64918013Y-112010499D02*
X64118013Y-112010499D01*
X64118013Y-112010499D02*
X64118013Y-111724785D01*
X64118013Y-111724785D02*
X64156108Y-111653356D01*
X64156108Y-111653356D02*
X64194203Y-111617642D01*
X64194203Y-111617642D02*
X64270394Y-111581928D01*
X64270394Y-111581928D02*
X64384679Y-111581928D01*
X64384679Y-111581928D02*
X64460870Y-111617642D01*
X64460870Y-111617642D02*
X64498965Y-111653356D01*
X64498965Y-111653356D02*
X64537060Y-111724785D01*
X64537060Y-111724785D02*
X64537060Y-112010499D01*
X64918013Y-111260499D02*
X64118013Y-111260499D01*
X64118013Y-111260499D02*
X64689441Y-111010499D01*
X64689441Y-111010499D02*
X64118013Y-110760499D01*
X64118013Y-110760499D02*
X64918013Y-110760499D01*
X64118013Y-110260499D02*
X64118013Y-110117642D01*
X64118013Y-110117642D02*
X64156108Y-110046213D01*
X64156108Y-110046213D02*
X64232298Y-109974785D01*
X64232298Y-109974785D02*
X64384679Y-109939070D01*
X64384679Y-109939070D02*
X64651346Y-109939070D01*
X64651346Y-109939070D02*
X64803727Y-109974785D01*
X64803727Y-109974785D02*
X64879918Y-110046213D01*
X64879918Y-110046213D02*
X64918013Y-110117642D01*
X64918013Y-110117642D02*
X64918013Y-110260499D01*
X64918013Y-110260499D02*
X64879918Y-110331928D01*
X64879918Y-110331928D02*
X64803727Y-110403356D01*
X64803727Y-110403356D02*
X64651346Y-110439070D01*
X64651346Y-110439070D02*
X64384679Y-110439070D01*
X64384679Y-110439070D02*
X64232298Y-110403356D01*
X64232298Y-110403356D02*
X64156108Y-110331928D01*
X64156108Y-110331928D02*
X64118013Y-110260499D01*
X64918013Y-109617642D02*
X64118013Y-109617642D01*
X64118013Y-109617642D02*
X64118013Y-109439071D01*
X64118013Y-109439071D02*
X64156108Y-109331928D01*
X64156108Y-109331928D02*
X64232298Y-109260499D01*
X64232298Y-109260499D02*
X64308489Y-109224785D01*
X64308489Y-109224785D02*
X64460870Y-109189071D01*
X64460870Y-109189071D02*
X64575156Y-109189071D01*
X64575156Y-109189071D02*
X64727537Y-109224785D01*
X64727537Y-109224785D02*
X64803727Y-109260499D01*
X64803727Y-109260499D02*
X64879918Y-109331928D01*
X64879918Y-109331928D02*
X64918013Y-109439071D01*
X64918013Y-109439071D02*
X64918013Y-109617642D01*
X64689441Y-108331927D02*
X64689441Y-107974785D01*
X64918013Y-108403356D02*
X64118013Y-108153356D01*
X64118013Y-108153356D02*
X64918013Y-107903356D01*
X80649041Y-101767204D02*
X80687136Y-101729109D01*
X80687136Y-101729109D02*
X80763327Y-101691013D01*
X80763327Y-101691013D02*
X80915708Y-101767204D01*
X80915708Y-101767204D02*
X80991898Y-101729109D01*
X80991898Y-101729109D02*
X81029993Y-101691013D01*
X81753803Y-102071966D02*
X81296660Y-102071966D01*
X81525232Y-102071966D02*
X81525232Y-101271966D01*
X81525232Y-101271966D02*
X81449041Y-101386251D01*
X81449041Y-101386251D02*
X81372851Y-101462442D01*
X81372851Y-101462442D02*
X81296660Y-101500537D01*
X83481108Y-111787518D02*
X83595394Y-111825613D01*
X83595394Y-111825613D02*
X83633489Y-111863709D01*
X83633489Y-111863709D02*
X83671585Y-111939899D01*
X83671585Y-111939899D02*
X83671585Y-112054185D01*
X83671585Y-112054185D02*
X83633489Y-112130375D01*
X83633489Y-112130375D02*
X83595394Y-112168471D01*
X83595394Y-112168471D02*
X83519204Y-112206566D01*
X83519204Y-112206566D02*
X83214442Y-112206566D01*
X83214442Y-112206566D02*
X83214442Y-111406566D01*
X83214442Y-111406566D02*
X83481108Y-111406566D01*
X83481108Y-111406566D02*
X83557299Y-111444661D01*
X83557299Y-111444661D02*
X83595394Y-111482756D01*
X83595394Y-111482756D02*
X83633489Y-111558947D01*
X83633489Y-111558947D02*
X83633489Y-111635137D01*
X83633489Y-111635137D02*
X83595394Y-111711328D01*
X83595394Y-111711328D02*
X83557299Y-111749423D01*
X83557299Y-111749423D02*
X83481108Y-111787518D01*
X83481108Y-111787518D02*
X83214442Y-111787518D01*
X83938251Y-111406566D02*
X84433489Y-111406566D01*
X84433489Y-111406566D02*
X84166823Y-111711328D01*
X84166823Y-111711328D02*
X84281108Y-111711328D01*
X84281108Y-111711328D02*
X84357299Y-111749423D01*
X84357299Y-111749423D02*
X84395394Y-111787518D01*
X84395394Y-111787518D02*
X84433489Y-111863709D01*
X84433489Y-111863709D02*
X84433489Y-112054185D01*
X84433489Y-112054185D02*
X84395394Y-112130375D01*
X84395394Y-112130375D02*
X84357299Y-112168471D01*
X84357299Y-112168471D02*
X84281108Y-112206566D01*
X84281108Y-112206566D02*
X84052537Y-112206566D01*
X84052537Y-112206566D02*
X83976346Y-112168471D01*
X83976346Y-112168471D02*
X83938251Y-112130375D01*
D13*
X67431909Y-85574623D02*
X67431909Y-86574623D01*
X67431909Y-85622242D02*
X67527147Y-85574623D01*
X67527147Y-85574623D02*
X67717623Y-85574623D01*
X67717623Y-85574623D02*
X67812861Y-85622242D01*
X67812861Y-85622242D02*
X67860480Y-85669861D01*
X67860480Y-85669861D02*
X67908099Y-85765099D01*
X67908099Y-85765099D02*
X67908099Y-86050813D01*
X67908099Y-86050813D02*
X67860480Y-86146051D01*
X67860480Y-86146051D02*
X67812861Y-86193671D01*
X67812861Y-86193671D02*
X67717623Y-86241290D01*
X67717623Y-86241290D02*
X67527147Y-86241290D01*
X67527147Y-86241290D02*
X67431909Y-86193671D01*
X68336671Y-86241290D02*
X68336671Y-85574623D01*
X68336671Y-85241290D02*
X68289052Y-85288909D01*
X68289052Y-85288909D02*
X68336671Y-85336528D01*
X68336671Y-85336528D02*
X68384290Y-85288909D01*
X68384290Y-85288909D02*
X68336671Y-85241290D01*
X68336671Y-85241290D02*
X68336671Y-85336528D01*
X69241432Y-86193671D02*
X69146194Y-86241290D01*
X69146194Y-86241290D02*
X68955718Y-86241290D01*
X68955718Y-86241290D02*
X68860480Y-86193671D01*
X68860480Y-86193671D02*
X68812861Y-86146051D01*
X68812861Y-86146051D02*
X68765242Y-86050813D01*
X68765242Y-86050813D02*
X68765242Y-85765099D01*
X68765242Y-85765099D02*
X68812861Y-85669861D01*
X68812861Y-85669861D02*
X68860480Y-85622242D01*
X68860480Y-85622242D02*
X68955718Y-85574623D01*
X68955718Y-85574623D02*
X69146194Y-85574623D01*
X69146194Y-85574623D02*
X69241432Y-85622242D01*
X69812861Y-86241290D02*
X69717623Y-86193671D01*
X69717623Y-86193671D02*
X69670004Y-86146051D01*
X69670004Y-86146051D02*
X69622385Y-86050813D01*
X69622385Y-86050813D02*
X69622385Y-85765099D01*
X69622385Y-85765099D02*
X69670004Y-85669861D01*
X69670004Y-85669861D02*
X69717623Y-85622242D01*
X69717623Y-85622242D02*
X69812861Y-85574623D01*
X69812861Y-85574623D02*
X69955718Y-85574623D01*
X69955718Y-85574623D02*
X70050956Y-85622242D01*
X70050956Y-85622242D02*
X70098575Y-85669861D01*
X70098575Y-85669861D02*
X70146194Y-85765099D01*
X70146194Y-85765099D02*
X70146194Y-86050813D01*
X70146194Y-86050813D02*
X70098575Y-86146051D01*
X70098575Y-86146051D02*
X70050956Y-86193671D01*
X70050956Y-86193671D02*
X69955718Y-86241290D01*
X69955718Y-86241290D02*
X69812861Y-86241290D01*
X70527147Y-85336528D02*
X70574766Y-85288909D01*
X70574766Y-85288909D02*
X70670004Y-85241290D01*
X70670004Y-85241290D02*
X70908099Y-85241290D01*
X70908099Y-85241290D02*
X71003337Y-85288909D01*
X71003337Y-85288909D02*
X71050956Y-85336528D01*
X71050956Y-85336528D02*
X71098575Y-85431766D01*
X71098575Y-85431766D02*
X71098575Y-85527004D01*
X71098575Y-85527004D02*
X71050956Y-85669861D01*
X71050956Y-85669861D02*
X70479528Y-86241290D01*
X70479528Y-86241290D02*
X71098575Y-86241290D01*
X71527147Y-85860337D02*
X72289052Y-85860337D01*
X72765242Y-86241290D02*
X72765242Y-85574623D01*
X72765242Y-85241290D02*
X72717623Y-85288909D01*
X72717623Y-85288909D02*
X72765242Y-85336528D01*
X72765242Y-85336528D02*
X72812861Y-85288909D01*
X72812861Y-85288909D02*
X72765242Y-85241290D01*
X72765242Y-85241290D02*
X72765242Y-85336528D01*
X73670003Y-86193671D02*
X73574765Y-86241290D01*
X73574765Y-86241290D02*
X73384289Y-86241290D01*
X73384289Y-86241290D02*
X73289051Y-86193671D01*
X73289051Y-86193671D02*
X73241432Y-86146051D01*
X73241432Y-86146051D02*
X73193813Y-86050813D01*
X73193813Y-86050813D02*
X73193813Y-85765099D01*
X73193813Y-85765099D02*
X73241432Y-85669861D01*
X73241432Y-85669861D02*
X73289051Y-85622242D01*
X73289051Y-85622242D02*
X73384289Y-85574623D01*
X73384289Y-85574623D02*
X73574765Y-85574623D01*
X73574765Y-85574623D02*
X73670003Y-85622242D01*
X74479527Y-86193671D02*
X74384289Y-86241290D01*
X74384289Y-86241290D02*
X74193813Y-86241290D01*
X74193813Y-86241290D02*
X74098575Y-86193671D01*
X74098575Y-86193671D02*
X74050956Y-86098432D01*
X74050956Y-86098432D02*
X74050956Y-85717480D01*
X74050956Y-85717480D02*
X74098575Y-85622242D01*
X74098575Y-85622242D02*
X74193813Y-85574623D01*
X74193813Y-85574623D02*
X74384289Y-85574623D01*
X74384289Y-85574623D02*
X74479527Y-85622242D01*
X74479527Y-85622242D02*
X74527146Y-85717480D01*
X74527146Y-85717480D02*
X74527146Y-85812718D01*
X74527146Y-85812718D02*
X74050956Y-85907956D01*
D11*
X83173185Y-96245704D02*
X83606518Y-96245704D01*
X83606518Y-96245704D02*
X83373185Y-96512371D01*
X83373185Y-96512371D02*
X83473185Y-96512371D01*
X83473185Y-96512371D02*
X83539851Y-96545704D01*
X83539851Y-96545704D02*
X83573185Y-96579037D01*
X83573185Y-96579037D02*
X83606518Y-96645704D01*
X83606518Y-96645704D02*
X83606518Y-96812371D01*
X83606518Y-96812371D02*
X83573185Y-96879037D01*
X83573185Y-96879037D02*
X83539851Y-96912371D01*
X83539851Y-96912371D02*
X83473185Y-96945704D01*
X83473185Y-96945704D02*
X83273185Y-96945704D01*
X83273185Y-96945704D02*
X83206518Y-96912371D01*
X83206518Y-96912371D02*
X83173185Y-96879037D01*
X83906518Y-96879037D02*
X83939852Y-96912371D01*
X83939852Y-96912371D02*
X83906518Y-96945704D01*
X83906518Y-96945704D02*
X83873185Y-96912371D01*
X83873185Y-96912371D02*
X83906518Y-96879037D01*
X83906518Y-96879037D02*
X83906518Y-96945704D01*
X84173185Y-96245704D02*
X84606518Y-96245704D01*
X84606518Y-96245704D02*
X84373185Y-96512371D01*
X84373185Y-96512371D02*
X84473185Y-96512371D01*
X84473185Y-96512371D02*
X84539851Y-96545704D01*
X84539851Y-96545704D02*
X84573185Y-96579037D01*
X84573185Y-96579037D02*
X84606518Y-96645704D01*
X84606518Y-96645704D02*
X84606518Y-96812371D01*
X84606518Y-96812371D02*
X84573185Y-96879037D01*
X84573185Y-96879037D02*
X84539851Y-96912371D01*
X84539851Y-96912371D02*
X84473185Y-96945704D01*
X84473185Y-96945704D02*
X84273185Y-96945704D01*
X84273185Y-96945704D02*
X84206518Y-96912371D01*
X84206518Y-96912371D02*
X84173185Y-96879037D01*
X83296993Y-88648156D02*
X83335089Y-88610061D01*
X83335089Y-88610061D02*
X83411279Y-88571966D01*
X83411279Y-88571966D02*
X83601755Y-88571966D01*
X83601755Y-88571966D02*
X83677946Y-88610061D01*
X83677946Y-88610061D02*
X83716041Y-88648156D01*
X83716041Y-88648156D02*
X83754136Y-88724347D01*
X83754136Y-88724347D02*
X83754136Y-88800537D01*
X83754136Y-88800537D02*
X83716041Y-88914823D01*
X83716041Y-88914823D02*
X83258898Y-89371966D01*
X83258898Y-89371966D02*
X83754136Y-89371966D01*
X84439851Y-88571966D02*
X84287470Y-88571966D01*
X84287470Y-88571966D02*
X84211279Y-88610061D01*
X84211279Y-88610061D02*
X84173184Y-88648156D01*
X84173184Y-88648156D02*
X84096994Y-88762442D01*
X84096994Y-88762442D02*
X84058898Y-88914823D01*
X84058898Y-88914823D02*
X84058898Y-89219585D01*
X84058898Y-89219585D02*
X84096994Y-89295775D01*
X84096994Y-89295775D02*
X84135089Y-89333871D01*
X84135089Y-89333871D02*
X84211279Y-89371966D01*
X84211279Y-89371966D02*
X84363660Y-89371966D01*
X84363660Y-89371966D02*
X84439851Y-89333871D01*
X84439851Y-89333871D02*
X84477946Y-89295775D01*
X84477946Y-89295775D02*
X84516041Y-89219585D01*
X84516041Y-89219585D02*
X84516041Y-89029109D01*
X84516041Y-89029109D02*
X84477946Y-88952918D01*
X84477946Y-88952918D02*
X84439851Y-88914823D01*
X84439851Y-88914823D02*
X84363660Y-88876728D01*
X84363660Y-88876728D02*
X84211279Y-88876728D01*
X84211279Y-88876728D02*
X84135089Y-88914823D01*
X84135089Y-88914823D02*
X84096994Y-88952918D01*
X84096994Y-88952918D02*
X84058898Y-89029109D01*
X63103937Y-104434166D02*
X63256318Y-104434166D01*
X63256318Y-104434166D02*
X63332508Y-104396071D01*
X63332508Y-104396071D02*
X63370604Y-104357975D01*
X63370604Y-104357975D02*
X63446794Y-104243690D01*
X63446794Y-104243690D02*
X63484889Y-104091309D01*
X63484889Y-104091309D02*
X63484889Y-103786547D01*
X63484889Y-103786547D02*
X63446794Y-103710356D01*
X63446794Y-103710356D02*
X63408699Y-103672261D01*
X63408699Y-103672261D02*
X63332508Y-103634166D01*
X63332508Y-103634166D02*
X63180127Y-103634166D01*
X63180127Y-103634166D02*
X63103937Y-103672261D01*
X63103937Y-103672261D02*
X63065842Y-103710356D01*
X63065842Y-103710356D02*
X63027746Y-103786547D01*
X63027746Y-103786547D02*
X63027746Y-103977023D01*
X63027746Y-103977023D02*
X63065842Y-104053213D01*
X63065842Y-104053213D02*
X63103937Y-104091309D01*
X63103937Y-104091309D02*
X63180127Y-104129404D01*
X63180127Y-104129404D02*
X63332508Y-104129404D01*
X63332508Y-104129404D02*
X63408699Y-104091309D01*
X63408699Y-104091309D02*
X63446794Y-104053213D01*
X63446794Y-104053213D02*
X63484889Y-103977023D01*
X60236985Y-83469504D02*
X60670318Y-83469504D01*
X60670318Y-83469504D02*
X60436985Y-83736171D01*
X60436985Y-83736171D02*
X60536985Y-83736171D01*
X60536985Y-83736171D02*
X60603651Y-83769504D01*
X60603651Y-83769504D02*
X60636985Y-83802837D01*
X60636985Y-83802837D02*
X60670318Y-83869504D01*
X60670318Y-83869504D02*
X60670318Y-84036171D01*
X60670318Y-84036171D02*
X60636985Y-84102837D01*
X60636985Y-84102837D02*
X60603651Y-84136171D01*
X60603651Y-84136171D02*
X60536985Y-84169504D01*
X60536985Y-84169504D02*
X60336985Y-84169504D01*
X60336985Y-84169504D02*
X60270318Y-84136171D01*
X60270318Y-84136171D02*
X60236985Y-84102837D01*
X60970318Y-84102837D02*
X61003652Y-84136171D01*
X61003652Y-84136171D02*
X60970318Y-84169504D01*
X60970318Y-84169504D02*
X60936985Y-84136171D01*
X60936985Y-84136171D02*
X60970318Y-84102837D01*
X60970318Y-84102837D02*
X60970318Y-84169504D01*
X61236985Y-83469504D02*
X61670318Y-83469504D01*
X61670318Y-83469504D02*
X61436985Y-83736171D01*
X61436985Y-83736171D02*
X61536985Y-83736171D01*
X61536985Y-83736171D02*
X61603651Y-83769504D01*
X61603651Y-83769504D02*
X61636985Y-83802837D01*
X61636985Y-83802837D02*
X61670318Y-83869504D01*
X61670318Y-83869504D02*
X61670318Y-84036171D01*
X61670318Y-84036171D02*
X61636985Y-84102837D01*
X61636985Y-84102837D02*
X61603651Y-84136171D01*
X61603651Y-84136171D02*
X61536985Y-84169504D01*
X61536985Y-84169504D02*
X61336985Y-84169504D01*
X61336985Y-84169504D02*
X61270318Y-84136171D01*
X61270318Y-84136171D02*
X61236985Y-84102837D01*
X60252841Y-127294204D02*
X60290936Y-127256109D01*
X60290936Y-127256109D02*
X60367127Y-127218013D01*
X60367127Y-127218013D02*
X60519508Y-127294204D01*
X60519508Y-127294204D02*
X60595698Y-127256109D01*
X60595698Y-127256109D02*
X60633793Y-127218013D01*
X60862365Y-126798966D02*
X61395699Y-126798966D01*
X61395699Y-126798966D02*
X61052841Y-127598966D01*
X60227470Y-106250366D02*
X60494137Y-107050366D01*
X60494137Y-107050366D02*
X60760803Y-106250366D01*
X61027470Y-107050366D02*
X61027470Y-106517032D01*
X61027470Y-106250366D02*
X60989374Y-106288461D01*
X60989374Y-106288461D02*
X61027470Y-106326556D01*
X61027470Y-106326556D02*
X61065565Y-106288461D01*
X61065565Y-106288461D02*
X61027470Y-106250366D01*
X61027470Y-106250366D02*
X61027470Y-106326556D01*
X61522707Y-107050366D02*
X61446517Y-107012271D01*
X61446517Y-107012271D02*
X61408422Y-106974175D01*
X61408422Y-106974175D02*
X61370326Y-106897985D01*
X61370326Y-106897985D02*
X61370326Y-106669413D01*
X61370326Y-106669413D02*
X61408422Y-106593223D01*
X61408422Y-106593223D02*
X61446517Y-106555128D01*
X61446517Y-106555128D02*
X61522707Y-106517032D01*
X61522707Y-106517032D02*
X61636993Y-106517032D01*
X61636993Y-106517032D02*
X61713184Y-106555128D01*
X61713184Y-106555128D02*
X61751279Y-106593223D01*
X61751279Y-106593223D02*
X61789374Y-106669413D01*
X61789374Y-106669413D02*
X61789374Y-106897985D01*
X61789374Y-106897985D02*
X61751279Y-106974175D01*
X61751279Y-106974175D02*
X61713184Y-107012271D01*
X61713184Y-107012271D02*
X61636993Y-107050366D01*
X61636993Y-107050366D02*
X61522707Y-107050366D01*
X80198193Y-79097671D02*
X80312479Y-79135766D01*
X80312479Y-79135766D02*
X80502955Y-79135766D01*
X80502955Y-79135766D02*
X80579146Y-79097671D01*
X80579146Y-79097671D02*
X80617241Y-79059575D01*
X80617241Y-79059575D02*
X80655336Y-78983385D01*
X80655336Y-78983385D02*
X80655336Y-78907194D01*
X80655336Y-78907194D02*
X80617241Y-78831004D01*
X80617241Y-78831004D02*
X80579146Y-78792909D01*
X80579146Y-78792909D02*
X80502955Y-78754813D01*
X80502955Y-78754813D02*
X80350574Y-78716718D01*
X80350574Y-78716718D02*
X80274384Y-78678623D01*
X80274384Y-78678623D02*
X80236289Y-78640528D01*
X80236289Y-78640528D02*
X80198193Y-78564337D01*
X80198193Y-78564337D02*
X80198193Y-78488147D01*
X80198193Y-78488147D02*
X80236289Y-78411956D01*
X80236289Y-78411956D02*
X80274384Y-78373861D01*
X80274384Y-78373861D02*
X80350574Y-78335766D01*
X80350574Y-78335766D02*
X80541051Y-78335766D01*
X80541051Y-78335766D02*
X80655336Y-78373861D01*
X80960098Y-79097671D02*
X81074384Y-79135766D01*
X81074384Y-79135766D02*
X81264860Y-79135766D01*
X81264860Y-79135766D02*
X81341051Y-79097671D01*
X81341051Y-79097671D02*
X81379146Y-79059575D01*
X81379146Y-79059575D02*
X81417241Y-78983385D01*
X81417241Y-78983385D02*
X81417241Y-78907194D01*
X81417241Y-78907194D02*
X81379146Y-78831004D01*
X81379146Y-78831004D02*
X81341051Y-78792909D01*
X81341051Y-78792909D02*
X81264860Y-78754813D01*
X81264860Y-78754813D02*
X81112479Y-78716718D01*
X81112479Y-78716718D02*
X81036289Y-78678623D01*
X81036289Y-78678623D02*
X80998194Y-78640528D01*
X80998194Y-78640528D02*
X80960098Y-78564337D01*
X80960098Y-78564337D02*
X80960098Y-78488147D01*
X80960098Y-78488147D02*
X80998194Y-78411956D01*
X80998194Y-78411956D02*
X81036289Y-78373861D01*
X81036289Y-78373861D02*
X81112479Y-78335766D01*
X81112479Y-78335766D02*
X81302956Y-78335766D01*
X81302956Y-78335766D02*
X81417241Y-78373861D01*
X80125813Y-78113671D02*
X81489623Y-78113671D01*
X60265546Y-124792271D02*
X60379832Y-124830366D01*
X60379832Y-124830366D02*
X60570308Y-124830366D01*
X60570308Y-124830366D02*
X60646499Y-124792271D01*
X60646499Y-124792271D02*
X60684594Y-124754175D01*
X60684594Y-124754175D02*
X60722689Y-124677985D01*
X60722689Y-124677985D02*
X60722689Y-124601794D01*
X60722689Y-124601794D02*
X60684594Y-124525604D01*
X60684594Y-124525604D02*
X60646499Y-124487509D01*
X60646499Y-124487509D02*
X60570308Y-124449413D01*
X60570308Y-124449413D02*
X60417927Y-124411318D01*
X60417927Y-124411318D02*
X60341737Y-124373223D01*
X60341737Y-124373223D02*
X60303642Y-124335128D01*
X60303642Y-124335128D02*
X60265546Y-124258937D01*
X60265546Y-124258937D02*
X60265546Y-124182747D01*
X60265546Y-124182747D02*
X60303642Y-124106556D01*
X60303642Y-124106556D02*
X60341737Y-124068461D01*
X60341737Y-124068461D02*
X60417927Y-124030366D01*
X60417927Y-124030366D02*
X60608404Y-124030366D01*
X60608404Y-124030366D02*
X60722689Y-124068461D01*
X61522690Y-124754175D02*
X61484594Y-124792271D01*
X61484594Y-124792271D02*
X61370309Y-124830366D01*
X61370309Y-124830366D02*
X61294118Y-124830366D01*
X61294118Y-124830366D02*
X61179832Y-124792271D01*
X61179832Y-124792271D02*
X61103642Y-124716080D01*
X61103642Y-124716080D02*
X61065547Y-124639890D01*
X61065547Y-124639890D02*
X61027451Y-124487509D01*
X61027451Y-124487509D02*
X61027451Y-124373223D01*
X61027451Y-124373223D02*
X61065547Y-124220842D01*
X61065547Y-124220842D02*
X61103642Y-124144651D01*
X61103642Y-124144651D02*
X61179832Y-124068461D01*
X61179832Y-124068461D02*
X61294118Y-124030366D01*
X61294118Y-124030366D02*
X61370309Y-124030366D01*
X61370309Y-124030366D02*
X61484594Y-124068461D01*
X61484594Y-124068461D02*
X61522690Y-124106556D01*
X79179836Y-114841451D02*
X78798883Y-115108118D01*
X79179836Y-115298594D02*
X78379836Y-115298594D01*
X78379836Y-115298594D02*
X78379836Y-114993832D01*
X78379836Y-114993832D02*
X78417931Y-114917642D01*
X78417931Y-114917642D02*
X78456026Y-114879547D01*
X78456026Y-114879547D02*
X78532217Y-114841451D01*
X78532217Y-114841451D02*
X78646502Y-114841451D01*
X78646502Y-114841451D02*
X78722693Y-114879547D01*
X78722693Y-114879547D02*
X78760788Y-114917642D01*
X78760788Y-114917642D02*
X78798883Y-114993832D01*
X78798883Y-114993832D02*
X78798883Y-115298594D01*
X79179836Y-114498594D02*
X78379836Y-114498594D01*
X78379836Y-114498594D02*
X78379836Y-114193832D01*
X78379836Y-114193832D02*
X78417931Y-114117642D01*
X78417931Y-114117642D02*
X78456026Y-114079547D01*
X78456026Y-114079547D02*
X78532217Y-114041451D01*
X78532217Y-114041451D02*
X78646502Y-114041451D01*
X78646502Y-114041451D02*
X78722693Y-114079547D01*
X78722693Y-114079547D02*
X78760788Y-114117642D01*
X78760788Y-114117642D02*
X78798883Y-114193832D01*
X78798883Y-114193832D02*
X78798883Y-114498594D01*
X80467791Y-116174784D02*
X79667791Y-116174784D01*
X79667791Y-116174784D02*
X79667791Y-115870022D01*
X79667791Y-115870022D02*
X79705886Y-115793832D01*
X79705886Y-115793832D02*
X79743981Y-115755737D01*
X79743981Y-115755737D02*
X79820172Y-115717641D01*
X79820172Y-115717641D02*
X79934457Y-115717641D01*
X79934457Y-115717641D02*
X80010648Y-115755737D01*
X80010648Y-115755737D02*
X80048743Y-115793832D01*
X80048743Y-115793832D02*
X80086838Y-115870022D01*
X80086838Y-115870022D02*
X80086838Y-116174784D01*
X80467791Y-115374784D02*
X79667791Y-115374784D01*
X79667791Y-115374784D02*
X80239219Y-115108118D01*
X80239219Y-115108118D02*
X79667791Y-114841451D01*
X79667791Y-114841451D02*
X80467791Y-114841451D01*
X79667791Y-114308117D02*
X79667791Y-114155736D01*
X79667791Y-114155736D02*
X79705886Y-114079546D01*
X79705886Y-114079546D02*
X79782076Y-114003355D01*
X79782076Y-114003355D02*
X79934457Y-113965260D01*
X79934457Y-113965260D02*
X80201124Y-113965260D01*
X80201124Y-113965260D02*
X80353505Y-114003355D01*
X80353505Y-114003355D02*
X80429696Y-114079546D01*
X80429696Y-114079546D02*
X80467791Y-114155736D01*
X80467791Y-114155736D02*
X80467791Y-114308117D01*
X80467791Y-114308117D02*
X80429696Y-114384308D01*
X80429696Y-114384308D02*
X80353505Y-114460498D01*
X80353505Y-114460498D02*
X80201124Y-114498594D01*
X80201124Y-114498594D02*
X79934457Y-114498594D01*
X79934457Y-114498594D02*
X79782076Y-114460498D01*
X79782076Y-114460498D02*
X79705886Y-114384308D01*
X79705886Y-114384308D02*
X79667791Y-114308117D01*
X80467791Y-113622403D02*
X79667791Y-113622403D01*
X79667791Y-113622403D02*
X79667791Y-113431927D01*
X79667791Y-113431927D02*
X79705886Y-113317641D01*
X79705886Y-113317641D02*
X79782076Y-113241451D01*
X79782076Y-113241451D02*
X79858267Y-113203356D01*
X79858267Y-113203356D02*
X80010648Y-113165260D01*
X80010648Y-113165260D02*
X80124934Y-113165260D01*
X80124934Y-113165260D02*
X80277315Y-113203356D01*
X80277315Y-113203356D02*
X80353505Y-113241451D01*
X80353505Y-113241451D02*
X80429696Y-113317641D01*
X80429696Y-113317641D02*
X80467791Y-113431927D01*
X80467791Y-113431927D02*
X80467791Y-113622403D01*
X60563946Y-111673232D02*
X60563946Y-112206566D01*
X60373470Y-111368471D02*
X60182993Y-111939899D01*
X60182993Y-111939899D02*
X60678232Y-111939899D01*
X61097279Y-111749423D02*
X61021089Y-111711328D01*
X61021089Y-111711328D02*
X60982994Y-111673232D01*
X60982994Y-111673232D02*
X60944898Y-111597042D01*
X60944898Y-111597042D02*
X60944898Y-111558947D01*
X60944898Y-111558947D02*
X60982994Y-111482756D01*
X60982994Y-111482756D02*
X61021089Y-111444661D01*
X61021089Y-111444661D02*
X61097279Y-111406566D01*
X61097279Y-111406566D02*
X61249660Y-111406566D01*
X61249660Y-111406566D02*
X61325851Y-111444661D01*
X61325851Y-111444661D02*
X61363946Y-111482756D01*
X61363946Y-111482756D02*
X61402041Y-111558947D01*
X61402041Y-111558947D02*
X61402041Y-111597042D01*
X61402041Y-111597042D02*
X61363946Y-111673232D01*
X61363946Y-111673232D02*
X61325851Y-111711328D01*
X61325851Y-111711328D02*
X61249660Y-111749423D01*
X61249660Y-111749423D02*
X61097279Y-111749423D01*
X61097279Y-111749423D02*
X61021089Y-111787518D01*
X61021089Y-111787518D02*
X60982994Y-111825613D01*
X60982994Y-111825613D02*
X60944898Y-111901804D01*
X60944898Y-111901804D02*
X60944898Y-112054185D01*
X60944898Y-112054185D02*
X60982994Y-112130375D01*
X60982994Y-112130375D02*
X61021089Y-112168471D01*
X61021089Y-112168471D02*
X61097279Y-112206566D01*
X61097279Y-112206566D02*
X61249660Y-112206566D01*
X61249660Y-112206566D02*
X61325851Y-112168471D01*
X61325851Y-112168471D02*
X61363946Y-112130375D01*
X61363946Y-112130375D02*
X61402041Y-112054185D01*
X61402041Y-112054185D02*
X61402041Y-111901804D01*
X61402041Y-111901804D02*
X61363946Y-111825613D01*
X61363946Y-111825613D02*
X61325851Y-111787518D01*
X61325851Y-111787518D02*
X61249660Y-111749423D01*
X62862698Y-88521166D02*
X63357936Y-88521166D01*
X63357936Y-88521166D02*
X63091270Y-88825928D01*
X63091270Y-88825928D02*
X63205555Y-88825928D01*
X63205555Y-88825928D02*
X63281746Y-88864023D01*
X63281746Y-88864023D02*
X63319841Y-88902118D01*
X63319841Y-88902118D02*
X63357936Y-88978309D01*
X63357936Y-88978309D02*
X63357936Y-89168785D01*
X63357936Y-89168785D02*
X63319841Y-89244975D01*
X63319841Y-89244975D02*
X63281746Y-89283071D01*
X63281746Y-89283071D02*
X63205555Y-89321166D01*
X63205555Y-89321166D02*
X62976984Y-89321166D01*
X62976984Y-89321166D02*
X62900793Y-89283071D01*
X62900793Y-89283071D02*
X62862698Y-89244975D01*
X64119841Y-89321166D02*
X63662698Y-89321166D01*
X63891270Y-89321166D02*
X63891270Y-88521166D01*
X63891270Y-88521166D02*
X63815079Y-88635451D01*
X63815079Y-88635451D02*
X63738889Y-88711642D01*
X63738889Y-88711642D02*
X63662698Y-88749737D01*
X60830651Y-78513518D02*
X60563985Y-78513518D01*
X60563985Y-78932566D02*
X60563985Y-78132566D01*
X60563985Y-78132566D02*
X60944937Y-78132566D01*
X61211603Y-78208756D02*
X61249699Y-78170661D01*
X61249699Y-78170661D02*
X61325889Y-78132566D01*
X61325889Y-78132566D02*
X61516365Y-78132566D01*
X61516365Y-78132566D02*
X61592556Y-78170661D01*
X61592556Y-78170661D02*
X61630651Y-78208756D01*
X61630651Y-78208756D02*
X61668746Y-78284947D01*
X61668746Y-78284947D02*
X61668746Y-78361137D01*
X61668746Y-78361137D02*
X61630651Y-78475423D01*
X61630651Y-78475423D02*
X61173508Y-78932566D01*
X61173508Y-78932566D02*
X61668746Y-78932566D01*
X63332499Y-119115432D02*
X63332499Y-119648766D01*
X63142023Y-118810671D02*
X62951546Y-119382099D01*
X62951546Y-119382099D02*
X63446785Y-119382099D01*
D12*
X77060383Y-73945237D02*
X76171383Y-73945237D01*
X76171383Y-73945237D02*
X76171383Y-73733570D01*
X76171383Y-73733570D02*
X76213716Y-73606570D01*
X76213716Y-73606570D02*
X76298383Y-73521904D01*
X76298383Y-73521904D02*
X76383050Y-73479570D01*
X76383050Y-73479570D02*
X76552383Y-73437237D01*
X76552383Y-73437237D02*
X76679383Y-73437237D01*
X76679383Y-73437237D02*
X76848716Y-73479570D01*
X76848716Y-73479570D02*
X76933383Y-73521904D01*
X76933383Y-73521904D02*
X77018050Y-73606570D01*
X77018050Y-73606570D02*
X77060383Y-73733570D01*
X77060383Y-73733570D02*
X77060383Y-73945237D01*
X76467716Y-72675237D02*
X77060383Y-72675237D01*
X76129050Y-72886904D02*
X76764050Y-73098570D01*
X76764050Y-73098570D02*
X76764050Y-72548237D01*
D11*
X80399823Y-73640290D02*
X80399823Y-72640290D01*
X80399823Y-72640290D02*
X80637918Y-72640290D01*
X80637918Y-72640290D02*
X80780775Y-72687909D01*
X80780775Y-72687909D02*
X80876013Y-72783147D01*
X80876013Y-72783147D02*
X80923632Y-72878385D01*
X80923632Y-72878385D02*
X80971251Y-73068861D01*
X80971251Y-73068861D02*
X80971251Y-73211718D01*
X80971251Y-73211718D02*
X80923632Y-73402194D01*
X80923632Y-73402194D02*
X80876013Y-73497432D01*
X80876013Y-73497432D02*
X80780775Y-73592671D01*
X80780775Y-73592671D02*
X80637918Y-73640290D01*
X80637918Y-73640290D02*
X80399823Y-73640290D01*
X81304585Y-72640290D02*
X81923632Y-72640290D01*
X81923632Y-72640290D02*
X81590299Y-73021242D01*
X81590299Y-73021242D02*
X81733156Y-73021242D01*
X81733156Y-73021242D02*
X81828394Y-73068861D01*
X81828394Y-73068861D02*
X81876013Y-73116480D01*
X81876013Y-73116480D02*
X81923632Y-73211718D01*
X81923632Y-73211718D02*
X81923632Y-73449813D01*
X81923632Y-73449813D02*
X81876013Y-73545051D01*
X81876013Y-73545051D02*
X81828394Y-73592671D01*
X81828394Y-73592671D02*
X81733156Y-73640290D01*
X81733156Y-73640290D02*
X81447442Y-73640290D01*
X81447442Y-73640290D02*
X81352204Y-73592671D01*
X81352204Y-73592671D02*
X81304585Y-73545051D01*
X64462918Y-75922403D02*
X64510537Y-75779546D01*
X64510537Y-75779546D02*
X64510537Y-75541451D01*
X64510537Y-75541451D02*
X64462918Y-75446213D01*
X64462918Y-75446213D02*
X64415298Y-75398594D01*
X64415298Y-75398594D02*
X64320060Y-75350975D01*
X64320060Y-75350975D02*
X64224822Y-75350975D01*
X64224822Y-75350975D02*
X64129584Y-75398594D01*
X64129584Y-75398594D02*
X64081965Y-75446213D01*
X64081965Y-75446213D02*
X64034346Y-75541451D01*
X64034346Y-75541451D02*
X63986727Y-75731927D01*
X63986727Y-75731927D02*
X63939108Y-75827165D01*
X63939108Y-75827165D02*
X63891489Y-75874784D01*
X63891489Y-75874784D02*
X63796251Y-75922403D01*
X63796251Y-75922403D02*
X63701013Y-75922403D01*
X63701013Y-75922403D02*
X63605775Y-75874784D01*
X63605775Y-75874784D02*
X63558156Y-75827165D01*
X63558156Y-75827165D02*
X63510537Y-75731927D01*
X63510537Y-75731927D02*
X63510537Y-75493832D01*
X63510537Y-75493832D02*
X63558156Y-75350975D01*
X63510537Y-75017641D02*
X64510537Y-74779546D01*
X64510537Y-74779546D02*
X63796251Y-74589070D01*
X63796251Y-74589070D02*
X64510537Y-74398594D01*
X64510537Y-74398594D02*
X63510537Y-74160499D01*
X63605775Y-73827165D02*
X63558156Y-73779546D01*
X63558156Y-73779546D02*
X63510537Y-73684308D01*
X63510537Y-73684308D02*
X63510537Y-73446213D01*
X63510537Y-73446213D02*
X63558156Y-73350975D01*
X63558156Y-73350975D02*
X63605775Y-73303356D01*
X63605775Y-73303356D02*
X63701013Y-73255737D01*
X63701013Y-73255737D02*
X63796251Y-73255737D01*
X63796251Y-73255737D02*
X63939108Y-73303356D01*
X63939108Y-73303356D02*
X64510537Y-73874784D01*
X64510537Y-73874784D02*
X64510537Y-73255737D01*
X70722384Y-124743890D02*
X70722384Y-125458175D01*
X70722384Y-125458175D02*
X70674765Y-125601032D01*
X70674765Y-125601032D02*
X70579527Y-125696271D01*
X70579527Y-125696271D02*
X70436670Y-125743890D01*
X70436670Y-125743890D02*
X70341432Y-125743890D01*
X71722384Y-125743890D02*
X71150956Y-125743890D01*
X71436670Y-125743890D02*
X71436670Y-124743890D01*
X71436670Y-124743890D02*
X71341432Y-124886747D01*
X71341432Y-124886747D02*
X71246194Y-124981985D01*
X71246194Y-124981985D02*
X71150956Y-125029604D01*
X70922384Y-117243890D02*
X70922384Y-117958175D01*
X70922384Y-117958175D02*
X70874765Y-118101032D01*
X70874765Y-118101032D02*
X70779527Y-118196271D01*
X70779527Y-118196271D02*
X70636670Y-118243890D01*
X70636670Y-118243890D02*
X70541432Y-118243890D01*
X71874765Y-117243890D02*
X71398575Y-117243890D01*
X71398575Y-117243890D02*
X71350956Y-117720080D01*
X71350956Y-117720080D02*
X71398575Y-117672461D01*
X71398575Y-117672461D02*
X71493813Y-117624842D01*
X71493813Y-117624842D02*
X71731908Y-117624842D01*
X71731908Y-117624842D02*
X71827146Y-117672461D01*
X71827146Y-117672461D02*
X71874765Y-117720080D01*
X71874765Y-117720080D02*
X71922384Y-117815318D01*
X71922384Y-117815318D02*
X71922384Y-118053413D01*
X71922384Y-118053413D02*
X71874765Y-118148651D01*
X71874765Y-118148651D02*
X71827146Y-118196271D01*
X71827146Y-118196271D02*
X71731908Y-118243890D01*
X71731908Y-118243890D02*
X71493813Y-118243890D01*
X71493813Y-118243890D02*
X71398575Y-118196271D01*
X71398575Y-118196271D02*
X71350956Y-118148651D01*
X70810537Y-73827165D02*
X69810537Y-73827165D01*
X69810537Y-73827165D02*
X69810537Y-73589070D01*
X69810537Y-73589070D02*
X69858156Y-73446213D01*
X69858156Y-73446213D02*
X69953394Y-73350975D01*
X69953394Y-73350975D02*
X70048632Y-73303356D01*
X70048632Y-73303356D02*
X70239108Y-73255737D01*
X70239108Y-73255737D02*
X70381965Y-73255737D01*
X70381965Y-73255737D02*
X70572441Y-73303356D01*
X70572441Y-73303356D02*
X70667679Y-73350975D01*
X70667679Y-73350975D02*
X70762918Y-73446213D01*
X70762918Y-73446213D02*
X70810537Y-73589070D01*
X70810537Y-73589070D02*
X70810537Y-73827165D01*
X69905775Y-72874784D02*
X69858156Y-72827165D01*
X69858156Y-72827165D02*
X69810537Y-72731927D01*
X69810537Y-72731927D02*
X69810537Y-72493832D01*
X69810537Y-72493832D02*
X69858156Y-72398594D01*
X69858156Y-72398594D02*
X69905775Y-72350975D01*
X69905775Y-72350975D02*
X70001013Y-72303356D01*
X70001013Y-72303356D02*
X70096251Y-72303356D01*
X70096251Y-72303356D02*
X70239108Y-72350975D01*
X70239108Y-72350975D02*
X70810537Y-72922403D01*
X70810537Y-72922403D02*
X70810537Y-72303356D01*
X73322384Y-96443890D02*
X73322384Y-97158175D01*
X73322384Y-97158175D02*
X73274765Y-97301032D01*
X73274765Y-97301032D02*
X73179527Y-97396271D01*
X73179527Y-97396271D02*
X73036670Y-97443890D01*
X73036670Y-97443890D02*
X72941432Y-97443890D01*
X74227146Y-96443890D02*
X74036670Y-96443890D01*
X74036670Y-96443890D02*
X73941432Y-96491509D01*
X73941432Y-96491509D02*
X73893813Y-96539128D01*
X73893813Y-96539128D02*
X73798575Y-96681985D01*
X73798575Y-96681985D02*
X73750956Y-96872461D01*
X73750956Y-96872461D02*
X73750956Y-97253413D01*
X73750956Y-97253413D02*
X73798575Y-97348651D01*
X73798575Y-97348651D02*
X73846194Y-97396271D01*
X73846194Y-97396271D02*
X73941432Y-97443890D01*
X73941432Y-97443890D02*
X74131908Y-97443890D01*
X74131908Y-97443890D02*
X74227146Y-97396271D01*
X74227146Y-97396271D02*
X74274765Y-97348651D01*
X74274765Y-97348651D02*
X74322384Y-97253413D01*
X74322384Y-97253413D02*
X74322384Y-97015318D01*
X74322384Y-97015318D02*
X74274765Y-96920080D01*
X74274765Y-96920080D02*
X74227146Y-96872461D01*
X74227146Y-96872461D02*
X74131908Y-96824842D01*
X74131908Y-96824842D02*
X73941432Y-96824842D01*
X73941432Y-96824842D02*
X73846194Y-96872461D01*
X73846194Y-96872461D02*
X73798575Y-96920080D01*
X73798575Y-96920080D02*
X73750956Y-97015318D01*
X66422385Y-125396271D02*
X66565242Y-125443890D01*
X66565242Y-125443890D02*
X66803337Y-125443890D01*
X66803337Y-125443890D02*
X66898575Y-125396271D01*
X66898575Y-125396271D02*
X66946194Y-125348651D01*
X66946194Y-125348651D02*
X66993813Y-125253413D01*
X66993813Y-125253413D02*
X66993813Y-125158175D01*
X66993813Y-125158175D02*
X66946194Y-125062937D01*
X66946194Y-125062937D02*
X66898575Y-125015318D01*
X66898575Y-125015318D02*
X66803337Y-124967699D01*
X66803337Y-124967699D02*
X66612861Y-124920080D01*
X66612861Y-124920080D02*
X66517623Y-124872461D01*
X66517623Y-124872461D02*
X66470004Y-124824842D01*
X66470004Y-124824842D02*
X66422385Y-124729604D01*
X66422385Y-124729604D02*
X66422385Y-124634366D01*
X66422385Y-124634366D02*
X66470004Y-124539128D01*
X66470004Y-124539128D02*
X66517623Y-124491509D01*
X66517623Y-124491509D02*
X66612861Y-124443890D01*
X66612861Y-124443890D02*
X66850956Y-124443890D01*
X66850956Y-124443890D02*
X66993813Y-124491509D01*
X67327147Y-124443890D02*
X67565242Y-125443890D01*
X67565242Y-125443890D02*
X67755718Y-124729604D01*
X67755718Y-124729604D02*
X67946194Y-125443890D01*
X67946194Y-125443890D02*
X68184290Y-124443890D01*
X69089051Y-125443890D02*
X68517623Y-125443890D01*
X68803337Y-125443890D02*
X68803337Y-124443890D01*
X68803337Y-124443890D02*
X68708099Y-124586747D01*
X68708099Y-124586747D02*
X68612861Y-124681985D01*
X68612861Y-124681985D02*
X68517623Y-124729604D01*
X69693813Y-112343890D02*
X69693813Y-113153413D01*
X69693813Y-113153413D02*
X69741432Y-113248651D01*
X69741432Y-113248651D02*
X69789051Y-113296271D01*
X69789051Y-113296271D02*
X69884289Y-113343890D01*
X69884289Y-113343890D02*
X70074765Y-113343890D01*
X70074765Y-113343890D02*
X70170003Y-113296271D01*
X70170003Y-113296271D02*
X70217622Y-113248651D01*
X70217622Y-113248651D02*
X70265241Y-113153413D01*
X70265241Y-113153413D02*
X70265241Y-112343890D01*
X70646194Y-112343890D02*
X71265241Y-112343890D01*
X71265241Y-112343890D02*
X70931908Y-112724842D01*
X70931908Y-112724842D02*
X71074765Y-112724842D01*
X71074765Y-112724842D02*
X71170003Y-112772461D01*
X71170003Y-112772461D02*
X71217622Y-112820080D01*
X71217622Y-112820080D02*
X71265241Y-112915318D01*
X71265241Y-112915318D02*
X71265241Y-113153413D01*
X71265241Y-113153413D02*
X71217622Y-113248651D01*
X71217622Y-113248651D02*
X71170003Y-113296271D01*
X71170003Y-113296271D02*
X71074765Y-113343890D01*
X71074765Y-113343890D02*
X70789051Y-113343890D01*
X70789051Y-113343890D02*
X70693813Y-113296271D01*
X70693813Y-113296271D02*
X70646194Y-113248651D01*
X65345527Y-94957299D02*
X65345527Y-95433490D01*
X65012194Y-94433490D02*
X65345527Y-94957299D01*
X65345527Y-94957299D02*
X65678860Y-94433490D01*
X66536003Y-95433490D02*
X65964575Y-95433490D01*
X66250289Y-95433490D02*
X66250289Y-94433490D01*
X66250289Y-94433490D02*
X66155051Y-94576347D01*
X66155051Y-94576347D02*
X66059813Y-94671585D01*
X66059813Y-94671585D02*
X65964575Y-94719204D01*
D10*
X72071359Y-77275871D02*
X71764077Y-77275871D01*
X72071359Y-78035871D02*
X71764077Y-78035871D01*
X67910754Y-112805071D02*
X67695082Y-112805071D01*
X67910754Y-113525071D02*
X67695082Y-113525071D01*
D14*
G36*
X64773776Y-132361320D02*
G01*
X64799473Y-132375044D01*
X64800145Y-132377960D01*
X64780610Y-132392648D01*
X64732574Y-132399991D01*
X64722367Y-132400183D01*
X64670958Y-132394601D01*
X64645261Y-132380877D01*
X64644589Y-132377960D01*
X64664124Y-132363272D01*
X64712160Y-132355930D01*
X64722367Y-132355738D01*
X64773776Y-132361320D01*
G37*
G36*
X63377845Y-132115005D02*
G01*
X63391116Y-132132100D01*
X63397750Y-132171518D01*
X63399981Y-132242199D01*
X63400145Y-132289071D01*
X63400145Y-132466849D01*
X63477923Y-132466849D01*
X63535448Y-132474077D01*
X63555560Y-132497147D01*
X63555700Y-132500183D01*
X63544728Y-132520284D01*
X63506224Y-132530634D01*
X63433478Y-132533516D01*
X63311256Y-132533516D01*
X63311256Y-132322405D01*
X63311927Y-132224285D01*
X63315098Y-132162359D01*
X63322503Y-132128382D01*
X63335879Y-132114109D01*
X63355700Y-132111294D01*
X63377845Y-132115005D01*
G37*
G36*
X65150256Y-132257328D02*
G01*
X65163205Y-132272405D01*
X65173246Y-132288781D01*
X65176168Y-132272405D01*
X65194423Y-132250104D01*
X65230097Y-132245748D01*
X65260514Y-132258839D01*
X65266812Y-132274393D01*
X65248644Y-132304640D01*
X65211256Y-132329472D01*
X65173980Y-132354935D01*
X65158202Y-132396062D01*
X65155700Y-132444151D01*
X65152016Y-132502495D01*
X65137103Y-132528366D01*
X65111256Y-132533516D01*
X65087203Y-132529014D01*
X65073793Y-132508961D01*
X65068004Y-132463537D01*
X65066812Y-132389071D01*
X65068290Y-132310695D01*
X65074638Y-132266991D01*
X65088724Y-132248229D01*
X65109404Y-132244627D01*
X65150256Y-132257328D01*
G37*
G36*
X65036212Y-132100754D02*
G01*
X65044589Y-132117059D01*
X65027584Y-132149656D01*
X65000145Y-132172803D01*
X64963386Y-132206085D01*
X64959333Y-132233433D01*
X64989034Y-132244627D01*
X65018495Y-132262415D01*
X65022367Y-132277960D01*
X65004579Y-132307422D01*
X64989034Y-132311294D01*
X64968072Y-132323189D01*
X64957833Y-132364372D01*
X64955700Y-132422405D01*
X64953360Y-132489050D01*
X64943428Y-132522288D01*
X64921536Y-132533040D01*
X64911256Y-132533516D01*
X64884598Y-132527666D01*
X64871303Y-132502836D01*
X64867002Y-132448105D01*
X64866812Y-132422405D01*
X64862814Y-132359022D01*
X64852594Y-132318792D01*
X64844589Y-132311294D01*
X64824874Y-132293295D01*
X64822367Y-132277960D01*
X64834366Y-132248388D01*
X64844589Y-132244627D01*
X64864304Y-132226628D01*
X64866812Y-132211294D01*
X64885119Y-132164685D01*
X64928788Y-132119738D01*
X64980935Y-132091930D01*
X65000145Y-132089071D01*
X65036212Y-132100754D01*
G37*
G36*
X63815075Y-132261849D02*
G01*
X63865370Y-132303709D01*
X63888677Y-132364903D01*
X63889034Y-132374155D01*
X63883797Y-132403628D01*
X63860470Y-132417899D01*
X63807622Y-132422246D01*
X63784589Y-132422405D01*
X63722694Y-132424958D01*
X63699349Y-132433867D01*
X63706071Y-132448331D01*
X63745776Y-132467076D01*
X63799404Y-132474257D01*
X63850311Y-132483032D01*
X63866812Y-132503886D01*
X63847990Y-132525408D01*
X63801276Y-132534680D01*
X63741289Y-132532403D01*
X63682654Y-132519278D01*
X63639991Y-132496004D01*
X63636922Y-132492877D01*
X63604469Y-132426593D01*
X63608278Y-132349472D01*
X63618636Y-132327763D01*
X63688705Y-132327763D01*
X63706136Y-132348948D01*
X63744589Y-132355738D01*
X63786364Y-132348940D01*
X63800145Y-132335893D01*
X63781929Y-132311593D01*
X63743287Y-132297289D01*
X63709251Y-132301422D01*
X63688705Y-132327763D01*
X63618636Y-132327763D01*
X63634738Y-132294016D01*
X63686512Y-132252828D01*
X63751040Y-132243497D01*
X63815075Y-132261849D01*
G37*
G36*
X64127359Y-132252523D02*
G01*
X64171789Y-132281210D01*
X64194090Y-132338185D01*
X64200145Y-132429757D01*
X64200145Y-132528919D01*
X64080754Y-132530345D01*
X64011553Y-132528741D01*
X63962054Y-132523088D01*
X63947421Y-132517829D01*
X63933968Y-132479030D01*
X63935712Y-132459120D01*
X64029780Y-132459120D01*
X64032878Y-132465879D01*
X64060469Y-132478452D01*
X64093567Y-132464684D01*
X64111149Y-132433892D01*
X64111256Y-132431138D01*
X64095128Y-132405420D01*
X64061466Y-132402324D01*
X64033478Y-132422405D01*
X64029780Y-132459120D01*
X63935712Y-132459120D01*
X63938588Y-132426280D01*
X63958664Y-132384961D01*
X63961380Y-132382468D01*
X64002940Y-132360060D01*
X64052381Y-132343474D01*
X64092384Y-132328573D01*
X64090910Y-132312857D01*
X64085774Y-132309279D01*
X64041767Y-132299652D01*
X64005885Y-132303516D01*
X63966249Y-132304716D01*
X63955700Y-132280369D01*
X63966641Y-132257194D01*
X64005666Y-132246492D01*
X64054919Y-132244627D01*
X64127359Y-132252523D01*
G37*
G36*
X64553793Y-132092149D02*
G01*
X64566761Y-132106770D01*
X64574015Y-132141021D01*
X64577191Y-132202984D01*
X64577921Y-132300746D01*
X64577923Y-132308995D01*
X64577923Y-132528919D01*
X64456440Y-132530370D01*
X64359408Y-132523492D01*
X64303275Y-132500000D01*
X64300885Y-132497748D01*
X64276788Y-132452212D01*
X64266812Y-132390928D01*
X64268449Y-132383689D01*
X64355497Y-132383689D01*
X64364741Y-132429742D01*
X64395872Y-132461491D01*
X64421246Y-132466849D01*
X64463150Y-132447081D01*
X64480317Y-132409667D01*
X64481134Y-132349989D01*
X64451262Y-132317298D01*
X64408316Y-132315020D01*
X64369551Y-132339920D01*
X64355497Y-132383689D01*
X64268449Y-132383689D01*
X64284348Y-132313376D01*
X64332256Y-132263426D01*
X64403484Y-132247535D01*
X64421490Y-132249238D01*
X64465344Y-132252685D01*
X64484389Y-132237847D01*
X64488947Y-132193241D01*
X64489034Y-132174112D01*
X64493131Y-132117507D01*
X64509512Y-132093186D01*
X64533478Y-132089071D01*
X64553793Y-132092149D01*
G37*
G36*
X65487570Y-132254915D02*
G01*
X65542237Y-132286938D01*
X65574242Y-132340722D01*
X65577923Y-132370293D01*
X65573457Y-132401924D01*
X65552370Y-132417446D01*
X65503125Y-132422634D01*
X65472367Y-132423111D01*
X65410891Y-132424726D01*
X65387301Y-132430739D01*
X65395050Y-132444560D01*
X65409293Y-132455966D01*
X65467685Y-132477281D01*
X65503738Y-132475073D01*
X65544848Y-132473287D01*
X65555700Y-132495251D01*
X65536539Y-132522128D01*
X65489454Y-132537584D01*
X65430048Y-132539200D01*
X65373921Y-132524555D01*
X65372206Y-132523717D01*
X65318063Y-132474451D01*
X65294300Y-132404751D01*
X65305394Y-132330304D01*
X65307788Y-132325388D01*
X65380654Y-132325388D01*
X65388190Y-132346333D01*
X65432228Y-132355734D01*
X65433478Y-132355738D01*
X65475247Y-132348577D01*
X65489034Y-132334827D01*
X65471443Y-132303836D01*
X65429349Y-132297937D01*
X65413261Y-132302488D01*
X65380654Y-132325388D01*
X65307788Y-132325388D01*
X65312683Y-132315336D01*
X65360285Y-132266523D01*
X65422750Y-132247247D01*
X65487570Y-132254915D01*
G37*
G36*
X65837297Y-132261849D02*
G01*
X65887592Y-132303709D01*
X65910899Y-132364903D01*
X65911256Y-132374155D01*
X65906006Y-132403561D01*
X65882677Y-132418010D01*
X65829896Y-132422775D01*
X65805700Y-132423111D01*
X65743994Y-132424611D01*
X65720249Y-132430425D01*
X65727989Y-132444193D01*
X65744589Y-132457436D01*
X65801070Y-132479722D01*
X65839034Y-132478528D01*
X65879029Y-132477681D01*
X65889034Y-132499759D01*
X65870241Y-132523576D01*
X65823548Y-132534592D01*
X65763483Y-132533242D01*
X65704572Y-132519960D01*
X65661344Y-132495181D01*
X65659145Y-132492877D01*
X65626691Y-132426593D01*
X65630500Y-132349472D01*
X65641991Y-132325388D01*
X65713987Y-132325388D01*
X65721523Y-132346333D01*
X65765561Y-132355734D01*
X65766812Y-132355738D01*
X65808581Y-132348577D01*
X65822367Y-132334827D01*
X65804776Y-132303836D01*
X65762682Y-132297937D01*
X65746595Y-132302488D01*
X65713987Y-132325388D01*
X65641991Y-132325388D01*
X65656960Y-132294016D01*
X65708734Y-132252828D01*
X65773262Y-132243497D01*
X65837297Y-132261849D01*
G37*
G36*
X67591741Y-130783516D02*
G01*
X67525542Y-130891825D01*
X67455534Y-131036592D01*
X67385104Y-131210416D01*
X67345132Y-131322405D01*
X67254270Y-131567798D01*
X67162254Y-131771273D01*
X67066864Y-131935342D01*
X66965880Y-132062520D01*
X66857080Y-132155320D01*
X66738244Y-132216254D01*
X66607153Y-132247837D01*
X66522367Y-132253733D01*
X66433223Y-132250499D01*
X66369703Y-132234688D01*
X66318121Y-132205157D01*
X66247208Y-132154576D01*
X66129232Y-132354627D01*
X66067514Y-132456303D01*
X66023724Y-132520787D01*
X65995680Y-132550524D01*
X65981202Y-132547958D01*
X65977923Y-132524247D01*
X65990656Y-132467107D01*
X66025944Y-132383293D01*
X66079423Y-132281491D01*
X66146726Y-132170391D01*
X66183570Y-132114984D01*
X66233579Y-132049337D01*
X66309014Y-131959706D01*
X66403526Y-131853180D01*
X66510763Y-131736848D01*
X66624376Y-131617798D01*
X66677923Y-131563171D01*
X66780149Y-131459045D01*
X66868315Y-131367678D01*
X66938776Y-131292981D01*
X66987888Y-131238863D01*
X67012005Y-131209236D01*
X67011256Y-131205568D01*
X66970502Y-131229026D01*
X66905665Y-131267628D01*
X66830489Y-131313185D01*
X66827531Y-131314993D01*
X66758825Y-131356294D01*
X66706220Y-131386563D01*
X66679871Y-131399980D01*
X66678893Y-131400183D01*
X66670434Y-131380419D01*
X66659542Y-131330226D01*
X66654085Y-131297154D01*
X66641213Y-131238185D01*
X66627249Y-131223084D01*
X66612694Y-131251303D01*
X66598048Y-131322294D01*
X66591926Y-131365225D01*
X66572394Y-131448416D01*
X66540815Y-131514031D01*
X66503258Y-131551193D01*
X66485590Y-131555738D01*
X66475842Y-131535512D01*
X66469053Y-131482782D01*
X66466812Y-131417466D01*
X66466812Y-131279195D01*
X66420085Y-131325921D01*
X66389966Y-131371245D01*
X66368983Y-131442399D01*
X66355853Y-131532129D01*
X66345656Y-131611947D01*
X66335167Y-131673066D01*
X66326514Y-131703274D01*
X66325882Y-131704075D01*
X66312721Y-131695464D01*
X66299134Y-131650467D01*
X66287234Y-131577069D01*
X66283711Y-131544627D01*
X66277313Y-131477960D01*
X66239179Y-131548210D01*
X66214684Y-131619156D01*
X66198224Y-131721456D01*
X66193481Y-131786487D01*
X66185540Y-131887064D01*
X66171026Y-131953706D01*
X66147566Y-131996728D01*
X66144199Y-132000614D01*
X66102480Y-132046713D01*
X66070681Y-131986022D01*
X66053830Y-131922171D01*
X66049317Y-131826928D01*
X66056296Y-131711344D01*
X66073923Y-131586473D01*
X66101351Y-131463366D01*
X66113960Y-131420013D01*
X66191421Y-131243295D01*
X66304762Y-131091905D01*
X66452973Y-130966384D01*
X66635044Y-130867272D01*
X66849965Y-130795108D01*
X67096725Y-130750434D01*
X67374316Y-130733788D01*
X67397300Y-130733684D01*
X67627788Y-130733516D01*
X67591741Y-130783516D01*
G37*
G36*
X64993758Y-127824315D02*
G01*
X65168668Y-127849483D01*
X65233478Y-127864475D01*
X65509954Y-127959914D01*
X65770687Y-128093203D01*
X66010847Y-128260333D01*
X66225600Y-128457297D01*
X66410113Y-128680087D01*
X66559556Y-128924692D01*
X66592086Y-128991404D01*
X66656243Y-129138874D01*
X66703083Y-129271335D01*
X66735007Y-129400913D01*
X66754417Y-129539733D01*
X66763714Y-129699923D01*
X66765441Y-129866849D01*
X66764300Y-130008427D01*
X66761327Y-130116013D01*
X66755382Y-130200051D01*
X66745323Y-130270990D01*
X66730008Y-130339274D01*
X66708297Y-130415349D01*
X66703961Y-130429568D01*
X66655946Y-130575241D01*
X66611802Y-130683243D01*
X66568176Y-130759759D01*
X66521713Y-130810970D01*
X66483260Y-130836352D01*
X66337297Y-130933849D01*
X66205023Y-131065019D01*
X66095467Y-131219338D01*
X66021984Y-131374120D01*
X65991973Y-131446351D01*
X65957481Y-131497873D01*
X65906103Y-131543422D01*
X65843599Y-131586051D01*
X65595942Y-131720812D01*
X65326820Y-131820705D01*
X65044023Y-131884323D01*
X64755342Y-131910254D01*
X64468570Y-131897089D01*
X64289034Y-131867364D01*
X64006346Y-131784014D01*
X63740556Y-131661171D01*
X63495343Y-131501776D01*
X63274390Y-131308770D01*
X63081376Y-131085093D01*
X62919983Y-130833688D01*
X62867915Y-130731924D01*
X62790567Y-130553872D01*
X62736536Y-130386764D01*
X62702546Y-130215773D01*
X62685318Y-130026072D01*
X62681833Y-129898212D01*
X62881458Y-129898212D01*
X62909170Y-130170202D01*
X62975397Y-130435279D01*
X63078617Y-130687881D01*
X63217309Y-130922447D01*
X63389952Y-131133415D01*
X63450305Y-131193322D01*
X63668336Y-131370262D01*
X63907890Y-131511990D01*
X64163557Y-131616776D01*
X64429924Y-131682893D01*
X64701578Y-131708613D01*
X64973108Y-131692208D01*
X65000145Y-131688168D01*
X65209033Y-131641536D01*
X65418107Y-131569814D01*
X65615364Y-131478335D01*
X65788803Y-131372428D01*
X65888449Y-131293607D01*
X66005977Y-131188342D01*
X65753061Y-130987165D01*
X65654966Y-130910260D01*
X65561745Y-130839189D01*
X65482438Y-130780707D01*
X65426088Y-130741573D01*
X65415677Y-130735016D01*
X65353055Y-130689085D01*
X65302359Y-130638257D01*
X65293454Y-130626074D01*
X65255700Y-130568104D01*
X65244589Y-130667477D01*
X65233478Y-130766849D01*
X65094589Y-130773465D01*
X64955700Y-130780081D01*
X64955700Y-130560872D01*
X64955700Y-130341663D01*
X64928146Y-130319464D01*
X65289034Y-130319464D01*
X65400071Y-130426490D01*
X65464809Y-130485263D01*
X65513939Y-130517817D01*
X65561091Y-130531404D01*
X65601175Y-130533516D01*
X65677447Y-130525117D01*
X65746710Y-130504519D01*
X65754659Y-130500721D01*
X65830902Y-130437868D01*
X65886428Y-130345238D01*
X65920643Y-130232682D01*
X65932950Y-130110052D01*
X65922754Y-129987200D01*
X65889461Y-129873977D01*
X65832475Y-129780235D01*
X65800136Y-129748030D01*
X65702112Y-129690824D01*
X65596747Y-129677363D01*
X65485340Y-129707794D01*
X65477806Y-129711350D01*
X65395891Y-129765549D01*
X65339198Y-129839945D01*
X65304887Y-129940893D01*
X65290116Y-130074748D01*
X65289034Y-130133506D01*
X65289034Y-130319464D01*
X64928146Y-130319464D01*
X64739034Y-130167104D01*
X64697270Y-130133506D01*
X64654002Y-130098698D01*
X64580222Y-130039528D01*
X64525326Y-129995703D01*
X64496947Y-129973331D01*
X64496283Y-129972826D01*
X64457692Y-129969209D01*
X64394081Y-129991741D01*
X64385172Y-129996129D01*
X64251586Y-130046248D01*
X64090655Y-130078186D01*
X63921273Y-130089071D01*
X63777923Y-130089071D01*
X63777923Y-130434489D01*
X63777923Y-130779907D01*
X63616812Y-130773378D01*
X63455700Y-130766849D01*
X63451459Y-129944627D01*
X63449164Y-129499731D01*
X63776982Y-129499731D01*
X63777756Y-129576254D01*
X63777923Y-129608626D01*
X63777923Y-129819589D01*
X63850145Y-129828472D01*
X63983547Y-129828837D01*
X64123330Y-129802084D01*
X64150145Y-129793610D01*
X64198512Y-129773810D01*
X64221954Y-129757653D01*
X64222367Y-129756134D01*
X64206031Y-129737863D01*
X64161894Y-129698648D01*
X64097267Y-129644798D01*
X64040865Y-129599487D01*
X63937915Y-129517264D01*
X63865753Y-129461030D01*
X63818979Y-129430972D01*
X63792193Y-129427278D01*
X63779994Y-129450135D01*
X63776982Y-129499731D01*
X63449164Y-129499731D01*
X63447561Y-129189071D01*
X63863134Y-129189071D01*
X64103862Y-129383837D01*
X64199140Y-129460522D01*
X64265495Y-129512055D01*
X64308392Y-129541436D01*
X64333297Y-129551667D01*
X64345675Y-129545750D01*
X64350991Y-129526687D01*
X64351880Y-129520041D01*
X64352635Y-129453702D01*
X64346331Y-129410321D01*
X64302470Y-129321653D01*
X64224931Y-129250373D01*
X64122771Y-129201666D01*
X64005049Y-129180718D01*
X63947305Y-129181903D01*
X63863134Y-129189071D01*
X63447561Y-129189071D01*
X63447217Y-129122405D01*
X63307014Y-129006290D01*
X63240657Y-128952552D01*
X63187606Y-128911857D01*
X63156818Y-128890998D01*
X63153237Y-128889624D01*
X63136959Y-128908460D01*
X63109237Y-128959351D01*
X63074282Y-129032757D01*
X63036301Y-129119134D01*
X62999503Y-129208940D01*
X62968096Y-129292635D01*
X62947663Y-129355738D01*
X62893782Y-129624870D01*
X62881458Y-129898212D01*
X62681833Y-129898212D01*
X62681584Y-129889071D01*
X62683453Y-129711975D01*
X62694025Y-129563737D01*
X62715498Y-129429253D01*
X62750068Y-129293415D01*
X62783359Y-129189071D01*
X62897040Y-128921332D01*
X63028313Y-128706238D01*
X63289034Y-128706238D01*
X63305350Y-128729006D01*
X63348479Y-128770228D01*
X63409689Y-128821675D01*
X63421021Y-128830654D01*
X63553008Y-128934349D01*
X63904354Y-128939488D01*
X64041286Y-128942102D01*
X64142612Y-128946049D01*
X64217168Y-128952403D01*
X64273791Y-128962240D01*
X64321320Y-128976635D01*
X64366535Y-128995712D01*
X64478864Y-129057692D01*
X64560234Y-129129800D01*
X64624083Y-129224208D01*
X64629062Y-129233516D01*
X64661547Y-129329262D01*
X64676376Y-129449109D01*
X64672914Y-129576102D01*
X64650526Y-129693288D01*
X64646703Y-129705388D01*
X64628968Y-129764872D01*
X64629071Y-129799461D01*
X64649766Y-129826066D01*
X64668926Y-129841841D01*
X64714607Y-129878161D01*
X64779650Y-129930005D01*
X64839034Y-129977415D01*
X64955700Y-130070630D01*
X64955700Y-129457628D01*
X64955700Y-128844627D01*
X65122367Y-128844627D01*
X65289034Y-128844627D01*
X65289034Y-129237875D01*
X65289034Y-129631123D01*
X65361256Y-129561224D01*
X65477772Y-129476586D01*
X65613034Y-129431331D01*
X65718939Y-129422405D01*
X65871933Y-129442129D01*
X66003899Y-129500913D01*
X66113902Y-129598168D01*
X66194196Y-129719744D01*
X66225226Y-129789163D01*
X66245005Y-129860873D01*
X66256796Y-129950138D01*
X66262410Y-130038821D01*
X66256264Y-130236691D01*
X66218205Y-130406191D01*
X66148743Y-130546081D01*
X66048386Y-130655118D01*
X65993960Y-130693376D01*
X65934104Y-130730364D01*
X65886382Y-130760623D01*
X65876591Y-130767064D01*
X65866192Y-130782937D01*
X65877706Y-130807618D01*
X65915625Y-130846718D01*
X65984438Y-130905847D01*
X65993888Y-130913651D01*
X66144589Y-131037801D01*
X66206013Y-130968992D01*
X66241393Y-130920266D01*
X66288413Y-130843041D01*
X66340125Y-130749186D01*
X66376371Y-130677960D01*
X66426383Y-130568597D01*
X66472401Y-130454971D01*
X66507925Y-130353759D01*
X66521602Y-130305491D01*
X66567294Y-130025777D01*
X66570549Y-129748477D01*
X66533255Y-129477643D01*
X66457298Y-129217331D01*
X66344564Y-128971594D01*
X66196939Y-128744486D01*
X66016311Y-128540061D01*
X65804566Y-128362372D01*
X65563590Y-128215475D01*
X65544589Y-128205911D01*
X65280200Y-128098645D01*
X65008232Y-128034008D01*
X64732811Y-128011757D01*
X64458062Y-128031644D01*
X64188109Y-128093425D01*
X63927077Y-128196854D01*
X63719460Y-128314604D01*
X63639756Y-128370893D01*
X63554014Y-128438386D01*
X63469549Y-128510426D01*
X63393681Y-128580354D01*
X63333726Y-128641512D01*
X63297003Y-128687241D01*
X63289034Y-128706238D01*
X63028313Y-128706238D01*
X63048012Y-128673961D01*
X63232453Y-128450446D01*
X63446541Y-128254273D01*
X63686454Y-128088928D01*
X63948370Y-127957897D01*
X64228467Y-127864667D01*
X64237893Y-127862296D01*
X64405119Y-127831937D01*
X64596897Y-127815510D01*
X64798138Y-127812980D01*
X64993758Y-127824315D01*
G37*
D10*
X75846718Y-74077000D02*
G75*
G02*
X75596718Y-74077000I-125000J0D01*
G01*
X75596718Y-74077000D02*
G75*
G02*
X75846718Y-74077000I125000J0D01*
G01*
X77532359Y-115452071D02*
X77225077Y-115452071D01*
X77532359Y-116212071D02*
X77225077Y-116212071D01*
X78495077Y-74304071D02*
X78802359Y-74304071D01*
X78495077Y-75064071D02*
X78802359Y-75064071D01*
X72522918Y-113831707D02*
X72522918Y-113616035D01*
X73242918Y-113831707D02*
X73242918Y-113616035D01*
X79531482Y-106353471D02*
X79747154Y-106353471D01*
X79531482Y-107073471D02*
X79747154Y-107073471D01*
X77772518Y-73920471D02*
X80057518Y-73920471D01*
X80057518Y-72450471D02*
X77772518Y-72450471D01*
X80057518Y-73920471D02*
X80057518Y-72450471D01*
X75365882Y-112906671D02*
X75581554Y-112906671D01*
X75365882Y-113626671D02*
X75581554Y-113626671D01*
X75627359Y-114791671D02*
X75320077Y-114791671D01*
X75627359Y-115551671D02*
X75320077Y-115551671D01*
X65370754Y-106912271D02*
X65155082Y-106912271D01*
X65370754Y-107632271D02*
X65155082Y-107632271D01*
D13*
X65438518Y-73982471D02*
X65438518Y-75182471D01*
X68338518Y-73982471D02*
X68338518Y-75182471D01*
D10*
X78941718Y-120032871D02*
X78941718Y-117372871D01*
X78941718Y-120032871D02*
X80641718Y-120032871D01*
X80641718Y-120032871D02*
X80641718Y-117372871D01*
X65878754Y-78286471D02*
X65663082Y-78286471D01*
X65878754Y-79006471D02*
X65663082Y-79006471D01*
X75581554Y-113846471D02*
X75365882Y-113846471D01*
X75581554Y-114566471D02*
X75365882Y-114566471D01*
X79328282Y-110976271D02*
X79543954Y-110976271D01*
X79328282Y-111696271D02*
X79543954Y-111696271D01*
X75743554Y-86029071D02*
X75527882Y-86029071D01*
X75743554Y-86749071D02*
X75527882Y-86749071D01*
X79531482Y-104118271D02*
X79747154Y-104118271D01*
X79531482Y-104838271D02*
X79747154Y-104838271D01*
X77194682Y-112906671D02*
X77410354Y-112906671D01*
X77194682Y-113626671D02*
X77410354Y-113626671D01*
X72071359Y-75345471D02*
X71764077Y-75345471D01*
X72071359Y-76105471D02*
X71764077Y-76105471D01*
X67690000Y-129037000D02*
X67690000Y-131037000D01*
X67690000Y-132937000D02*
X67690000Y-134837000D01*
X67690000Y-134837000D02*
X77090000Y-134837000D01*
X77090000Y-129037000D02*
X77090000Y-131037000D01*
X77090000Y-132937000D02*
X77090000Y-134837000D01*
X78502554Y-123854071D02*
X78286882Y-123854071D01*
X78502554Y-124574071D02*
X78286882Y-124574071D01*
X65142118Y-116554071D02*
X65142118Y-117704071D01*
X65142118Y-117704071D02*
X66192118Y-117704071D01*
X66192118Y-117704071D02*
X66192118Y-118694071D01*
X66312118Y-114584071D02*
X69192118Y-114584071D01*
X70362118Y-116554071D02*
X70362118Y-117704071D01*
X70362118Y-117704071D02*
X69312118Y-117704071D01*
X64951882Y-99851071D02*
X65167554Y-99851071D01*
X64951882Y-100571071D02*
X65167554Y-100571071D01*
X76033759Y-99678671D02*
X75726477Y-99678671D01*
X76033759Y-100438671D02*
X75726477Y-100438671D01*
X75213482Y-74527271D02*
X75429154Y-74527271D01*
X75213482Y-75247271D02*
X75429154Y-75247271D01*
X73421718Y-118073071D02*
X73421718Y-120023071D01*
X73421718Y-121973071D02*
X73421718Y-120023071D01*
X78541718Y-117573071D02*
X78541718Y-120023071D01*
X78541718Y-121973071D02*
X78541718Y-120023071D01*
D15*
X78978918Y-116695671D02*
G75*
G02*
X78470918Y-116695671I-254000J0D01*
G01*
X78470918Y-116695671D02*
G75*
G02*
X78978918Y-116695671I254000J0D01*
G01*
D10*
X72417718Y-74077000D02*
G75*
G02*
X72167718Y-74077000I-125000J0D01*
G01*
X72167718Y-74077000D02*
G75*
G02*
X72417718Y-74077000I125000J0D01*
G01*
D14*
G36*
X81189702Y-133075943D02*
G01*
X77721735Y-133075943D01*
X77721735Y-132180369D01*
X81189702Y-132180369D01*
X81189702Y-133075943D01*
G37*
G36*
X81491056Y-126979295D02*
G01*
X81492184Y-127021086D01*
X81484912Y-127054637D01*
X81464136Y-127089468D01*
X81424748Y-127135097D01*
X81385133Y-127176728D01*
X81209603Y-127359502D01*
X81054932Y-127522033D01*
X80921966Y-127663393D01*
X80811551Y-127782657D01*
X80724533Y-127878899D01*
X80661759Y-127951193D01*
X80624073Y-127998613D01*
X80612323Y-128020233D01*
X80613295Y-128021433D01*
X80625145Y-128039142D01*
X80632740Y-128085069D01*
X80636509Y-128162950D01*
X80637114Y-128228093D01*
X80637114Y-128426581D01*
X80321327Y-128426581D01*
X80268696Y-129133977D01*
X80216065Y-129841374D01*
X80346066Y-129977151D01*
X80389007Y-130022121D01*
X80454324Y-130090684D01*
X80538164Y-130178787D01*
X80636670Y-130282377D01*
X80745991Y-130397401D01*
X80862270Y-130519806D01*
X80981655Y-130645538D01*
X80986449Y-130650588D01*
X81496831Y-131188249D01*
X81485051Y-131349305D01*
X80848926Y-130678715D01*
X80722346Y-130545425D01*
X80603867Y-130420947D01*
X80496040Y-130307945D01*
X80401419Y-130209080D01*
X80322557Y-130127014D01*
X80262007Y-130064410D01*
X80222321Y-130023928D01*
X80206052Y-130008232D01*
X80205827Y-130008126D01*
X80201814Y-130025258D01*
X80199294Y-130068975D01*
X80198854Y-130101532D01*
X80200997Y-130158841D01*
X80212637Y-130192333D01*
X80241590Y-130216262D01*
X80270309Y-130231848D01*
X80325674Y-130270943D01*
X80380296Y-130325546D01*
X80397341Y-130347427D01*
X80430654Y-130401687D01*
X80447426Y-130453829D01*
X80452768Y-130521717D01*
X80452918Y-130541659D01*
X80449518Y-130615675D01*
X80435918Y-130669735D01*
X80407014Y-130721651D01*
X80397341Y-130735617D01*
X80320280Y-130818414D01*
X80228493Y-130867208D01*
X80117019Y-130884541D01*
X80106472Y-130884645D01*
X79995071Y-130868856D01*
X79899120Y-130824028D01*
X79826163Y-130753967D01*
X79815263Y-130737697D01*
X79776541Y-130675043D01*
X78941240Y-130675043D01*
X78941240Y-130884645D01*
X78712582Y-130884645D01*
X78712582Y-130783655D01*
X78709147Y-130722972D01*
X78700352Y-130677577D01*
X78693218Y-130663301D01*
X78684861Y-130638289D01*
X78674898Y-130582503D01*
X78664363Y-130503185D01*
X78654292Y-130407579D01*
X78650345Y-130363079D01*
X78626836Y-130082222D01*
X78071215Y-130669217D01*
X77951208Y-130795863D01*
X77837776Y-130915305D01*
X77733936Y-131024387D01*
X77642701Y-131119954D01*
X77567089Y-131198850D01*
X77510113Y-131257918D01*
X77474790Y-131294003D01*
X77466226Y-131302408D01*
X77416859Y-131348602D01*
X77416859Y-131267116D01*
X77417415Y-131246058D01*
X77420692Y-131225884D01*
X77429102Y-131203669D01*
X77445057Y-131176490D01*
X77470970Y-131141425D01*
X77509254Y-131095548D01*
X77562321Y-131035938D01*
X77632583Y-130959670D01*
X77722453Y-130863821D01*
X77834343Y-130745468D01*
X77934565Y-130639751D01*
X78052210Y-130515702D01*
X78164674Y-130397115D01*
X78268548Y-130287585D01*
X78360421Y-130190706D01*
X78436884Y-130110074D01*
X78494529Y-130049284D01*
X78529945Y-130011931D01*
X78533553Y-130008126D01*
X78556536Y-129983880D01*
X78729872Y-129983880D01*
X78753603Y-130272297D01*
X78777335Y-130560714D01*
X79755577Y-130560714D01*
X79765728Y-130485031D01*
X79797890Y-130381071D01*
X79862594Y-130294327D01*
X79957073Y-130227668D01*
X80048238Y-130191872D01*
X80065635Y-130176618D01*
X80078252Y-130138400D01*
X80087844Y-130070852D01*
X80091039Y-130036405D01*
X80103437Y-129889738D01*
X79786425Y-129558309D01*
X79697450Y-129465859D01*
X79616988Y-129383340D01*
X79548814Y-129314536D01*
X79496704Y-129263231D01*
X79464433Y-129233209D01*
X79455718Y-129226881D01*
X79440179Y-129240016D01*
X79402702Y-129276513D01*
X79347494Y-129332004D01*
X79278764Y-129402125D01*
X79200719Y-129482510D01*
X79117567Y-129568793D01*
X79033515Y-129656610D01*
X78952771Y-129741593D01*
X78879543Y-129819378D01*
X78818038Y-129885599D01*
X78773628Y-129934578D01*
X78729872Y-129983880D01*
X78556536Y-129983880D01*
X78614834Y-129922380D01*
X78540266Y-129047194D01*
X78481489Y-128357349D01*
X78602234Y-128357349D01*
X78602519Y-128385236D01*
X78605793Y-128446521D01*
X78611726Y-128536634D01*
X78619990Y-128651008D01*
X78630254Y-128785075D01*
X78642189Y-128934266D01*
X78654618Y-129083970D01*
X78667941Y-129242397D01*
X78680185Y-129389274D01*
X78690988Y-129520164D01*
X78699989Y-129630630D01*
X78706827Y-129716237D01*
X78711138Y-129772547D01*
X78712566Y-129794901D01*
X78719432Y-129795286D01*
X78741081Y-129778689D01*
X78779103Y-129743510D01*
X78835087Y-129688148D01*
X78910626Y-129611003D01*
X79007309Y-129510474D01*
X79126726Y-129384961D01*
X79258136Y-129245943D01*
X79374958Y-129122079D01*
X79372149Y-129119130D01*
X79551137Y-129119130D01*
X79562544Y-129137063D01*
X79596680Y-129178161D01*
X79649778Y-129238196D01*
X79718073Y-129312942D01*
X79797797Y-129398172D01*
X79830145Y-129432261D01*
X80113108Y-129729285D01*
X80162147Y-129082697D01*
X80173617Y-128929964D01*
X80183927Y-128789782D01*
X80192768Y-128666560D01*
X80199835Y-128564706D01*
X80204819Y-128488628D01*
X80207414Y-128442735D01*
X80207588Y-128430737D01*
X80193953Y-128441912D01*
X80158583Y-128476440D01*
X80105759Y-128529830D01*
X80039764Y-128597592D01*
X79964883Y-128675233D01*
X79885397Y-128758262D01*
X79805590Y-128842188D01*
X79729745Y-128922520D01*
X79662144Y-128994765D01*
X79607071Y-129054434D01*
X79568808Y-129097033D01*
X79551638Y-129118073D01*
X79551137Y-129119130D01*
X79372149Y-129119130D01*
X78991370Y-128719389D01*
X78877722Y-128600660D01*
X78787440Y-128507808D01*
X78718140Y-128438614D01*
X78667439Y-128390861D01*
X78632953Y-128362331D01*
X78612297Y-128350806D01*
X78603088Y-128354069D01*
X78602234Y-128357349D01*
X78481489Y-128357349D01*
X78465697Y-128172009D01*
X78411922Y-128113511D01*
X78378686Y-128077785D01*
X78323533Y-128018986D01*
X78250781Y-127941684D01*
X78164751Y-127850445D01*
X78069761Y-127749838D01*
X77970130Y-127644431D01*
X77870178Y-127538791D01*
X77774223Y-127437488D01*
X77686586Y-127345088D01*
X77611584Y-127266160D01*
X77553538Y-127205272D01*
X77526171Y-127176728D01*
X77471403Y-127118423D01*
X77438680Y-127077335D01*
X77422898Y-127043941D01*
X77418950Y-127008714D01*
X77420380Y-126979394D01*
X77426386Y-126898154D01*
X77931337Y-127432246D01*
X78060469Y-127568559D01*
X78166000Y-127679199D01*
X78250285Y-127766401D01*
X78315675Y-127832401D01*
X78364523Y-127879433D01*
X78399182Y-127909733D01*
X78422005Y-127925534D01*
X78435343Y-127929072D01*
X78441550Y-127922581D01*
X78442540Y-127917863D01*
X78442923Y-127860308D01*
X78437413Y-127824053D01*
X78423677Y-127794115D01*
X78394644Y-127781153D01*
X78350179Y-127778719D01*
X78544028Y-127778719D01*
X78554593Y-127926393D01*
X78561520Y-128000834D01*
X78570160Y-128062475D01*
X78578824Y-128099655D01*
X78580149Y-128102650D01*
X78596702Y-128123602D01*
X78635186Y-128167255D01*
X78691889Y-128229675D01*
X78763096Y-128306928D01*
X78845093Y-128395080D01*
X78934167Y-128490196D01*
X79026604Y-128588344D01*
X79118689Y-128685588D01*
X79206709Y-128777995D01*
X79286950Y-128861631D01*
X79355698Y-128932562D01*
X79409239Y-128986854D01*
X79443859Y-129020573D01*
X79455718Y-129030106D01*
X79471747Y-129015937D01*
X79509037Y-128979401D01*
X79562457Y-128925624D01*
X79626878Y-128859730D01*
X79645012Y-128841022D01*
X79824779Y-128655238D01*
X79169897Y-128655238D01*
X79169897Y-128407526D01*
X79932087Y-128407526D01*
X79932087Y-128530428D01*
X80074266Y-128389198D01*
X80137154Y-128322964D01*
X80158684Y-128297165D01*
X80332237Y-128297165D01*
X80349381Y-128305772D01*
X80393212Y-128311235D01*
X80427511Y-128312252D01*
X80522785Y-128312252D01*
X80522785Y-128216978D01*
X80520343Y-128162619D01*
X80514100Y-128128124D01*
X80509215Y-128121704D01*
X80488344Y-128134379D01*
X80451567Y-128166197D01*
X80408272Y-128207853D01*
X80367846Y-128250040D01*
X80339675Y-128283451D01*
X80332237Y-128297165D01*
X80158684Y-128297165D01*
X80187187Y-128263011D01*
X80218416Y-128216808D01*
X80225594Y-128199128D01*
X80230835Y-128159112D01*
X80237299Y-128092317D01*
X80243950Y-128010006D01*
X80247159Y-127964503D01*
X80259575Y-127778719D01*
X78544028Y-127778719D01*
X78350179Y-127778719D01*
X78301458Y-127776433D01*
X78279857Y-127764078D01*
X78274434Y-127733405D01*
X78274323Y-127721554D01*
X78276870Y-127686215D01*
X78291457Y-127669605D01*
X78328497Y-127664676D01*
X78358799Y-127664390D01*
X78407168Y-127661451D01*
X78426930Y-127654863D01*
X78617309Y-127654863D01*
X78626836Y-127664390D01*
X78636363Y-127654863D01*
X78626836Y-127645335D01*
X78617309Y-127654863D01*
X78426930Y-127654863D01*
X78445945Y-127648524D01*
X78486992Y-127619448D01*
X78527652Y-127581660D01*
X78865021Y-127581660D01*
X78865021Y-127664390D01*
X79546228Y-127663597D01*
X80227436Y-127662804D01*
X80155774Y-127599470D01*
X80076865Y-127544677D01*
X79974769Y-127494954D01*
X79864372Y-127456973D01*
X79809331Y-127444209D01*
X79764460Y-127437789D01*
X79745664Y-127447939D01*
X79741589Y-127484053D01*
X79741540Y-127500304D01*
X79741540Y-127569116D01*
X79055568Y-127569116D01*
X79055568Y-127511952D01*
X79052208Y-127475142D01*
X79036842Y-127458626D01*
X79001540Y-127460024D01*
X78938687Y-127476859D01*
X78892638Y-127493245D01*
X78871354Y-127514526D01*
X78865308Y-127554256D01*
X78865021Y-127581660D01*
X78527652Y-127581660D01*
X78539819Y-127570353D01*
X78591881Y-127516918D01*
X78621122Y-127476889D01*
X78633840Y-127439083D01*
X78633953Y-127437277D01*
X79173988Y-127437277D01*
X79199604Y-127444870D01*
X79256496Y-127450738D01*
X79342960Y-127454179D01*
X79408081Y-127454788D01*
X79498309Y-127453559D01*
X79572855Y-127450206D01*
X79624505Y-127445223D01*
X79646045Y-127439107D01*
X79646266Y-127438399D01*
X79628639Y-127426139D01*
X79581388Y-127416327D01*
X79512956Y-127409632D01*
X79431788Y-127406721D01*
X79346325Y-127408264D01*
X79301847Y-127411143D01*
X79223406Y-127419713D01*
X79181354Y-127428658D01*
X79173988Y-127437277D01*
X78633953Y-127437277D01*
X78636363Y-127398860D01*
X78636363Y-127321404D01*
X78750692Y-127321404D01*
X78816109Y-127323347D01*
X78851375Y-127330573D01*
X78864316Y-127345178D01*
X78865021Y-127352025D01*
X78876874Y-127373727D01*
X78892250Y-127372197D01*
X78928780Y-127361727D01*
X78981607Y-127350113D01*
X78987523Y-127348983D01*
X79029809Y-127338596D01*
X79049521Y-127320495D01*
X79054038Y-127290568D01*
X79260112Y-127290568D01*
X79265685Y-127292575D01*
X79303637Y-127294058D01*
X79371100Y-127294855D01*
X79408081Y-127294946D01*
X79488262Y-127294526D01*
X79541157Y-127293330D01*
X79563586Y-127291523D01*
X79552375Y-127289268D01*
X79537493Y-127288262D01*
X79450767Y-127285660D01*
X79352267Y-127286078D01*
X79289782Y-127288201D01*
X79260112Y-127290568D01*
X79054038Y-127290568D01*
X79055256Y-127282502D01*
X79055568Y-127252592D01*
X79055568Y-127168966D01*
X79741540Y-127168966D01*
X79741540Y-127245185D01*
X79746577Y-127298936D01*
X79762825Y-127320492D01*
X79769138Y-127321404D01*
X79822408Y-127329777D01*
X79898264Y-127352061D01*
X79985789Y-127384006D01*
X80074064Y-127421359D01*
X80152174Y-127459872D01*
X80201696Y-127489834D01*
X80307008Y-127563605D01*
X80350205Y-127518724D01*
X80409131Y-127480571D01*
X80473985Y-127473568D01*
X80535790Y-127493791D01*
X80585569Y-127537315D01*
X80614343Y-127600216D01*
X80618059Y-127635808D01*
X80601925Y-127711733D01*
X80557589Y-127766083D01*
X80491149Y-127793252D01*
X80445529Y-127794409D01*
X80395663Y-127792930D01*
X80373816Y-127803182D01*
X80370347Y-127818429D01*
X80367845Y-127855610D01*
X80361541Y-127912672D01*
X80358230Y-127938025D01*
X80352628Y-127991949D01*
X80357021Y-128018109D01*
X80374004Y-128026125D01*
X80382083Y-128026431D01*
X80404644Y-128012533D01*
X80451300Y-127971801D01*
X80520595Y-127905676D01*
X80611076Y-127815600D01*
X80721286Y-127703015D01*
X80849770Y-127569363D01*
X80951552Y-127462194D01*
X81485051Y-126897957D01*
X81491056Y-126979295D01*
G37*
G36*
X67326088Y-83889070D02*
G01*
X67326088Y-84548330D01*
X67244606Y-84548330D01*
X67163125Y-84548330D01*
X67163125Y-83889070D01*
X67163125Y-83229811D01*
X67244606Y-83229811D01*
X67326088Y-83229811D01*
X67326088Y-83889070D01*
G37*
G36*
X67333495Y-82870552D02*
G01*
X67333495Y-82970552D01*
X67240903Y-82970552D01*
X67148310Y-82970552D01*
X67148310Y-82870552D01*
X67148310Y-82770552D01*
X67240903Y-82770552D01*
X67333495Y-82770552D01*
X67333495Y-82870552D01*
G37*
G36*
X71637199Y-82929811D02*
G01*
X71637199Y-83126107D01*
X71444606Y-83126107D01*
X71252014Y-83126107D01*
X71252014Y-82929811D01*
X71252014Y-82733515D01*
X71444606Y-82733515D01*
X71637199Y-82733515D01*
X71637199Y-82929811D01*
G37*
G36*
X71637199Y-83889070D02*
G01*
X71637199Y-84548330D01*
X71444606Y-84548330D01*
X71252014Y-84548330D01*
X71252014Y-83889070D01*
X71252014Y-83229811D01*
X71444606Y-83229811D01*
X71637199Y-83229811D01*
X71637199Y-83889070D01*
G37*
G36*
X73555718Y-82929811D02*
G01*
X73555718Y-83126107D01*
X73363125Y-83126107D01*
X73170532Y-83126107D01*
X73170532Y-82929811D01*
X73170532Y-82733515D01*
X73363125Y-82733515D01*
X73555718Y-82733515D01*
X73555718Y-82929811D01*
G37*
G36*
X73555718Y-83889070D02*
G01*
X73555718Y-84548330D01*
X73363125Y-84548330D01*
X73170532Y-84548330D01*
X73170532Y-83889070D01*
X73170532Y-83229811D01*
X73363125Y-83229811D01*
X73555718Y-83229811D01*
X73555718Y-83889070D01*
G37*
G36*
X77066829Y-84344626D02*
G01*
X77066829Y-84548330D01*
X76866829Y-84548330D01*
X76666829Y-84548330D01*
X76666829Y-84344626D01*
X76666829Y-84140922D01*
X76866829Y-84140922D01*
X77066829Y-84140922D01*
X77066829Y-84344626D01*
G37*
G36*
X79155718Y-82929811D02*
G01*
X79155718Y-83126107D01*
X78963125Y-83126107D01*
X78770532Y-83126107D01*
X78770532Y-82929811D01*
X78770532Y-82733515D01*
X78963125Y-82733515D01*
X79155718Y-82733515D01*
X79155718Y-82929811D01*
G37*
G36*
X79155718Y-83889070D02*
G01*
X79155718Y-84548330D01*
X78963125Y-84548330D01*
X78770532Y-84548330D01*
X78770532Y-83889070D01*
X78770532Y-83229811D01*
X78963125Y-83229811D01*
X79155718Y-83229811D01*
X79155718Y-83889070D01*
G37*
G36*
X66577940Y-83062493D02*
G01*
X66577940Y-83229811D01*
X66726088Y-83229811D01*
X66874236Y-83229811D01*
X66874236Y-83300182D01*
X66874236Y-83370552D01*
X66725824Y-83370552D01*
X66577412Y-83370552D01*
X66579528Y-83835367D01*
X66581643Y-84300182D01*
X66599245Y-84339124D01*
X66621326Y-84375432D01*
X66651535Y-84408063D01*
X66686020Y-84433643D01*
X66720932Y-84448798D01*
X66725658Y-84449900D01*
X66752552Y-84453277D01*
X66789256Y-84455043D01*
X66830853Y-84455195D01*
X66872425Y-84453725D01*
X66909054Y-84450630D01*
X66913125Y-84450117D01*
X66955718Y-84444497D01*
X66955718Y-84510271D01*
X66955718Y-84576045D01*
X66905718Y-84580600D01*
X66852222Y-84584979D01*
X66804059Y-84587966D01*
X66763828Y-84589451D01*
X66734130Y-84589322D01*
X66722384Y-84588416D01*
X66647447Y-84573546D01*
X66584773Y-84550654D01*
X66534092Y-84519618D01*
X66504492Y-84491728D01*
X66481959Y-84459501D01*
X66460527Y-84416837D01*
X66441968Y-84368097D01*
X66428052Y-84317641D01*
X66423113Y-84291355D01*
X66421166Y-84270492D01*
X66419468Y-84235349D01*
X66418028Y-84186456D01*
X66416854Y-84124346D01*
X66415957Y-84049552D01*
X66415344Y-83962604D01*
X66415024Y-83864036D01*
X66414977Y-83804318D01*
X66414977Y-83370552D01*
X66285347Y-83370552D01*
X66155718Y-83370552D01*
X66155718Y-83300182D01*
X66155718Y-83229811D01*
X66281643Y-83229811D01*
X66407569Y-83229811D01*
X66407569Y-83071422D01*
X66407569Y-82913033D01*
X66464977Y-82908220D01*
X66497055Y-82905295D01*
X66527222Y-82902146D01*
X66549235Y-82899427D01*
X66550162Y-82899291D01*
X66577940Y-82895176D01*
X66577940Y-83062493D01*
G37*
G36*
X76032963Y-83211748D02*
G01*
X76069020Y-83213270D01*
X76096753Y-83216179D01*
X76119396Y-83220774D01*
X76133495Y-83225000D01*
X76156151Y-83233252D01*
X76172482Y-83240372D01*
X76177940Y-83243875D01*
X76186015Y-83250252D01*
X76202664Y-83260962D01*
X76215403Y-83268532D01*
X76263111Y-83304406D01*
X76304022Y-83352366D01*
X76337137Y-83410865D01*
X76361456Y-83478356D01*
X76367866Y-83504556D01*
X76370294Y-83517663D01*
X76372414Y-83533729D01*
X76374256Y-83553878D01*
X76375853Y-83579233D01*
X76377236Y-83610920D01*
X76378435Y-83650062D01*
X76379483Y-83697784D01*
X76380411Y-83755209D01*
X76381250Y-83823463D01*
X76382032Y-83903667D01*
X76382787Y-83996948D01*
X76383200Y-84053885D01*
X76386678Y-84548330D01*
X76193420Y-84548330D01*
X76000162Y-84548330D01*
X76000106Y-84146478D01*
X75999976Y-84044869D01*
X75999583Y-83956977D01*
X75998874Y-83881706D01*
X75997796Y-83817958D01*
X75996296Y-83764638D01*
X75994321Y-83720649D01*
X75991819Y-83684893D01*
X75988737Y-83656276D01*
X75985023Y-83633700D01*
X75980623Y-83616069D01*
X75975484Y-83602286D01*
X75973753Y-83598663D01*
X75946403Y-83559388D01*
X75910852Y-83531878D01*
X75868909Y-83516999D01*
X75822384Y-83515619D01*
X75806092Y-83518325D01*
X75764105Y-83531295D01*
X75730429Y-83551491D01*
X75702939Y-83580989D01*
X75679512Y-83621860D01*
X75665369Y-83655747D01*
X75661817Y-83665438D01*
X75658799Y-83674991D01*
X75656264Y-83685655D01*
X75654161Y-83698681D01*
X75652438Y-83715320D01*
X75651046Y-83736824D01*
X75649932Y-83764442D01*
X75649046Y-83799426D01*
X75648337Y-83843026D01*
X75647754Y-83896493D01*
X75647247Y-83961079D01*
X75646763Y-84038033D01*
X75646276Y-84124256D01*
X75643928Y-84548330D01*
X75451675Y-84548330D01*
X75259421Y-84548330D01*
X75259421Y-83889070D01*
X75259421Y-83229811D01*
X75436996Y-83229811D01*
X75614570Y-83229811D01*
X75616625Y-83335051D01*
X75618680Y-83440290D01*
X75651045Y-83390587D01*
X75667496Y-83367884D01*
X75688647Y-83342274D01*
X75712037Y-83316315D01*
X75735208Y-83292561D01*
X75755700Y-83273570D01*
X75771055Y-83261896D01*
X75777229Y-83259441D01*
X75786463Y-83255032D01*
X75800195Y-83244597D01*
X75818419Y-83232081D01*
X75841559Y-83222910D01*
X75871860Y-83216680D01*
X75911568Y-83212988D01*
X75962929Y-83211431D01*
X75985347Y-83211314D01*
X76032963Y-83211748D01*
G37*
G36*
X68350386Y-83196385D02*
G01*
X68377956Y-83199413D01*
X68408552Y-83205144D01*
X68440642Y-83212994D01*
X68470959Y-83221921D01*
X68496237Y-83230885D01*
X68513208Y-83238843D01*
X68518680Y-83244282D01*
X68524403Y-83250803D01*
X68539234Y-83262321D01*
X68555287Y-83273258D01*
X68601467Y-83311607D01*
X68641949Y-83362580D01*
X68675805Y-83424777D01*
X68700920Y-83492774D01*
X68703538Y-83502550D01*
X68705806Y-83513804D01*
X68707755Y-83527658D01*
X68709417Y-83545236D01*
X68710826Y-83567662D01*
X68712012Y-83596058D01*
X68713010Y-83631547D01*
X68713850Y-83675253D01*
X68714565Y-83728299D01*
X68715189Y-83791808D01*
X68715752Y-83866903D01*
X68716287Y-83954708D01*
X68716758Y-84042774D01*
X68719351Y-84548330D01*
X68641808Y-84548330D01*
X68564265Y-84548330D01*
X68561350Y-84072404D01*
X68560749Y-83976521D01*
X68560180Y-83894250D01*
X68559600Y-83824385D01*
X68558966Y-83765724D01*
X68558235Y-83717063D01*
X68557365Y-83677197D01*
X68556311Y-83644923D01*
X68555032Y-83619038D01*
X68553484Y-83598337D01*
X68551623Y-83581616D01*
X68549408Y-83567673D01*
X68546795Y-83555303D01*
X68543741Y-83543303D01*
X68542254Y-83537857D01*
X68519753Y-83474224D01*
X68490585Y-83423583D01*
X68454021Y-83385351D01*
X68409330Y-83358947D01*
X68355782Y-83343788D01*
X68293197Y-83339289D01*
X68222323Y-83345851D01*
X68158012Y-83364824D01*
X68098407Y-83396985D01*
X68041652Y-83443113D01*
X68038616Y-83446032D01*
X67997818Y-83490970D01*
X67965292Y-83539781D01*
X67939076Y-83596000D01*
X67917207Y-83663162D01*
X67916312Y-83666434D01*
X67913022Y-83679204D01*
X67910227Y-83692253D01*
X67907876Y-83706891D01*
X67905919Y-83724427D01*
X67904306Y-83746173D01*
X67902987Y-83773438D01*
X67901912Y-83807532D01*
X67901030Y-83849766D01*
X67900291Y-83901450D01*
X67899646Y-83963893D01*
X67899045Y-84038408D01*
X67898436Y-84126302D01*
X67898376Y-84135367D01*
X67895660Y-84548330D01*
X67810874Y-84548330D01*
X67726088Y-84548330D01*
X67726088Y-83889070D01*
X67726088Y-83229811D01*
X67811273Y-83229811D01*
X67896458Y-83229811D01*
X67896458Y-83345774D01*
X67896458Y-83461738D01*
X67926229Y-83415677D01*
X67968233Y-83358522D01*
X68014092Y-83310149D01*
X68061018Y-83273491D01*
X68062002Y-83272864D01*
X68084092Y-83258344D01*
X68101888Y-83245762D01*
X68109756Y-83239420D01*
X68125245Y-83230283D01*
X68151615Y-83220432D01*
X68185038Y-83210917D01*
X68221685Y-83202785D01*
X68257728Y-83197087D01*
X68268385Y-83195960D01*
X68307359Y-83194603D01*
X68350386Y-83196385D01*
G37*
G36*
X74453607Y-83211091D02*
G01*
X74503470Y-83213808D01*
X74546355Y-83218370D01*
X74577656Y-83224504D01*
X74602522Y-83232025D01*
X74621207Y-83238905D01*
X74629508Y-83243533D01*
X74638265Y-83249471D01*
X74655979Y-83257957D01*
X74666829Y-83262441D01*
X74742519Y-83299927D01*
X74810480Y-83349387D01*
X74870199Y-83409854D01*
X74921163Y-83480365D01*
X74962859Y-83559955D01*
X74994777Y-83647659D01*
X75016402Y-83742511D01*
X75027222Y-83843548D01*
X75027205Y-83940922D01*
X75016670Y-84043789D01*
X74995329Y-84137497D01*
X74962532Y-84223671D01*
X74917632Y-84303936D01*
X74859978Y-84379917D01*
X74845335Y-84396420D01*
X74783083Y-84454966D01*
X74713341Y-84501662D01*
X74634713Y-84537330D01*
X74574236Y-84556022D01*
X74532310Y-84564231D01*
X74480750Y-84570351D01*
X74424570Y-84574136D01*
X74368788Y-84575340D01*
X74318420Y-84573716D01*
X74285347Y-84570209D01*
X74202822Y-84551856D01*
X74128665Y-84523544D01*
X74061413Y-84484279D01*
X73999606Y-84433067D01*
X73941780Y-84368913D01*
X73895963Y-84305430D01*
X73854383Y-84229921D01*
X73822666Y-84145666D01*
X73800800Y-84054961D01*
X73788774Y-83960106D01*
X73786578Y-83863397D01*
X73786618Y-83862896D01*
X74192755Y-83862896D01*
X74195279Y-83962700D01*
X74202949Y-84049041D01*
X74215912Y-84122398D01*
X74234314Y-84183255D01*
X74258304Y-84232092D01*
X74288027Y-84269391D01*
X74323631Y-84295634D01*
X74324995Y-84296363D01*
X74356491Y-84306912D01*
X74395897Y-84311456D01*
X74437594Y-84310023D01*
X74475961Y-84302641D01*
X74494748Y-84295513D01*
X74530256Y-84270302D01*
X74560672Y-84232030D01*
X74585471Y-84181730D01*
X74604127Y-84120435D01*
X74614893Y-84059441D01*
X74620151Y-84001124D01*
X74622415Y-83936022D01*
X74621873Y-83867393D01*
X74618710Y-83798499D01*
X74613113Y-83732598D01*
X74605268Y-83672950D01*
X74595361Y-83622815D01*
X74588573Y-83598865D01*
X74567988Y-83553997D01*
X74539374Y-83516327D01*
X74505491Y-83489409D01*
X74502113Y-83487548D01*
X74466473Y-83475144D01*
X74423298Y-83469772D01*
X74378092Y-83471426D01*
X74336354Y-83480100D01*
X74317069Y-83487763D01*
X74280786Y-83512988D01*
X74250916Y-83549958D01*
X74227345Y-83599023D01*
X74209957Y-83660532D01*
X74198635Y-83734833D01*
X74193264Y-83822277D01*
X74192755Y-83862896D01*
X73786618Y-83862896D01*
X73794199Y-83767132D01*
X73811626Y-83673610D01*
X73838849Y-83585128D01*
X73875855Y-83503983D01*
X73900100Y-83463726D01*
X73940510Y-83411583D01*
X73989850Y-83361801D01*
X74044419Y-83317470D01*
X74100513Y-83281680D01*
X74141543Y-83262227D01*
X74161625Y-83253561D01*
X74175187Y-83246302D01*
X74177940Y-83244021D01*
X74186476Y-83239200D01*
X74205002Y-83231974D01*
X74226088Y-83224992D01*
X74256640Y-83218563D01*
X74298281Y-83213954D01*
X74347399Y-83211168D01*
X74400378Y-83210212D01*
X74453607Y-83211091D01*
G37*
G36*
X72445501Y-83211066D02*
G01*
X72498090Y-83213488D01*
X72543788Y-83217647D01*
X72579085Y-83223545D01*
X72585329Y-83225137D01*
X72610203Y-83232698D01*
X72628863Y-83239524D01*
X72637181Y-83244070D01*
X72645153Y-83249986D01*
X72662710Y-83260475D01*
X72686233Y-83273386D01*
X72689050Y-83274873D01*
X72735529Y-83305176D01*
X72781641Y-83345770D01*
X72823282Y-83392609D01*
X72853951Y-83437453D01*
X72872431Y-83471171D01*
X72887431Y-83502332D01*
X72897846Y-83528253D01*
X72902570Y-83546254D01*
X72901606Y-83553059D01*
X72893493Y-83556285D01*
X72873847Y-83562594D01*
X72845433Y-83571197D01*
X72811018Y-83581307D01*
X72773369Y-83592136D01*
X72735253Y-83602899D01*
X72699436Y-83612806D01*
X72668685Y-83621072D01*
X72645767Y-83626908D01*
X72633448Y-83629527D01*
X72632650Y-83629595D01*
X72625385Y-83623416D01*
X72616306Y-83607487D01*
X72611901Y-83597091D01*
X72589227Y-83555525D01*
X72556144Y-83517761D01*
X72517034Y-83488447D01*
X72502293Y-83480843D01*
X72482768Y-83472880D01*
X72463766Y-83467699D01*
X72441286Y-83464731D01*
X72411324Y-83463405D01*
X72377940Y-83463145D01*
X72339214Y-83463503D01*
X72311454Y-83464953D01*
X72290820Y-83468054D01*
X72273472Y-83473367D01*
X72256846Y-83480822D01*
X72222744Y-83503921D01*
X72201324Y-83532398D01*
X72193143Y-83564479D01*
X72198757Y-83598393D01*
X72212046Y-83623519D01*
X72222040Y-83636123D01*
X72234048Y-83646609D01*
X72249912Y-83655556D01*
X72271476Y-83663544D01*
X72300582Y-83671151D01*
X72339075Y-83678956D01*
X72388796Y-83687540D01*
X72443386Y-83696209D01*
X72493058Y-83704203D01*
X72542617Y-83712682D01*
X72588310Y-83720966D01*
X72626383Y-83728379D01*
X72650494Y-83733617D01*
X72729723Y-83757955D01*
X72796788Y-83790632D01*
X72852001Y-83831995D01*
X72895675Y-83882393D01*
X72928123Y-83942175D01*
X72949655Y-84011690D01*
X72959624Y-84078861D01*
X72959696Y-84159096D01*
X72946234Y-84235807D01*
X72920054Y-84307559D01*
X72881970Y-84372915D01*
X72832800Y-84430441D01*
X72773359Y-84478700D01*
X72713410Y-84512266D01*
X72638425Y-84540316D01*
X72553743Y-84560750D01*
X72462604Y-84573170D01*
X72368249Y-84577175D01*
X72273921Y-84572366D01*
X72249028Y-84569524D01*
X72178704Y-84557445D01*
X72115861Y-84539460D01*
X72053687Y-84513558D01*
X72044898Y-84509309D01*
X72010310Y-84490857D01*
X71981107Y-84471230D01*
X71952288Y-84446686D01*
X71924199Y-84418999D01*
X71884796Y-84373629D01*
X71850943Y-84324993D01*
X71824564Y-84276397D01*
X71807584Y-84231152D01*
X71803250Y-84211026D01*
X71798776Y-84181130D01*
X71949469Y-84160899D01*
X71995683Y-84154778D01*
X72037392Y-84149414D01*
X72072183Y-84145104D01*
X72097643Y-84142144D01*
X72111361Y-84140833D01*
X72112550Y-84140795D01*
X72123748Y-84147735D01*
X72133236Y-84166069D01*
X72133411Y-84166592D01*
X72148250Y-84195397D01*
X72172534Y-84225954D01*
X72202160Y-84254016D01*
X72233024Y-84275337D01*
X72243395Y-84280436D01*
X72303413Y-84299263D01*
X72370207Y-84308156D01*
X72439402Y-84306934D01*
X72506623Y-84295416D01*
X72519483Y-84291850D01*
X72556251Y-84276024D01*
X72587264Y-84253350D01*
X72609875Y-84226501D01*
X72621437Y-84198148D01*
X72622384Y-84187990D01*
X72618544Y-84160390D01*
X72606236Y-84137580D01*
X72584282Y-84118896D01*
X72551501Y-84103677D01*
X72506715Y-84091262D01*
X72448743Y-84080990D01*
X72426088Y-84077902D01*
X72398181Y-84073801D01*
X72364101Y-84068011D01*
X72326761Y-84061122D01*
X72289074Y-84053725D01*
X72253953Y-84046412D01*
X72224312Y-84039773D01*
X72203063Y-84034399D01*
X72193121Y-84030881D01*
X72192810Y-84030590D01*
X72184262Y-84026197D01*
X72165261Y-84019669D01*
X72139755Y-84012347D01*
X72137199Y-84011676D01*
X72061899Y-83985637D01*
X71997483Y-83949596D01*
X71943837Y-83903475D01*
X71904612Y-83853196D01*
X71872074Y-83789253D01*
X71852331Y-83720527D01*
X71845134Y-83649256D01*
X71850231Y-83577679D01*
X71867374Y-83508034D01*
X71896311Y-83442560D01*
X71936794Y-83383496D01*
X71959862Y-83358464D01*
X71984195Y-83337290D01*
X72014589Y-83314953D01*
X72047792Y-83293394D01*
X72080557Y-83274552D01*
X72109634Y-83260369D01*
X72131775Y-83252785D01*
X72138057Y-83252033D01*
X72147357Y-83248199D01*
X72148310Y-83245424D01*
X72154940Y-83240554D01*
X72172466Y-83233722D01*
X72197345Y-83226275D01*
X72202014Y-83225054D01*
X72236419Y-83218774D01*
X72281479Y-83214236D01*
X72333686Y-83211439D01*
X72389530Y-83210383D01*
X72445501Y-83211066D01*
G37*
G36*
X77995716Y-83211462D02*
G01*
X78053179Y-83214746D01*
X78102532Y-83220068D01*
X78131643Y-83225327D01*
X78159374Y-83232390D01*
X78180534Y-83239101D01*
X78191778Y-83244345D01*
X78192755Y-83245697D01*
X78198708Y-83251446D01*
X78203008Y-83252033D01*
X78213887Y-83255195D01*
X78234300Y-83263650D01*
X78260635Y-83275857D01*
X78273334Y-83282101D01*
X78327088Y-83314066D01*
X78373029Y-83351528D01*
X78408437Y-83392063D01*
X78422860Y-83415601D01*
X78430296Y-83430302D01*
X78436718Y-83444250D01*
X78442213Y-83458618D01*
X78446868Y-83474580D01*
X78450770Y-83493310D01*
X78454004Y-83515983D01*
X78456658Y-83543772D01*
X78458819Y-83577851D01*
X78460572Y-83619395D01*
X78462005Y-83669577D01*
X78463204Y-83729573D01*
X78464256Y-83800554D01*
X78465248Y-83883697D01*
X78466265Y-83980175D01*
X78466545Y-84007589D01*
X78467740Y-84115505D01*
X78468992Y-84209162D01*
X78470317Y-84289116D01*
X78471729Y-84355924D01*
X78473243Y-84410141D01*
X78474874Y-84452324D01*
X78476638Y-84483029D01*
X78478549Y-84502812D01*
X78480227Y-84511244D01*
X78486043Y-84529697D01*
X78488968Y-84541719D01*
X78489051Y-84542725D01*
X78481972Y-84544246D01*
X78462046Y-84545609D01*
X78431241Y-84546758D01*
X78391525Y-84547632D01*
X78344866Y-84548174D01*
X78300927Y-84548330D01*
X78112803Y-84548330D01*
X78104642Y-84487219D01*
X78100481Y-84453872D01*
X78096975Y-84421852D01*
X78094795Y-84397345D01*
X78094618Y-84394596D01*
X78092755Y-84363084D01*
X78042266Y-84422851D01*
X77992899Y-84474970D01*
X77942234Y-84514720D01*
X77887623Y-84543342D01*
X77826414Y-84562075D01*
X77755958Y-84572159D01*
X77718680Y-84574271D01*
X77679656Y-84574888D01*
X77641445Y-84574249D01*
X77609176Y-84572501D01*
X77592389Y-84570622D01*
X77546993Y-84560274D01*
X77499098Y-84544258D01*
X77455438Y-84525018D01*
X77435077Y-84513574D01*
X77413030Y-84498258D01*
X77390188Y-84480072D01*
X77369696Y-84461832D01*
X77354702Y-84446351D01*
X77348351Y-84436444D01*
X77348310Y-84435964D01*
X77344433Y-84426073D01*
X77334669Y-84409324D01*
X77329596Y-84401640D01*
X77305445Y-84354961D01*
X77289013Y-84298883D01*
X77280616Y-84236843D01*
X77280569Y-84172275D01*
X77283106Y-84153530D01*
X77691563Y-84153530D01*
X77693497Y-84196412D01*
X77706137Y-84235511D01*
X77728124Y-84269302D01*
X77758093Y-84296260D01*
X77794684Y-84314858D01*
X77836535Y-84323570D01*
X77882283Y-84320871D01*
X77930567Y-84305236D01*
X77938504Y-84301397D01*
X77982941Y-84270986D01*
X78021169Y-84229076D01*
X78051271Y-84178345D01*
X78071333Y-84121472D01*
X78073315Y-84112780D01*
X78077025Y-84087529D01*
X78079884Y-84053285D01*
X78081464Y-84015866D01*
X78081643Y-83999817D01*
X78081643Y-83926107D01*
X78060392Y-83926107D01*
X78031410Y-83928271D01*
X77993092Y-83934111D01*
X77950166Y-83942654D01*
X77907360Y-83952925D01*
X77869404Y-83963949D01*
X77858220Y-83967776D01*
X77813523Y-83985860D01*
X77779705Y-84004855D01*
X77752943Y-84027488D01*
X77729412Y-84056482D01*
X77725267Y-84062523D01*
X77701699Y-84108392D01*
X77691563Y-84153530D01*
X77283106Y-84153530D01*
X77289187Y-84108612D01*
X77299197Y-84070552D01*
X77319671Y-84016335D01*
X77344329Y-83971840D01*
X77376359Y-83932008D01*
X77403093Y-83905811D01*
X77444298Y-83872340D01*
X77490197Y-83843414D01*
X77542251Y-83818578D01*
X77601919Y-83797380D01*
X77670658Y-83779367D01*
X77749930Y-83764085D01*
X77841192Y-83751081D01*
X77933495Y-83741074D01*
X77971078Y-83737397D01*
X78006504Y-83733801D01*
X78035248Y-83730754D01*
X78050162Y-83729052D01*
X78081643Y-83725200D01*
X78081643Y-83671442D01*
X78077177Y-83610975D01*
X78063554Y-83561850D01*
X78040439Y-83523508D01*
X78007497Y-83495390D01*
X77965307Y-83477198D01*
X77912125Y-83468053D01*
X77858619Y-83470296D01*
X77807992Y-83483137D01*
X77763443Y-83505785D01*
X77729991Y-83535289D01*
X77711252Y-83562212D01*
X77695318Y-83594059D01*
X77684676Y-83625138D01*
X77681643Y-83645946D01*
X77676984Y-83656372D01*
X77661273Y-83659477D01*
X77640384Y-83658759D01*
X77611748Y-83656773D01*
X77578491Y-83653857D01*
X77543740Y-83650350D01*
X77510619Y-83646592D01*
X77482257Y-83642919D01*
X77461779Y-83639672D01*
X77452311Y-83637188D01*
X77452014Y-83636809D01*
X77445170Y-83634035D01*
X77426835Y-83630865D01*
X77400306Y-83627807D01*
X77385347Y-83626507D01*
X77352150Y-83623767D01*
X77331584Y-83619985D01*
X77321568Y-83612381D01*
X77320020Y-83598174D01*
X77324859Y-83574584D01*
X77330392Y-83553103D01*
X77355856Y-83480321D01*
X77392567Y-83416787D01*
X77440838Y-83362163D01*
X77500987Y-83316110D01*
X77573328Y-83278290D01*
X77594952Y-83269462D01*
X77620801Y-83259088D01*
X77640829Y-83250353D01*
X77651372Y-83244874D01*
X77652014Y-83244317D01*
X77660462Y-83240756D01*
X77679845Y-83235103D01*
X77706612Y-83228357D01*
X77718680Y-83225556D01*
X77760151Y-83218676D01*
X77812359Y-83213824D01*
X77871536Y-83211004D01*
X77933912Y-83210216D01*
X77995716Y-83211462D01*
G37*
G36*
X70073908Y-83229015D02*
G01*
X70127509Y-83229403D01*
X70177856Y-83230159D01*
X70222955Y-83231283D01*
X70260808Y-83232776D01*
X70289422Y-83234638D01*
X70306800Y-83236871D01*
X70311273Y-83238900D01*
X70313337Y-83248112D01*
X70319166Y-83269603D01*
X70328215Y-83301478D01*
X70339936Y-83341842D01*
X70353786Y-83388800D01*
X70369217Y-83440457D01*
X70371534Y-83448159D01*
X70391548Y-83514687D01*
X70414138Y-83589852D01*
X70437765Y-83668535D01*
X70460895Y-83745620D01*
X70481990Y-83815987D01*
X70490568Y-83844626D01*
X70508765Y-83905418D01*
X70523147Y-83953421D01*
X70534166Y-83990034D01*
X70542274Y-84016656D01*
X70547923Y-84034685D01*
X70551566Y-84045519D01*
X70553653Y-84050558D01*
X70554638Y-84051200D01*
X70554972Y-84048843D01*
X70555108Y-84044885D01*
X70555133Y-84044362D01*
X70557400Y-84034471D01*
X70563491Y-84012419D01*
X70572822Y-83980190D01*
X70584813Y-83939767D01*
X70598881Y-83893135D01*
X70613802Y-83844362D01*
X70632531Y-83783543D01*
X70654228Y-83713094D01*
X70677499Y-83637540D01*
X70700948Y-83561408D01*
X70723182Y-83489225D01*
X70737491Y-83442774D01*
X70803096Y-83229811D01*
X70949777Y-83229811D01*
X70999854Y-83229880D01*
X71037031Y-83230211D01*
X71063222Y-83230989D01*
X71080340Y-83232399D01*
X71090301Y-83234626D01*
X71095018Y-83237857D01*
X71096405Y-83242275D01*
X71096458Y-83244009D01*
X71093134Y-83256968D01*
X71089080Y-83260675D01*
X71085787Y-83267837D01*
X71078200Y-83287845D01*
X71066730Y-83319499D01*
X71051785Y-83361598D01*
X71033778Y-83412941D01*
X71013116Y-83472326D01*
X70990212Y-83538552D01*
X70965475Y-83610419D01*
X70939316Y-83686725D01*
X70912144Y-83766269D01*
X70884370Y-83847850D01*
X70856403Y-83930266D01*
X70828656Y-84012317D01*
X70801536Y-84092802D01*
X70775455Y-84170520D01*
X70750824Y-84244268D01*
X70728051Y-84312847D01*
X70707547Y-84375055D01*
X70689723Y-84429691D01*
X70687838Y-84435516D01*
X70651252Y-84548628D01*
X70498266Y-84546627D01*
X70345281Y-84544626D01*
X70324895Y-84481663D01*
X70319570Y-84465518D01*
X70309964Y-84436710D01*
X70296537Y-84396611D01*
X70279754Y-84346593D01*
X70260077Y-84288027D01*
X70237967Y-84222286D01*
X70213888Y-84150741D01*
X70188302Y-84074763D01*
X70161672Y-83995725D01*
X70134460Y-83914998D01*
X70107128Y-83833954D01*
X70080140Y-83753965D01*
X70053957Y-83676403D01*
X70029043Y-83602639D01*
X70005859Y-83534045D01*
X69984869Y-83471992D01*
X69966534Y-83417854D01*
X69951317Y-83373000D01*
X69939682Y-83338804D01*
X69932089Y-83316637D01*
X69931684Y-83315465D01*
X69922768Y-83292340D01*
X69915236Y-83277617D01*
X69910475Y-83273895D01*
X69909969Y-83274724D01*
X69899489Y-83303162D01*
X69884409Y-83344388D01*
X69865146Y-83397249D01*
X69842118Y-83460593D01*
X69815742Y-83533268D01*
X69786435Y-83614122D01*
X69754615Y-83702002D01*
X69720698Y-83795758D01*
X69685103Y-83894236D01*
X69648246Y-83996284D01*
X69610544Y-84100751D01*
X69572416Y-84206485D01*
X69560004Y-84240922D01*
X69521729Y-84346990D01*
X69487987Y-84440073D01*
X69458359Y-84521150D01*
X69432430Y-84591202D01*
X69409782Y-84651207D01*
X69389997Y-84702144D01*
X69372659Y-84744992D01*
X69357350Y-84780732D01*
X69343653Y-84810341D01*
X69331152Y-84834799D01*
X69319428Y-84855085D01*
X69308065Y-84872178D01*
X69296646Y-84887059D01*
X69284752Y-84900704D01*
X69274155Y-84911863D01*
X69222830Y-84955331D01*
X69165349Y-84986095D01*
X69104837Y-85004328D01*
X69066892Y-85010246D01*
X69025048Y-85013431D01*
X68985282Y-85013646D01*
X68953573Y-85010656D01*
X68952014Y-85010360D01*
X68936357Y-85007239D01*
X68912802Y-85002504D01*
X68898310Y-84999577D01*
X68859421Y-84991712D01*
X68859421Y-84922390D01*
X68859421Y-84853068D01*
X68882475Y-84859679D01*
X68939645Y-84871832D01*
X68996181Y-84876043D01*
X69048925Y-84872502D01*
X69094721Y-84861395D01*
X69127313Y-84845136D01*
X69161556Y-84814244D01*
X69195772Y-84769170D01*
X69229580Y-84710540D01*
X69262598Y-84638982D01*
X69281217Y-84591855D01*
X69305128Y-84527973D01*
X69275553Y-84436299D01*
X69265814Y-84406487D01*
X69252142Y-84365176D01*
X69235384Y-84314894D01*
X69216384Y-84258166D01*
X69195988Y-84197518D01*
X69175040Y-84135476D01*
X69164339Y-84103885D01*
X69142882Y-84040604D01*
X69117811Y-83966662D01*
X69090272Y-83885431D01*
X69061405Y-83800279D01*
X69032354Y-83714578D01*
X69004261Y-83631699D01*
X68978515Y-83555737D01*
X68956708Y-83491192D01*
X68936447Y-83430833D01*
X68918219Y-83376135D01*
X68902507Y-83328574D01*
X68889799Y-83289624D01*
X68880579Y-83260760D01*
X68875333Y-83243457D01*
X68874282Y-83239070D01*
X68878482Y-83234775D01*
X68892268Y-83231952D01*
X68917348Y-83230415D01*
X68955429Y-83229978D01*
X68957569Y-83229981D01*
X69040903Y-83230152D01*
X69214591Y-83762880D01*
X69388280Y-84295608D01*
X69435580Y-84164561D01*
X69465065Y-84082826D01*
X69495326Y-83998857D01*
X69525940Y-83913831D01*
X69556486Y-83828922D01*
X69586543Y-83745306D01*
X69615688Y-83664159D01*
X69643502Y-83586656D01*
X69669561Y-83513972D01*
X69693446Y-83447283D01*
X69714733Y-83387764D01*
X69733002Y-83336591D01*
X69747831Y-83294940D01*
X69758799Y-83263985D01*
X69765484Y-83244902D01*
X69767439Y-83239070D01*
X69775229Y-83236540D01*
X69795730Y-83234372D01*
X69826946Y-83232568D01*
X69866881Y-83231127D01*
X69913541Y-83230051D01*
X69964929Y-83229340D01*
X70019050Y-83228994D01*
X70073908Y-83229015D01*
G37*
G36*
X72775569Y-79567338D02*
G01*
X72796458Y-79567392D01*
X72856329Y-79567651D01*
X72904024Y-79568176D01*
X72942183Y-79569158D01*
X72973443Y-79570786D01*
X73000445Y-79573248D01*
X73025827Y-79576735D01*
X73052228Y-79581436D01*
X73082287Y-79587540D01*
X73084968Y-79588103D01*
X73121995Y-79596630D01*
X73163695Y-79607448D01*
X73207577Y-79619772D01*
X73251151Y-79632820D01*
X73291926Y-79645807D01*
X73327409Y-79657947D01*
X73355111Y-79668458D01*
X73372540Y-79676555D01*
X73377138Y-79680085D01*
X73385647Y-79686147D01*
X73404264Y-79696044D01*
X73429421Y-79707918D01*
X73437199Y-79711365D01*
X73504378Y-79743501D01*
X73578754Y-79783940D01*
X73656965Y-79830589D01*
X73735653Y-79881358D01*
X73811458Y-79934155D01*
X73881018Y-79986888D01*
X73885347Y-79990347D01*
X73917670Y-80017620D01*
X73957907Y-80053698D01*
X74003930Y-80096493D01*
X74053610Y-80143919D01*
X74104818Y-80193888D01*
X74155426Y-80244314D01*
X74203305Y-80293109D01*
X74246327Y-80338187D01*
X74282362Y-80377461D01*
X74295809Y-80392774D01*
X74320720Y-80421623D01*
X74343594Y-80448023D01*
X74361884Y-80469038D01*
X74372977Y-80481663D01*
X74385181Y-80495997D01*
X74404233Y-80519116D01*
X74427831Y-80548153D01*
X74453671Y-80580243D01*
X74479450Y-80612517D01*
X74502867Y-80642112D01*
X74521618Y-80666160D01*
X74529206Y-80676115D01*
X74550080Y-80703900D01*
X74493639Y-80782108D01*
X74472579Y-80811608D01*
X74455089Y-80836709D01*
X74442797Y-80855029D01*
X74437332Y-80864187D01*
X74437199Y-80864671D01*
X74432607Y-80872938D01*
X74420502Y-80889065D01*
X74403389Y-80910000D01*
X74383772Y-80932689D01*
X74364158Y-80954081D01*
X74361888Y-80956452D01*
X74348488Y-80970750D01*
X74327539Y-80993555D01*
X74301358Y-81022323D01*
X74272263Y-81054513D01*
X74254315Y-81074475D01*
X74133075Y-81203381D01*
X74012485Y-81318874D01*
X73891068Y-81422199D01*
X73767349Y-81514604D01*
X73639853Y-81597337D01*
X73626088Y-81605572D01*
X73595028Y-81624296D01*
X73568768Y-81640668D01*
X73549870Y-81653052D01*
X73540894Y-81659813D01*
X73540600Y-81660177D01*
X73531352Y-81667020D01*
X73510810Y-81678180D01*
X73481462Y-81692546D01*
X73445799Y-81709006D01*
X73406309Y-81726446D01*
X73365481Y-81743754D01*
X73325805Y-81759818D01*
X73289769Y-81773526D01*
X73275938Y-81778445D01*
X73162126Y-81814131D01*
X73054073Y-81839891D01*
X72947268Y-81856479D01*
X72837202Y-81864647D01*
X72753486Y-81865738D01*
X72711054Y-81865196D01*
X72672305Y-81864426D01*
X72640348Y-81863509D01*
X72618294Y-81862528D01*
X72611273Y-81861963D01*
X72556911Y-81854009D01*
X72495203Y-81842669D01*
X72432839Y-81829286D01*
X72376512Y-81815205D01*
X72371135Y-81813717D01*
X72324084Y-81799264D01*
X72272363Y-81781202D01*
X72218701Y-81760694D01*
X72165830Y-81738902D01*
X72116481Y-81716990D01*
X72073384Y-81696120D01*
X72039272Y-81677455D01*
X72018680Y-81663640D01*
X72007245Y-81655398D01*
X71986091Y-81640937D01*
X71957938Y-81622088D01*
X71925504Y-81600680D01*
X71914977Y-81593793D01*
X71841402Y-81543473D01*
X71767320Y-81488564D01*
X71695318Y-81431225D01*
X71627988Y-81373612D01*
X71567919Y-81317884D01*
X71517700Y-81266200D01*
X71505824Y-81252825D01*
X71482058Y-81225692D01*
X71452824Y-81192719D01*
X71422652Y-81159000D01*
X71406337Y-81140922D01*
X71372696Y-81102836D01*
X71336168Y-81059849D01*
X71298907Y-81014646D01*
X71263066Y-80969911D01*
X71230798Y-80928330D01*
X71204255Y-80892588D01*
X71186538Y-80866848D01*
X71166157Y-80836184D01*
X71143648Y-80803948D01*
X71121462Y-80773492D01*
X71102050Y-80748169D01*
X71087863Y-80731330D01*
X71086144Y-80729550D01*
X71075448Y-80712487D01*
X71076356Y-80705261D01*
X71385467Y-80705261D01*
X71431703Y-80764110D01*
X71454847Y-80793924D01*
X71477647Y-80823896D01*
X71496474Y-80849236D01*
X71502694Y-80857867D01*
X71536566Y-80901993D01*
X71580061Y-80953020D01*
X71631039Y-81008840D01*
X71687361Y-81067345D01*
X71746889Y-81126426D01*
X71807483Y-81183978D01*
X71867004Y-81237891D01*
X71923313Y-81286058D01*
X71974271Y-81326373D01*
X71989644Y-81337663D01*
X72016455Y-81356785D01*
X72038429Y-81372244D01*
X72053040Y-81382275D01*
X72057776Y-81385218D01*
X72054530Y-81380005D01*
X72044069Y-81366077D01*
X72028506Y-81346228D01*
X72025162Y-81342037D01*
X71976916Y-81274045D01*
X71931482Y-81195293D01*
X71890729Y-81109807D01*
X71856523Y-81021614D01*
X71830733Y-80934739D01*
X71825295Y-80911293D01*
X71818749Y-80869854D01*
X71814145Y-80817472D01*
X71811485Y-80757892D01*
X71810769Y-80694858D01*
X71812001Y-80632114D01*
X71815181Y-80573406D01*
X71820311Y-80522476D01*
X71825120Y-80493177D01*
X71848713Y-80402184D01*
X71881833Y-80310372D01*
X71905413Y-80259441D01*
X72075231Y-80259441D01*
X72137696Y-80366632D01*
X72158403Y-80402404D01*
X72176209Y-80433622D01*
X72189883Y-80458088D01*
X72198192Y-80473606D01*
X72200162Y-80478035D01*
X72203737Y-80485263D01*
X72213852Y-80503682D01*
X72229594Y-80531680D01*
X72250049Y-80567644D01*
X72274302Y-80609964D01*
X72301440Y-80657025D01*
X72311273Y-80674012D01*
X72339187Y-80722310D01*
X72364531Y-80766397D01*
X72386393Y-80804664D01*
X72403859Y-80835504D01*
X72416014Y-80857310D01*
X72421947Y-80868474D01*
X72422384Y-80869565D01*
X72425948Y-80876704D01*
X72436019Y-80895008D01*
X72451665Y-80922834D01*
X72471954Y-80958535D01*
X72495955Y-81000467D01*
X72522735Y-81046983D01*
X72528601Y-81057138D01*
X72556517Y-81105556D01*
X72582458Y-81150771D01*
X72605363Y-81190911D01*
X72624168Y-81224108D01*
X72637810Y-81248492D01*
X72645227Y-81262192D01*
X72645705Y-81263145D01*
X72653187Y-81277289D01*
X72666056Y-81300448D01*
X72683023Y-81330402D01*
X72702796Y-81364930D01*
X72724087Y-81401813D01*
X72745604Y-81438828D01*
X72766058Y-81473757D01*
X72784159Y-81504379D01*
X72798617Y-81528474D01*
X72808142Y-81543821D01*
X72811402Y-81548330D01*
X72815625Y-81542193D01*
X72826088Y-81525001D01*
X72841715Y-81498581D01*
X72861428Y-81464759D01*
X72884153Y-81425364D01*
X72895909Y-81404847D01*
X72919633Y-81363176D01*
X72940666Y-81325900D01*
X72947684Y-81313321D01*
X73613306Y-81313321D01*
X73641919Y-81292316D01*
X73661602Y-81277069D01*
X73677547Y-81263353D01*
X73681643Y-81259299D01*
X73691293Y-81250368D01*
X73710022Y-81234235D01*
X73735364Y-81212986D01*
X73764854Y-81188703D01*
X73773360Y-81181773D01*
X73844234Y-81122070D01*
X73911700Y-81060627D01*
X73977791Y-80995335D01*
X74044535Y-80924086D01*
X74113964Y-80844769D01*
X74188107Y-80755274D01*
X74210132Y-80727924D01*
X74218334Y-80716353D01*
X74218939Y-80707184D01*
X74211298Y-80694607D01*
X74205538Y-80686998D01*
X74183533Y-80659630D01*
X74153341Y-80624011D01*
X74117108Y-80582508D01*
X74076979Y-80537486D01*
X74035100Y-80491312D01*
X73993618Y-80446351D01*
X73954677Y-80404970D01*
X73920424Y-80369535D01*
X73893199Y-80342597D01*
X73865341Y-80316718D01*
X73833304Y-80288047D01*
X73798926Y-80258112D01*
X73764049Y-80228436D01*
X73730513Y-80200545D01*
X73700159Y-80175964D01*
X73674825Y-80156219D01*
X73656354Y-80142835D01*
X73646585Y-80137337D01*
X73645650Y-80137428D01*
X73647653Y-80144537D01*
X73656047Y-80158501D01*
X73657690Y-80160866D01*
X73683144Y-80202368D01*
X73709301Y-80254741D01*
X73734656Y-80314210D01*
X73757705Y-80376995D01*
X73776943Y-80439319D01*
X73790018Y-80493177D01*
X73796529Y-80536338D01*
X73801089Y-80589929D01*
X73803699Y-80650204D01*
X73804362Y-80713420D01*
X73803078Y-80775832D01*
X73799849Y-80833695D01*
X73794677Y-80883265D01*
X73789844Y-80911293D01*
X73765490Y-81000684D01*
X73730970Y-81093868D01*
X73688281Y-81186178D01*
X73639418Y-81272948D01*
X73626541Y-81293122D01*
X73613306Y-81313321D01*
X72947684Y-81313321D01*
X72957959Y-81294905D01*
X72970461Y-81272080D01*
X72977124Y-81259312D01*
X72977940Y-81257315D01*
X72981489Y-81250116D01*
X72991536Y-81231692D01*
X73007175Y-81203650D01*
X73027502Y-81167599D01*
X73051614Y-81125146D01*
X73078607Y-81077900D01*
X73089051Y-81059686D01*
X73116867Y-81011112D01*
X73142135Y-80966772D01*
X73163953Y-80928266D01*
X73181417Y-80897199D01*
X73193623Y-80875173D01*
X73199668Y-80863789D01*
X73200162Y-80862597D01*
X73203688Y-80855503D01*
X73213644Y-80837226D01*
X73229094Y-80809436D01*
X73249103Y-80773805D01*
X73272737Y-80732005D01*
X73299060Y-80685706D01*
X73302521Y-80679635D01*
X73330161Y-80631055D01*
X73356177Y-80585103D01*
X73379424Y-80543817D01*
X73398757Y-80509235D01*
X73413034Y-80483397D01*
X73421109Y-80468342D01*
X73421184Y-80468194D01*
X73431255Y-80449266D01*
X73446672Y-80421275D01*
X73465351Y-80387972D01*
X73485202Y-80353109D01*
X73485492Y-80352605D01*
X73503420Y-80321034D01*
X73518304Y-80294160D01*
X73528756Y-80274541D01*
X73533387Y-80264732D01*
X73533495Y-80264222D01*
X73526254Y-80263549D01*
X73505198Y-80262905D01*
X73471327Y-80262295D01*
X73425639Y-80261727D01*
X73369135Y-80261206D01*
X73302813Y-80260740D01*
X73227675Y-80260335D01*
X73144719Y-80259997D01*
X73054944Y-80259733D01*
X72959351Y-80259550D01*
X72858938Y-80259454D01*
X72804363Y-80259441D01*
X72075231Y-80259441D01*
X71905413Y-80259441D01*
X71922425Y-80222697D01*
X71968431Y-80144114D01*
X71972518Y-80138023D01*
X71985013Y-80119354D01*
X71991937Y-80107541D01*
X71992205Y-80102935D01*
X71984729Y-80105885D01*
X71968424Y-80116742D01*
X71942203Y-80135857D01*
X71913905Y-80156920D01*
X71809303Y-80241177D01*
X71703706Y-80338315D01*
X71598782Y-80446641D01*
X71496197Y-80564463D01*
X71427297Y-80650870D01*
X71385467Y-80705261D01*
X71076356Y-80705261D01*
X71077343Y-80697408D01*
X71083679Y-80691290D01*
X71091338Y-80683098D01*
X71105184Y-80665194D01*
X71123239Y-80640231D01*
X71143238Y-80611293D01*
X71199513Y-80529877D01*
X71252278Y-80457680D01*
X71304234Y-80391475D01*
X71358084Y-80328034D01*
X71416531Y-80264130D01*
X71482275Y-80196535D01*
X71530195Y-80149098D01*
X71629220Y-80056083D01*
X71724853Y-79974580D01*
X71819813Y-79902606D01*
X71916817Y-79838175D01*
X72018583Y-79779303D01*
X72081643Y-79746532D01*
X72119858Y-79727240D01*
X72153785Y-79709790D01*
X72181049Y-79695429D01*
X72199277Y-79685405D01*
X72205719Y-79681376D01*
X72218715Y-79674460D01*
X72243442Y-79664670D01*
X72277281Y-79652819D01*
X72317616Y-79639722D01*
X72361828Y-79626193D01*
X72407299Y-79613045D01*
X72451412Y-79601091D01*
X72491549Y-79591146D01*
X72507569Y-79587552D01*
X72537729Y-79581211D01*
X72563639Y-79576324D01*
X72587902Y-79572707D01*
X72613119Y-79570180D01*
X72641892Y-79568561D01*
X72676823Y-79567669D01*
X72720515Y-79567322D01*
X72775569Y-79567338D01*
G37*
D10*
X76975718Y-97835430D02*
X76975718Y-98142712D01*
X77735718Y-97835430D02*
X77735718Y-98142712D01*
D16*
X81060428Y-108480471D02*
G75*
G02*
X80869008Y-108480471I-95710J0D01*
G01*
X80869008Y-108480471D02*
G75*
G02*
X81060428Y-108480471I95710J0D01*
G01*
D12*
X64155718Y-89589071D02*
X64155718Y-92069071D01*
X80655718Y-89589071D02*
X64155718Y-89589071D01*
X80655718Y-92069071D02*
X80655718Y-89589071D01*
D13*
X77788918Y-95389071D02*
G75*
G02*
X77588918Y-95389071I-100000J0D01*
G01*
X77588918Y-95389071D02*
G75*
G02*
X77788918Y-95389071I100000J0D01*
G01*
X68225118Y-120732071D02*
X67025118Y-120732071D01*
X68225118Y-123632071D02*
X67025118Y-123632071D01*
D10*
X72071359Y-76310671D02*
X71764077Y-76310671D01*
X72071359Y-77070671D02*
X71764077Y-77070671D01*
X67120118Y-78828271D02*
X67120118Y-79328271D01*
X69400118Y-78828271D02*
X69400118Y-79328271D01*
X65615277Y-79231671D02*
X65922559Y-79231671D01*
X65615277Y-79991671D02*
X65922559Y-79991671D01*
X66953500Y-101243500D02*
X68190000Y-101243500D01*
X66953500Y-102480000D02*
X66953500Y-101243500D01*
X66953500Y-110880000D02*
X66953500Y-112116500D01*
X66953500Y-112116500D02*
X68190000Y-112116500D01*
X77826500Y-110880000D02*
X77826500Y-112116500D01*
X77826500Y-112116500D02*
X76590000Y-112116500D01*
D17*
X77993623Y-101323954D02*
G75*
G02*
X77454377Y-101323954I-269623J0D01*
G01*
X77454377Y-101323954D02*
G75*
G02*
X77993623Y-101323954I269623J0D01*
G01*
D10*
X64171718Y-99544071D02*
X67471718Y-99544071D01*
X67471718Y-99544071D02*
X67471718Y-95544071D01*
D15*
X68437918Y-98712471D02*
G75*
G02*
X67929918Y-98712471I-254000J0D01*
G01*
X67929918Y-98712471D02*
G75*
G02*
X68437918Y-98712471I254000J0D01*
G01*
D10*
X71583118Y-113616035D02*
X71583118Y-113831707D01*
X72303118Y-113616035D02*
X72303118Y-113831707D01*
X66856882Y-99851071D02*
X67072554Y-99851071D01*
X66856882Y-100571071D02*
X67072554Y-100571071D01*
X79307877Y-111946871D02*
X79615159Y-111946871D01*
X79307877Y-112706871D02*
X79615159Y-112706871D01*
X65213359Y-100847071D02*
X64906077Y-100847071D01*
X65213359Y-101607071D02*
X64906077Y-101607071D01*
X78075718Y-96435430D02*
X78075718Y-96742712D01*
X78835718Y-96435430D02*
X78835718Y-96742712D01*
X79747154Y-107293271D02*
X79531482Y-107293271D01*
X79747154Y-108013271D02*
X79531482Y-108013271D01*
X72025554Y-74425671D02*
X71809882Y-74425671D01*
X72025554Y-75145671D02*
X71809882Y-75145671D01*
D18*
X82550000Y-134620000D02*
X62230000Y-134620000D01*
X86360000Y-74930000D02*
X86360000Y-130810000D01*
X62230000Y-71120000D02*
X82550000Y-71120000D01*
X58420000Y-130810000D02*
X58420000Y-74930000D01*
X62230000Y-134620000D02*
G75*
G02*
X58420000Y-130810000I109500J3919500D01*
G01*
X58420000Y-74930000D02*
G75*
G02*
X62230000Y-71120000I3754300J55700D01*
G01*
X82550000Y-71120000D02*
G75*
G02*
X86360000Y-74930000I55700J-3754300D01*
G01*
X86360000Y-130810000D02*
G75*
G02*
X82550000Y-134620000I-3919500J109500D01*
G01*
M02*
