%TF.GenerationSoftware,KiCad,Pcbnew,9.0.2*%
%TF.CreationDate,2025-05-14T22:05:09+05:30*%
%TF.ProjectId,pico2-ice,7069636f-322d-4696-9365-2e6b69636164,REV2*%
%TF.SameCoordinates,Original*%
%TF.FileFunction,Drillmap*%
%TF.FilePolarity,Positive*%
%FSLAX45Y45*%
G04 Gerber Fmt 4.5, Leading zero omitted, Abs format (unit mm)*
G04 Created by KiCad (PCBNEW 9.0.2) date 2025-05-14 22:05:09*
%MOMM*%
%LPD*%
G01*
G04 APERTURE LIST*
%ADD10C,0.127000*%
%ADD11C,0.200000*%
%ADD12C,0.100000*%
%ADD13C,0.270000*%
G04 APERTURE END LIST*
D10*
X8255000Y-13462000D02*
X6223000Y-13462000D01*
X8636000Y-7493000D02*
X8636000Y-13081000D01*
X6223000Y-7112000D02*
X8255000Y-7112000D01*
X5842000Y-13081000D02*
X5842000Y-7493000D01*
X6223000Y-13462000D02*
G75*
G02*
X5842000Y-13081000I10950J391950D01*
G01*
X5842000Y-7493000D02*
G75*
G02*
X6223000Y-7112000I375430J5570D01*
G01*
X8255000Y-7112000D02*
G75*
G02*
X8636000Y-7493000I5570J-375430D01*
G01*
X8636000Y-13081000D02*
G75*
G02*
X8255000Y-13462000I-391950J10950D01*
G01*
D11*
D12*
X6917500Y-12801200D02*
X6982500Y-12866200D01*
X6982500Y-12801200D02*
X6917500Y-12866200D01*
X7495500Y-12801200D02*
X7560500Y-12866200D01*
X7560500Y-12801200D02*
X7495500Y-12866200D01*
D13*
X6231000Y-7366000D02*
G75*
G02*
X5961000Y-7366000I-135000J0D01*
G01*
X5961000Y-7366000D02*
G75*
G02*
X6231000Y-7366000I135000J0D01*
G01*
X6231000Y-13208000D02*
G75*
G02*
X5961000Y-13208000I-135000J0D01*
G01*
X5961000Y-13208000D02*
G75*
G02*
X6231000Y-13208000I135000J0D01*
G01*
X8517000Y-7366000D02*
G75*
G02*
X8247000Y-7366000I-135000J0D01*
G01*
X8247000Y-7366000D02*
G75*
G02*
X8517000Y-7366000I135000J0D01*
G01*
X8517000Y-13208000D02*
G75*
G02*
X8247000Y-13208000I-135000J0D01*
G01*
X8247000Y-13208000D02*
G75*
G02*
X8517000Y-13208000I135000J0D01*
G01*
D11*
X6096385Y-13779834D02*
X6096385Y-13579834D01*
X6096385Y-13579834D02*
X6144004Y-13579834D01*
X6144004Y-13579834D02*
X6172576Y-13589358D01*
X6172576Y-13589358D02*
X6191624Y-13608405D01*
X6191624Y-13608405D02*
X6201147Y-13627453D01*
X6201147Y-13627453D02*
X6210671Y-13665548D01*
X6210671Y-13665548D02*
X6210671Y-13694119D01*
X6210671Y-13694119D02*
X6201147Y-13732215D01*
X6201147Y-13732215D02*
X6191624Y-13751262D01*
X6191624Y-13751262D02*
X6172576Y-13770310D01*
X6172576Y-13770310D02*
X6144004Y-13779834D01*
X6144004Y-13779834D02*
X6096385Y-13779834D01*
X6296385Y-13779834D02*
X6296385Y-13646500D01*
X6296385Y-13684596D02*
X6305909Y-13665548D01*
X6305909Y-13665548D02*
X6315433Y-13656024D01*
X6315433Y-13656024D02*
X6334481Y-13646500D01*
X6334481Y-13646500D02*
X6353528Y-13646500D01*
X6420195Y-13779834D02*
X6420195Y-13646500D01*
X6420195Y-13579834D02*
X6410671Y-13589358D01*
X6410671Y-13589358D02*
X6420195Y-13598881D01*
X6420195Y-13598881D02*
X6429719Y-13589358D01*
X6429719Y-13589358D02*
X6420195Y-13579834D01*
X6420195Y-13579834D02*
X6420195Y-13598881D01*
X6544004Y-13779834D02*
X6524957Y-13770310D01*
X6524957Y-13770310D02*
X6515433Y-13751262D01*
X6515433Y-13751262D02*
X6515433Y-13579834D01*
X6648766Y-13779834D02*
X6629719Y-13770310D01*
X6629719Y-13770310D02*
X6620195Y-13751262D01*
X6620195Y-13751262D02*
X6620195Y-13579834D01*
X6877338Y-13779834D02*
X6877338Y-13579834D01*
X6877338Y-13579834D02*
X6944005Y-13722691D01*
X6944005Y-13722691D02*
X7010671Y-13579834D01*
X7010671Y-13579834D02*
X7010671Y-13779834D01*
X7191624Y-13779834D02*
X7191624Y-13675072D01*
X7191624Y-13675072D02*
X7182100Y-13656024D01*
X7182100Y-13656024D02*
X7163052Y-13646500D01*
X7163052Y-13646500D02*
X7124957Y-13646500D01*
X7124957Y-13646500D02*
X7105909Y-13656024D01*
X7191624Y-13770310D02*
X7172576Y-13779834D01*
X7172576Y-13779834D02*
X7124957Y-13779834D01*
X7124957Y-13779834D02*
X7105909Y-13770310D01*
X7105909Y-13770310D02*
X7096385Y-13751262D01*
X7096385Y-13751262D02*
X7096385Y-13732215D01*
X7096385Y-13732215D02*
X7105909Y-13713167D01*
X7105909Y-13713167D02*
X7124957Y-13703643D01*
X7124957Y-13703643D02*
X7172576Y-13703643D01*
X7172576Y-13703643D02*
X7191624Y-13694119D01*
X7286862Y-13646500D02*
X7286862Y-13846500D01*
X7286862Y-13656024D02*
X7305909Y-13646500D01*
X7305909Y-13646500D02*
X7344005Y-13646500D01*
X7344005Y-13646500D02*
X7363052Y-13656024D01*
X7363052Y-13656024D02*
X7372576Y-13665548D01*
X7372576Y-13665548D02*
X7382100Y-13684596D01*
X7382100Y-13684596D02*
X7382100Y-13741738D01*
X7382100Y-13741738D02*
X7372576Y-13760786D01*
X7372576Y-13760786D02*
X7363052Y-13770310D01*
X7363052Y-13770310D02*
X7344005Y-13779834D01*
X7344005Y-13779834D02*
X7305909Y-13779834D01*
X7305909Y-13779834D02*
X7286862Y-13770310D01*
X7467814Y-13760786D02*
X7477338Y-13770310D01*
X7477338Y-13770310D02*
X7467814Y-13779834D01*
X7467814Y-13779834D02*
X7458290Y-13770310D01*
X7458290Y-13770310D02*
X7467814Y-13760786D01*
X7467814Y-13760786D02*
X7467814Y-13779834D01*
X7467814Y-13656024D02*
X7477338Y-13665548D01*
X7477338Y-13665548D02*
X7467814Y-13675072D01*
X7467814Y-13675072D02*
X7458290Y-13665548D01*
X7458290Y-13665548D02*
X7467814Y-13656024D01*
X7467814Y-13656024D02*
X7467814Y-13675072D01*
D12*
X5770609Y-14075850D02*
X5835609Y-14140850D01*
X5835609Y-14075850D02*
X5770609Y-14140850D01*
D11*
X6134481Y-13999834D02*
X6153528Y-13999834D01*
X6153528Y-13999834D02*
X6172576Y-14009358D01*
X6172576Y-14009358D02*
X6182100Y-14018881D01*
X6182100Y-14018881D02*
X6191624Y-14037929D01*
X6191624Y-14037929D02*
X6201147Y-14076024D01*
X6201147Y-14076024D02*
X6201147Y-14123643D01*
X6201147Y-14123643D02*
X6191624Y-14161738D01*
X6191624Y-14161738D02*
X6182100Y-14180786D01*
X6182100Y-14180786D02*
X6172576Y-14190310D01*
X6172576Y-14190310D02*
X6153528Y-14199834D01*
X6153528Y-14199834D02*
X6134481Y-14199834D01*
X6134481Y-14199834D02*
X6115433Y-14190310D01*
X6115433Y-14190310D02*
X6105909Y-14180786D01*
X6105909Y-14180786D02*
X6096385Y-14161738D01*
X6096385Y-14161738D02*
X6086862Y-14123643D01*
X6086862Y-14123643D02*
X6086862Y-14076024D01*
X6086862Y-14076024D02*
X6096385Y-14037929D01*
X6096385Y-14037929D02*
X6105909Y-14018881D01*
X6105909Y-14018881D02*
X6115433Y-14009358D01*
X6115433Y-14009358D02*
X6134481Y-13999834D01*
X6286862Y-14180786D02*
X6296385Y-14190310D01*
X6296385Y-14190310D02*
X6286862Y-14199834D01*
X6286862Y-14199834D02*
X6277338Y-14190310D01*
X6277338Y-14190310D02*
X6286862Y-14180786D01*
X6286862Y-14180786D02*
X6286862Y-14199834D01*
X6467814Y-13999834D02*
X6429719Y-13999834D01*
X6429719Y-13999834D02*
X6410671Y-14009358D01*
X6410671Y-14009358D02*
X6401147Y-14018881D01*
X6401147Y-14018881D02*
X6382100Y-14047453D01*
X6382100Y-14047453D02*
X6372576Y-14085548D01*
X6372576Y-14085548D02*
X6372576Y-14161738D01*
X6372576Y-14161738D02*
X6382100Y-14180786D01*
X6382100Y-14180786D02*
X6391624Y-14190310D01*
X6391624Y-14190310D02*
X6410671Y-14199834D01*
X6410671Y-14199834D02*
X6448766Y-14199834D01*
X6448766Y-14199834D02*
X6467814Y-14190310D01*
X6467814Y-14190310D02*
X6477338Y-14180786D01*
X6477338Y-14180786D02*
X6486862Y-14161738D01*
X6486862Y-14161738D02*
X6486862Y-14114119D01*
X6486862Y-14114119D02*
X6477338Y-14095072D01*
X6477338Y-14095072D02*
X6467814Y-14085548D01*
X6467814Y-14085548D02*
X6448766Y-14076024D01*
X6448766Y-14076024D02*
X6410671Y-14076024D01*
X6410671Y-14076024D02*
X6391624Y-14085548D01*
X6391624Y-14085548D02*
X6382100Y-14095072D01*
X6382100Y-14095072D02*
X6372576Y-14114119D01*
X6667814Y-13999834D02*
X6572576Y-13999834D01*
X6572576Y-13999834D02*
X6563052Y-14095072D01*
X6563052Y-14095072D02*
X6572576Y-14085548D01*
X6572576Y-14085548D02*
X6591624Y-14076024D01*
X6591624Y-14076024D02*
X6639243Y-14076024D01*
X6639243Y-14076024D02*
X6658290Y-14085548D01*
X6658290Y-14085548D02*
X6667814Y-14095072D01*
X6667814Y-14095072D02*
X6677338Y-14114119D01*
X6677338Y-14114119D02*
X6677338Y-14161738D01*
X6677338Y-14161738D02*
X6667814Y-14180786D01*
X6667814Y-14180786D02*
X6658290Y-14190310D01*
X6658290Y-14190310D02*
X6639243Y-14199834D01*
X6639243Y-14199834D02*
X6591624Y-14199834D01*
X6591624Y-14199834D02*
X6572576Y-14190310D01*
X6572576Y-14190310D02*
X6563052Y-14180786D01*
X6801147Y-13999834D02*
X6820195Y-13999834D01*
X6820195Y-13999834D02*
X6839243Y-14009358D01*
X6839243Y-14009358D02*
X6848766Y-14018881D01*
X6848766Y-14018881D02*
X6858290Y-14037929D01*
X6858290Y-14037929D02*
X6867814Y-14076024D01*
X6867814Y-14076024D02*
X6867814Y-14123643D01*
X6867814Y-14123643D02*
X6858290Y-14161738D01*
X6858290Y-14161738D02*
X6848766Y-14180786D01*
X6848766Y-14180786D02*
X6839243Y-14190310D01*
X6839243Y-14190310D02*
X6820195Y-14199834D01*
X6820195Y-14199834D02*
X6801147Y-14199834D01*
X6801147Y-14199834D02*
X6782100Y-14190310D01*
X6782100Y-14190310D02*
X6772576Y-14180786D01*
X6772576Y-14180786D02*
X6763052Y-14161738D01*
X6763052Y-14161738D02*
X6753528Y-14123643D01*
X6753528Y-14123643D02*
X6753528Y-14076024D01*
X6753528Y-14076024D02*
X6763052Y-14037929D01*
X6763052Y-14037929D02*
X6772576Y-14018881D01*
X6772576Y-14018881D02*
X6782100Y-14009358D01*
X6782100Y-14009358D02*
X6801147Y-13999834D01*
X6953528Y-14199834D02*
X6953528Y-14066500D01*
X6953528Y-14085548D02*
X6963052Y-14076024D01*
X6963052Y-14076024D02*
X6982100Y-14066500D01*
X6982100Y-14066500D02*
X7010671Y-14066500D01*
X7010671Y-14066500D02*
X7029719Y-14076024D01*
X7029719Y-14076024D02*
X7039243Y-14095072D01*
X7039243Y-14095072D02*
X7039243Y-14199834D01*
X7039243Y-14095072D02*
X7048766Y-14076024D01*
X7048766Y-14076024D02*
X7067814Y-14066500D01*
X7067814Y-14066500D02*
X7096385Y-14066500D01*
X7096385Y-14066500D02*
X7115433Y-14076024D01*
X7115433Y-14076024D02*
X7124957Y-14095072D01*
X7124957Y-14095072D02*
X7124957Y-14199834D01*
X7220195Y-14199834D02*
X7220195Y-14066500D01*
X7220195Y-14085548D02*
X7229719Y-14076024D01*
X7229719Y-14076024D02*
X7248766Y-14066500D01*
X7248766Y-14066500D02*
X7277338Y-14066500D01*
X7277338Y-14066500D02*
X7296386Y-14076024D01*
X7296386Y-14076024D02*
X7305909Y-14095072D01*
X7305909Y-14095072D02*
X7305909Y-14199834D01*
X7305909Y-14095072D02*
X7315433Y-14076024D01*
X7315433Y-14076024D02*
X7334481Y-14066500D01*
X7334481Y-14066500D02*
X7363052Y-14066500D01*
X7363052Y-14066500D02*
X7382100Y-14076024D01*
X7382100Y-14076024D02*
X7391624Y-14095072D01*
X7391624Y-14095072D02*
X7391624Y-14199834D01*
X7782100Y-13990310D02*
X7610671Y-14247453D01*
X8039243Y-13999834D02*
X8058290Y-13999834D01*
X8058290Y-13999834D02*
X8077338Y-14009358D01*
X8077338Y-14009358D02*
X8086862Y-14018881D01*
X8086862Y-14018881D02*
X8096386Y-14037929D01*
X8096386Y-14037929D02*
X8105909Y-14076024D01*
X8105909Y-14076024D02*
X8105909Y-14123643D01*
X8105909Y-14123643D02*
X8096386Y-14161738D01*
X8096386Y-14161738D02*
X8086862Y-14180786D01*
X8086862Y-14180786D02*
X8077338Y-14190310D01*
X8077338Y-14190310D02*
X8058290Y-14199834D01*
X8058290Y-14199834D02*
X8039243Y-14199834D01*
X8039243Y-14199834D02*
X8020195Y-14190310D01*
X8020195Y-14190310D02*
X8010671Y-14180786D01*
X8010671Y-14180786D02*
X8001148Y-14161738D01*
X8001148Y-14161738D02*
X7991624Y-14123643D01*
X7991624Y-14123643D02*
X7991624Y-14076024D01*
X7991624Y-14076024D02*
X8001148Y-14037929D01*
X8001148Y-14037929D02*
X8010671Y-14018881D01*
X8010671Y-14018881D02*
X8020195Y-14009358D01*
X8020195Y-14009358D02*
X8039243Y-13999834D01*
X8191624Y-14180786D02*
X8201148Y-14190310D01*
X8201148Y-14190310D02*
X8191624Y-14199834D01*
X8191624Y-14199834D02*
X8182100Y-14190310D01*
X8182100Y-14190310D02*
X8191624Y-14180786D01*
X8191624Y-14180786D02*
X8191624Y-14199834D01*
X8324957Y-13999834D02*
X8344005Y-13999834D01*
X8344005Y-13999834D02*
X8363052Y-14009358D01*
X8363052Y-14009358D02*
X8372576Y-14018881D01*
X8372576Y-14018881D02*
X8382100Y-14037929D01*
X8382100Y-14037929D02*
X8391624Y-14076024D01*
X8391624Y-14076024D02*
X8391624Y-14123643D01*
X8391624Y-14123643D02*
X8382100Y-14161738D01*
X8382100Y-14161738D02*
X8372576Y-14180786D01*
X8372576Y-14180786D02*
X8363052Y-14190310D01*
X8363052Y-14190310D02*
X8344005Y-14199834D01*
X8344005Y-14199834D02*
X8324957Y-14199834D01*
X8324957Y-14199834D02*
X8305909Y-14190310D01*
X8305909Y-14190310D02*
X8296386Y-14180786D01*
X8296386Y-14180786D02*
X8286862Y-14161738D01*
X8286862Y-14161738D02*
X8277338Y-14123643D01*
X8277338Y-14123643D02*
X8277338Y-14076024D01*
X8277338Y-14076024D02*
X8286862Y-14037929D01*
X8286862Y-14037929D02*
X8296386Y-14018881D01*
X8296386Y-14018881D02*
X8305909Y-14009358D01*
X8305909Y-14009358D02*
X8324957Y-13999834D01*
X8467814Y-14018881D02*
X8477338Y-14009358D01*
X8477338Y-14009358D02*
X8496386Y-13999834D01*
X8496386Y-13999834D02*
X8544005Y-13999834D01*
X8544005Y-13999834D02*
X8563052Y-14009358D01*
X8563052Y-14009358D02*
X8572576Y-14018881D01*
X8572576Y-14018881D02*
X8582100Y-14037929D01*
X8582100Y-14037929D02*
X8582100Y-14056977D01*
X8582100Y-14056977D02*
X8572576Y-14085548D01*
X8572576Y-14085548D02*
X8458291Y-14199834D01*
X8458291Y-14199834D02*
X8582100Y-14199834D01*
X8763052Y-13999834D02*
X8667814Y-13999834D01*
X8667814Y-13999834D02*
X8658291Y-14095072D01*
X8658291Y-14095072D02*
X8667814Y-14085548D01*
X8667814Y-14085548D02*
X8686862Y-14076024D01*
X8686862Y-14076024D02*
X8734481Y-14076024D01*
X8734481Y-14076024D02*
X8753529Y-14085548D01*
X8753529Y-14085548D02*
X8763052Y-14095072D01*
X8763052Y-14095072D02*
X8772576Y-14114119D01*
X8772576Y-14114119D02*
X8772576Y-14161738D01*
X8772576Y-14161738D02*
X8763052Y-14180786D01*
X8763052Y-14180786D02*
X8753529Y-14190310D01*
X8753529Y-14190310D02*
X8734481Y-14199834D01*
X8734481Y-14199834D02*
X8686862Y-14199834D01*
X8686862Y-14199834D02*
X8667814Y-14190310D01*
X8667814Y-14190310D02*
X8658291Y-14180786D01*
X8944005Y-13999834D02*
X8905910Y-13999834D01*
X8905910Y-13999834D02*
X8886862Y-14009358D01*
X8886862Y-14009358D02*
X8877338Y-14018881D01*
X8877338Y-14018881D02*
X8858291Y-14047453D01*
X8858291Y-14047453D02*
X8848767Y-14085548D01*
X8848767Y-14085548D02*
X8848767Y-14161738D01*
X8848767Y-14161738D02*
X8858291Y-14180786D01*
X8858291Y-14180786D02*
X8867814Y-14190310D01*
X8867814Y-14190310D02*
X8886862Y-14199834D01*
X8886862Y-14199834D02*
X8924957Y-14199834D01*
X8924957Y-14199834D02*
X8944005Y-14190310D01*
X8944005Y-14190310D02*
X8953529Y-14180786D01*
X8953529Y-14180786D02*
X8963052Y-14161738D01*
X8963052Y-14161738D02*
X8963052Y-14114119D01*
X8963052Y-14114119D02*
X8953529Y-14095072D01*
X8953529Y-14095072D02*
X8944005Y-14085548D01*
X8944005Y-14085548D02*
X8924957Y-14076024D01*
X8924957Y-14076024D02*
X8886862Y-14076024D01*
X8886862Y-14076024D02*
X8867814Y-14085548D01*
X8867814Y-14085548D02*
X8858291Y-14095072D01*
X8858291Y-14095072D02*
X8848767Y-14114119D01*
X9039243Y-13999834D02*
X9039243Y-14037929D01*
X9115433Y-13999834D02*
X9115433Y-14037929D01*
X9410672Y-14276024D02*
X9401148Y-14266500D01*
X9401148Y-14266500D02*
X9382100Y-14237929D01*
X9382100Y-14237929D02*
X9372576Y-14218881D01*
X9372576Y-14218881D02*
X9363053Y-14190310D01*
X9363053Y-14190310D02*
X9353529Y-14142691D01*
X9353529Y-14142691D02*
X9353529Y-14104596D01*
X9353529Y-14104596D02*
X9363053Y-14056977D01*
X9363053Y-14056977D02*
X9372576Y-14028405D01*
X9372576Y-14028405D02*
X9382100Y-14009358D01*
X9382100Y-14009358D02*
X9401148Y-13980786D01*
X9401148Y-13980786D02*
X9410672Y-13971262D01*
X9477338Y-14018881D02*
X9486862Y-14009358D01*
X9486862Y-14009358D02*
X9505910Y-13999834D01*
X9505910Y-13999834D02*
X9553529Y-13999834D01*
X9553529Y-13999834D02*
X9572576Y-14009358D01*
X9572576Y-14009358D02*
X9582100Y-14018881D01*
X9582100Y-14018881D02*
X9591624Y-14037929D01*
X9591624Y-14037929D02*
X9591624Y-14056977D01*
X9591624Y-14056977D02*
X9582100Y-14085548D01*
X9582100Y-14085548D02*
X9467814Y-14199834D01*
X9467814Y-14199834D02*
X9591624Y-14199834D01*
X9829719Y-14199834D02*
X9829719Y-13999834D01*
X9915434Y-14199834D02*
X9915434Y-14095072D01*
X9915434Y-14095072D02*
X9905910Y-14076024D01*
X9905910Y-14076024D02*
X9886862Y-14066500D01*
X9886862Y-14066500D02*
X9858291Y-14066500D01*
X9858291Y-14066500D02*
X9839243Y-14076024D01*
X9839243Y-14076024D02*
X9829719Y-14085548D01*
X10039243Y-14199834D02*
X10020195Y-14190310D01*
X10020195Y-14190310D02*
X10010672Y-14180786D01*
X10010672Y-14180786D02*
X10001148Y-14161738D01*
X10001148Y-14161738D02*
X10001148Y-14104596D01*
X10001148Y-14104596D02*
X10010672Y-14085548D01*
X10010672Y-14085548D02*
X10020195Y-14076024D01*
X10020195Y-14076024D02*
X10039243Y-14066500D01*
X10039243Y-14066500D02*
X10067815Y-14066500D01*
X10067815Y-14066500D02*
X10086862Y-14076024D01*
X10086862Y-14076024D02*
X10096386Y-14085548D01*
X10096386Y-14085548D02*
X10105910Y-14104596D01*
X10105910Y-14104596D02*
X10105910Y-14161738D01*
X10105910Y-14161738D02*
X10096386Y-14180786D01*
X10096386Y-14180786D02*
X10086862Y-14190310D01*
X10086862Y-14190310D02*
X10067815Y-14199834D01*
X10067815Y-14199834D02*
X10039243Y-14199834D01*
X10220195Y-14199834D02*
X10201148Y-14190310D01*
X10201148Y-14190310D02*
X10191624Y-14171262D01*
X10191624Y-14171262D02*
X10191624Y-13999834D01*
X10372576Y-14190310D02*
X10353529Y-14199834D01*
X10353529Y-14199834D02*
X10315434Y-14199834D01*
X10315434Y-14199834D02*
X10296386Y-14190310D01*
X10296386Y-14190310D02*
X10286862Y-14171262D01*
X10286862Y-14171262D02*
X10286862Y-14095072D01*
X10286862Y-14095072D02*
X10296386Y-14076024D01*
X10296386Y-14076024D02*
X10315434Y-14066500D01*
X10315434Y-14066500D02*
X10353529Y-14066500D01*
X10353529Y-14066500D02*
X10372576Y-14076024D01*
X10372576Y-14076024D02*
X10382100Y-14095072D01*
X10382100Y-14095072D02*
X10382100Y-14114119D01*
X10382100Y-14114119D02*
X10286862Y-14133167D01*
X10458291Y-14190310D02*
X10477338Y-14199834D01*
X10477338Y-14199834D02*
X10515434Y-14199834D01*
X10515434Y-14199834D02*
X10534481Y-14190310D01*
X10534481Y-14190310D02*
X10544005Y-14171262D01*
X10544005Y-14171262D02*
X10544005Y-14161738D01*
X10544005Y-14161738D02*
X10534481Y-14142691D01*
X10534481Y-14142691D02*
X10515434Y-14133167D01*
X10515434Y-14133167D02*
X10486862Y-14133167D01*
X10486862Y-14133167D02*
X10467815Y-14123643D01*
X10467815Y-14123643D02*
X10458291Y-14104596D01*
X10458291Y-14104596D02*
X10458291Y-14095072D01*
X10458291Y-14095072D02*
X10467815Y-14076024D01*
X10467815Y-14076024D02*
X10486862Y-14066500D01*
X10486862Y-14066500D02*
X10515434Y-14066500D01*
X10515434Y-14066500D02*
X10534481Y-14076024D01*
X10610672Y-14276024D02*
X10620196Y-14266500D01*
X10620196Y-14266500D02*
X10639243Y-14237929D01*
X10639243Y-14237929D02*
X10648767Y-14218881D01*
X10648767Y-14218881D02*
X10658291Y-14190310D01*
X10658291Y-14190310D02*
X10667815Y-14142691D01*
X10667815Y-14142691D02*
X10667815Y-14104596D01*
X10667815Y-14104596D02*
X10658291Y-14056977D01*
X10658291Y-14056977D02*
X10648767Y-14028405D01*
X10648767Y-14028405D02*
X10639243Y-14009358D01*
X10639243Y-14009358D02*
X10620196Y-13980786D01*
X10620196Y-13980786D02*
X10610672Y-13971262D01*
X10972577Y-14276024D02*
X10963053Y-14266500D01*
X10963053Y-14266500D02*
X10944005Y-14237929D01*
X10944005Y-14237929D02*
X10934481Y-14218881D01*
X10934481Y-14218881D02*
X10924957Y-14190310D01*
X10924957Y-14190310D02*
X10915434Y-14142691D01*
X10915434Y-14142691D02*
X10915434Y-14104596D01*
X10915434Y-14104596D02*
X10924957Y-14056977D01*
X10924957Y-14056977D02*
X10934481Y-14028405D01*
X10934481Y-14028405D02*
X10944005Y-14009358D01*
X10944005Y-14009358D02*
X10963053Y-13980786D01*
X10963053Y-13980786D02*
X10972577Y-13971262D01*
X11048767Y-14066500D02*
X11048767Y-14199834D01*
X11048767Y-14085548D02*
X11058291Y-14076024D01*
X11058291Y-14076024D02*
X11077338Y-14066500D01*
X11077338Y-14066500D02*
X11105910Y-14066500D01*
X11105910Y-14066500D02*
X11124957Y-14076024D01*
X11124957Y-14076024D02*
X11134481Y-14095072D01*
X11134481Y-14095072D02*
X11134481Y-14199834D01*
X11258291Y-14199834D02*
X11239243Y-14190310D01*
X11239243Y-14190310D02*
X11229719Y-14180786D01*
X11229719Y-14180786D02*
X11220195Y-14161738D01*
X11220195Y-14161738D02*
X11220195Y-14104596D01*
X11220195Y-14104596D02*
X11229719Y-14085548D01*
X11229719Y-14085548D02*
X11239243Y-14076024D01*
X11239243Y-14076024D02*
X11258291Y-14066500D01*
X11258291Y-14066500D02*
X11286862Y-14066500D01*
X11286862Y-14066500D02*
X11305910Y-14076024D01*
X11305910Y-14076024D02*
X11315434Y-14085548D01*
X11315434Y-14085548D02*
X11324957Y-14104596D01*
X11324957Y-14104596D02*
X11324957Y-14161738D01*
X11324957Y-14161738D02*
X11315434Y-14180786D01*
X11315434Y-14180786D02*
X11305910Y-14190310D01*
X11305910Y-14190310D02*
X11286862Y-14199834D01*
X11286862Y-14199834D02*
X11258291Y-14199834D01*
X11382100Y-14066500D02*
X11458291Y-14066500D01*
X11410672Y-13999834D02*
X11410672Y-14171262D01*
X11410672Y-14171262D02*
X11420195Y-14190310D01*
X11420195Y-14190310D02*
X11439243Y-14199834D01*
X11439243Y-14199834D02*
X11458291Y-14199834D01*
X11677338Y-14066500D02*
X11677338Y-14266500D01*
X11677338Y-14076024D02*
X11696386Y-14066500D01*
X11696386Y-14066500D02*
X11734481Y-14066500D01*
X11734481Y-14066500D02*
X11753529Y-14076024D01*
X11753529Y-14076024D02*
X11763053Y-14085548D01*
X11763053Y-14085548D02*
X11772576Y-14104596D01*
X11772576Y-14104596D02*
X11772576Y-14161738D01*
X11772576Y-14161738D02*
X11763053Y-14180786D01*
X11763053Y-14180786D02*
X11753529Y-14190310D01*
X11753529Y-14190310D02*
X11734481Y-14199834D01*
X11734481Y-14199834D02*
X11696386Y-14199834D01*
X11696386Y-14199834D02*
X11677338Y-14190310D01*
X11886862Y-14199834D02*
X11867815Y-14190310D01*
X11867815Y-14190310D02*
X11858291Y-14171262D01*
X11858291Y-14171262D02*
X11858291Y-13999834D01*
X12048767Y-14199834D02*
X12048767Y-14095072D01*
X12048767Y-14095072D02*
X12039243Y-14076024D01*
X12039243Y-14076024D02*
X12020196Y-14066500D01*
X12020196Y-14066500D02*
X11982100Y-14066500D01*
X11982100Y-14066500D02*
X11963053Y-14076024D01*
X12048767Y-14190310D02*
X12029719Y-14199834D01*
X12029719Y-14199834D02*
X11982100Y-14199834D01*
X11982100Y-14199834D02*
X11963053Y-14190310D01*
X11963053Y-14190310D02*
X11953529Y-14171262D01*
X11953529Y-14171262D02*
X11953529Y-14152215D01*
X11953529Y-14152215D02*
X11963053Y-14133167D01*
X11963053Y-14133167D02*
X11982100Y-14123643D01*
X11982100Y-14123643D02*
X12029719Y-14123643D01*
X12029719Y-14123643D02*
X12048767Y-14114119D01*
X12115434Y-14066500D02*
X12191624Y-14066500D01*
X12144005Y-13999834D02*
X12144005Y-14171262D01*
X12144005Y-14171262D02*
X12153529Y-14190310D01*
X12153529Y-14190310D02*
X12172576Y-14199834D01*
X12172576Y-14199834D02*
X12191624Y-14199834D01*
X12334481Y-14190310D02*
X12315434Y-14199834D01*
X12315434Y-14199834D02*
X12277338Y-14199834D01*
X12277338Y-14199834D02*
X12258291Y-14190310D01*
X12258291Y-14190310D02*
X12248767Y-14171262D01*
X12248767Y-14171262D02*
X12248767Y-14095072D01*
X12248767Y-14095072D02*
X12258291Y-14076024D01*
X12258291Y-14076024D02*
X12277338Y-14066500D01*
X12277338Y-14066500D02*
X12315434Y-14066500D01*
X12315434Y-14066500D02*
X12334481Y-14076024D01*
X12334481Y-14076024D02*
X12344005Y-14095072D01*
X12344005Y-14095072D02*
X12344005Y-14114119D01*
X12344005Y-14114119D02*
X12248767Y-14133167D01*
X12515434Y-14199834D02*
X12515434Y-13999834D01*
X12515434Y-14190310D02*
X12496386Y-14199834D01*
X12496386Y-14199834D02*
X12458291Y-14199834D01*
X12458291Y-14199834D02*
X12439243Y-14190310D01*
X12439243Y-14190310D02*
X12429719Y-14180786D01*
X12429719Y-14180786D02*
X12420196Y-14161738D01*
X12420196Y-14161738D02*
X12420196Y-14104596D01*
X12420196Y-14104596D02*
X12429719Y-14085548D01*
X12429719Y-14085548D02*
X12439243Y-14076024D01*
X12439243Y-14076024D02*
X12458291Y-14066500D01*
X12458291Y-14066500D02*
X12496386Y-14066500D01*
X12496386Y-14066500D02*
X12515434Y-14076024D01*
X12591624Y-14276024D02*
X12601148Y-14266500D01*
X12601148Y-14266500D02*
X12620196Y-14237929D01*
X12620196Y-14237929D02*
X12629719Y-14218881D01*
X12629719Y-14218881D02*
X12639243Y-14190310D01*
X12639243Y-14190310D02*
X12648767Y-14142691D01*
X12648767Y-14142691D02*
X12648767Y-14104596D01*
X12648767Y-14104596D02*
X12639243Y-14056977D01*
X12639243Y-14056977D02*
X12629719Y-14028405D01*
X12629719Y-14028405D02*
X12620196Y-14009358D01*
X12620196Y-14009358D02*
X12601148Y-13980786D01*
X12601148Y-13980786D02*
X12591624Y-13971262D01*
X5835609Y-14372350D02*
G75*
G02*
X5635609Y-14372350I-100000J0D01*
G01*
X5635609Y-14372350D02*
G75*
G02*
X5835609Y-14372350I100000J0D01*
G01*
X6086862Y-14282881D02*
X6096385Y-14273358D01*
X6096385Y-14273358D02*
X6115433Y-14263834D01*
X6115433Y-14263834D02*
X6163052Y-14263834D01*
X6163052Y-14263834D02*
X6182100Y-14273358D01*
X6182100Y-14273358D02*
X6191624Y-14282881D01*
X6191624Y-14282881D02*
X6201147Y-14301929D01*
X6201147Y-14301929D02*
X6201147Y-14320977D01*
X6201147Y-14320977D02*
X6191624Y-14349548D01*
X6191624Y-14349548D02*
X6077338Y-14463834D01*
X6077338Y-14463834D02*
X6201147Y-14463834D01*
X6286862Y-14444786D02*
X6296385Y-14454310D01*
X6296385Y-14454310D02*
X6286862Y-14463834D01*
X6286862Y-14463834D02*
X6277338Y-14454310D01*
X6277338Y-14454310D02*
X6286862Y-14444786D01*
X6286862Y-14444786D02*
X6286862Y-14463834D01*
X6363052Y-14263834D02*
X6496385Y-14263834D01*
X6496385Y-14263834D02*
X6410671Y-14463834D01*
X6610671Y-14263834D02*
X6629719Y-14263834D01*
X6629719Y-14263834D02*
X6648766Y-14273358D01*
X6648766Y-14273358D02*
X6658290Y-14282881D01*
X6658290Y-14282881D02*
X6667814Y-14301929D01*
X6667814Y-14301929D02*
X6677338Y-14340024D01*
X6677338Y-14340024D02*
X6677338Y-14387643D01*
X6677338Y-14387643D02*
X6667814Y-14425738D01*
X6667814Y-14425738D02*
X6658290Y-14444786D01*
X6658290Y-14444786D02*
X6648766Y-14454310D01*
X6648766Y-14454310D02*
X6629719Y-14463834D01*
X6629719Y-14463834D02*
X6610671Y-14463834D01*
X6610671Y-14463834D02*
X6591624Y-14454310D01*
X6591624Y-14454310D02*
X6582100Y-14444786D01*
X6582100Y-14444786D02*
X6572576Y-14425738D01*
X6572576Y-14425738D02*
X6563052Y-14387643D01*
X6563052Y-14387643D02*
X6563052Y-14340024D01*
X6563052Y-14340024D02*
X6572576Y-14301929D01*
X6572576Y-14301929D02*
X6582100Y-14282881D01*
X6582100Y-14282881D02*
X6591624Y-14273358D01*
X6591624Y-14273358D02*
X6610671Y-14263834D01*
X6801147Y-14263834D02*
X6820195Y-14263834D01*
X6820195Y-14263834D02*
X6839243Y-14273358D01*
X6839243Y-14273358D02*
X6848766Y-14282881D01*
X6848766Y-14282881D02*
X6858290Y-14301929D01*
X6858290Y-14301929D02*
X6867814Y-14340024D01*
X6867814Y-14340024D02*
X6867814Y-14387643D01*
X6867814Y-14387643D02*
X6858290Y-14425738D01*
X6858290Y-14425738D02*
X6848766Y-14444786D01*
X6848766Y-14444786D02*
X6839243Y-14454310D01*
X6839243Y-14454310D02*
X6820195Y-14463834D01*
X6820195Y-14463834D02*
X6801147Y-14463834D01*
X6801147Y-14463834D02*
X6782100Y-14454310D01*
X6782100Y-14454310D02*
X6772576Y-14444786D01*
X6772576Y-14444786D02*
X6763052Y-14425738D01*
X6763052Y-14425738D02*
X6753528Y-14387643D01*
X6753528Y-14387643D02*
X6753528Y-14340024D01*
X6753528Y-14340024D02*
X6763052Y-14301929D01*
X6763052Y-14301929D02*
X6772576Y-14282881D01*
X6772576Y-14282881D02*
X6782100Y-14273358D01*
X6782100Y-14273358D02*
X6801147Y-14263834D01*
X6953528Y-14463834D02*
X6953528Y-14330500D01*
X6953528Y-14349548D02*
X6963052Y-14340024D01*
X6963052Y-14340024D02*
X6982100Y-14330500D01*
X6982100Y-14330500D02*
X7010671Y-14330500D01*
X7010671Y-14330500D02*
X7029719Y-14340024D01*
X7029719Y-14340024D02*
X7039243Y-14359072D01*
X7039243Y-14359072D02*
X7039243Y-14463834D01*
X7039243Y-14359072D02*
X7048766Y-14340024D01*
X7048766Y-14340024D02*
X7067814Y-14330500D01*
X7067814Y-14330500D02*
X7096385Y-14330500D01*
X7096385Y-14330500D02*
X7115433Y-14340024D01*
X7115433Y-14340024D02*
X7124957Y-14359072D01*
X7124957Y-14359072D02*
X7124957Y-14463834D01*
X7220195Y-14463834D02*
X7220195Y-14330500D01*
X7220195Y-14349548D02*
X7229719Y-14340024D01*
X7229719Y-14340024D02*
X7248766Y-14330500D01*
X7248766Y-14330500D02*
X7277338Y-14330500D01*
X7277338Y-14330500D02*
X7296386Y-14340024D01*
X7296386Y-14340024D02*
X7305909Y-14359072D01*
X7305909Y-14359072D02*
X7305909Y-14463834D01*
X7305909Y-14359072D02*
X7315433Y-14340024D01*
X7315433Y-14340024D02*
X7334481Y-14330500D01*
X7334481Y-14330500D02*
X7363052Y-14330500D01*
X7363052Y-14330500D02*
X7382100Y-14340024D01*
X7382100Y-14340024D02*
X7391624Y-14359072D01*
X7391624Y-14359072D02*
X7391624Y-14463834D01*
X7782100Y-14254310D02*
X7610671Y-14511453D01*
X8039243Y-14263834D02*
X8058290Y-14263834D01*
X8058290Y-14263834D02*
X8077338Y-14273358D01*
X8077338Y-14273358D02*
X8086862Y-14282881D01*
X8086862Y-14282881D02*
X8096386Y-14301929D01*
X8096386Y-14301929D02*
X8105909Y-14340024D01*
X8105909Y-14340024D02*
X8105909Y-14387643D01*
X8105909Y-14387643D02*
X8096386Y-14425738D01*
X8096386Y-14425738D02*
X8086862Y-14444786D01*
X8086862Y-14444786D02*
X8077338Y-14454310D01*
X8077338Y-14454310D02*
X8058290Y-14463834D01*
X8058290Y-14463834D02*
X8039243Y-14463834D01*
X8039243Y-14463834D02*
X8020195Y-14454310D01*
X8020195Y-14454310D02*
X8010671Y-14444786D01*
X8010671Y-14444786D02*
X8001148Y-14425738D01*
X8001148Y-14425738D02*
X7991624Y-14387643D01*
X7991624Y-14387643D02*
X7991624Y-14340024D01*
X7991624Y-14340024D02*
X8001148Y-14301929D01*
X8001148Y-14301929D02*
X8010671Y-14282881D01*
X8010671Y-14282881D02*
X8020195Y-14273358D01*
X8020195Y-14273358D02*
X8039243Y-14263834D01*
X8191624Y-14444786D02*
X8201148Y-14454310D01*
X8201148Y-14454310D02*
X8191624Y-14463834D01*
X8191624Y-14463834D02*
X8182100Y-14454310D01*
X8182100Y-14454310D02*
X8191624Y-14444786D01*
X8191624Y-14444786D02*
X8191624Y-14463834D01*
X8391624Y-14463834D02*
X8277338Y-14463834D01*
X8334481Y-14463834D02*
X8334481Y-14263834D01*
X8334481Y-14263834D02*
X8315433Y-14292405D01*
X8315433Y-14292405D02*
X8296386Y-14311453D01*
X8296386Y-14311453D02*
X8277338Y-14320977D01*
X8515433Y-14263834D02*
X8534481Y-14263834D01*
X8534481Y-14263834D02*
X8553529Y-14273358D01*
X8553529Y-14273358D02*
X8563052Y-14282881D01*
X8563052Y-14282881D02*
X8572576Y-14301929D01*
X8572576Y-14301929D02*
X8582100Y-14340024D01*
X8582100Y-14340024D02*
X8582100Y-14387643D01*
X8582100Y-14387643D02*
X8572576Y-14425738D01*
X8572576Y-14425738D02*
X8563052Y-14444786D01*
X8563052Y-14444786D02*
X8553529Y-14454310D01*
X8553529Y-14454310D02*
X8534481Y-14463834D01*
X8534481Y-14463834D02*
X8515433Y-14463834D01*
X8515433Y-14463834D02*
X8496386Y-14454310D01*
X8496386Y-14454310D02*
X8486862Y-14444786D01*
X8486862Y-14444786D02*
X8477338Y-14425738D01*
X8477338Y-14425738D02*
X8467814Y-14387643D01*
X8467814Y-14387643D02*
X8467814Y-14340024D01*
X8467814Y-14340024D02*
X8477338Y-14301929D01*
X8477338Y-14301929D02*
X8486862Y-14282881D01*
X8486862Y-14282881D02*
X8496386Y-14273358D01*
X8496386Y-14273358D02*
X8515433Y-14263834D01*
X8753529Y-14263834D02*
X8715433Y-14263834D01*
X8715433Y-14263834D02*
X8696386Y-14273358D01*
X8696386Y-14273358D02*
X8686862Y-14282881D01*
X8686862Y-14282881D02*
X8667814Y-14311453D01*
X8667814Y-14311453D02*
X8658291Y-14349548D01*
X8658291Y-14349548D02*
X8658291Y-14425738D01*
X8658291Y-14425738D02*
X8667814Y-14444786D01*
X8667814Y-14444786D02*
X8677338Y-14454310D01*
X8677338Y-14454310D02*
X8696386Y-14463834D01*
X8696386Y-14463834D02*
X8734481Y-14463834D01*
X8734481Y-14463834D02*
X8753529Y-14454310D01*
X8753529Y-14454310D02*
X8763052Y-14444786D01*
X8763052Y-14444786D02*
X8772576Y-14425738D01*
X8772576Y-14425738D02*
X8772576Y-14378119D01*
X8772576Y-14378119D02*
X8763052Y-14359072D01*
X8763052Y-14359072D02*
X8753529Y-14349548D01*
X8753529Y-14349548D02*
X8734481Y-14340024D01*
X8734481Y-14340024D02*
X8696386Y-14340024D01*
X8696386Y-14340024D02*
X8677338Y-14349548D01*
X8677338Y-14349548D02*
X8667814Y-14359072D01*
X8667814Y-14359072D02*
X8658291Y-14378119D01*
X8839243Y-14263834D02*
X8963052Y-14263834D01*
X8963052Y-14263834D02*
X8896386Y-14340024D01*
X8896386Y-14340024D02*
X8924957Y-14340024D01*
X8924957Y-14340024D02*
X8944005Y-14349548D01*
X8944005Y-14349548D02*
X8953529Y-14359072D01*
X8953529Y-14359072D02*
X8963052Y-14378119D01*
X8963052Y-14378119D02*
X8963052Y-14425738D01*
X8963052Y-14425738D02*
X8953529Y-14444786D01*
X8953529Y-14444786D02*
X8944005Y-14454310D01*
X8944005Y-14454310D02*
X8924957Y-14463834D01*
X8924957Y-14463834D02*
X8867814Y-14463834D01*
X8867814Y-14463834D02*
X8848767Y-14454310D01*
X8848767Y-14454310D02*
X8839243Y-14444786D01*
X9039243Y-14263834D02*
X9039243Y-14301929D01*
X9115433Y-14263834D02*
X9115433Y-14301929D01*
X9410672Y-14540024D02*
X9401148Y-14530500D01*
X9401148Y-14530500D02*
X9382100Y-14501929D01*
X9382100Y-14501929D02*
X9372576Y-14482881D01*
X9372576Y-14482881D02*
X9363053Y-14454310D01*
X9363053Y-14454310D02*
X9353529Y-14406691D01*
X9353529Y-14406691D02*
X9353529Y-14368596D01*
X9353529Y-14368596D02*
X9363053Y-14320977D01*
X9363053Y-14320977D02*
X9372576Y-14292405D01*
X9372576Y-14292405D02*
X9382100Y-14273358D01*
X9382100Y-14273358D02*
X9401148Y-14244786D01*
X9401148Y-14244786D02*
X9410672Y-14235262D01*
X9572576Y-14330500D02*
X9572576Y-14463834D01*
X9524957Y-14254310D02*
X9477338Y-14397167D01*
X9477338Y-14397167D02*
X9601148Y-14397167D01*
X9829719Y-14463834D02*
X9829719Y-14263834D01*
X9915434Y-14463834D02*
X9915434Y-14359072D01*
X9915434Y-14359072D02*
X9905910Y-14340024D01*
X9905910Y-14340024D02*
X9886862Y-14330500D01*
X9886862Y-14330500D02*
X9858291Y-14330500D01*
X9858291Y-14330500D02*
X9839243Y-14340024D01*
X9839243Y-14340024D02*
X9829719Y-14349548D01*
X10039243Y-14463834D02*
X10020195Y-14454310D01*
X10020195Y-14454310D02*
X10010672Y-14444786D01*
X10010672Y-14444786D02*
X10001148Y-14425738D01*
X10001148Y-14425738D02*
X10001148Y-14368596D01*
X10001148Y-14368596D02*
X10010672Y-14349548D01*
X10010672Y-14349548D02*
X10020195Y-14340024D01*
X10020195Y-14340024D02*
X10039243Y-14330500D01*
X10039243Y-14330500D02*
X10067815Y-14330500D01*
X10067815Y-14330500D02*
X10086862Y-14340024D01*
X10086862Y-14340024D02*
X10096386Y-14349548D01*
X10096386Y-14349548D02*
X10105910Y-14368596D01*
X10105910Y-14368596D02*
X10105910Y-14425738D01*
X10105910Y-14425738D02*
X10096386Y-14444786D01*
X10096386Y-14444786D02*
X10086862Y-14454310D01*
X10086862Y-14454310D02*
X10067815Y-14463834D01*
X10067815Y-14463834D02*
X10039243Y-14463834D01*
X10220195Y-14463834D02*
X10201148Y-14454310D01*
X10201148Y-14454310D02*
X10191624Y-14435262D01*
X10191624Y-14435262D02*
X10191624Y-14263834D01*
X10372576Y-14454310D02*
X10353529Y-14463834D01*
X10353529Y-14463834D02*
X10315434Y-14463834D01*
X10315434Y-14463834D02*
X10296386Y-14454310D01*
X10296386Y-14454310D02*
X10286862Y-14435262D01*
X10286862Y-14435262D02*
X10286862Y-14359072D01*
X10286862Y-14359072D02*
X10296386Y-14340024D01*
X10296386Y-14340024D02*
X10315434Y-14330500D01*
X10315434Y-14330500D02*
X10353529Y-14330500D01*
X10353529Y-14330500D02*
X10372576Y-14340024D01*
X10372576Y-14340024D02*
X10382100Y-14359072D01*
X10382100Y-14359072D02*
X10382100Y-14378119D01*
X10382100Y-14378119D02*
X10286862Y-14397167D01*
X10458291Y-14454310D02*
X10477338Y-14463834D01*
X10477338Y-14463834D02*
X10515434Y-14463834D01*
X10515434Y-14463834D02*
X10534481Y-14454310D01*
X10534481Y-14454310D02*
X10544005Y-14435262D01*
X10544005Y-14435262D02*
X10544005Y-14425738D01*
X10544005Y-14425738D02*
X10534481Y-14406691D01*
X10534481Y-14406691D02*
X10515434Y-14397167D01*
X10515434Y-14397167D02*
X10486862Y-14397167D01*
X10486862Y-14397167D02*
X10467815Y-14387643D01*
X10467815Y-14387643D02*
X10458291Y-14368596D01*
X10458291Y-14368596D02*
X10458291Y-14359072D01*
X10458291Y-14359072D02*
X10467815Y-14340024D01*
X10467815Y-14340024D02*
X10486862Y-14330500D01*
X10486862Y-14330500D02*
X10515434Y-14330500D01*
X10515434Y-14330500D02*
X10534481Y-14340024D01*
X10610672Y-14540024D02*
X10620196Y-14530500D01*
X10620196Y-14530500D02*
X10639243Y-14501929D01*
X10639243Y-14501929D02*
X10648767Y-14482881D01*
X10648767Y-14482881D02*
X10658291Y-14454310D01*
X10658291Y-14454310D02*
X10667815Y-14406691D01*
X10667815Y-14406691D02*
X10667815Y-14368596D01*
X10667815Y-14368596D02*
X10658291Y-14320977D01*
X10658291Y-14320977D02*
X10648767Y-14292405D01*
X10648767Y-14292405D02*
X10639243Y-14273358D01*
X10639243Y-14273358D02*
X10620196Y-14244786D01*
X10620196Y-14244786D02*
X10610672Y-14235262D01*
X10972577Y-14540024D02*
X10963053Y-14530500D01*
X10963053Y-14530500D02*
X10944005Y-14501929D01*
X10944005Y-14501929D02*
X10934481Y-14482881D01*
X10934481Y-14482881D02*
X10924957Y-14454310D01*
X10924957Y-14454310D02*
X10915434Y-14406691D01*
X10915434Y-14406691D02*
X10915434Y-14368596D01*
X10915434Y-14368596D02*
X10924957Y-14320977D01*
X10924957Y-14320977D02*
X10934481Y-14292405D01*
X10934481Y-14292405D02*
X10944005Y-14273358D01*
X10944005Y-14273358D02*
X10963053Y-14244786D01*
X10963053Y-14244786D02*
X10972577Y-14235262D01*
X11048767Y-14330500D02*
X11048767Y-14463834D01*
X11048767Y-14349548D02*
X11058291Y-14340024D01*
X11058291Y-14340024D02*
X11077338Y-14330500D01*
X11077338Y-14330500D02*
X11105910Y-14330500D01*
X11105910Y-14330500D02*
X11124957Y-14340024D01*
X11124957Y-14340024D02*
X11134481Y-14359072D01*
X11134481Y-14359072D02*
X11134481Y-14463834D01*
X11258291Y-14463834D02*
X11239243Y-14454310D01*
X11239243Y-14454310D02*
X11229719Y-14444786D01*
X11229719Y-14444786D02*
X11220195Y-14425738D01*
X11220195Y-14425738D02*
X11220195Y-14368596D01*
X11220195Y-14368596D02*
X11229719Y-14349548D01*
X11229719Y-14349548D02*
X11239243Y-14340024D01*
X11239243Y-14340024D02*
X11258291Y-14330500D01*
X11258291Y-14330500D02*
X11286862Y-14330500D01*
X11286862Y-14330500D02*
X11305910Y-14340024D01*
X11305910Y-14340024D02*
X11315434Y-14349548D01*
X11315434Y-14349548D02*
X11324957Y-14368596D01*
X11324957Y-14368596D02*
X11324957Y-14425738D01*
X11324957Y-14425738D02*
X11315434Y-14444786D01*
X11315434Y-14444786D02*
X11305910Y-14454310D01*
X11305910Y-14454310D02*
X11286862Y-14463834D01*
X11286862Y-14463834D02*
X11258291Y-14463834D01*
X11382100Y-14330500D02*
X11458291Y-14330500D01*
X11410672Y-14263834D02*
X11410672Y-14435262D01*
X11410672Y-14435262D02*
X11420195Y-14454310D01*
X11420195Y-14454310D02*
X11439243Y-14463834D01*
X11439243Y-14463834D02*
X11458291Y-14463834D01*
X11677338Y-14330500D02*
X11677338Y-14530500D01*
X11677338Y-14340024D02*
X11696386Y-14330500D01*
X11696386Y-14330500D02*
X11734481Y-14330500D01*
X11734481Y-14330500D02*
X11753529Y-14340024D01*
X11753529Y-14340024D02*
X11763053Y-14349548D01*
X11763053Y-14349548D02*
X11772576Y-14368596D01*
X11772576Y-14368596D02*
X11772576Y-14425738D01*
X11772576Y-14425738D02*
X11763053Y-14444786D01*
X11763053Y-14444786D02*
X11753529Y-14454310D01*
X11753529Y-14454310D02*
X11734481Y-14463834D01*
X11734481Y-14463834D02*
X11696386Y-14463834D01*
X11696386Y-14463834D02*
X11677338Y-14454310D01*
X11886862Y-14463834D02*
X11867815Y-14454310D01*
X11867815Y-14454310D02*
X11858291Y-14435262D01*
X11858291Y-14435262D02*
X11858291Y-14263834D01*
X12048767Y-14463834D02*
X12048767Y-14359072D01*
X12048767Y-14359072D02*
X12039243Y-14340024D01*
X12039243Y-14340024D02*
X12020196Y-14330500D01*
X12020196Y-14330500D02*
X11982100Y-14330500D01*
X11982100Y-14330500D02*
X11963053Y-14340024D01*
X12048767Y-14454310D02*
X12029719Y-14463834D01*
X12029719Y-14463834D02*
X11982100Y-14463834D01*
X11982100Y-14463834D02*
X11963053Y-14454310D01*
X11963053Y-14454310D02*
X11953529Y-14435262D01*
X11953529Y-14435262D02*
X11953529Y-14416215D01*
X11953529Y-14416215D02*
X11963053Y-14397167D01*
X11963053Y-14397167D02*
X11982100Y-14387643D01*
X11982100Y-14387643D02*
X12029719Y-14387643D01*
X12029719Y-14387643D02*
X12048767Y-14378119D01*
X12115434Y-14330500D02*
X12191624Y-14330500D01*
X12144005Y-14263834D02*
X12144005Y-14435262D01*
X12144005Y-14435262D02*
X12153529Y-14454310D01*
X12153529Y-14454310D02*
X12172576Y-14463834D01*
X12172576Y-14463834D02*
X12191624Y-14463834D01*
X12334481Y-14454310D02*
X12315434Y-14463834D01*
X12315434Y-14463834D02*
X12277338Y-14463834D01*
X12277338Y-14463834D02*
X12258291Y-14454310D01*
X12258291Y-14454310D02*
X12248767Y-14435262D01*
X12248767Y-14435262D02*
X12248767Y-14359072D01*
X12248767Y-14359072D02*
X12258291Y-14340024D01*
X12258291Y-14340024D02*
X12277338Y-14330500D01*
X12277338Y-14330500D02*
X12315434Y-14330500D01*
X12315434Y-14330500D02*
X12334481Y-14340024D01*
X12334481Y-14340024D02*
X12344005Y-14359072D01*
X12344005Y-14359072D02*
X12344005Y-14378119D01*
X12344005Y-14378119D02*
X12248767Y-14397167D01*
X12515434Y-14463834D02*
X12515434Y-14263834D01*
X12515434Y-14454310D02*
X12496386Y-14463834D01*
X12496386Y-14463834D02*
X12458291Y-14463834D01*
X12458291Y-14463834D02*
X12439243Y-14454310D01*
X12439243Y-14454310D02*
X12429719Y-14444786D01*
X12429719Y-14444786D02*
X12420196Y-14425738D01*
X12420196Y-14425738D02*
X12420196Y-14368596D01*
X12420196Y-14368596D02*
X12429719Y-14349548D01*
X12429719Y-14349548D02*
X12439243Y-14340024D01*
X12439243Y-14340024D02*
X12458291Y-14330500D01*
X12458291Y-14330500D02*
X12496386Y-14330500D01*
X12496386Y-14330500D02*
X12515434Y-14340024D01*
X12591624Y-14540024D02*
X12601148Y-14530500D01*
X12601148Y-14530500D02*
X12620196Y-14501929D01*
X12620196Y-14501929D02*
X12629719Y-14482881D01*
X12629719Y-14482881D02*
X12639243Y-14454310D01*
X12639243Y-14454310D02*
X12648767Y-14406691D01*
X12648767Y-14406691D02*
X12648767Y-14368596D01*
X12648767Y-14368596D02*
X12639243Y-14320977D01*
X12639243Y-14320977D02*
X12629719Y-14292405D01*
X12629719Y-14292405D02*
X12620196Y-14273358D01*
X12620196Y-14273358D02*
X12601148Y-14244786D01*
X12601148Y-14244786D02*
X12591624Y-14235262D01*
M02*
