%TF.GenerationSoftware,KiCad,Pcbnew,9.0.2*%
%TF.CreationDate,2025-05-14T22:05:17+05:30*%
%TF.ProjectId,pico2-ice,7069636f-322d-4696-9365-2e6b69636164,REV2*%
%TF.SameCoordinates,Original*%
%TF.FileFunction,Paste,Top*%
%TF.FilePolarity,Positive*%
%FSLAX46Y46*%
G04 Gerber Fmt 4.6, Leading zero omitted, Abs format (unit mm)*
G04 Created by KiCad (PCBNEW 9.0.2) date 2025-05-14 22:05:17*
%MOMM*%
%LPD*%
G01*
G04 APERTURE LIST*
G04 Aperture macros list*
%AMRoundRect*
0 Rectangle with rounded corners*
0 $1 Rounding radius*
0 $2 $3 $4 $5 $6 $7 $8 $9 X,Y pos of 4 corners*
0 Add a 4 corners polygon primitive as box body*
4,1,4,$2,$3,$4,$5,$6,$7,$8,$9,$2,$3,0*
0 Add four circle primitives for the rounded corners*
1,1,$1+$1,$2,$3*
1,1,$1+$1,$4,$5*
1,1,$1+$1,$6,$7*
1,1,$1+$1,$8,$9*
0 Add four rect primitives between the rounded corners*
20,1,$1+$1,$2,$3,$4,$5,0*
20,1,$1+$1,$4,$5,$6,$7,0*
20,1,$1+$1,$6,$7,$8,$9,0*
20,1,$1+$1,$8,$9,$2,$3,0*%
%AMFreePoly0*
4,1,21,1.328536,0.903536,1.330000,0.900000,1.330000,-1.400000,1.328536,-1.403536,1.325000,-1.405000,0.075000,-1.405000,0.071464,-1.403536,0.070000,-1.400000,0.070000,-0.705000,-1.325000,-0.705000,-1.328536,-0.703536,-1.330000,-0.700000,-1.330000,0.400000,-1.328536,0.403536,-1.325000,0.405000,-0.630000,0.405000,-0.630000,0.900000,-0.628536,0.903536,-0.625000,0.905000,1.325000,0.905000,
1.328536,0.903536,1.328536,0.903536,$1*%
%AMFreePoly1*
4,1,21,0.628536,0.903536,0.630000,0.900000,0.630000,0.405000,1.325000,0.405000,1.328536,0.403536,1.330000,0.400000,1.330000,-0.700000,1.328536,-0.703536,1.325000,-0.705000,-0.070000,-0.705000,-0.070000,-1.400000,-0.071464,-1.403536,-0.075000,-1.405000,-1.325000,-1.405000,-1.328536,-1.403536,-1.330000,-1.400000,-1.330000,0.900000,-1.328536,0.903536,-1.325000,0.905000,0.625000,0.905000,
0.628536,0.903536,0.628536,0.903536,$1*%
G04 Aperture macros list end*
%ADD10RoundRect,0.135000X0.135000X0.185000X-0.135000X0.185000X-0.135000X-0.185000X0.135000X-0.185000X0*%
%ADD11RoundRect,0.140000X0.140000X0.170000X-0.140000X0.170000X-0.140000X-0.170000X0.140000X-0.170000X0*%
%ADD12R,0.430000X0.430000*%
%ADD13RoundRect,0.135000X-0.135000X-0.185000X0.135000X-0.185000X0.135000X0.185000X-0.135000X0.185000X0*%
%ADD14RoundRect,0.140000X-0.170000X0.140000X-0.170000X-0.140000X0.170000X-0.140000X0.170000X0.140000X0*%
%ADD15RoundRect,0.140000X-0.140000X-0.170000X0.140000X-0.170000X0.140000X0.170000X-0.140000X0.170000X0*%
%ADD16RoundRect,0.218750X0.218750X0.256250X-0.218750X0.256250X-0.218750X-0.256250X0.218750X-0.256250X0*%
%ADD17R,1.400000X0.950000*%
%ADD18R,0.750000X1.150000*%
%ADD19RoundRect,0.112500X0.112500X-0.187500X0.112500X0.187500X-0.112500X0.187500X-0.112500X-0.187500X0*%
%ADD20R,0.600000X1.450000*%
%ADD21R,0.300000X1.450000*%
%ADD22RoundRect,0.150000X-0.150000X-0.625000X0.150000X-0.625000X0.150000X0.625000X-0.150000X0.625000X0*%
%ADD23RoundRect,0.250000X-0.350000X-0.650000X0.350000X-0.650000X0.350000X0.650000X-0.350000X0.650000X0*%
%ADD24RoundRect,0.150000X-0.150000X0.825000X-0.150000X-0.825000X0.150000X-0.825000X0.150000X0.825000X0*%
%ADD25RoundRect,0.135000X-0.185000X0.135000X-0.185000X-0.135000X0.185000X-0.135000X0.185000X0.135000X0*%
%ADD26R,1.700000X0.700000*%
%ADD27R,0.300000X1.400000*%
%ADD28FreePoly0,180.000000*%
%ADD29FreePoly1,180.000000*%
%ADD30R,0.950000X1.400000*%
%ADD31R,1.150000X0.750000*%
%ADD32R,0.320000X0.500000*%
%ADD33R,0.500000X0.500000*%
%ADD34R,0.220000X0.780000*%
%ADD35R,0.780000X0.220000*%
%ADD36R,1.200000X1.400000*%
%ADD37RoundRect,0.135000X0.185000X-0.135000X0.185000X0.135000X-0.185000X0.135000X-0.185000X-0.135000X0*%
%TA.AperFunction,Profile*%
%ADD38C,0.127000*%
%TD*%
G04 APERTURE END LIST*
D10*
X72427718Y-77655871D03*
X71407718Y-77655871D03*
D11*
X68282918Y-113165071D03*
X67322918Y-113165071D03*
D12*
X75731718Y-73537000D03*
X74961718Y-73537000D03*
X74961718Y-72767000D03*
X75731718Y-72767000D03*
D13*
X76868718Y-115832071D03*
X77888718Y-115832071D03*
X78138718Y-74684071D03*
X79158718Y-74684071D03*
D14*
X72882918Y-113243871D03*
X72882918Y-114203871D03*
D15*
X79159318Y-106713471D03*
X80119318Y-106713471D03*
D16*
X79360018Y-73185471D03*
X77785018Y-73185471D03*
D11*
X75953718Y-113266671D03*
X74993718Y-113266671D03*
D10*
X75983718Y-115171671D03*
X74963718Y-115171671D03*
D11*
X65742918Y-107272271D03*
X64782918Y-107272271D03*
D17*
X66888518Y-72507471D03*
X66888518Y-76657471D03*
D18*
X68413518Y-73007471D03*
X65363518Y-73007471D03*
X68413518Y-76157471D03*
X65363518Y-76157471D03*
D19*
X79791718Y-119472871D03*
X79791718Y-117372871D03*
D11*
X66250918Y-78646471D03*
X65290918Y-78646471D03*
X75953718Y-114206471D03*
X74993718Y-114206471D03*
D15*
X78956118Y-111336271D03*
X79916118Y-111336271D03*
D11*
X76115718Y-86389071D03*
X75155718Y-86389071D03*
D15*
X79159318Y-104478271D03*
X80119318Y-104478271D03*
X76822518Y-113266671D03*
X77782518Y-113266671D03*
D10*
X72427718Y-75725471D03*
X71407718Y-75725471D03*
D20*
X69140000Y-126892000D03*
X69940000Y-126892000D03*
D21*
X71140000Y-126892000D03*
X72140000Y-126892000D03*
X72640000Y-126892000D03*
X73640000Y-126892000D03*
D20*
X74840000Y-126892000D03*
X75640000Y-126892000D03*
X75640000Y-126892000D03*
X74840000Y-126892000D03*
D21*
X74140000Y-126892000D03*
X73140000Y-126892000D03*
X71640000Y-126892000D03*
X70640000Y-126892000D03*
D20*
X69940000Y-126892000D03*
X69140000Y-126892000D03*
D15*
X77914718Y-124214071D03*
X78874718Y-124214071D03*
D22*
X66752118Y-117919071D03*
X67752118Y-117919071D03*
X68752118Y-117919071D03*
D23*
X65452118Y-115394071D03*
X70052118Y-115394071D03*
D15*
X64579718Y-100211071D03*
X65539718Y-100211071D03*
D10*
X76390118Y-100058671D03*
X75370118Y-100058671D03*
D11*
X75801318Y-74887271D03*
X74841318Y-74887271D03*
D24*
X77886718Y-117548071D03*
X76616718Y-117548071D03*
X75346718Y-117548071D03*
X74076718Y-117548071D03*
X74076718Y-122498071D03*
X75346718Y-122498071D03*
X76616718Y-122498071D03*
X77886718Y-122498071D03*
D12*
X72302718Y-73537000D03*
X71532718Y-73537000D03*
X71532718Y-72767000D03*
X72302718Y-72767000D03*
D25*
X77355718Y-97479072D03*
X77355718Y-98499070D03*
D26*
X79664718Y-108680471D03*
X79664718Y-110080471D03*
D27*
X77655718Y-94089071D03*
X77155718Y-94089071D03*
X76655718Y-94089071D03*
X76155718Y-94089071D03*
X75655718Y-94089071D03*
X75155718Y-94089071D03*
X74655718Y-94089071D03*
X74155718Y-94089071D03*
X73655718Y-94089071D03*
X73155718Y-94089071D03*
X72655718Y-94089071D03*
X72155718Y-94089071D03*
X71655718Y-94089071D03*
X71155718Y-94089071D03*
X70655718Y-94089071D03*
X70155718Y-94089071D03*
X69655718Y-94089071D03*
X69155718Y-94089071D03*
X68655718Y-94089071D03*
X68155718Y-94089071D03*
X67655718Y-94089071D03*
X67155718Y-94089071D03*
D28*
X79430718Y-93089071D03*
D29*
X65380718Y-93089071D03*
D30*
X69700118Y-122182071D03*
X65550118Y-122182071D03*
D31*
X69200118Y-123707071D03*
X69200118Y-120657071D03*
X66050118Y-123707071D03*
X66050118Y-120657071D03*
D10*
X72427718Y-76690671D03*
X71407718Y-76690671D03*
D32*
X67510118Y-79578271D03*
X68010118Y-79578271D03*
X68510118Y-79578271D03*
X69010118Y-79578271D03*
X69010118Y-78578271D03*
X68510118Y-78578271D03*
X68010118Y-78578271D03*
X67510118Y-78578271D03*
D13*
X65258918Y-79611671D03*
X66278918Y-79611671D03*
D33*
X73665000Y-105405000D03*
X72815000Y-105405000D03*
X71965000Y-105405000D03*
X71115000Y-105405000D03*
X73665000Y-106255000D03*
X72815000Y-106255000D03*
X71965000Y-106255000D03*
X71115000Y-106255000D03*
X73665000Y-107105000D03*
X72815000Y-107105000D03*
X71965000Y-107105000D03*
X71115000Y-107105000D03*
X73665000Y-107955000D03*
X72815000Y-107955000D03*
X71965000Y-107955000D03*
X71115000Y-107955000D03*
D34*
X76190000Y-101783500D03*
X75790000Y-101783500D03*
X75390000Y-101783500D03*
X74990000Y-101783500D03*
X74590000Y-101783500D03*
X74190000Y-101783500D03*
X73790000Y-101783500D03*
X73390000Y-101783500D03*
X72990000Y-101783500D03*
X72590000Y-101783500D03*
X72190000Y-101783500D03*
X71790000Y-101783500D03*
X71390000Y-101783500D03*
X70990000Y-101783500D03*
X70590000Y-101783500D03*
X70190000Y-101783500D03*
X69790000Y-101783500D03*
X69390000Y-101783500D03*
X68990000Y-101783500D03*
X68590000Y-101783500D03*
D35*
X67493500Y-102880000D03*
X67493500Y-103280000D03*
X67493500Y-103680000D03*
X67493500Y-104080000D03*
X67493500Y-104480000D03*
X67493500Y-104880000D03*
X67493500Y-105280000D03*
X67493500Y-105680000D03*
X67493500Y-106080000D03*
X67493500Y-106480000D03*
X67493500Y-106880000D03*
X67493500Y-107280000D03*
X67493500Y-107680000D03*
X67493500Y-108080000D03*
X67493500Y-108480000D03*
X67493500Y-108880000D03*
X67493500Y-109280000D03*
X67493500Y-109680000D03*
X67493500Y-110080000D03*
X67493500Y-110480000D03*
D34*
X68590000Y-111576500D03*
X68990000Y-111576500D03*
X69390000Y-111576500D03*
X69790000Y-111576500D03*
X70190000Y-111576500D03*
X70590000Y-111576500D03*
X70990000Y-111576500D03*
X71390000Y-111576500D03*
X71790000Y-111576500D03*
X72190000Y-111576500D03*
X72590000Y-111576500D03*
X72990000Y-111576500D03*
X73390000Y-111576500D03*
X73790000Y-111576500D03*
X74190000Y-111576500D03*
X74590000Y-111576500D03*
X74990000Y-111576500D03*
X75390000Y-111576500D03*
X75790000Y-111576500D03*
X76190000Y-111576500D03*
D35*
X77286500Y-110480000D03*
X77286500Y-110080000D03*
X77286500Y-109680000D03*
X77286500Y-109280000D03*
X77286500Y-108880000D03*
X77286500Y-108480000D03*
X77286500Y-108080000D03*
X77286500Y-107680000D03*
X77286500Y-107280000D03*
X77286500Y-106880000D03*
X77286500Y-106480000D03*
X77286500Y-106080000D03*
X77286500Y-105680000D03*
X77286500Y-105280000D03*
X77286500Y-104880000D03*
X77286500Y-104480000D03*
X77286500Y-104080000D03*
X77286500Y-103680000D03*
X77286500Y-103280000D03*
X77286500Y-102880000D03*
D36*
X66671718Y-98644071D03*
X66671718Y-96444071D03*
X64971718Y-96444071D03*
X64971718Y-98644071D03*
D14*
X71943118Y-113243871D03*
X71943118Y-114203871D03*
D15*
X66484718Y-100211071D03*
X67444718Y-100211071D03*
D13*
X78951518Y-112326871D03*
X79971518Y-112326871D03*
D10*
X65569718Y-101227071D03*
X64549718Y-101227071D03*
D37*
X78455718Y-97099070D03*
X78455718Y-96079072D03*
D11*
X80119318Y-107653271D03*
X79159318Y-107653271D03*
X72397718Y-74785671D03*
X71437718Y-74785671D03*
D38*
X82550000Y-134620000D02*
X62230000Y-134620000D01*
X86360000Y-74930000D02*
X86360000Y-130810000D01*
X62230000Y-71120000D02*
X82550000Y-71120000D01*
X58420000Y-130810000D02*
X58420000Y-74930000D01*
X62230000Y-134620000D02*
G75*
G02*
X58420000Y-130810000I109500J3919500D01*
G01*
X58420000Y-74930000D02*
G75*
G02*
X62230000Y-71120000I3754300J55700D01*
G01*
X82550000Y-71120000D02*
G75*
G02*
X86360000Y-74930000I55700J-3754300D01*
G01*
X86360000Y-130810000D02*
G75*
G02*
X82550000Y-134620000I-3919500J109500D01*
G01*
M02*
