M48
; DRILL file {KiCad 9.0.2} date 2025-05-18T09:18:36-0700
; FORMAT={-:-/ absolute / metric / decimal}
; #@! TF.CreationDate,2025-05-18T09:18:36-07:00
; #@! TF.GenerationSoftware,Kicad,Pcbnew,9.0.2
; #@! TF.FileFunction,Plated,1,4,PTH
FMAT,2
METRIC
; #@! TA.AperFunction,Plated,PTH,ViaDrill
T1C0.254
; #@! TA.AperFunction,Plated,PTH,ComponentDrill
T2C0.254
; #@! TA.AperFunction,Plated,PTH,ComponentDrill
T3C0.600
; #@! TA.AperFunction,Plated,PTH,ComponentDrill
T4C1.000
%
G90
G05
T1
X59.726Y-77.656
X60.945Y-129.675
X62.774Y-130.894
X63.256Y-72.289
X63.409Y-84.082
X63.434Y-83.447
X63.456Y-124.689
X63.46Y-85.377
X63.637Y-80.475
X63.815Y-77.427
X63.993Y-88.552
X64.095Y-87.536
X64.171Y-86.216
X64.267Y-84.867
X64.323Y-121.826
X64.603Y-79.612
X64.679Y-117.585
X64.679Y-119.007
X64.824Y-109.932
X64.831Y-110.625
X64.856Y-112.889
X64.856Y-113.889
X65.136Y-118.296
X65.568Y-117.585
X65.568Y-119.007
X65.695Y-129.091
X65.923Y-81.923
X66.05Y-118.296
X66.156Y-112.689
X66.177Y-109.38
X66.177Y-110.066
X66.228Y-110.727
X66.254Y-85.022
X66.279Y-80.374
X66.381Y-107.28
X66.456Y-121.689
X66.508Y-86.774
X66.584Y-101.71
X66.609Y-102.522
X66.609Y-104.707
X66.635Y-103.691
X66.635Y-105.672
X66.66Y-108.898
X66.736Y-91.169
X66.869Y-111.774
X66.939Y-88.705
X66.965Y-74.354
X67.041Y-132.774
X67.092Y-123.96
X67.117Y-77.834
X67.143Y-95.233
X67.158Y-91.643
X67.168Y-92.312
X67.256Y-100.897
X67.256Y-125.689
X67.574Y-88.425
X67.6Y-85.987
X67.727Y-120.683
X67.727Y-123.96
X67.746Y-84.037
X67.778Y-82.837
X68.006Y-84.999
X68.107Y-111.108
X68.184Y-77.326
X68.253Y-108.677
X68.26Y-88.502
X68.26Y-109.507
X68.336Y-103.742
X68.336Y-106.104
X68.413Y-85.962
X68.413Y-86.991
X68.413Y-112.352
X68.54Y-80.348
X68.54Y-104.986
X68.656Y-106.789
X68.835Y-96.268
X68.895Y-103.389
X68.917Y-81.723
X68.997Y-104.478
X69.019Y-105.989
X69.112Y-90.559
X69.124Y-112.454
X69.251Y-77.783
X69.479Y-80.348
X69.53Y-109.177
X69.556Y-106.889
X69.656Y-108.289
X69.86Y-118.982
X69.86Y-125.586
X69.937Y-81.771
X69.956Y-107.489
X70.133Y-109.888
X70.299Y-103.489
X70.356Y-95.689
X70.456Y-118.689
X70.556Y-96.789
X70.597Y-84.438
X70.8Y-74.582
X70.8Y-92.589
X70.851Y-81.796
X70.856Y-102.599
X70.927Y-100.289
X70.927Y-108.949
X71.003Y-86.165
X71.022Y-95.663
X71.047Y-110.523
X71.13Y-128.329
X71.334Y-81.313
X71.384Y-84.996
X71.511Y-92.591
X71.638Y-95.512
X71.765Y-88.4
X71.867Y-122.766
X71.987Y-82.018
X71.994Y-110.523
X72.066Y-125.255
X72.07Y-86.038
X72.07Y-87.079
X72.096Y-114.892
X72.121Y-84.438
X72.121Y-112.454
X72.197Y-92.972
X72.375Y-81.466
X72.426Y-91.169
X72.578Y-102.649
X72.628Y-110.55
X72.714Y-125.255
X72.883Y-112.454
X72.934Y-91.6
X72.959Y-92.591
X73.086Y-73.541
X73.137Y-74.405
X73.137Y-128.126
X73.162Y-72.601
X73.162Y-95.537
X73.239Y-75.28
X73.416Y-82.126
X73.442Y-84.387
X73.442Y-116.365
X73.456Y-79.678
X73.467Y-86.063
X73.518Y-88.4
X73.62Y-110.676
X73.747Y-102.649
X73.848Y-119.871
X73.848Y-120.633
X73.922Y-82.511
X73.956Y-104.089
X74.051Y-128.151
X74.102Y-92.743
X74.273Y-114.555
X74.28Y-112.911
X74.422Y-79.678
X74.432Y-84.692
X74.456Y-98.589
X74.559Y-102.649
X74.636Y-95.41
X74.719Y-100.241
X74.788Y-103.665
X74.792Y-112.529
X74.839Y-75.624
X74.839Y-92.743
X74.94Y-91.092
X75.017Y-82.05
X75.042Y-87.089
X75.042Y-88.4
X75.256Y-98.689
X75.347Y-121.039
X75.423Y-102.649
X75.423Y-112.454
X75.575Y-120.175
X75.652Y-92.794
X75.677Y-106.688
X75.702Y-91.067
X76.134Y-95.41
X76.168Y-90.635
X76.19Y-107.956
X76.19Y-108.604
X76.236Y-125.636
X76.312Y-105.672
X76.337Y-104.885
X76.337Y-106.332
X76.363Y-72.009
X76.388Y-82.634
X76.439Y-109.304
X76.599Y-92.789
X76.617Y-124.062
X76.642Y-98.089
X76.972Y-85.491
X77.01Y-120.391
X77.015Y-88.11
X77.023Y-84.107
X77.023Y-87.46
X77.04Y-86.536
X77.226Y-100.059
X77.277Y-101.938
X77.306Y-96.639
X77.353Y-82.583
X77.379Y-83.523
X77.404Y-114.13
X77.404Y-114.968
X77.556Y-111.189
X77.557Y-133.231
X77.606Y-91.138
X77.607Y-87.003
X77.658Y-72.017
X77.76Y-112.022
X77.785Y-112.682
X77.826Y-90.389
X77.912Y-124.951
X77.938Y-83.066
X78.09Y-80.221
X78.09Y-102.294
X78.166Y-105.266
X78.166Y-106.078
X78.166Y-120.683
X78.2Y-94.502
X78.217Y-119.413
X78.268Y-82.507
X78.369Y-97.773
X78.395Y-87.562
X78.401Y-83.91
X78.42Y-107.78
X78.578Y-77.072
X78.687Y-94.931
X78.74Y-90.189
X78.776Y-101.989
X78.827Y-127.389
X78.856Y-91.189
X78.897Y-82.595
X79.081Y-84.107
X79.157Y-103.03
X79.157Y-103.767
X79.157Y-106.129
X79.193Y-77.227
X79.36Y-72.246
X79.411Y-97.874
X79.456Y-90.389
X79.589Y-122.665
X79.614Y-124.214
X79.639Y-101.405
X79.806Y-94.839
X79.817Y-102.497
X79.843Y-126.83
X79.893Y-128.862
X79.944Y-74.684
X80.122Y-103.818
X80.122Y-106.155
X80.137Y-91.089
X80.427Y-76.614
X80.452Y-78.113
X80.503Y-97.976
X80.63Y-112.581
X80.63Y-119.896
X80.655Y-111.717
X80.656Y-73.989
X80.706Y-117.204
X80.859Y-107.653
X81.29Y-114.968
X81.468Y-121.395
X81.468Y-122.08
X81.57Y-77.097
X81.976Y-133.485
X82.027Y-77.63
X82.332Y-78.392
X82.738Y-77.249
X83.322Y-78.392
X84.364Y-78.418
X84.973Y-75.979
X85.761Y-78.418
T2
X71.54Y-105.83
X71.54Y-106.68
X71.54Y-107.53
X72.39Y-105.83
X72.39Y-106.68
X72.39Y-107.53
X73.24Y-105.83
X73.24Y-106.68
X73.24Y-107.53
T4
X59.69Y-80.01
X59.69Y-82.55
X59.69Y-85.09
X59.69Y-87.63
X59.69Y-90.17
X59.69Y-92.71
X59.69Y-95.25
X59.69Y-97.79
X59.69Y-100.33
X59.69Y-102.87
X59.69Y-105.41
X59.69Y-107.95
X59.69Y-110.49
X59.69Y-113.03
X59.69Y-115.57
X59.69Y-118.11
X59.69Y-120.65
X59.69Y-123.19
X59.69Y-125.73
X59.69Y-128.27
X62.23Y-80.01
X62.23Y-82.55
X62.23Y-85.09
X62.23Y-87.63
X62.23Y-90.17
X62.23Y-92.71
X62.23Y-95.25
X62.23Y-97.79
X62.23Y-100.33
X62.23Y-102.87
X62.23Y-105.41
X62.23Y-107.95
X62.23Y-110.49
X62.23Y-113.03
X62.23Y-115.57
X62.23Y-118.11
X62.23Y-120.65
X62.23Y-123.19
X62.23Y-125.73
X62.23Y-128.27
X82.55Y-80.01
X82.55Y-82.55
X82.55Y-85.09
X82.55Y-87.63
X82.55Y-90.17
X82.55Y-92.71
X82.55Y-95.25
X82.55Y-97.79
X82.55Y-100.33
X82.55Y-102.87
X82.55Y-105.41
X82.55Y-107.95
X82.55Y-110.49
X82.55Y-113.03
X82.55Y-115.57
X82.55Y-118.11
X82.55Y-120.65
X82.55Y-123.19
X82.55Y-125.73
X82.55Y-128.27
X85.09Y-80.01
X85.09Y-82.55
X85.09Y-85.09
X85.09Y-87.63
X85.09Y-90.17
X85.09Y-92.71
X85.09Y-95.25
X85.09Y-97.79
X85.09Y-100.33
X85.09Y-102.87
X85.09Y-105.41
X85.09Y-107.95
X85.09Y-110.49
X85.09Y-113.03
X85.09Y-115.57
X85.09Y-118.11
X85.09Y-120.65
X85.09Y-123.19
X85.09Y-125.73
X85.09Y-128.27
T3
G00X68.07Y-127.257
M15
G01X68.07Y-128.357
M16
G05
G00X68.07Y-131.687
M15
G01X68.07Y-132.287
M16
G05
G00X76.71Y-127.257
M15
G01X76.71Y-128.357
M16
G05
G00X76.71Y-131.687
M15
G01X76.71Y-132.287
M16
G05
M30
